<?xml version="1.0" encoding="UTF-8"?>
<svg version="1.1" xmlns="http://www.w3.org/2000/svg" width="1286" height="354">
<path d="M0 0 C1.15508812 -0.01469078 1.15508812 -0.01469078 2.33351135 -0.02967834 C19.48146452 -0.20280946 35.98920224 -0.01731675 52.71484375 4.23828125 C53.56062988 4.44727051 54.40641602 4.65625977 55.27783203 4.87158203 C83.11433935 11.94327323 109.17738485 25.89999519 129.99609375 45.6953125 C131.9193823 47.49425049 133.82800579 49.18334526 135.859375 50.84765625 C139.61758087 53.99406117 142.60087862 57.46685707 145.71484375 61.23828125 C146.54113281 62.22699219 147.36742187 63.21570312 148.21875 64.234375 C171.43686375 92.5440332 187.56211162 129.53253273 187.953125 166.5234375 C187.96291885 167.29349625 187.97271271 168.06355499 187.98280334 168.85694885 C188.15593446 186.00490202 187.97044175 202.51263974 183.71484375 219.23828125 C183.50585449 220.08406738 183.29686523 220.92985352 183.08154297 221.80126953 C176.00985177 249.63777685 162.05312981 275.70082235 142.2578125 296.51953125 C140.45887451 298.4428198 138.76977974 300.35144329 137.10546875 302.3828125 C133.95906383 306.14101837 130.48626793 309.12431612 126.71484375 312.23828125 C125.23177734 313.47771484 125.23177734 313.47771484 123.71875 314.7421875 C95.4090918 337.96030125 58.42059227 354.08554912 21.4296875 354.4765625 C20.65962875 354.48635635 19.88957001 354.49615021 19.09617615 354.50624084 C1.94822298 354.67937196 -14.55951474 354.49387925 -31.28515625 350.23828125 C-32.13094238 350.02929199 -32.97672852 349.82030273 -33.84814453 349.60498047 C-61.68465185 342.53328927 -87.74769735 328.57656731 -108.56640625 308.78125 C-110.4896948 306.98231201 -112.39831829 305.29321724 -114.4296875 303.62890625 C-118.18789337 300.48250133 -121.17119112 297.00970543 -124.28515625 293.23828125 C-125.11144531 292.24957031 -125.93773437 291.26085937 -126.7890625 290.2421875 C-150.00717625 261.9325293 -166.13242412 224.94402977 -166.5234375 187.953125 C-166.53323135 187.18306625 -166.54302521 186.41300751 -166.55311584 185.61961365 C-166.72624696 168.47166048 -166.54075425 151.96392276 -162.28515625 135.23828125 C-162.07616699 134.39249512 -161.86717773 133.54670898 -161.65185547 132.67529297 C-154.58016427 104.83878565 -140.62344231 78.77574015 -120.828125 57.95703125 C-119.02918701 56.0337427 -117.34009224 54.12511921 -115.67578125 52.09375 C-112.52937633 48.33554413 -109.05658043 45.35224638 -105.28515625 42.23828125 C-104.29644531 41.41199219 -103.30773437 40.58570313 -102.2890625 39.734375 C-73.9794043 16.51626125 -36.99090477 0.39101338 0 0 Z " fill="#EB2B34" transform="translate(166.28515625,-0.23828125)"/>
<path d="M0 0 C68.51649077 0 68.51649077 0 83.48828125 14.29296875 C96.76832829 29.28878414 99.93064817 46.31072494 99.13916016 65.71972656 C98.27863687 79.82023091 92.43090994 95.37412486 81.75 105.03515625 C56.99071776 122.72538205 31.75056743 117 0 117 C0 78.39 0 39.78 0 0 Z M25 22 C25 46.09 25 70.18 25 95 C46.77201379 96.43277636 46.77201379 96.43277636 64.9375 87.8125 C73.16081896 78.50716539 74.39323545 66.30226735 73.8125 54.3125 C72.77938439 42.90126852 70.1875356 34.32415854 61.3125 26.6875 C49.26077235 20.54794063 39.37242381 22 25 22 Z " fill="#000000" transform="translate(896,117)"/>
<path d="M0 0 C0 11.88 0 23.76 0 36 C-3.63 36.66 -7.26 37.32 -11 38 C-22.26942738 41.94356109 -29.73624051 49.47248103 -35 60 C-35.34160156 60.66257813 -35.68320313 61.32515625 -36.03515625 62.0078125 C-40.07698901 71.59541579 -39.35905118 84.45279685 -35.9375 94.0625 C-30.62408634 105.9132035 -22.66504231 113.44321786 -10.6875 118.23828125 C-7.21375696 119.22284505 -3.58269435 119.55216321 0 120 C0 131.88 0 143.76 0 156 C-17.78597389 156 -32.55508978 150.85307204 -46 139 C-46.73863281 138.35546875 -47.47726563 137.7109375 -48.23828125 137.046875 C-62.74368465 123.5185195 -71.56761569 103.9228165 -72.3359375 84.1171875 C-72.67618424 60.84542025 -68.13075926 40.5885489 -52 23 C-51.37480469 22.29488281 -50.74960938 21.58976562 -50.10546875 20.86328125 C-36.89054632 6.73327254 -18.95360927 0 0 0 Z " fill="#FEFDFD" transform="translate(177,99)"/>
<path d="M0 0 C1.051875 0.721875 2.10375 1.44375 3.1875 2.1875 C11.33792957 10.33792957 17 21.37645044 17 33 C8.42 33 -0.16 33 -9 33 C-10.32 29.37 -11.64 25.74 -13 22 C-18.6569882 15.78840511 -24.63891971 13.41534098 -32.9375 12.625 C-40.85578555 13.01855296 -47.50478913 15.39325134 -53.24609375 20.92578125 C-61.58092532 30.78278697 -62.80068573 43.55600922 -62 56 C-60.85354353 65.77354145 -57.60592058 75.38764562 -50 82 C-42.86814839 87.06421396 -34.42013896 87.02225329 -26 86 C-19.85069641 84.1974804 -15.45856134 81.31361381 -11.9375 75.94140625 C-10.71016655 73.39980324 -9.89252973 70.6775892 -9 68 C-0.42 68 8.16 68 17 68 C15.48677173 80.10582619 10.28783212 90.83949533 1 99 C-12.66180328 109.1325041 -28.78332243 111.81345111 -45.359375 109.5390625 C-58.40440703 106.60565583 -70.86708791 100.04648381 -78.29296875 88.625 C-89.23440508 70.68221619 -91.28026997 50.08499744 -86.8125 29.6875 C-82.89253102 16.06978785 -75.13593565 4.28559021 -63.125 -3.5 C-61.44310614 -4.38548306 -59.73284973 -5.21892445 -58 -6 C-57.09507812 -6.40992187 -56.19015625 -6.81984375 -55.2578125 -7.2421875 C-36.88238328 -14.1628037 -15.91355886 -11.03494957 0 0 Z " fill="#000000" transform="translate(547,126)"/>
<path d="M0 0 C7.92 0 15.84 0 24 0 C24.33 13.86 24.66 27.72 25 42 C26.98 39.36 28.96 36.72 31 34 C33.37890625 32.16015625 33.37890625 32.16015625 35.5625 31.0625 C36.28566406 30.68222656 37.00882813 30.30195313 37.75390625 29.91015625 C45.74011268 26.67400651 55.43217481 27.03378558 63.51171875 29.765625 C71.38506476 33.6713979 76.84755501 39.91329328 80 48 C81.11509731 51.50012844 81.12062395 54.75804346 81.11352539 58.42089844 C81.11341209 60.37246857 81.11341209 60.37246857 81.11329651 62.36346436 C81.10819024 63.77876829 81.10297425 65.19407184 81.09765625 66.609375 C81.09579035 68.06097363 81.09436726 69.51257288 81.09336853 70.96417236 C81.08955688 74.77819569 81.07973815 78.59218073 81.06866455 82.40618896 C81.05842135 86.30073529 81.05386468 90.19528783 81.04882812 94.08984375 C81.03811465 101.72658195 81.02052882 109.36328072 81 117 C72.75 117 64.5 117 56 117 C55.94392578 110.93238281 55.94392578 110.93238281 55.88671875 104.7421875 C55.84858311 101.50651797 55.80751057 98.27091523 55.7644577 95.03530884 C55.7198891 91.62545026 55.68043541 88.21571193 55.65356445 84.80566406 C55.62245771 80.88841433 55.56767108 76.97166424 55.51171875 73.0546875 C55.50532883 71.83884979 55.4989389 70.62301208 55.49235535 69.37033081 C55.40540583 61.25391206 55.40540583 61.25391206 52 54 C48.03339182 50.40526134 44.38722628 49.69716048 39.05859375 49.78515625 C34.49023683 50.26192974 31.69882274 52.22562886 28.6875 55.5625 C26.18356225 59.17929897 25.86212944 61.08474777 25.79467773 65.45947266 C25.77473251 66.60050446 25.75478729 67.74153625 25.73423767 68.91714478 C25.70916893 70.77186905 25.70916893 70.77186905 25.68359375 72.6640625 C25.66281265 73.92640717 25.64203156 75.18875183 25.62062073 76.48934937 C25.56622074 79.84632045 25.51599764 83.20330189 25.46777344 86.56036377 C25.41754958 89.98561055 25.36192096 93.41076921 25.30664062 96.8359375 C25.19856168 103.55722431 25.09952984 110.27855933 25 117 C16.75 117 8.5 117 0 117 C0 78.39 0 39.78 0 0 Z " fill="#000000" transform="translate(1195,117)"/>
<path d="M0 0 C6.83295857 5.8666816 10.47265558 11.80791593 11.1914978 20.93460083 C11.27983514 24.80510654 11.27174833 28.66846303 11.2265625 32.5390625 C11.22095611 33.96109059 11.21669095 35.38312453 11.21369934 36.80516052 C11.20233244 40.51897633 11.17293747 44.23243119 11.1395874 47.94610596 C11.10870886 51.74722412 11.0951563 55.54840151 11.08007812 59.34960938 C11.0480582 66.78664069 10.99535902 74.22330158 10.93359375 81.66015625 C3.01359375 81.66015625 -4.90640625 81.66015625 -13.06640625 81.66015625 C-13.56140625 77.20515625 -13.56140625 77.20515625 -14.06640625 72.66015625 C-14.72640625 73.38203125 -15.38640625 74.10390625 -16.06640625 74.84765625 C-23.28813808 82.06938808 -30.11173753 83.955126 -40.13867188 83.97705078 C-48.62323486 83.81136862 -56.44572041 81.38839878 -62.62890625 75.3984375 C-68.73294953 68.01718951 -68.92136502 59.92220961 -68.06640625 50.66015625 C-67.09055789 44.29637915 -63.66263123 40.4241849 -58.7421875 36.4140625 C-49.88487396 30.60831976 -38.94341977 29.89364244 -28.66918945 28.69799805 C-22.12521497 28.0373013 -22.12521497 28.0373013 -16.06640625 25.66015625 C-14.79348861 22.08007539 -14.73794211 20.38277735 -16.31640625 16.91015625 C-18.04005394 14.44933774 -18.04005394 14.44933774 -21.06640625 12.66015625 C-26.62038848 11.97091747 -31.5375077 11.93594115 -36.62890625 14.34765625 C-39.48331947 16.84884055 -39.48331947 16.84884055 -42.06640625 21.66015625 C-49.65640625 21.00015625 -57.24640625 20.34015625 -65.06640625 19.66015625 C-63.7432499 11.72121813 -60.71181869 5.39629722 -54.31640625 0.28515625 C-39.00252372 -10.07078347 -15.13413735 -11.30200716 0 0 Z M-26.94140625 44.47265625 C-27.83988281 44.63830078 -28.73835938 44.80394531 -29.6640625 44.97460938 C-34.30637592 45.88318623 -38.2508707 46.69002368 -42.06640625 49.66015625 C-44.55799665 53.39754185 -44.5243391 55.23347208 -44.06640625 59.66015625 C-42.2707822 62.41344646 -41.01385703 64.18643086 -38.06640625 65.66015625 C-32.21164914 66.1534438 -26.87656344 66.51759913 -21.50390625 63.97265625 C-17.37634828 60.05676792 -14.182805 56.87741761 -13.96875 50.9609375 C-13.98035156 49.97480469 -13.99195313 48.98867187 -14.00390625 47.97265625 C-14.01292969 46.97878906 -14.02195312 45.98492187 -14.03125 44.9609375 C-14.04285156 44.20167969 -14.05445313 43.44242188 -14.06640625 42.66015625 C-18.46793009 42.66015625 -22.63166843 43.62971322 -26.94140625 44.47265625 Z " fill="#000000" transform="translate(1076.06640625,152.33984375)"/>
<path d="M0 0 C5.36536227 4.31751575 8.27681745 9.16322302 10.16015625 15.73828125 C10.40066528 18.96542358 10.40066528 18.96542358 10.38720703 22.47802734 C10.38749908 23.12263916 10.38779114 23.76725098 10.38809204 24.43139648 C10.3867094 26.54164548 10.37119936 28.65153217 10.35546875 30.76171875 C10.35173481 32.23287768 10.34888964 33.7040391 10.34689331 35.17520142 C10.33928681 39.03199223 10.31966425 42.88863046 10.29748535 46.74536133 C10.27696238 50.68699073 10.26787784 54.62864498 10.2578125 58.5703125 C10.23641526 66.29304609 10.20125776 74.01562278 10.16015625 81.73828125 C2.24015625 81.73828125 -5.67984375 81.73828125 -13.83984375 81.73828125 C-14.33484375 77.77828125 -14.33484375 77.77828125 -14.83984375 73.73828125 C-15.54947266 74.44404297 -15.54947266 74.44404297 -16.2734375 75.1640625 C-24.58035828 82.98519844 -31.77213961 84.33270573 -43.10546875 84.09375 C-50.4434407 83.39526104 -57.60454397 81.13222648 -62.83984375 75.73828125 C-68.24695346 68.9407719 -69.77010293 61.28503743 -68.83984375 52.73828125 C-67.38770807 45.88601599 -64.74790298 40.66307611 -59.0078125 36.3671875 C-51.00043743 31.36072108 -41.73833495 30.29198474 -32.5625 28.9609375 C-31.20475464 28.76395264 -31.20475464 28.76395264 -29.81958008 28.56298828 C-28.02004566 28.30772832 -26.21907462 28.0623721 -24.41674805 27.82763672 C-23.59215088 27.71436035 -22.76755371 27.60108398 -21.91796875 27.484375 C-21.1796582 27.38825928 -20.44134766 27.29214355 -19.68066406 27.19311523 C-17.60566852 26.84867283 -17.60566852 26.84867283 -15.83984375 24.73828125 C-15.50327667 20.86775979 -15.54385498 17.95266552 -17.83984375 14.73828125 C-22.51981471 11.8106761 -27.50650621 12.25132434 -32.83984375 12.73828125 C-37.12437124 14.1154508 -38.3792249 14.87136182 -40.49609375 18.85546875 C-40.93953125 19.80679688 -41.38296875 20.758125 -41.83984375 21.73828125 C-44.52758755 21.59618456 -47.21497677 21.44970895 -49.90234375 21.30078125 C-50.65451172 21.26146484 -51.40667969 21.22214844 -52.18164062 21.18164062 C-56.78683116 20.92247406 -61.28351099 20.45833915 -65.83984375 19.73828125 C-63.07814364 10.32339452 -59.07229992 3.38182858 -50.83984375 -2.26171875 C-34.93550536 -9.75142137 -14.95103415 -9.79718173 0 0 Z M-27.15234375 44.48828125 C-27.99474609 44.64554688 -28.83714844 44.8028125 -29.70507812 44.96484375 C-35.59085237 46.1613264 -40.40299088 47.66572763 -44.27734375 52.55078125 C-45.12965239 55.86531486 -44.61998472 58.43768485 -43.83984375 61.73828125 C-41.17658952 65.10154491 -38.39451792 65.7285023 -34.3125 66.51171875 C-28.73157952 67.02308271 -23.83248853 65.83642874 -19.40234375 62.36328125 C-16.12512786 59.00613326 -14.92983928 57.22860718 -14.64453125 52.50390625 C-14.66773438 51.34375 -14.6909375 50.18359375 -14.71484375 48.98828125 C-14.74191406 47.23257813 -14.74191406 47.23257813 -14.76953125 45.44140625 C-14.79273438 44.549375 -14.8159375 43.65734375 -14.83984375 42.73828125 C-19.06733309 42.73828125 -23.01892553 43.65223892 -27.15234375 44.48828125 Z " fill="#000000" transform="translate(644.83984375,152.26171875)"/>
<path d="M0 0 C0.70769531 0.25523437 1.41539062 0.51046875 2.14453125 0.7734375 C11.26264367 4.694046 17.2272104 12.18020513 21.02734375 21.12890625 C24.50568764 31.39630689 24 37.27563306 24 49 C4.53 49 -14.94 49 -35 49 C-32.96723056 58.71198384 -32.96723056 58.71198384 -26.9375 65.8125 C-21.7801786 68.97343892 -15.83817503 68.54378862 -10 68 C-4.95886394 66.38120587 -2.53642545 63.53847046 0 59 C3.62564187 59.10954408 7.25021431 59.2402496 10.875 59.375 C11.90753906 59.4059375 12.94007813 59.436875 14.00390625 59.46875 C14.99003906 59.50742188 15.97617187 59.54609375 16.9921875 59.5859375 C17.90339355 59.6173584 18.81459961 59.6487793 19.75341797 59.68115234 C22 60 22 60 24 62 C19.73599617 72.83558619 14.7553157 79.95991775 4 85 C-8.01262602 90.06096327 -23.03254132 89.61623202 -35.1640625 85.26171875 C-46.57071287 80.18685915 -53.2776937 72.44045525 -58 61 C-62.31624155 49.50493182 -61.36359298 33.26300981 -57 22 C-51.88413667 11.09890805 -44.26248782 3.36024215 -33 -1 C-22.21500255 -4.69163891 -10.59603303 -3.8258832 0 0 Z M-31.9375 22.8125 C-34.55074139 26.36303825 -34.55074139 26.36303825 -35 33 C-23.45 33 -11.9 33 0 33 C-0.88809955 24.61184079 -0.88809955 24.61184079 -6 19 C-15.2805837 13.74683942 -24.67466663 15.02791136 -31.9375 22.8125 Z " fill="#000000" transform="translate(791,148)"/>
<path d="M0 0 C5.19482611 4.11334096 8.71802587 9.23822007 10.1953125 15.73828125 C10.1953125 17.05828125 10.1953125 18.37828125 10.1953125 19.73828125 C5.12288019 20.54058754 0.14154539 21.03598946 -4.9921875 21.17578125 C-5.69021484 21.22154297 -6.38824219 21.26730469 -7.10742188 21.31445312 C-9.16015625 21.359375 -9.16015625 21.359375 -12.8046875 20.73828125 C-15.12109375 17.828125 -15.12109375 17.828125 -16.8046875 14.73828125 C-21.33038676 11.65257721 -25.46988906 10.93062252 -30.8046875 11.73828125 C-34.11686713 13.08768777 -36.2839648 14.21755855 -38.8046875 16.73828125 C-38.87417315 19.74121196 -38.87417315 19.74121196 -37.8046875 22.73828125 C-34.16734785 25.42377055 -30.67101033 26.43507101 -26.2890625 27.38671875 C-24.41154297 27.81210938 -24.41154297 27.81210938 -22.49609375 28.24609375 C-19.88560841 28.82360604 -17.27316725 29.39092255 -14.66015625 29.95703125 C-4.45733079 32.28013612 4.08818849 34.85519179 10.1953125 43.73828125 C13.12793217 49.914399 13.23964283 56.67977597 11.54296875 63.2734375 C8.12406646 71.82802992 2.09769759 76.68167306 -5.984375 80.6953125 C-12.95935254 83.2747017 -19.77592548 84.10304845 -27.1796875 84.05078125 C-28.00968262 84.0458667 -28.83967773 84.04095215 -29.69482422 84.03588867 C-40.44355436 83.83124091 -50.66679842 81.30298224 -58.8125 73.91796875 C-63.86005481 68.53250232 -66.8046875 63.28921831 -66.8046875 55.73828125 C-54.4296875 55.24328125 -54.4296875 55.24328125 -41.8046875 54.73828125 C-40.3196875 57.70828125 -40.3196875 57.70828125 -38.8046875 60.73828125 C-34.60864804 64.66360849 -30.56150299 65.03498257 -24.90234375 64.9609375 C-21.39606018 64.58876215 -18.90929433 63.41476894 -15.8046875 61.73828125 C-13.54326492 58.991336 -13.54326492 58.991336 -13.9296875 56.23828125 C-15.01952255 53.12446681 -16.02085246 52.46021083 -18.8046875 50.73828125 C-21.62258421 49.86707641 -21.62258421 49.86707641 -24.75 49.30859375 C-25.91015625 49.07011719 -27.0703125 48.83164063 -28.265625 48.5859375 C-30.68429219 48.10890826 -33.10355492 47.63488748 -35.5234375 47.1640625 C-46.75405926 44.84604234 -56.26100168 41.67781568 -62.8046875 31.73828125 C-65.71775643 24.77224684 -65.75695609 17.79052609 -63.3671875 10.67578125 C-60.39562503 3.99496073 -55.5504235 -0.47185875 -48.984375 -3.609375 C-33.09180222 -9.65028482 -14.51470626 -9.40422287 0 0 Z " fill="#000000" transform="translate(1167.8046875,152.26171875)"/>
<path d="M0 0 C8.25 0 16.5 0 25 0 C25 6.93 25 13.86 25 21 C30.28 21 35.56 21 41 21 C41 27.27 41 33.54 41 40 C35.72 40 30.44 40 25 40 C25.06876071 46.49655776 25.15667102 52.99246473 25.26245117 59.48852539 C25.29573508 61.69906406 25.32375612 63.90968843 25.34643555 66.12036133 C25.37991759 69.29545666 25.43223052 72.46976417 25.48828125 75.64453125 C25.49467117 76.63524124 25.5010611 77.62595123 25.50764465 78.64668274 C25.53733589 80.02777473 25.53733589 80.02777473 25.56762695 81.43676758 C25.58428154 82.65255241 25.58428154 82.65255241 25.60127258 83.89289856 C26.09594967 86.50705239 26.9087162 87.39842625 29 89 C31.50203648 89.57571496 31.50203648 89.57571496 34.1875 89.6875 C35.08855469 89.75324219 35.98960937 89.81898438 36.91796875 89.88671875 C37.60503906 89.92410156 38.29210937 89.96148437 39 90 C41.26475565 95.82365738 42.06548814 101.8560816 43 108 C34.18790902 112.70233054 23.76902668 111.70406735 14.51171875 108.90234375 C7.65596754 106.43939114 4.12969786 102.38408488 1 96 C0.03485331 92.86818284 -0.1214611 90.04197223 -0.11352539 86.77246094 C-0.11344986 85.73168396 -0.11337433 84.69090698 -0.11329651 83.61859131 C-0.10813522 82.50179993 -0.10297394 81.38500854 -0.09765625 80.234375 C-0.0962413 79.08584045 -0.09482635 77.93730591 -0.09336853 76.75396729 C-0.08777143 73.08595169 -0.07521944 69.41799715 -0.0625 65.75 C-0.05748463 63.26302171 -0.05292178 60.77604247 -0.04882812 58.2890625 C-0.03780295 52.19268481 -0.02054027 46.09635276 0 40 C-3.96 40 -7.92 40 -12 40 C-12 33.73 -12 27.46 -12 21 C-8.04 21 -4.08 21 0 21 C0 14.07 0 7.14 0 0 Z " fill="#000000" transform="translate(679,125)"/>
<path d="M0 0 C0.96164062 -0.00257813 1.92328125 -0.00515625 2.9140625 -0.0078125 C5.375 0.125 5.375 0.125 7.375 1.125 C7.375 8.385 7.375 15.645 7.375 23.125 C3.91 23.00125 3.91 23.00125 0.375 22.875 C-5.75179573 22.79654431 -10.71163056 23.2120331 -15.625 27.125 C-20.05245029 31.66597466 -20.7275135 35.27580976 -20.83032227 41.44433594 C-20.85026749 42.50513367 -20.87021271 43.5659314 -20.89076233 44.65887451 C-20.91583107 46.36687225 -20.91583107 46.36687225 -20.94140625 48.109375 C-20.96218735 49.28010559 -20.98296844 50.45083618 -21.00437927 51.65704346 C-21.06975628 55.39630269 -21.12870491 59.13563205 -21.1875 62.875 C-21.23069647 65.4101635 -21.27431112 67.94531991 -21.31835938 70.48046875 C-21.42621234 76.69524166 -21.52537455 82.91006793 -21.625 89.125 C-29.875 89.125 -38.125 89.125 -46.625 89.125 C-46.625 60.085 -46.625 31.045 -46.625 1.125 C-38.705 1.125 -30.785 1.125 -22.625 1.125 C-22.295 5.415 -21.965 9.705 -21.625 14.125 C-20.944375 12.908125 -20.26375 11.69125 -19.5625 10.4375 C-16.64705403 5.76616044 -13.06580348 2.27193449 -7.76171875 0.50390625 C-5.14497458 0.03987666 -2.65700795 -0.00716175 0 0 Z " fill="#000000" transform="translate(876.625,144.875)"/>
<path d="M0 0 C6.4218969 6.60537967 8.54965061 13.00913541 8.47265625 22.10546875 C7.85374869 28.9304083 4.71652335 34.21597051 0.1875 39.25 C-6.08351037 43.54559551 -12.47933586 46.25230407 -20.14453125 45.765625 C-27.35792052 44.37152927 -33.20658571 40.91851644 -37.62890625 35.04296875 C-42.43262838 27.76604315 -42.84095331 20.8890078 -41.8125 12.25 C-39.47295493 5.07539513 -34.48593896 -0.22691639 -27.90234375 -3.78125 C-17.93422051 -8.06179597 -8.92455248 -5.55305487 0 0 Z " fill="#FEFCFC" transform="translate(231.8125,215.75)"/>
<path d="M0 0 C6.4218969 6.60537967 8.54965061 13.00913541 8.47265625 22.10546875 C7.85408107 28.92674303 4.71927076 34.22181618 0.1875 39.25 C-6.63847769 43.86404064 -13.54924625 46.82654183 -21.8125 45.25 C-28.81292688 43.1775052 -34.9271732 39.39018787 -39.1328125 33.35546875 C-42.65328123 26.72073923 -42.78005293 19.5830327 -41.8125 12.25 C-39.45535682 5.07427208 -34.49506104 -0.22199158 -27.90234375 -3.78125 C-17.93422051 -8.06179597 -8.92455248 -5.55305487 0 0 Z " fill="#FEFCFC" transform="translate(231.8125,98.75)"/>
</svg>
