<?xml version="1.0" encoding="utf-8"?>
<!-- Generator: Adobe Illustrator 24.1.2, SVG Export Plug-In . SVG Version: 6.00 Build 0)  -->
<svg version="1.1" id="Layer_1" xmlns="http://www.w3.org/2000/svg" xmlns:xlink="http://www.w3.org/1999/xlink" x="0px"
	y="0px" viewBox="0 0 144 36" style="enable-background:new 0 0 144 36;" xml:space="preserve">
	<style type="text/css">
		.st0 {
			fill: #FF00B3;
		}
	</style>
	<g>
		<path class="st0"
			d="M14.03,4.27c-0.99,0-1.87,0.31-2.5,0.94c-0.63,0.63-0.99,1.56-0.99,2.75v15.26c0,1.57-0.16,2.61-0.49,3.21
		c-0.33,0.59-0.76,0.8-1.54,0.81c-0.73,0-1.28-0.33-1.88-0.71c-0.6-0.37-1.25-0.8-2.13-0.8c-1.08,0-1.9,0.41-2.43,1.04
		c-0.53,0.63-0.77,1.46-0.77,2.28c0,0.84,0.15,1.49,0.5,2.05c0.35,0.55,0.88,0.99,1.61,1.47l0,0l0,0c1.34,0.88,3.47,1.39,5.31,1.39
		c3.75,0.01,6-1.29,7.26-3.17c1.26-1.87,1.54-4.27,1.55-6.48V7.95c0-1.18-0.36-2.12-0.99-2.75C15.9,4.58,15.02,4.27,14.03,4.27z" />
		<path class="st0" d="M35.49,11.42c-0.98,0-1.84,0.39-2.43,1.02c-0.6,0.63-0.94,1.51-0.94,2.46v9.66c0,1.1-0.41,1.87-1.01,2.39
		c-0.59,0.51-1.39,0.77-2.15,0.76c-0.76,0-1.55-0.25-2.15-0.76c-0.59-0.51-1-1.28-1.01-2.39v-9.66c0-0.96-0.34-1.83-0.94-2.46
		c-0.59-0.63-1.45-1.02-2.43-1.02c-0.98,0-1.83,0.39-2.43,1.02c-0.6,0.63-0.94,1.51-0.94,2.46v10.53c0,2.93,1.15,5.09,2.97,6.49
		c1.82,1.4,4.28,2.04,6.91,2.04c2.63,0,5.09-0.64,6.91-2.04c1.82-1.4,2.98-3.56,2.97-6.49V14.91c0-0.96-0.34-1.83-0.94-2.46
		C37.32,11.81,36.47,11.42,35.49,11.42z" />
		<path class="st0" d="M58.23,27.54L58.23,27.54l-5.06-6.41L56.34,18l0,0c0.74-0.72,1.29-1.26,1.67-1.78
		c0.38-0.52,0.6-1.05,0.59-1.67c0-0.83-0.33-1.61-0.9-2.19c-0.58-0.58-1.4-0.94-2.38-0.94c-0.82,0-1.49,0.3-2.07,0.72
		c-0.58,0.42-1.08,0.97-1.62,1.5l-4.59,4.59V5.69c0-0.96-0.34-1.83-0.94-2.46c-0.59-0.63-1.45-1.02-2.43-1.02
		c-0.98,0-1.83,0.39-2.43,1.02c-0.6,0.63-0.94,1.51-0.94,2.46v24.4c0,0.96,0.34,1.83,0.94,2.46c0.59,0.63,1.45,1.02,2.43,1.02
		c0.98,0,1.83-0.39,2.43-1.02c0.6-0.63,0.94-1.51,0.94-2.46v-6.31l5.8,7.59l0,0c0.66,0.84,1.16,1.39,1.71,1.74
		c0.55,0.35,1.14,0.47,1.88,0.47c1.14,0,1.99-0.45,2.53-1.07c0.54-0.62,0.79-1.39,0.79-2.05c0-0.54-0.24-1.06-0.54-1.55
		C58.92,28.4,58.54,27.94,58.23,27.54z" />
		<path class="st0" d="M79.03,24.2c0.59-0.47,0.87-1.25,0.87-2.38c0-2.77-1.01-5.46-2.8-7.47c-1.79-2.01-4.38-3.33-7.52-3.33
		c-3.25,0-6.04,1.35-8,3.45c-1.96,2.11-3.11,4.97-3.11,8.02c0,3.18,1.06,6.05,2.99,8.12c1.93,2.08,4.72,3.35,8.12,3.35
		c2.38,0,4.85-0.5,6.74-1.4c0.95-0.45,1.75-1,2.33-1.64c0.58-0.65,0.93-1.4,0.93-2.23c0-0.86-0.33-1.6-0.85-2.12
		c-0.52-0.52-1.24-0.81-2-0.81c-0.84,0.01-1.66,0.52-2.68,1c-1.02,0.48-2.2,0.95-3.68,0.95c-1.94,0-3.11-0.52-3.79-1.16
		c-0.59-0.55-0.83-1.21-0.88-1.76h10.91C77.63,24.79,78.44,24.67,79.03,24.2z M66.7,18.06c0.66-0.72,1.6-1.26,2.72-1.26
		c1.12,0,2.06,0.54,2.72,1.26c0.57,0.62,0.91,1.36,0.99,1.94h-7.42C65.79,19.43,66.13,18.68,66.7,18.06z" />
		<path class="st0"
			d="M120.11,14.38c-1.88-2.08-4.57-3.35-7.78-3.35c-3.21,0-5.9,1.28-7.78,3.35c-1.55,1.71-2.53,3.96-2.83,6.48
		c-0.3-2.51-1.26-4.76-2.72-6.47c-1.76-2.07-4.23-3.36-7.02-3.36c-2.38-0.01-3.79,0.67-4.86,1.47v-6.8c0-0.96-0.34-1.83-0.94-2.46
		C85.6,2.59,84.75,2.2,83.76,2.2c-0.98,0-1.84,0.39-2.43,1.02c-0.6,0.63-0.94,1.51-0.94,2.46v24.4c0,0.96,0.34,1.83,0.94,2.46
		c0.59,0.63,1.45,1.02,2.43,1.02c1.45,0,2.43-0.88,2.96-1.79c1.37,1.54,3.02,2.19,5.27,2.19c2.79,0,5.26-1.28,7.02-3.36
		c1.45-1.71,2.42-3.96,2.72-6.47c0.3,2.52,1.28,4.77,2.83,6.48c1.88,2.08,4.57,3.35,7.78,3.35c3.21,0,5.9-1.27,7.78-3.35
		c1.88-2.08,2.94-4.94,2.94-8.12C123.05,19.32,121.99,16.45,120.11,14.38z M115.27,26.03c-0.68,0.89-1.65,1.44-2.94,1.44
		c-1.29,0-2.26-0.55-2.94-1.44c-0.68-0.89-1.04-2.15-1.04-3.54c0-1.38,0.37-2.64,1.04-3.54c0.68-0.89,1.65-1.44,2.94-1.44
		c1.29,0,2.26,0.55,2.94,1.44c0.68,0.89,1.04,2.15,1.04,3.54C116.32,23.88,115.95,25.14,115.27,26.03z M95.1,22.5
		c0,1.38-0.37,2.64-1.04,3.54c-0.68,0.89-1.65,1.44-2.94,1.44c-1.29,0-2.26-0.55-2.94-1.44c-0.68-0.89-1.04-2.15-1.04-3.54
		c0-1.38,0.37-2.64,1.04-3.54c0.68-0.89,1.65-1.44,2.94-1.44c1.29,0,2.26,0.55,2.94,1.44C94.73,19.86,95.1,21.11,95.1,22.5z" />
		<polygon class="st0" points="129.35,13.03 129.35,13.03 129.35,13.03 	" />
		<polygon class="st0" points="135.53,13.03 135.53,13.03 135.53,13.03 	" />
		<path class="st0" d="M141.66,27.37L141.66,27.37l-5.12-5.43l3.05-3.23l0,0c0.89-0.95,1.49-1.58,1.89-2.13
		c0.39-0.55,0.57-1.06,0.57-1.66c0-1.06-0.41-1.94-1.02-2.54c-0.61-0.6-1.42-0.94-2.23-0.94c-0.74,0-1.32,0.09-1.84,0.35
		c-0.52,0.26-0.96,0.67-1.43,1.26l-3.09,3.83l-3.09-3.84c-0.47-0.59-0.9-1-1.43-1.26c-0.52-0.26-1.11-0.35-1.84-0.35
		c-0.81,0-1.62,0.34-2.23,0.94c-0.61,0.6-1.02,1.48-1.02,2.54c0,0.61,0.18,1.11,0.57,1.66c0.39,0.55,0.99,1.18,1.89,2.13l0,0
		l3.05,3.23l-5.12,5.42l0,0c-0.51,0.58-1.3,1.42-1.3,2.84c0,1.02,0.4,1.88,1.03,2.46c0.63,0.59,1.5,0.91,2.41,0.91
		c0.71,0,1.28-0.21,1.74-0.53c0.47-0.32,0.84-0.73,1.2-1.15l4.13-4.81l4.13,4.81c0.36,0.42,0.73,0.84,1.2,1.15
		c0.47,0.32,1.04,0.53,1.74,0.53c0.92,0,1.78-0.32,2.41-0.91c0.63-0.58,1.04-1.44,1.03-2.46C142.96,28.79,142.17,27.96,141.66,27.37
		z" />
	</g>
</svg>