<svg width="280" height="42" viewBox="0 0 280 42" fill="none" xmlns="http://www.w3.org/2000/svg">
<g clip-path="url(#clip0_84_128)">
<path d="M15.9732 31.7211L9.48672 22.0625H6.1421V31.7211H2.59479V13.6239C2.59479 12.0988 2.59479 10.9804 1.98668 10.1671C1.68262 9.7604 1.07451 9.35372 0.567749 9.35372V9.04871H10.3989C12.4259 9.04871 14.2503 9.55706 15.5678 10.4721C16.8854 11.4888 17.6962 13.0138 17.6962 15.1489C17.6962 16.8773 17.0881 18.3007 16.1759 19.3174C15.3651 20.2324 14.2503 20.8424 13.1354 21.2491L20.1287 31.6195H15.9732V31.7211ZM9.48672 19.8257C12.8313 19.8257 14.0476 17.3857 14.0476 15.3523C14.0476 12.9122 12.4259 11.2854 9.79077 11.2854H6.1421V19.8257H9.48672Z" fill="#003168"/>
<path d="M31.5814 9.15033C36.1423 9.15033 38.1693 11.6921 38.1693 14.3355C38.1693 16.6739 36.7504 18.504 34.5206 19.3173C37.5612 20.2324 39.3855 21.9608 39.3855 25.1125C39.3855 26.7393 38.6761 28.4677 37.3585 29.6877C36.0409 30.9077 34.0139 31.7211 31.8855 31.7211H23.2706V13.6238C23.2706 12.0988 23.2706 10.9804 22.6625 10.167C22.3584 9.76035 21.7503 9.45534 21.2435 9.45534V9.15033H31.5814ZM30.5679 18.6056C32.7976 18.6056 34.622 17.0806 34.622 14.6405C34.622 12.5054 33.0003 11.1837 30.4666 11.1837H26.9192V18.6056H30.5679ZM30.5679 29.586C33.8112 29.586 35.6355 27.6543 35.6355 24.8075C35.6355 22.2658 33.7098 20.7407 31.176 20.7407H26.8179V29.586H30.5679Z" fill="#003168"/>
<path d="M59.0479 13.4205C58.1357 12.0988 55.9059 10.6754 53.6762 10.6754C50.1289 10.6754 46.5816 13.7255 46.5816 20.3341C46.5816 27.146 50.8383 30.1961 54.3857 30.1961C56.9195 30.1961 59.1492 28.7727 60.0614 27.9593V30.8061C59.2506 31.3144 57.2235 32.3312 53.6762 32.3312C47.8991 32.3312 42.6288 28.5694 42.6288 20.5374C42.6288 13.2172 47.291 8.54034 53.6762 8.54034C56.4127 8.54034 58.9465 9.55704 60.3654 10.3704L59.0479 13.4205Z" fill="#003168"/>
<path d="M76.6246 9.05884H84.5586C85.7637 9.05884 86.8685 9.15866 87.7723 9.55795C88.6762 9.85741 89.4797 10.2567 90.0822 10.8556C90.6848 11.4546 91.187 12.0535 91.4883 12.7522C91.7896 13.451 91.9904 14.2496 91.9904 15.148C91.9904 15.9465 91.89 16.6453 91.5887 17.2442C91.2874 17.8432 90.9861 18.3423 90.484 18.7415C90.0822 19.1408 89.6805 19.4403 89.2788 19.6399C88.8771 19.8396 88.5758 19.9394 88.2745 19.9394C88.6762 19.9394 89.1784 20.1391 89.781 20.3387C90.3835 20.5383 90.8857 20.8378 91.2874 21.3369C91.6891 21.836 92.1913 22.3351 92.593 23.0339C92.8943 23.7326 93.0952 24.5312 93.0952 25.6292C93.0952 26.9269 92.8943 27.9251 92.3921 28.7237C91.89 29.5223 91.3878 30.2211 90.5844 30.7202C89.781 31.2193 88.8771 31.6186 87.8728 31.8182C86.768 32.0178 85.6633 32.1177 84.4581 32.1177H76.6246V9.05884ZM84.3577 18.1426C84.7594 18.1426 85.2616 18.1426 85.6633 18.0428C86.065 17.943 86.4668 17.8432 86.768 17.5437C87.0693 17.2442 87.3706 17.0446 87.5715 16.6453C87.7723 16.3458 87.8728 15.8467 87.8728 15.3476C87.8728 14.8485 87.7723 14.3494 87.5715 14.0499C87.3706 13.7505 87.0693 13.451 86.768 13.2514C86.4668 13.0517 86.065 12.9519 85.6633 12.8521C85.2616 12.7522 84.8599 12.7522 84.3577 12.7522H80.8426V18.2424H84.3577V18.1426ZM84.5586 28.3244C84.9603 28.3244 85.4625 28.3244 85.9646 28.2246C86.4668 28.2246 86.9689 28.025 87.3706 27.8253C87.7723 27.6257 88.1741 27.3262 88.4754 26.8271C88.7767 26.4278 88.8771 25.8289 88.8771 25.1301C88.8771 24.4314 88.7767 23.8325 88.4754 23.4332C88.1741 23.0339 87.8728 22.6346 87.3706 22.435C86.8685 22.2353 86.4668 22.0357 85.9646 21.9358C85.4625 21.836 84.9603 21.836 84.5586 21.836H80.8426V28.4243H84.5586V28.3244Z" fill="#003168"/>
<path d="M113.735 32.9412C111.978 32.9412 110.427 32.6362 108.877 31.9245C107.326 31.3144 106.086 30.3994 104.948 29.281C103.811 28.1627 102.984 26.841 102.261 25.3159C101.641 23.7908 101.33 22.2658 101.33 20.5374C101.33 18.809 101.641 17.2839 102.261 15.7589C102.881 14.2338 103.811 12.9121 104.845 11.8954C105.982 10.777 107.223 9.96369 108.773 9.25199C110.324 8.64197 111.874 8.23529 113.632 8.23529C115.389 8.23529 116.94 8.5403 118.49 9.25199C120.041 9.86202 121.281 10.777 122.418 11.8954C123.555 13.0138 124.382 14.3355 125.106 15.7589C125.726 17.2839 126.036 18.809 126.036 20.5374C126.036 22.2658 125.726 23.7908 125.106 25.3159C124.486 26.841 123.555 28.1627 122.418 29.281C121.281 30.3994 120.041 31.3144 118.49 31.9245C117.146 32.5345 115.492 32.9412 113.735 32.9412ZM113.735 28.671C114.872 28.671 115.906 28.4677 116.836 27.9593C117.767 27.5526 118.594 26.9426 119.214 26.1293C119.834 25.4176 120.351 24.5025 120.764 23.4858C121.074 22.4691 121.281 21.4524 121.281 20.3341C121.281 19.2157 121.074 18.199 120.764 17.1823C120.454 16.1656 119.937 15.3522 119.214 14.5388C118.594 13.8272 117.767 13.2171 116.836 12.8105C115.906 12.4038 114.872 12.2004 113.735 12.2004C112.495 12.2004 111.461 12.4038 110.531 12.8105C109.6 13.2171 108.773 13.8272 108.153 14.5388C107.533 15.2505 107.016 16.1656 106.602 17.1823C106.292 18.199 106.086 19.2157 106.086 20.3341C106.086 21.4524 106.292 22.4691 106.602 23.4858C106.913 24.5025 107.429 25.3159 108.153 26.1293C108.773 26.841 109.6 27.5526 110.531 27.9593C111.564 28.5694 112.598 28.671 113.735 28.671Z" fill="#003168"/>
<path d="M135.095 9.05884H142.872C144.407 9.05884 145.635 9.26111 146.659 9.66565C147.682 10.0702 148.501 10.677 149.115 11.2838C149.729 11.9918 150.24 12.6997 150.547 13.5088C150.854 14.3179 150.957 15.0258 150.957 15.8349C150.957 17.3519 150.65 18.5655 149.933 19.678C149.319 20.7905 148.296 21.7007 146.966 22.4087L152.389 32.1177H147.375L142.668 23.0155H139.393V32.1177H135.095V9.05884ZM142.975 19.4758C144.1 19.4758 144.919 19.1724 145.635 18.4644C146.249 17.8576 146.556 17.0485 146.556 16.1383C146.556 15.1269 146.249 14.3179 145.533 13.7111C144.919 13.1042 143.998 12.8008 142.975 12.8008H139.393V19.4758H142.975Z" fill="#003168"/>
<path d="M163.095 9.05884V32.1177H178.742V28.1906H167.408V22.2497H175.131V18.3226H167.408V12.8852H177.94V9.05884H163.095Z" fill="#003168"/>
<path d="M196.675 9.05884L187.801 32.1177H192.391L194.431 26.2774H203.101L205.14 32.1177H210.036L201.163 9.05884H196.675ZM198.817 13.7914L201.877 22.7532H195.655L198.817 13.7914Z" fill="#003168"/>
<path d="M220.742 9.05884V32.1177H236.389V28.2913H225.127V9.05884H220.742Z" fill="#003168"/>
<path d="M251.213 9.05884H247.095V32.1177H251.213V9.05884Z" fill="#003168"/>
<path d="M264.649 25.7652C264.953 26.0727 265.256 26.4828 265.661 26.7903C266.065 27.0979 266.47 27.5079 266.975 27.8155C267.481 28.123 267.987 28.4306 268.594 28.6356C269.2 28.8406 269.908 28.9431 270.616 28.9431C272.032 28.9431 273.044 28.6356 273.65 28.0205C274.358 27.4054 274.662 26.5853 274.662 25.7652C274.662 25.2526 274.561 24.8426 274.358 24.4325C274.156 24.0225 273.853 23.7149 273.448 23.4074C273.044 23.0998 272.437 22.8948 271.729 22.5873C271.021 22.3822 270.212 22.1772 269.099 21.8697C267.987 21.6646 267.077 21.3571 266.369 20.8445C265.56 20.4345 264.953 19.8194 264.447 19.3068C263.941 18.6917 263.537 17.9741 263.335 17.2565C263.132 16.5389 262.93 15.7188 262.93 15.0012C262.93 14.0786 263.031 13.2585 263.436 12.4384C263.739 11.6183 264.245 10.9007 264.953 10.2856C265.661 9.67049 266.47 9.15792 267.481 8.74786C268.492 8.3378 269.706 8.23529 271.021 8.23529C272.234 8.23529 273.347 8.3378 274.156 8.64535C275.066 8.95289 275.774 9.26043 276.381 9.67049C276.988 10.0805 277.392 10.3881 277.797 10.7981C278.1 11.1057 278.303 11.4132 278.505 11.6183L275.572 14.3861C275.471 14.2836 275.269 14.1811 275.066 13.8736C274.864 13.6685 274.459 13.361 274.055 13.156C273.65 12.9509 273.246 12.7459 272.639 12.5409C272.032 12.3359 271.527 12.2333 270.819 12.2333C270.212 12.2333 269.706 12.3359 269.302 12.4384C268.897 12.5409 268.492 12.8484 268.189 13.0534C267.886 13.2585 267.683 13.566 267.582 13.8736C267.481 14.1811 267.38 14.4886 267.38 14.7962C267.38 15.2062 267.481 15.6163 267.582 15.9238C267.683 16.2314 267.987 16.5389 268.391 16.8465C268.695 17.154 269.2 17.359 269.908 17.5641C270.616 17.7691 271.324 17.9741 272.234 18.1792C273.145 18.3842 273.954 18.5892 274.864 18.9993C275.673 19.4093 276.381 19.8194 277.089 20.537C277.696 21.1521 278.201 21.8697 278.606 22.6898C279.011 23.5099 279.213 24.535 279.213 25.7652C279.213 26.7903 279.011 27.713 278.606 28.6356C278.201 29.5582 277.595 30.2758 276.887 30.8909C276.179 31.506 275.269 32.1211 274.257 32.4286C273.246 32.7361 272.133 32.9412 270.92 32.9412C269.706 32.9412 268.695 32.8387 267.785 32.5311C266.874 32.2236 265.964 31.916 265.256 31.4035C264.548 30.9934 263.84 30.4808 263.335 29.9683C262.829 29.4557 262.323 28.9431 261.919 28.4306L264.649 25.7652Z" fill="#003168"/>
</g>
<defs>
<clipPath id="clip0_84_128">
<rect width="280" height="41.1765" fill="white"/>
</clipPath>
</defs>
</svg>
