<svg id="translink_logo" xmlns="http://www.w3.org/2000/svg" width="141.558" height="63.915" viewBox="0 0 141.558 63.915">
  <path id="Path_1" data-name="Path 1" d="M77,94.676H87.47V99.26l-2.746-.131v9.652H79.742V99.129L77,99.26V94.676Z" transform="translate(-76.997 -61.805)" fill="#00355f"/>
  <path id="Path_2" data-name="Path 2" d="M83.428,94.676h6.018c3.092,0,5.709,1.348,5.709,4.9,0,2.133-.8,3.031-2.654,3.667v.112a3.566,3.566,0,0,1,.838.842l2.981,4.583H90.574l-2.182-4.527H88.3v4.527H83.428V94.676Zm4.873,6.25h.346c.819,0,1.635-.132,1.635-1.178,0-1.086-.745-1.216-1.6-1.216H88.3v2.395Z" transform="translate(-70.922 -61.806)" fill="#00355f"/>
  <path id="Path_3" data-name="Path 3" d="M95.516,108.782H90.242l4.764-14.106h5.511l4.891,14.106h-5.274l-.455-1.758H95.916l-.4,1.758Zm3.29-5.107-.581-2.489c-.144-.6-.235-1.214-.327-1.813h-.181l-.91,4.3Z" transform="translate(-64.486 -61.806)" fill="#00355f"/>
  <path id="Path_4" data-name="Path 4" d="M98.91,94.676h4.78l4.474,7.82h.146a21.712,21.712,0,0,1-.42-3.591V94.676h4.764v14.106H107.89l-4.381-7.408h-.146a17.016,17.016,0,0,1,.309,2.825v4.583H98.91V94.676Z" transform="translate(-56.299 -61.806)" fill="#00355f"/>
  <path id="Path_5" data-name="Path 5" d="M108.448,103.843l.255.206a5.149,5.149,0,0,0,3.109,1.29c.49,0,1.272-.206,1.272-.84s-.655-.692-1.108-.786l-1-.188c-1.945-.356-3.582-1.532-3.582-3.741,0-3.349,2.965-5.219,5.946-5.219a7.992,7.992,0,0,1,4.344,1.234l-1.344,3.611a5.093,5.093,0,0,0-2.892-1.066c-.436,0-1.073.168-1.073.748,0,.524.618.6,1,.692l1.126.262c2.11.486,3.636,1.646,3.636,4.041,0,3.367-2.981,5.031-5.944,5.031a12.076,12.076,0,0,1-5.274-1.29l1.528-3.985Z" transform="translate(-48.733 -61.918)" fill="#00355f"/>
  <path id="Path_6" data-name="Path 6" d="M124.4,94.676h4.982v9.578h4.182v4.527H124.4v-14.1Z" transform="translate(-32.226 -61.805)" fill="#00355f"/>
  <path id="Path_7" data-name="Path 7" d="M130.2,94.676h4.982v14.1H130.2v-14.1Z" transform="translate(-26.743 -61.805)" fill="#00355f"/>
  <path id="Path_8" data-name="Path 8" d="M134.284,94.676h4.784l4.472,7.82h.146a21.71,21.71,0,0,1-.418-3.591V94.676h4.762v14.106h-4.762l-4.383-7.408h-.146a16.808,16.808,0,0,1,.309,2.825v4.583h-4.764V94.676Z" transform="translate(-22.886 -61.806)" fill="#00355f"/>
  <path id="Path_9" data-name="Path 9" d="M142.679,94.676h4.854l-.109,6.118h.109a5.573,5.573,0,0,1,.692-1.59l2.4-4.527h5.435l-4.29,6.866,4.745,7.24h-5.781l-2.365-4.265a6.4,6.4,0,0,1-.836-1.646h-.109l.109,5.912h-4.854V94.676Z" transform="translate(-14.957 -61.806)" fill="#00355f"/>
  <path id="Path_10" data-name="Path 10" d="M142.955,84.379c.058-1.154-1.122-1.822-2.7-1.446-9.513,2.277-21.009,12.275-26,25.429v2.369c6.9-11.583,14.345-19.855,24.847-22.8.148,2.8,1.5,3.791,3.642,3.783,3.555-.016,7.652-2.311,9.139-2.973a1.834,1.834,0,0,0,2.853-.562c.383-.7,1.456-2.287-1.527-1.346a41.666,41.666,0,0,1-6.044,1.8c-4.756,1-4.3-2.531-4.214-4.253Z" transform="translate(-41.802 -73.661)" fill="#00355f"/>
  <path id="Path_11" data-name="Path 11" d="M110.175,132.3v-3.8c10.954-32.883,36.377-44.26,68-39.271v2.051c-34.265-.466-54.014,8.508-68,41.017Z" transform="translate(-45.658 -68.381)" fill="#00355f"/>
  <path id="Path_12" data-name="Path 12" d="M127.28,85.845c1.616.4,3.325-.952,3.817-3.033s-.42-4.091-2.036-4.5-3.327.952-3.817,3.031.42,4.093,2.036,4.5Z" transform="translate(-31.551 -78.245)" fill="#00355f"/>
</svg>
