<?xml version="1.0" encoding="UTF-8" standalone="no"?><!DOCTYPE svg PUBLIC "-//W3C//DTD SVG 1.1//EN" "http://www.w3.org/Graphics/SVG/1.1/DTD/svg11.dtd"><svg width="100%" height="100%" viewBox="0 0 1440 810" version="1.1" xmlns="http://www.w3.org/2000/svg" xmlns:xlink="http://www.w3.org/1999/xlink" xml:space="preserve" xmlns:serif="http://www.serif.com/" style="fill-rule:evenodd;clip-rule:evenodd;stroke-linejoin:round;stroke-miterlimit:1.41421;"><rect x="0" y="0" width="1440" height="810" style="fill:#fda4c2;"/><path d="M1425,795l-1410,0l0,-780l1410,0l0,780Zm-1401.04,-8.96l1392.08,0l0,-762.08l-1392.08,0l0,762.08Z" style="fill:#fff;"/><path d="M1338.67,746.745l0.461,11.934l11.065,9.194l0,-12.521l-11.526,-8.607Zm-1.752,10.271l-9.868,-7.922l-0.738,-12.13l10.237,7.923l0.369,12.129Zm-12.018,-10.027l-8.976,-7.025l-1.168,-11.739l9.283,7.108l0.861,11.656Zm-1.262,-14.721l-9.313,-6.944l-1.385,-13.011l9.776,6.75l0.922,13.205Zm26.558,-13.01l0,16.092l-12.357,-8.852l0,-15.113l12.357,7.873Zm-14.662,-9.145l0,15.077l-10.744,-7.497l-0.921,-14.867l11.665,7.287Zm-22.962,-0.881l9.683,6.864l-0.983,-14.997l-10.268,-6.344l1.568,14.477Z" style="fill:#08339a;fill-rule:nonzero;"/><path d="M1383.89,726.943l1.741,1.284l-9.283,7.106l-0.861,11.656l-1.948,-1.219l0.534,-8.805l-10.236,7.923l-0.369,12.128l-2.083,-1.658l0.331,-8.613l-11.528,8.608l-11.526,-8.608l0.332,8.613l-2.083,1.658l-0.371,-12.128l-10.236,-7.923l0.536,8.805l-1.949,1.219l-0.86,-11.656l-9.283,-7.106l1.741,-1.284l7.142,5.324l-0.923,-13.205l-9.775,-6.748l2.201,-1.259l7.112,5.042l-0.982,-14.999l12.536,-6.342l-7.242,-4.117l-0.087,-2.745l10.267,5.672l11.14,-5.672l-9.932,-5.286l2.42,1.285l0,-2.781l9.822,5.738l11.57,-5.738l-0.405,13.644l-11.357,5.633l-1.811,-0.888l0,1.787l-1.621,0.804l-10.06,-5.614l-12.644,6.347l0.922,14.869l10.743,7.495l0,-15.077l12.353,-7.287l0,2.643l-10.047,5.916l0,12.374l-4.519,2.935l2.26,1.761l0,2.789l1.982,-1.566l10.328,7.288l0,3.178l2.306,-1.517l2.306,1.517l0,-3.178l10.329,-7.288l1.983,1.566l0,-2.789l2.259,-1.761l-4.521,-2.935l0,-12.374l-10.046,-5.918l0,-2.641l12.352,7.287l0,15.077l10.745,-7.495l0.922,-14.869l-9.941,-4.99l0,-3.079l12.537,6.342l-0.983,14.999l7.117,-5.042l2.198,1.259l-9.776,6.748l-0.921,13.205l7.142,-5.324Z" style="fill:#498df8;fill-rule:nonzero;"/><path d="M1350.19,755.352l0,12.522l11.066,-9.196l0.46,-11.933l-11.526,8.607Zm23.885,-18.388l-0.738,12.13l-9.868,7.923l0.369,-12.13l10.237,-7.923Zm11.558,-8.737l-1.17,11.738l-8.974,7.025l0.859,-11.656l9.285,-7.107Zm-23.087,-16.842l0,15.113l-12.356,8.853l0,-16.092l-12.357,-7.874l12.357,-7.276l12.356,7.276Zm24.899,0.929l-1.382,13.009l-9.315,6.946l0.924,-13.206l9.773,-6.749Zm-10.928,-9.489l-0.92,14.869l-10.745,7.496l0,-15.078l-12.353,-7.287l11.374,-6.348l2.705,1.358l9.939,4.99Zm-9.939,-8.069l12.536,6.342l-0.983,15l9.684,-6.865l1.567,-14.477l-12.865,-5.648l-9.939,5.648Zm-18.698,8.069l-12.353,7.287l-11.666,-7.287l12.646,-6.348l11.373,6.348Zm-36.883,-8.069l10.268,6.342l12.536,-6.342l-7.242,-4.117l-2.698,-1.531l-12.864,5.648Zm25.742,-1.189l11.141,-5.674l-9.933,-5.286l-0.115,-0.06l-11.36,5.346l10.267,5.674Zm25.021,-12.455l-9.959,-5.152l-11.435,5.152l0.001,0.001l9.822,5.737l11.571,-5.738Z" style="fill:#fff;fill-rule:nonzero;"/><g transform="matrix(0.261208,0,0,0.261208,-84.1118,-115.82)"><rect x="545.502" y="649.885" width="51.95" height="279.95" style="fill:#fff;fill-rule:nonzero;"/><path d="M840.302,929.835l51.95,0l0,-236l92.8,0l0,-43.95l-237.55,0l0,43.95l92.8,0l0,236Z" style="fill:#fff;fill-rule:nonzero;"/><path d="M1221.1,649.885l0,115.6l-144.85,0l0,-115.6l-51.95,0l0,279.95l51.95,0l0,-120l144.85,0l0,120l51.95,0l0,-279.95l-51.95,0Z" style="fill:#fff;fill-rule:nonzero;"/><path d="M1479.08,933.835c86.823,0 150.774,-60.754 150.774,-143.975c0,-83.222 -63.951,-143.975 -150.774,-143.975c-86.823,0 -150.776,61.153 -150.776,143.975c0,82.821 63.953,143.975 150.776,143.975Zm0,-45.55c-56.415,0 -98.426,-41.211 -98.426,-98.425c0,-57.215 42.011,-98.425 98.426,-98.425c56.415,0 98.424,41.21 98.424,98.425c0,57.214 -42.009,98.425 -98.424,98.425Z" style="fill:#fff;fill-rule:nonzero;"/><path d="M1805.48,933.835c76.42,0 122.375,-44.351 122.375,-125.95l0,-158l-51.15,0l0,156c0,57.6 -25.609,82.4 -70.825,82.4c-45.215,0 -71.225,-24.8 -71.225,-82.4l0,-156l-51.95,0l0,158c0,81.599 45.956,125.95 122.775,125.95Z" style="fill:#fff;fill-rule:nonzero;"/><path d="M2191.9,873.881c-18.004,10.403 -37.611,14.404 -57.617,14.404c-59.219,0 -101.233,-41.611 -101.233,-98.425c0,-58.015 42.014,-98.425 101.633,-98.425c30.01,0 55.218,10.002 77.197,32.007l32.77,-32.007c-26.377,-29.967 -65.553,-45.55 -112.368,-45.55c-87.628,0 -151.582,60.353 -151.582,143.975c0,83.621 63.954,143.975 150.782,143.975c39.613,0 80.398,-11.987 109.568,-35.561l0,-111.615l-49.15,0l0,87.222Z" style="fill:#fff;fill-rule:nonzero;"/><path d="M2506.3,649.885l0,115.6l-144.85,0l0,-115.6l-51.95,0l0,279.95l51.95,0l0,-120l144.85,0l0,120l51.95,0l0,-279.95l-51.95,0Z" style="fill:#fff;fill-rule:nonzero;"/><path d="M2690.3,929.835l51.95,0l0,-236l92.8,0l0,-43.95l-237.55,0l0,43.95l92.8,0l0,236Z" style="fill:#fff;fill-rule:nonzero;"/><path d="M3041.5,929.835l51.95,0l0,-236l92.8,0l0,-43.95l-237.55,0l0,43.95l92.8,0l0,236Z" style="fill:#fff;fill-rule:nonzero;"/><path d="M3422.3,649.885l0,115.6l-144.85,0l0,-115.6l-51.95,0l0,279.95l51.95,0l0,-120l144.85,0l0,120l51.95,0l0,-279.95l-51.95,0Z" style="fill:#fff;fill-rule:nonzero;"/><path d="M3759.06,929.835l54.391,0l-126.379,-279.95l-51.192,0l-125.979,279.95l53.591,0l27.596,-64.8l139.976,0l27.996,64.8Zm-150.375,-105.55l52.391,-122.45l52.791,122.45l-105.182,0Z" style="fill:#fff;fill-rule:nonzero;"/><path d="M3891.9,929.835l51.95,0l0,-236l92.8,0l0,-43.95l-237.55,0l0,43.95l92.8,0l0,236Z" style="fill:#fff;fill-rule:nonzero;"/><path d="M4239.89,690.993l-56.054,0l0,-37.109l104.883,0l0,238.867l57.226,0l0,37.109l-168.945,0l0,-37.109l62.89,0l0,-201.758Z" style="fill:#fff;fill-rule:nonzero;"/><path d="M4574.46,829.079c0,15.625 -2.214,29.915 -6.641,42.871c-4.427,12.956 -10.807,24.056 -19.141,33.301c-8.333,9.245 -18.554,16.406 -30.664,21.484c-12.109,5.078 -25.911,7.617 -41.406,7.617c-14.713,0 -27.864,-2.148 -39.453,-6.445c-11.589,-4.297 -21.419,-10.71 -29.492,-19.238c-8.073,-8.529 -14.258,-19.206 -18.555,-32.031c-4.297,-12.826 -6.445,-27.767 -6.445,-44.825c0,-15.755 2.246,-30.078 6.738,-42.968c4.492,-12.891 10.938,-23.894 19.336,-33.008c8.398,-9.115 18.652,-16.179 30.762,-21.192c12.109,-5.013 25.781,-7.519 41.015,-7.519c14.844,0 28.06,2.181 39.649,6.543c11.588,4.362 21.419,10.84 29.492,19.433c8.073,8.594 14.225,19.239 18.457,31.934c4.232,12.695 6.348,27.376 6.348,44.043Zm-49.61,1.172c0,-20.573 -3.873,-36.035 -11.621,-46.387c-7.747,-10.351 -19.173,-15.527 -34.277,-15.527c-8.333,0 -15.43,1.627 -21.289,4.883c-5.86,3.255 -10.677,7.714 -14.453,13.378c-3.776,5.665 -6.543,12.273 -8.301,19.825c-1.758,7.552 -2.637,15.625 -2.637,24.218c0,20.704 4.167,36.296 12.5,46.778c8.334,10.482 19.727,15.722 34.18,15.722c7.943,0 14.844,-1.595 20.703,-4.785c5.859,-3.19 10.612,-7.617 14.258,-13.281c3.646,-5.664 6.38,-12.337 8.203,-20.02c1.823,-7.682 2.734,-15.95 2.734,-24.804Z" style="fill:#fff;fill-rule:nonzero;"/><path d="M4726.61,929.86l-54.883,0l-78.711,-198.437l53.125,0l41.211,112.5l12.305,36.328l12.109,-34.766l41.602,-114.062l51.172,0l-77.93,198.437Z" style="fill:#fff;fill-rule:nonzero;"/><path d="M5008.44,815.407c0,3.255 -0.098,7.487 -0.293,12.695c-0.195,5.209 -0.488,10.091 -0.879,14.649l-130.469,0c0,8.724 1.335,16.406 4.004,23.047c2.67,6.64 6.446,12.207 11.328,16.699c4.883,4.492 10.743,7.91 17.579,10.254c6.836,2.344 14.42,3.515 22.754,3.515c9.635,0 19.954,-0.748 30.957,-2.246c11.002,-1.497 22.428,-3.938 34.277,-7.324l0,37.891c-5.078,1.432 -10.612,2.734 -16.602,3.906c-5.989,1.172 -12.109,2.214 -18.359,3.125c-6.25,0.911 -12.565,1.595 -18.945,2.051c-6.381,0.455 -12.565,0.683 -18.555,0.683c-15.104,0 -28.646,-2.148 -40.625,-6.445c-11.979,-4.297 -22.135,-10.644 -30.469,-19.043c-8.333,-8.398 -14.713,-18.782 -19.14,-31.152c-4.427,-12.37 -6.641,-26.693 -6.641,-42.969c0,-16.146 2.214,-30.827 6.641,-44.043c4.427,-13.216 10.677,-24.544 18.75,-33.984c8.073,-9.44 17.871,-16.732 29.394,-21.875c11.524,-5.144 24.382,-7.715 38.574,-7.715c14.063,0 26.498,2.181 37.305,6.543c10.807,4.362 19.857,10.449 27.148,18.261c7.292,7.813 12.826,17.123 16.602,27.93c3.776,10.807 5.664,22.656 5.664,35.547Zm-48.437,-6.836c0.13,-7.812 -0.847,-14.616 -2.93,-20.41c-2.083,-5.794 -4.915,-10.579 -8.496,-14.356c-3.581,-3.776 -7.748,-6.575 -12.5,-8.398c-4.753,-1.823 -9.863,-2.734 -15.332,-2.734c-11.979,0 -21.81,4.004 -29.492,12.011c-7.683,8.008 -12.24,19.304 -13.672,33.887l82.422,0Z" style="fill:#fff;fill-rule:nonzero;"/><path d="M5176.41,1011.89c-31.641,-26.823 -55.371,-55.599 -71.192,-86.328c-15.82,-30.729 -23.73,-63.802 -23.73,-99.218c0,-19.792 2.344,-38.51 7.031,-56.153c4.688,-17.643 11.296,-34.212 19.824,-49.707c8.529,-15.495 18.685,-30.045 30.469,-43.652c11.784,-13.607 24.707,-26.335 38.77,-38.184l27.148,27.149c-25.39,22.786 -44.466,47.395 -57.226,73.828c-12.761,26.432 -19.141,54.232 -19.141,83.398c0,29.558 6.38,57.975 19.141,85.254c12.76,27.279 31.836,52.181 57.226,74.707l-28.32,28.906Z" style="fill:#fff;fill-rule:nonzero;"/><path d="M5321.14,638.649c31.901,26.563 55.664,55.241 71.289,86.035c15.625,30.795 23.438,63.965 23.438,99.512c0,19.792 -2.344,38.477 -7.031,56.055c-4.688,17.578 -11.231,34.179 -19.629,49.804c-8.399,15.625 -18.457,30.241 -30.176,43.848c-11.719,13.607 -24.609,26.27 -38.672,37.988l-27.344,-27.148c25.521,-22.786 44.662,-47.461 57.422,-74.023c12.761,-26.563 19.141,-54.428 19.141,-83.594c0,-29.427 -6.38,-57.813 -19.141,-85.156c-12.76,-27.344 -31.901,-52.344 -57.422,-75l28.125,-28.321Z" style="fill:#fff;fill-rule:nonzero;"/><path d="M905.055,1049.88l-71.591,213.962l-70.791,-213.962l-47.994,0l-72.392,212.762l-69.591,-212.762l-53.994,0l92.789,279.95l55.593,0l70.392,-207.162l69.191,207.162l55.194,0l92.791,-279.95l-49.597,0Z" style="fill:#fff;fill-rule:nonzero;"/><path d="M1197.86,1329.84l54.391,0l-126.379,-279.95l-51.192,0l-125.979,279.95l53.591,0l27.596,-64.8l139.976,0l27.996,64.8Zm-150.375,-105.55l52.391,-122.45l52.791,122.45l-105.182,0Z" style="fill:#fff;fill-rule:nonzero;"/><path d="M1374.68,1333.84c76.812,0 113.176,-38.355 113.176,-83.21c0,-102.676 -166,-63.927 -166,-123.516c0,-21.241 17.608,-38.074 60.827,-38.074c24.411,0 52.023,7.214 77.201,22.043l16.384,-40.421c-24.376,-15.982 -59.57,-24.772 -93.184,-24.772c-76.813,0 -112.778,38.356 -112.778,83.628c0,103.887 166.4,64.348 166.4,124.718c0,20.831 -18.407,36.454 -62.026,36.454c-34.415,0 -70.007,-12.819 -92.385,-30.846l-17.989,40.435c23.184,19.977 66.755,33.561 110.374,33.561Z" style="fill:#fff;fill-rule:nonzero;"/><path d="M1859.46,1329.84l54.391,0l-126.379,-279.95l-51.192,0l-125.979,279.95l53.591,0l27.596,-64.8l139.976,0l27.996,64.8Zm-150.375,-105.55l52.391,-122.45l52.791,122.45l-105.182,0Z" style="fill:#fff;fill-rule:nonzero;"/><path d="M2147.9,1184.27c21.565,-11.586 35.951,-32.79 35.951,-61.609c0,-44.406 -35.965,-72.771 -103.169,-72.771l-131.181,0l0,279.95l139.184,0c72.002,0 109.566,-27.966 109.566,-75.972c0,-36.423 -20.38,-60.01 -50.351,-69.598Zm-72.823,-93.63c36.016,0 56.424,12.809 56.424,38.826c0,25.616 -20.408,38.424 -56.421,38.424l-73.629,0l0,-77.25l73.626,0Zm10.404,198.45l-84.03,0l0,-80.85l84.03,0c39.214,0 60.42,12.407 60.42,40.425c0,28.017 -21.206,40.425 -60.42,40.425Z" style="fill:#fff;fill-rule:nonzero;"/><path d="M2340.68,1333.84c76.812,0 113.176,-38.355 113.176,-83.21c0,-102.676 -166,-63.927 -166,-123.516c0,-21.241 17.608,-38.074 60.827,-38.074c24.411,0 52.023,7.214 77.201,22.043l16.384,-40.421c-24.376,-15.982 -59.57,-24.772 -93.184,-24.772c-76.813,0 -112.778,38.356 -112.778,83.628c0,103.887 166.4,64.348 166.4,124.718c0,20.831 -18.407,36.454 -62.026,36.454c-34.415,0 -70.007,-12.819 -92.385,-30.846l-17.989,40.435c23.184,19.977 66.755,33.561 110.374,33.561Z" style="fill:#fff;fill-rule:nonzero;"/><path d="M2558.3,1329.84l51.95,0l0,-236l92.8,0l0,-43.95l-237.55,0l0,43.95l92.8,0l0,236Z" style="fill:#fff;fill-rule:nonzero;"/><path d="M2981.45,1329.84l-64.353,-91.988c37.974,-14.782 59.553,-45.968 59.553,-88.387c0,-62.018 -45.556,-99.575 -119.175,-99.575l-115.175,0l0,279.95l51.95,0l0,-81.6l63.225,0c3.601,0 7.202,0 10.804,-0.399l57.22,81.999l55.951,0Zm-57.15,-180.375c0,35.216 -23.609,56.025 -69.226,56.025l-60.824,0l0,-111.65l60.824,0c45.617,0 69.226,20.41 69.226,55.625Z" style="fill:#fff;fill-rule:nonzero;"/><path d="M3244.26,1329.84l54.391,0l-126.379,-279.95l-51.192,0l-125.979,279.95l53.591,0l27.596,-64.8l139.976,0l27.996,64.8Zm-150.375,-105.55l52.391,-122.45l52.791,122.45l-105.182,0Z" style="fill:#fff;fill-rule:nonzero;"/><path d="M3459.85,1333.84c46,0 85.2,-16.382 111.2,-46.75l-33.6,-32.008c-20.4,22.405 -45.6,33.208 -74.8,33.208c-58,0 -100,-40.81 -100,-98.425c0,-57.615 42,-98.425 100,-98.425c29.2,0 54.4,10.802 74.8,32.808l33.6,-31.609c-26,-30.367 -65.2,-46.749 -110.8,-46.749c-86,0 -149.95,60.353 -149.95,143.975c0,83.621 63.95,143.975 149.55,143.975Z" style="fill:#fff;fill-rule:nonzero;"/><path d="M3674.7,1329.84l51.95,0l0,-236l92.8,0l0,-43.95l-237.55,0l0,43.95l92.8,0l0,236Z" style="fill:#fff;fill-rule:nonzero;"/></g><g transform="matrix(0.261208,0,0,0.261208,-84.1118,-115.82)"><path d="M3869.08,1266.29c-18.385,0 -32.375,13.194 -32.375,33.186c0,14.394 7.595,24.79 18.786,29.588l-15.988,61.176l32.375,0l20.384,-56.377c7.195,-18.393 9.193,-25.59 9.193,-34.387c0,-19.592 -13.589,-33.186 -32.375,-33.186Z" style="fill:#e51c62;fill-rule:nonzero;"/><path d="M4185.88,1333.84c76.42,0 122.375,-44.351 122.375,-125.95l0,-158l-51.15,0l0,156c0,57.6 -25.609,82.4 -70.825,82.4c-45.215,0 -71.225,-24.8 -71.225,-82.4l0,-156l-51.95,0l0,158c0,81.599 45.956,125.95 122.775,125.95Z" style="fill:#e51c62;fill-rule:nonzero;"/><path d="M4578.3,1049.88l0,189.567l-154.441,-189.567l-42.759,0l0,279.95l51.55,0l0,-189.565l154.442,189.565l42.758,0l0,-279.95l-51.55,0Z" style="fill:#e51c62;fill-rule:nonzero;"/><path d="M4761.9,1329.84l51.95,0l0,-236l92.8,0l0,-43.95l-237.55,0l0,43.95l92.8,0l0,236Z" style="fill:#e51c62;fill-rule:nonzero;"/><rect x="4945.9" y="1049.88" width="51.95" height="279.95" style="fill:#e51c62;fill-rule:nonzero;"/><path d="M5073.5,1329.84l198.35,0l0,-43.95l-146.4,0l0,-236l-51.95,0l0,279.95Z" style="fill:#e51c62;fill-rule:nonzero;"/><path d="M775.852,1449.88l-51.2,0l-82.776,136.376l-81.974,-136.376l-55.6,0l110,181.968l0,97.982l51.95,0l0,-98.782l109.6,-181.168Z" style="fill:#e51c62;fill-rule:nonzero;"/><path d="M928.678,1733.84c86.823,0 150.774,-60.754 150.774,-143.975c0,-83.222 -63.951,-143.975 -150.774,-143.975c-86.823,0 -150.776,61.153 -150.776,143.975c0,82.821 63.953,143.975 150.776,143.975Zm0,-45.55c-56.415,0 -98.426,-41.211 -98.426,-98.425c0,-57.215 42.011,-98.425 98.426,-98.425c56.415,0 98.424,41.21 98.424,98.425c0,57.214 -42.009,98.425 -98.424,98.425Z" style="fill:#e51c62;fill-rule:nonzero;"/><path d="M1255.08,1733.84c76.42,0 122.375,-44.351 122.375,-125.95l0,-158l-51.15,0l0,156c0,57.6 -25.609,82.4 -70.825,82.4c-45.215,0 -71.225,-24.8 -71.225,-82.4l0,-156l-51.95,0l0,158c0,81.599 45.956,125.95 122.775,125.95Z" style="fill:#e51c62;fill-rule:nonzero;"/><rect x="1560.7" y="1449.88" width="51.95" height="279.95" style="fill:#e51c62;fill-rule:nonzero;"/><path d="M1994.85,1729.84l-0.4,-279.95l-42.756,0l-109.318,185.567l-111.319,-185.567l-42.757,0l0,279.95l49.55,0l0,-183.166l92.111,151.172l23.228,0l92.111,-153.572l0.4,185.566l49.15,0Z" style="fill:#e51c62;fill-rule:nonzero;"/><path d="M2185.48,1449.88l-115.175,0l0,279.95l51.95,0l0,-80.8l63.225,0c73.619,0 119.175,-37.957 119.175,-99.574c0,-62.019 -45.556,-99.576 -119.175,-99.576Zm-2.401,155.2l-60.824,0l0,-111.25l60.824,0c45.617,0 69.226,20.41 69.226,55.626c0,35.215 -23.609,55.624 -69.226,55.624Z" style="fill:#e51c62;fill-rule:nonzero;"/><path d="M2356.7,1729.84l198.35,0l0,-43.95l-146.4,0l0,-236l-51.95,0l0,279.95Z" style="fill:#e51c62;fill-rule:nonzero;"/><path d="M2648.25,1686.29l0,-77.25l135.2,0l0,-42.75l-135.2,0l0,-72.85l152.4,0l0,-43.55l-204.35,0l0,279.95l209.95,0l0,-43.55l-158,0Z" style="fill:#e51c62;fill-rule:nonzero;"/><path d="M3170.85,1729.84l-0.4,-279.95l-42.756,0l-109.318,185.567l-111.319,-185.567l-42.757,0l0,279.95l49.55,0l0,-183.166l92.111,151.172l23.228,0l92.111,-153.572l0.4,185.566l49.15,0Z" style="fill:#e51c62;fill-rule:nonzero;"/><path d="M3298.25,1686.29l0,-77.25l135.2,0l0,-42.75l-135.2,0l0,-72.85l152.4,0l0,-43.55l-204.35,0l0,279.95l209.95,0l0,-43.55l-158,0Z" style="fill:#e51c62;fill-rule:nonzero;"/><path d="M3711.5,1449.88l0,189.567l-154.441,-189.567l-42.759,0l0,279.95l51.55,0l0,-189.565l154.442,189.565l42.758,0l0,-279.95l-51.55,0Z" style="fill:#e51c62;fill-rule:nonzero;"/><path d="M3895.1,1729.84l51.95,0l0,-236l92.8,0l0,-43.95l-237.55,0l0,43.95l92.8,0l0,236Z" style="fill:#e51c62;fill-rule:nonzero;"/><path d="M4131.05,1686.29l0,-77.25l135.2,0l0,-42.75l-135.2,0l0,-72.85l152.4,0l0,-43.55l-204.35,0l0,279.95l209.95,0l0,-43.55l-158,0Z" style="fill:#e51c62;fill-rule:nonzero;"/><path d="M4347.1,1729.84l122.371,0c90.826,0 152.779,-55.953 152.779,-139.975c0,-84.022 -61.953,-139.975 -152.779,-139.975l-122.371,0l0,279.95Zm51.95,-43.95l0,-192.05l68.02,0c62.418,0 102.83,38.01 102.83,96.025c0,58.015 -40.412,96.025 -102.83,96.025l-68.02,0Z" style="fill:#e51c62;fill-rule:nonzero;"/><rect x="4787.9" y="1449.88" width="51.95" height="279.95" style="fill:#e51c62;fill-rule:nonzero;"/><path d="M4972.3,1729.84l51.95,0l0,-236l92.8,0l0,-43.95l-237.55,0l0,43.95l92.8,0l0,236Z" style="fill:#e51c62;fill-rule:nonzero;"/><rect x="5266.7" y="1449.88" width="51.95" height="279.95" style="fill:#e51c62;fill-rule:nonzero;"/><path d="M5591.5,1449.88l0,189.567l-154.441,-189.567l-42.759,0l0,279.95l51.55,0l0,-189.565l154.442,189.565l42.758,0l0,-279.95l-51.55,0Z" style="fill:#e51c62;fill-rule:nonzero;"/><path d="M675.065,2198.22l0,-135.157c0,-4.948 -0.13,-9.277 -0.391,-12.988c-0.26,-3.711 -0.781,-6.803 -1.562,-9.277c-0.781,-2.474 -1.921,-4.33 -3.418,-5.567c-1.498,-1.237 -3.548,-1.855 -6.152,-1.855c-4.037,0 -8.008,2.734 -11.915,8.203c-3.906,5.469 -8.333,14.779 -13.281,27.93l0,128.711l-40.82,0l0,-135.157c0,-4.948 -0.13,-9.277 -0.391,-12.988c-0.26,-3.711 -0.781,-6.803 -1.562,-9.277c-0.781,-2.474 -1.953,-4.33 -3.516,-5.567c-1.562,-1.237 -3.646,-1.855 -6.25,-1.855c-3.385,0 -7.161,2.734 -11.328,8.203c-4.167,5.469 -8.789,14.779 -13.867,27.93l0,128.711l-41.211,0l0,-198.438l35.351,0l0.782,28.906c2.864,-5.859 5.729,-10.872 8.593,-15.039c2.865,-4.166 5.925,-7.584 9.18,-10.254c3.255,-2.669 6.738,-4.59 10.449,-5.761c3.711,-1.172 7.911,-1.758 12.598,-1.758c11.068,0 19.499,2.897 25.293,8.691c5.794,5.794 9.082,13.835 9.863,24.121c3.125,-5.859 6.218,-10.872 9.278,-15.039c3.06,-4.166 6.25,-7.584 9.57,-10.254c3.32,-2.669 6.901,-4.59 10.742,-5.761c3.841,-1.172 8.106,-1.758 12.793,-1.758c14.453,0 25.13,5.045 32.031,15.137c6.901,10.091 10.352,25.032 10.352,44.824l0,142.383l-41.211,0Z" style="fill:#e51c62;fill-rule:nonzero;"/><path d="M874.284,2176.54c-6.901,17.187 -14.095,32.259 -21.582,45.215c-7.487,12.955 -15.723,23.763 -24.707,32.422c-8.985,8.658 -18.978,15.169 -29.981,19.531c-11.002,4.362 -23.34,6.543 -37.012,6.543c-3.255,0 -6.803,-0.163 -10.644,-0.488c-3.841,-0.326 -7.78,-0.814 -11.816,-1.465l0,-40.43c1.562,0.26 3.352,0.553 5.371,0.879c2.018,0.325 4.134,0.586 6.347,0.781c2.214,0.195 4.46,0.358 6.739,0.488c2.278,0.131 4.394,0.196 6.347,0.196c5.469,0 10.547,-1.042 15.235,-3.125c4.687,-2.084 9.017,-4.981 12.988,-8.692c3.971,-3.711 7.585,-8.138 10.84,-13.281c3.255,-5.143 6.12,-10.775 8.593,-16.894l-78.71,-198.438l53.125,0l41.21,112.5l12.305,36.328l12.11,-34.765l41.601,-114.063l51.172,0l-69.531,176.758Z" style="fill:#e51c62;fill-rule:nonzero;"/><path d="M1101.04,2198.22l0,-111.133l-86.719,0l0,111.133l-48.047,0l0,-255.274l48.047,0l0,102.539l86.719,0l0,-102.539l48.046,0l0,255.274l-48.046,0Z" style="fill:#e51c62;fill-rule:nonzero;"/><path d="M1367.64,2083.77c0,3.256 -0.098,7.487 -0.293,12.696c-0.195,5.208 -0.488,10.091 -0.879,14.648l-130.469,0c0,8.724 1.335,16.406 4.004,23.047c2.67,6.641 6.446,12.207 11.328,16.699c4.883,4.492 10.743,7.91 17.579,10.254c6.836,2.344 14.42,3.516 22.754,3.516c9.635,0 19.954,-0.749 30.957,-2.246c11.002,-1.498 22.428,-3.939 34.277,-7.325l0,37.891c-5.078,1.432 -10.612,2.734 -16.602,3.906c-5.989,1.172 -12.109,2.214 -18.359,3.125c-6.25,0.912 -12.565,1.595 -18.945,2.051c-6.381,0.456 -12.565,0.684 -18.555,0.684c-15.104,0 -28.646,-2.149 -40.625,-6.446c-11.979,-4.296 -22.135,-10.644 -30.469,-19.043c-8.333,-8.398 -14.713,-18.782 -19.14,-31.152c-4.427,-12.37 -6.641,-26.693 -6.641,-42.969c0,-16.145 2.214,-30.826 6.641,-44.043c4.427,-13.216 10.677,-24.544 18.75,-33.984c8.073,-9.44 17.871,-16.732 29.394,-21.875c11.524,-5.143 24.382,-7.715 38.574,-7.715c14.063,0 26.498,2.181 37.305,6.543c10.807,4.362 19.857,10.449 27.148,18.262c7.292,7.812 12.826,17.122 16.602,27.93c3.776,10.807 5.664,22.656 5.664,35.546Zm-48.437,-6.836c0.13,-7.812 -0.847,-14.615 -2.93,-20.41c-2.083,-5.794 -4.915,-10.579 -8.496,-14.355c-3.581,-3.776 -7.748,-6.576 -12.5,-8.399c-4.753,-1.823 -9.863,-2.734 -15.332,-2.734c-11.979,0 -21.81,4.004 -29.492,12.012c-7.683,8.008 -12.24,19.303 -13.672,33.886l82.422,0Z" style="fill:#e51c62;fill-rule:nonzero;"/><path d="M1539.13,2198.22l-1.171,-25.977c-4.167,4.427 -8.529,8.496 -13.086,12.207c-4.558,3.711 -9.571,6.934 -15.039,9.668c-5.469,2.734 -11.426,4.85 -17.872,6.348c-6.445,1.497 -13.509,2.246 -21.191,2.246c-10.156,0 -19.075,-1.498 -26.758,-4.492c-7.682,-2.995 -14.127,-7.162 -19.336,-12.5c-5.208,-5.339 -9.147,-11.784 -11.816,-19.336c-2.669,-7.552 -4.004,-15.886 -4.004,-25c0,-9.375 1.986,-18.034 5.957,-25.977c3.971,-7.943 10.026,-14.779 18.164,-20.508c8.138,-5.729 18.294,-10.221 30.469,-13.476c12.174,-3.256 26.465,-4.883 42.871,-4.883l25.977,0l0,-11.914c0,-5.078 -0.717,-9.668 -2.149,-13.77c-1.432,-4.101 -3.743,-7.584 -6.934,-10.449c-3.19,-2.865 -7.324,-5.078 -12.402,-6.641c-5.078,-1.562 -11.328,-2.343 -18.75,-2.343c-11.719,0 -23.275,1.334 -34.668,4.004c-11.393,2.669 -22.428,6.412 -33.105,11.23l0,-38.086c9.505,-3.776 20.475,-6.901 32.91,-9.375c12.435,-2.474 25.358,-3.711 38.769,-3.711c14.714,0 27.344,1.4 37.891,4.199c10.547,2.8 19.238,6.999 26.074,12.598c6.836,5.599 11.882,12.598 15.137,20.996c3.255,8.399 4.883,18.197 4.883,29.395l0,135.547l-40.821,0Zm-6.835,-87.696l-29.102,0c-8.073,0 -14.909,0.781 -20.508,2.344c-5.599,1.562 -10.156,3.711 -13.672,6.445c-3.515,2.735 -6.087,5.892 -7.715,9.473c-1.627,3.581 -2.441,7.389 -2.441,11.426c0,8.073 2.604,14.225 7.813,18.457c5.208,4.232 12.304,6.347 21.289,6.347c6.64,0 13.541,-2.408 20.703,-7.226c7.161,-4.818 15.039,-11.719 23.633,-20.703l0,-26.563Z" style="fill:#e51c62;fill-rule:nonzero;"/><path d="M1762.37,2076.93c0.26,-7.421 -0.098,-13.737 -1.075,-18.945c-0.976,-5.208 -2.539,-9.505 -4.687,-12.89c-2.149,-3.386 -4.785,-5.86 -7.91,-7.422c-3.125,-1.563 -6.706,-2.344 -10.742,-2.344c-7.032,0 -14.291,2.897 -21.778,8.691c-7.487,5.795 -15.722,15.332 -24.707,28.614l0,125.586l-48.828,0l0,-198.438l43.164,0l1.758,28.906c3.255,-5.078 6.934,-9.635 11.035,-13.672c4.102,-4.036 8.659,-7.519 13.672,-10.449c5.013,-2.929 10.579,-5.176 16.699,-6.738c6.12,-1.563 12.826,-2.344 20.117,-2.344c10.026,0 18.913,1.725 26.661,5.176c7.747,3.45 14.257,8.561 19.531,15.332c5.273,6.771 9.179,15.267 11.719,25.488c2.539,10.222 3.613,22.038 3.222,35.449l-47.851,0Z" style="fill:#e51c62;fill-rule:nonzero;"/><path d="M2018.23,2196.27c-8.594,1.954 -17.253,3.516 -25.977,4.688c-8.723,1.172 -16.992,1.758 -24.804,1.758c-13.021,0 -24.252,-1.367 -33.692,-4.102c-9.44,-2.734 -17.252,-6.901 -23.437,-12.5c-6.185,-5.599 -10.742,-12.728 -13.672,-21.387c-2.93,-8.658 -4.395,-18.977 -4.395,-30.957l0,-96.875l-53.32,0l0,-37.109l53.32,0l0,-50.781l48.829,-12.696l0,63.477l77.148,0l0,37.109l-77.148,0l0,93.36c0,11.328 2.604,19.889 7.812,25.683c5.208,5.795 13.932,8.692 26.172,8.692c7.812,0 15.43,-0.651 22.852,-1.953c7.421,-1.302 14.192,-2.8 20.312,-4.493l0,38.086Z" style="fill:#e51c62;fill-rule:nonzero;"/></g><path d="M740.674,710.631c4.993,0 7.357,-2.493 7.357,-5.409c0,-6.674 -10.79,-4.155 -10.79,-8.028c0,-1.381 1.144,-2.475 3.953,-2.475c1.587,0 3.382,0.469 5.019,1.433l1.064,-2.628c-1.584,-1.039 -3.872,-1.61 -6.056,-1.61c-4.993,0 -7.331,2.493 -7.331,5.436c0,6.752 10.816,4.182 10.816,8.106c0,1.354 -1.196,2.37 -4.032,2.37c-2.237,0 -4.55,-0.833 -6.005,-2.005l-1.169,2.628c1.507,1.299 4.339,2.182 7.174,2.182Z" style="fill:#fff;fill-rule:nonzero;"/><path d="M764.125,703.508c0,-4.343 -2.961,-7.174 -7.017,-7.174c-4.134,0 -7.176,2.961 -7.176,7.096c0,4.136 3.016,7.123 7.67,7.123c2.392,0 4.341,-0.779 5.588,-2.26l-1.74,-2.002c-0.988,1.015 -2.21,1.509 -3.77,1.509c-2.418,0 -4.108,-1.301 -4.498,-3.331l10.891,0c0.026,-0.312 0.052,-0.701 0.052,-0.961Zm-7.017,-4.577c2.132,0 3.666,1.379 3.926,3.383l-7.878,0c0.312,-2.03 1.846,-3.383 3.952,-3.383Z" style="fill:#fff;fill-rule:nonzero;"/><path d="M775.125,696.334c-2.029,0 -3.72,0.675 -4.786,1.948l0,-1.792l-3.091,0l0,13.881l3.247,0l0,-7.019c0,-2.783 1.56,-4.187 3.876,-4.187c2.08,0 3.303,1.196 3.303,3.666l0,7.54l3.247,0l0,-7.956c0,-4.185 -2.468,-6.081 -5.796,-6.081Z" style="fill:#fff;fill-rule:nonzero;"/><path d="M795.536,691.082l0,7.122c-1.092,-1.273 -2.679,-1.87 -4.474,-1.87c-4.031,0 -7.018,2.779 -7.018,7.096c0,4.318 2.987,7.123 7.018,7.123c1.899,0 3.512,-0.649 4.604,-1.974l0,1.792l3.117,0l0,-19.289l-3.247,0Zm-4.084,16.692c-2.341,0 -4.135,-1.691 -4.135,-4.344c0,-2.653 1.794,-4.343 4.135,-4.343c2.341,0 4.136,1.69 4.136,4.343c0,2.653 -1.795,4.344 -4.136,4.344Z" style="fill:#fff;fill-rule:nonzero;"/><path d="M820.103,696.49l-4.393,10.27l-4.367,-10.27l-3.379,0l6.057,13.936l-0.234,0.546c-0.624,1.378 -1.3,1.924 -2.444,1.924c-0.884,0 -1.767,-0.364 -2.391,-0.962l-1.3,2.39c0.884,0.805 2.34,1.273 3.717,1.273c2.314,0 4.081,-0.961 5.355,-4.105l6.499,-15.002l-3.12,0Z" style="fill:#fff;fill-rule:nonzero;"/><path d="M831.102,710.553c4.318,0 7.409,-2.961 7.409,-7.123c0,-4.161 -3.091,-7.096 -7.409,-7.096c-4.265,0 -7.382,2.935 -7.382,7.096c0,4.162 3.117,7.123 7.382,7.123Zm0,-2.779c-2.341,0 -4.109,-1.691 -4.109,-4.344c0,-2.653 1.768,-4.343 4.109,-4.343c2.367,0 4.136,1.69 4.136,4.343c0,2.653 -1.769,4.344 -4.136,4.344Z" style="fill:#fff;fill-rule:nonzero;"/><path d="M851.826,696.49l0,7.02c0,2.782 -1.535,4.186 -3.798,4.186c-2.055,0 -3.251,-1.196 -3.251,-3.718l0,-7.488l-3.247,0l0,7.93c0,4.185 2.416,6.133 5.978,6.133c1.795,0 3.434,-0.675 4.474,-1.948l0,1.766l3.091,0l0,-13.881l-3.247,0Z" style="fill:#fff;fill-rule:nonzero;"/><path d="M862.431,698.517l0,-2.027l-3.091,0l0,13.881l3.247,0l0,-6.733c0,-2.835 1.56,-4.291 4.03,-4.291c0.234,0 0.468,0.026 0.754,0.078l0,-3.091c-2.314,0 -4.004,0.728 -4.94,2.183Z" style="fill:#fff;fill-rule:nonzero;"/><rect x="877.436" y="691.082" width="3.247" height="19.289" style="fill:#fff;fill-rule:nonzero;"/><path d="M891.188,710.553c4.318,0 7.409,-2.961 7.409,-7.123c0,-4.161 -3.091,-7.096 -7.409,-7.096c-4.265,0 -7.382,2.935 -7.382,7.096c0,4.162 3.117,7.123 7.382,7.123Zm0,-2.779c-2.341,0 -4.109,-1.691 -4.109,-4.344c0,-2.653 1.768,-4.343 4.109,-4.343c2.367,0 4.136,1.69 4.136,4.343c0,2.653 -1.769,4.344 -4.136,4.344Z" style="fill:#fff;fill-rule:nonzero;"/><path d="M911.207,696.49l-4.445,10.294l-4.315,-10.294l-3.379,0l5.953,13.881l3.353,0l5.953,-13.881l-3.12,0Z" style="fill:#fff;fill-rule:nonzero;"/><path d="M929.017,703.508c0,-4.343 -2.961,-7.174 -7.017,-7.174c-4.134,0 -7.176,2.961 -7.176,7.096c0,4.136 3.016,7.123 7.67,7.123c2.392,0 4.341,-0.779 5.588,-2.26l-1.74,-2.002c-0.988,1.015 -2.21,1.509 -3.77,1.509c-2.418,0 -4.108,-1.301 -4.498,-3.331l10.891,0c0.026,-0.312 0.052,-0.701 0.052,-0.961Zm-7.017,-4.577c2.132,0 3.666,1.379 3.926,3.383l-7.878,0c0.312,-2.03 1.846,-3.383 3.952,-3.383Z" style="fill:#fff;fill-rule:nonzero;"/><path d="M942.488,691.082l0,7.122c-1.092,-1.273 -2.679,-1.87 -4.474,-1.87c-4.031,0 -7.018,2.779 -7.018,7.096c0,4.318 2.987,7.123 7.018,7.123c1.899,0 3.512,-0.649 4.604,-1.974l0,1.792l3.117,0l0,-19.289l-3.247,0Zm-4.084,16.692c-2.341,0 -4.135,-1.691 -4.135,-4.344c0,-2.653 1.794,-4.343 4.135,-4.343c2.341,0 4.136,1.69 4.136,4.343c0,2.653 -1.795,4.344 -4.136,4.344Z" style="fill:#fff;fill-rule:nonzero;"/><path d="M963.416,710.553c4.318,0 7.409,-2.961 7.409,-7.123c0,-4.161 -3.091,-7.096 -7.409,-7.096c-4.265,0 -7.382,2.935 -7.382,7.096c0,4.162 3.117,7.123 7.382,7.123Zm0,-2.779c-2.341,0 -4.109,-1.691 -4.109,-4.344c0,-2.653 1.768,-4.343 4.109,-4.343c2.367,0 4.136,1.69 4.136,4.343c0,2.653 -1.769,4.344 -4.136,4.344Z" style="fill:#fff;fill-rule:nonzero;"/><path d="M981.825,696.334c-2.029,0 -3.72,0.675 -4.786,1.948l0,-1.792l-3.091,0l0,13.881l3.247,0l0,-7.019c0,-2.783 1.56,-4.187 3.876,-4.187c2.08,0 3.303,1.196 3.303,3.666l0,7.54l3.247,0l0,-7.956c0,-4.185 -2.468,-6.081 -5.796,-6.081Z" style="fill:#fff;fill-rule:nonzero;"/><path d="M1004.94,703.508c0,-4.343 -2.961,-7.174 -7.017,-7.174c-4.134,0 -7.176,2.961 -7.176,7.096c0,4.136 3.016,7.123 7.67,7.123c2.392,0 4.341,-0.779 5.588,-2.26l-1.74,-2.002c-0.988,1.015 -2.21,1.509 -3.77,1.509c-2.418,0 -4.108,-1.301 -4.498,-3.331l10.891,0c0.026,-0.312 0.052,-0.701 0.052,-0.961Zm-7.017,-4.577c2.132,0 3.666,1.379 3.926,3.383l-7.878,0c0.312,-2.03 1.846,-3.383 3.952,-3.383Z" style="fill:#fff;fill-rule:nonzero;"/><path d="M1012.35,710.553c3.901,0 6.291,-1.688 6.291,-4.291c0,-5.433 -8.58,-2.938 -8.58,-5.745c0,-0.91 0.936,-1.56 2.913,-1.56c1.327,0 2.654,0.26 3.978,1.04l1.247,-2.468c-1.247,-0.754 -3.351,-1.195 -5.199,-1.195c-3.744,0 -6.108,1.714 -6.108,4.339c0,5.537 8.58,3.04 8.58,5.694c0,0.964 -0.859,1.537 -2.914,1.537c-1.743,0 -3.614,-0.573 -4.835,-1.381l-1.247,2.472c1.247,0.883 3.559,1.558 5.874,1.558Z" style="fill:#fff;fill-rule:nonzero;"/><path d="M1033.93,696.334c-2.237,0 -4.394,0.571 -5.874,1.714l1.272,2.366c1.039,-0.859 2.651,-1.379 4.212,-1.379c2.315,0 3.46,1.119 3.46,3.019l0,0.208l-3.59,0c-4.212,0 -5.77,1.817 -5.77,4.132c0,2.419 2,4.159 5.172,4.159c2.081,0 3.59,-0.675 4.37,-1.87l0,1.688l3.065,0l0,-8.135c0,-4.006 -2.312,-5.902 -6.317,-5.902Zm-0.442,11.856c-1.665,0 -2.653,-0.755 -2.653,-1.926c0,-1.015 0.598,-1.847 2.809,-1.847l3.356,0l0,1.613c-0.546,1.431 -1.925,2.16 -3.512,2.16Z" style="fill:#fff;fill-rule:nonzero;"/><path d="M1057.22,693.523c0.676,0 1.3,0.234 1.794,0.572l0.91,-2.442c-0.728,-0.519 -1.82,-0.753 -2.938,-0.753c-3.223,0 -4.963,1.896 -4.963,4.809l0,0.885l-2.288,0l0,2.597l2.288,0l0,11.18l3.247,0l0,-11.18l3.718,0l0,-2.597l-3.822,0l0,-0.833c0,-1.483 0.702,-2.238 2.054,-2.238Z" style="fill:#fff;fill-rule:nonzero;"/><path d="M1066.35,698.517l0,-2.027l-3.091,0l0,13.881l3.247,0l0,-6.733c0,-2.835 1.56,-4.291 4.03,-4.291c0.234,0 0.468,0.026 0.754,0.078l0,-3.091c-2.314,0 -4.004,0.728 -4.94,2.183Z" style="fill:#fff;fill-rule:nonzero;"/><path d="M1086.97,703.508c0,-4.343 -2.961,-7.174 -7.017,-7.174c-4.134,0 -7.176,2.961 -7.176,7.096c0,4.136 3.016,7.123 7.67,7.123c2.392,0 4.341,-0.779 5.588,-2.26l-1.74,-2.002c-0.988,1.015 -2.21,1.509 -3.77,1.509c-2.418,0 -4.108,-1.301 -4.498,-3.331l10.891,0c0.026,-0.312 0.052,-0.701 0.052,-0.961Zm-7.017,-4.577c2.132,0 3.666,1.379 3.926,3.383l-7.878,0c0.312,-2.03 1.846,-3.383 3.952,-3.383Z" style="fill:#fff;fill-rule:nonzero;"/><path d="M1103.14,703.508c0,-4.343 -2.961,-7.174 -7.017,-7.174c-4.134,0 -7.176,2.961 -7.176,7.096c0,4.136 3.016,7.123 7.67,7.123c2.392,0 4.341,-0.779 5.588,-2.26l-1.74,-2.002c-0.988,1.015 -2.21,1.509 -3.77,1.509c-2.418,0 -4.108,-1.301 -4.498,-3.331l10.891,0c0.026,-0.312 0.052,-0.701 0.052,-0.961Zm-7.017,-4.577c2.132,0 3.666,1.379 3.926,3.383l-7.878,0c0.312,-2.03 1.846,-3.383 3.952,-3.383Z" style="fill:#fff;fill-rule:nonzero;"/><path d="M1119.81,710.553c2.704,0 4.862,-1.169 5.928,-3.247l-2.496,-1.457c-0.832,1.327 -2.08,1.925 -3.458,1.925c-2.392,0 -4.212,-1.639 -4.212,-4.344c0,-2.679 1.82,-4.343 4.212,-4.343c1.378,0 2.626,0.598 3.458,1.924l2.496,-1.456c-1.066,-2.104 -3.224,-3.221 -5.928,-3.221c-4.394,0 -7.511,2.935 -7.511,7.096c0,4.162 3.117,7.123 7.511,7.123Z" style="fill:#fff;fill-rule:nonzero;"/><path d="M1133.85,696.334c-2.237,0 -4.394,0.571 -5.874,1.714l1.272,2.366c1.039,-0.859 2.651,-1.379 4.212,-1.379c2.315,0 3.46,1.119 3.46,3.019l0,0.208l-3.59,0c-4.212,0 -5.77,1.817 -5.77,4.132c0,2.419 2,4.159 5.172,4.159c2.081,0 3.59,-0.675 4.37,-1.87l0,1.688l3.065,0l0,-8.135c0,-4.006 -2.312,-5.902 -6.317,-5.902Zm-0.442,11.856c-1.665,0 -2.653,-0.755 -2.653,-1.926c0,-1.015 0.598,-1.847 2.809,-1.847l3.356,0l0,1.613c-0.546,1.431 -1.925,2.16 -3.512,2.16Z" style="fill:#fff;fill-rule:nonzero;"/><path d="M1152.2,696.334c-2.029,0 -3.72,0.675 -4.786,1.948l0,-1.792l-3.091,0l0,13.881l3.247,0l0,-7.019c0,-2.783 1.56,-4.187 3.876,-4.187c2.08,0 3.303,1.196 3.303,3.666l0,7.54l3.247,0l0,-7.956c0,-4.185 -2.468,-6.081 -5.796,-6.081Z" style="fill:#fff;fill-rule:nonzero;"/><path d="M1172.61,691.082l0,7.122c-1.092,-1.273 -2.679,-1.87 -4.474,-1.87c-4.031,0 -7.018,2.779 -7.018,7.096c0,4.318 2.987,7.123 7.018,7.123c1.899,0 3.512,-0.649 4.604,-1.974l0,1.792l3.117,0l0,-19.289l-3.247,0Zm-4.084,16.692c-2.341,0 -4.135,-1.691 -4.135,-4.344c0,-2.653 1.794,-4.343 4.135,-4.343c2.341,0 4.136,1.69 4.136,4.343c0,2.653 -1.795,4.344 -4.136,4.344Z" style="fill:#fff;fill-rule:nonzero;"/><path d="M1190.01,696.49l-4.393,10.27l-4.367,-10.27l-3.379,0l6.057,13.936l-0.234,0.546c-0.624,1.378 -1.3,1.924 -2.444,1.924c-0.884,0 -1.767,-0.364 -2.391,-0.962l-1.3,2.39c0.884,0.805 2.34,1.273 3.717,1.273c2.314,0 4.081,-0.961 5.355,-4.105l6.499,-15.002l-3.12,0Z" style="fill:#fff;fill-rule:nonzero;"/><path d="M1205.45,696.49l0,1.844c-1.144,-1.377 -2.861,-2 -4.812,-2c-3.979,0 -7.018,2.649 -7.018,6.68c0,4.032 3.039,6.733 7.018,6.733c1.873,0 3.512,-0.598 4.656,-1.844l0,0.727c0,2.809 -1.353,4.214 -4.422,4.214c-1.924,0 -3.901,-0.651 -5.122,-1.666l-1.455,2.445c1.585,1.299 4.158,1.974 6.759,1.974c4.864,0 7.487,-2.286 7.487,-7.331l0,-11.776l-3.091,0Zm-4.318,10.504c-2.471,0 -4.239,-1.612 -4.239,-3.978c0,-2.343 1.768,-3.929 4.239,-3.929c2.445,0 4.214,1.586 4.214,3.927c0,2.368 -1.769,3.98 -4.214,3.98Z" style="fill:#fff;fill-rule:nonzero;"/><path d="M1215.9,698.517l0,-2.027l-3.091,0l0,13.881l3.247,0l0,-6.733c0,-2.835 1.56,-4.291 4.03,-4.291c0.234,0 0.468,0.026 0.754,0.078l0,-3.091c-2.314,0 -4.004,0.728 -4.94,2.183Z" style="fill:#fff;fill-rule:nonzero;"/><path d="M1228.82,696.334c-2.237,0 -4.394,0.571 -5.874,1.714l1.272,2.366c1.039,-0.859 2.651,-1.379 4.212,-1.379c2.315,0 3.46,1.119 3.46,3.019l0,0.208l-3.59,0c-4.212,0 -5.77,1.817 -5.77,4.132c0,2.419 2,4.159 5.172,4.159c2.081,0 3.59,-0.675 4.37,-1.87l0,1.688l3.065,0l0,-8.135c0,-4.006 -2.312,-5.902 -6.317,-5.902Zm-0.442,11.856c-1.665,0 -2.653,-0.755 -2.653,-1.926c0,-1.015 0.598,-1.847 2.809,-1.847l3.356,0l0,1.613c-0.546,1.431 -1.925,2.16 -3.512,2.16Z" style="fill:#fff;fill-rule:nonzero;"/><path d="M1256.83,696.334c-2.211,0 -4.084,0.883 -5.201,2.311c-0.961,-1.558 -2.65,-2.311 -4.679,-2.311c-1.899,0 -3.512,0.675 -4.552,1.922l0,-1.766l-3.091,0l0,13.881l3.247,0l0,-7.045c0,-2.757 1.456,-4.161 3.616,-4.161c1.976,0 3.121,1.196 3.121,3.666l0,7.54l3.247,0l0,-7.046c0,-2.756 1.482,-4.16 3.616,-4.16c1.976,0 3.121,1.196 3.121,3.666l0,7.54l3.247,0l0,-7.956c0,-4.185 -2.338,-6.081 -5.692,-6.081Z" style="fill:#fff;fill-rule:nonzero;"/><path d="M1267.72,710.553c1.169,0 2.131,-0.91 2.131,-2.157c0,-1.299 -0.962,-2.156 -2.131,-2.156c-1.169,0 -2.13,0.857 -2.13,2.156c0,1.247 0.961,2.157 2.13,2.157Z" style="fill:#fff;fill-rule:nonzero;"/><path d="M854.503,730.255c-1.925,0 -3.564,0.624 -4.63,1.766l0,-7.018l-3.247,0l0,19.289l3.247,0l0,-7.02c0,-2.782 1.56,-4.186 3.876,-4.186c2.08,0 3.303,1.196 3.303,3.666l0,7.54l3.247,0l0,-7.956c0,-4.185 -2.468,-6.081 -5.796,-6.081Z" style="fill:#e51c62;fill-rule:nonzero;"/><path d="M871.869,741.227c-0.494,0.39 -1.144,0.572 -1.82,0.572c-1.248,0 -1.924,-0.728 -1.924,-2.081l0,-6.606l3.718,0l0,-2.597l-3.718,0l0,-3.172l-3.247,0l0,3.172l-2.288,0l0,2.597l2.288,0l0,6.684c0,3.068 1.74,4.678 4.781,4.678c1.17,0 2.34,-0.312 3.12,-0.935l-0.91,-2.312Z" style="fill:#e51c62;fill-rule:nonzero;"/><path d="M882.555,741.227c-0.494,0.39 -1.144,0.572 -1.82,0.572c-1.248,0 -1.924,-0.728 -1.924,-2.081l0,-6.606l3.718,0l0,-2.597l-3.718,0l0,-3.172l-3.247,0l0,3.172l-2.288,0l0,2.597l2.288,0l0,6.684c0,3.068 1.74,4.678 4.781,4.678c1.17,0 2.34,-0.312 3.12,-0.935l-0.91,-2.312Z" style="fill:#e51c62;fill-rule:nonzero;"/><path d="M893.841,730.255c-1.899,0 -3.512,0.649 -4.604,1.974l0,-1.818l-3.091,0l0,18.925l3.247,0l0,-6.732c1.118,1.273 2.679,1.87 4.448,1.87c4.057,0 7.044,-2.805 7.044,-7.121c0,-4.293 -2.987,-7.098 -7.044,-7.098Zm-0.365,11.44c-2.341,0 -4.135,-1.69 -4.135,-4.343c0,-2.653 1.794,-4.344 4.135,-4.344c2.341,0 4.11,1.691 4.11,4.344c0,2.653 -1.769,4.343 -4.11,4.343Z" style="fill:#e51c62;fill-rule:nonzero;"/><path d="M908.27,744.474c3.901,0 6.291,-1.688 6.291,-4.29c0,-5.433 -8.58,-2.939 -8.58,-5.746c0,-0.91 0.936,-1.56 2.913,-1.56c1.327,0 2.654,0.26 3.978,1.04l1.247,-2.468c-1.247,-0.753 -3.351,-1.195 -5.199,-1.195c-3.744,0 -6.108,1.714 -6.108,4.339c0,5.538 8.58,3.04 8.58,5.694c0,0.964 -0.859,1.537 -2.914,1.537c-1.743,0 -3.614,-0.573 -4.835,-1.381l-1.247,2.472c1.247,0.883 3.559,1.558 5.874,1.558Z" style="fill:#e51c62;fill-rule:nonzero;"/><path d="M918.41,734.568c1.169,0 2.131,-0.909 2.131,-2.156c0,-1.299 -0.962,-2.157 -2.131,-2.157c-1.169,0 -2.13,0.858 -2.13,2.157c0,1.247 0.961,2.156 2.13,2.156Zm0,9.906c1.169,0 2.131,-0.909 2.131,-2.156c0,-1.299 -0.962,-2.157 -2.131,-2.157c-1.169,0 -2.13,0.858 -2.13,2.157c0,1.247 0.961,2.156 2.13,2.156Z" style="fill:#e51c62;fill-rule:nonzero;"/><path d="M922.104,746.892l2.911,0l8.578,-24.492l-2.911,0l-8.578,24.492Z" style="fill:#e51c62;fill-rule:nonzero;"/><path d="M929.93,746.892l2.911,0l8.578,-24.492l-2.911,0l-8.578,24.492Z" style="fill:#e51c62;fill-rule:nonzero;"/><path d="M950.99,730.411l0,7.02c0,2.782 -1.535,4.186 -3.798,4.186c-2.055,0 -3.251,-1.196 -3.251,-3.718l0,-7.488l-3.247,0l0,7.93c0,4.185 2.416,6.133 5.978,6.133c1.795,0 3.434,-0.675 4.474,-1.948l0,1.766l3.091,0l0,-13.881l-3.247,0Z" style="fill:#e51c62;fill-rule:nonzero;"/><path d="M966.199,730.255c-1.769,0 -3.33,0.598 -4.448,1.844l0,-7.096l-3.247,0l0,19.289l3.091,0l0,-1.792c1.092,1.325 2.705,1.974 4.604,1.974c4.057,0 7.044,-2.805 7.044,-7.122c0,-4.318 -2.987,-7.097 -7.044,-7.097Zm-0.365,11.44c-2.341,0 -4.135,-1.69 -4.135,-4.343c0,-2.653 1.794,-4.344 4.135,-4.344c2.341,0 4.11,1.691 4.11,4.344c0,2.653 -1.769,4.343 -4.11,4.343Z" style="fill:#e51c62;fill-rule:nonzero;"/><path d="M982.707,744.474c2.704,0 4.862,-1.169 5.928,-3.247l-2.496,-1.456c-0.832,1.326 -2.08,1.924 -3.458,1.924c-2.392,0 -4.212,-1.638 -4.212,-4.343c0,-2.679 1.82,-4.344 4.212,-4.344c1.378,0 2.626,0.598 3.458,1.925l2.496,-1.457c-1.066,-2.104 -3.224,-3.221 -5.928,-3.221c-4.394,0 -7.511,2.935 -7.511,7.097c0,4.161 3.117,7.122 7.511,7.122Z" style="fill:#e51c62;fill-rule:nonzero;"/><path d="M997.605,744.474c2.704,0 4.862,-1.169 5.928,-3.247l-2.496,-1.456c-0.832,1.326 -2.08,1.924 -3.458,1.924c-2.392,0 -4.212,-1.638 -4.212,-4.343c0,-2.679 1.82,-4.344 4.212,-4.344c1.378,0 2.626,0.598 3.458,1.925l2.496,-1.457c-1.066,-2.104 -3.224,-3.221 -5.928,-3.221c-4.394,0 -7.511,2.935 -7.511,7.097c0,4.161 3.117,7.122 7.511,7.122Z" style="fill:#e51c62;fill-rule:nonzero;"/><path d="M1010.63,744.474c3.901,0 6.291,-1.688 6.291,-4.29c0,-5.433 -8.58,-2.939 -8.58,-5.746c0,-0.91 0.936,-1.56 2.913,-1.56c1.327,0 2.654,0.26 3.978,1.04l1.247,-2.468c-1.247,-0.753 -3.351,-1.195 -5.199,-1.195c-3.744,0 -6.108,1.714 -6.108,4.339c0,5.538 8.58,3.04 8.58,5.694c0,0.964 -0.859,1.537 -2.914,1.537c-1.743,0 -3.614,-0.573 -4.835,-1.381l-1.247,2.472c1.247,0.883 3.559,1.558 5.874,1.558Z" style="fill:#e51c62;fill-rule:nonzero;"/><path d="M1024.02,744.474c3.901,0 6.291,-1.688 6.291,-4.29c0,-5.433 -8.58,-2.939 -8.58,-5.746c0,-0.91 0.936,-1.56 2.913,-1.56c1.327,0 2.654,0.26 3.978,1.04l1.247,-2.468c-1.247,-0.753 -3.351,-1.195 -5.199,-1.195c-3.744,0 -6.108,1.714 -6.108,4.339c0,5.538 8.58,3.04 8.58,5.694c0,0.964 -0.859,1.537 -2.914,1.537c-1.743,0 -3.614,-0.573 -4.835,-1.381l-1.247,2.472c1.247,0.883 3.559,1.558 5.874,1.558Z" style="fill:#e51c62;fill-rule:nonzero;"/><path d="M1037.41,744.474c3.901,0 6.291,-1.688 6.291,-4.29c0,-5.433 -8.58,-2.939 -8.58,-5.746c0,-0.91 0.936,-1.56 2.913,-1.56c1.327,0 2.654,0.26 3.978,1.04l1.247,-2.468c-1.247,-0.753 -3.351,-1.195 -5.199,-1.195c-3.744,0 -6.108,1.714 -6.108,4.339c0,5.538 8.58,3.04 8.58,5.694c0,0.964 -0.859,1.537 -2.914,1.537c-1.743,0 -3.614,-0.573 -4.835,-1.381l-1.247,2.472c1.247,0.883 3.559,1.558 5.874,1.558Z" style="fill:#e51c62;fill-rule:nonzero;"/><path d="M1047.55,744.474c1.169,0 2.131,-0.909 2.131,-2.156c0,-1.299 -0.962,-2.157 -2.131,-2.157c-1.169,0 -2.13,0.858 -2.13,2.157c0,1.247 0.961,2.156 2.13,2.156Z" style="fill:#e51c62;fill-rule:nonzero;"/><path d="M1058.84,744.474c4.318,0 7.409,-2.961 7.409,-7.122c0,-4.162 -3.091,-7.097 -7.409,-7.097c-4.265,0 -7.382,2.935 -7.382,7.097c0,4.161 3.117,7.122 7.382,7.122Zm0,-2.779c-2.341,0 -4.109,-1.69 -4.109,-4.343c0,-2.653 1.768,-4.344 4.109,-4.344c2.367,0 4.136,1.691 4.136,4.344c0,2.653 -1.769,4.343 -4.136,4.343Z" style="fill:#e51c62;fill-rule:nonzero;"/><path d="M1072.46,732.439l0,-2.028l-3.091,0l0,13.881l3.247,0l0,-6.732c0,-2.836 1.56,-4.292 4.03,-4.292c0.234,0 0.468,0.026 0.754,0.078l0,-3.091c-2.314,0 -4.004,0.728 -4.94,2.184Z" style="fill:#e51c62;fill-rule:nonzero;"/><path d="M1090.71,730.411l0,1.844c-1.144,-1.376 -2.861,-2 -4.812,-2c-3.979,0 -7.018,2.649 -7.018,6.681c0,4.031 3.039,6.732 7.018,6.732c1.873,0 3.512,-0.597 4.656,-1.844l0,0.727c0,2.809 -1.353,4.214 -4.422,4.214c-1.924,0 -3.901,-0.65 -5.122,-1.666l-1.455,2.445c1.585,1.299 4.158,1.974 6.759,1.974c4.864,0 7.487,-2.285 7.487,-7.33l0,-11.777l-3.091,0Zm-4.318,10.504c-2.471,0 -4.239,-1.612 -4.239,-3.978c0,-2.342 1.768,-3.929 4.239,-3.929c2.445,0 4.214,1.587 4.214,3.928c0,2.367 -1.769,3.979 -4.214,3.979Z" style="fill:#e51c62;fill-rule:nonzero;"/><path d="M1095.16,746.892l2.911,0l8.578,-24.492l-2.911,0l-8.578,24.492Z" style="fill:#e51c62;fill-rule:nonzero;"/><path d="M1112.39,744.474c2.704,0 4.862,-1.169 5.928,-3.247l-2.496,-1.456c-0.832,1.326 -2.08,1.924 -3.458,1.924c-2.392,0 -4.212,-1.638 -4.212,-4.343c0,-2.679 1.82,-4.344 4.212,-4.344c1.378,0 2.626,0.598 3.458,1.925l2.496,-1.457c-1.066,-2.104 -3.224,-3.221 -5.928,-3.221c-4.394,0 -7.511,2.935 -7.511,7.097c0,4.161 3.117,7.122 7.511,7.122Z" style="fill:#e51c62;fill-rule:nonzero;"/><path d="M1126.44,730.255c-2.237,0 -4.394,0.572 -5.874,1.714l1.272,2.366c1.039,-0.858 2.651,-1.379 4.212,-1.379c2.315,0 3.46,1.119 3.46,3.019l0,0.208l-3.59,0c-4.212,0 -5.77,1.818 -5.77,4.133c0,2.418 2,4.158 5.172,4.158c2.081,0 3.59,-0.675 4.37,-1.869l0,1.687l3.065,0l0,-8.135c0,-4.006 -2.312,-5.902 -6.317,-5.902Zm-0.442,11.856c-1.665,0 -2.653,-0.754 -2.653,-1.925c0,-1.015 0.598,-1.848 2.809,-1.848l3.356,0l0,1.613c-0.546,1.432 -1.925,2.16 -3.512,2.16Z" style="fill:#e51c62;fill-rule:nonzero;"/><path d="M1144.79,730.255c-2.029,0 -3.72,0.675 -4.786,1.948l0,-1.792l-3.091,0l0,13.881l3.247,0l0,-7.018c0,-2.784 1.56,-4.188 3.876,-4.188c2.08,0 3.303,1.196 3.303,3.666l0,7.54l3.247,0l0,-7.956c0,-4.185 -2.468,-6.081 -5.796,-6.081Z" style="fill:#e51c62;fill-rule:nonzero;"/><path d="M1165.2,725.003l0,7.122c-1.092,-1.272 -2.679,-1.87 -4.474,-1.87c-4.031,0 -7.018,2.779 -7.018,7.097c0,4.317 2.987,7.122 7.018,7.122c1.899,0 3.512,-0.649 4.604,-1.974l0,1.792l3.117,0l0,-19.289l-3.247,0Zm-4.084,16.692c-2.341,0 -4.135,-1.69 -4.135,-4.343c0,-2.653 1.794,-4.344 4.135,-4.344c2.341,0 4.136,1.691 4.136,4.344c0,2.653 -1.795,4.343 -4.136,4.343Z" style="fill:#e51c62;fill-rule:nonzero;"/><path d="M1182.6,730.411l-4.393,10.27l-4.367,-10.27l-3.379,0l6.057,13.936l-0.234,0.546c-0.624,1.378 -1.3,1.924 -2.444,1.924c-0.884,0 -1.767,-0.364 -2.391,-0.962l-1.3,2.391c0.884,0.805 2.34,1.272 3.717,1.272c2.314,0 4.081,-0.961 5.355,-4.105l6.499,-15.002l-3.12,0Z" style="fill:#e51c62;fill-rule:nonzero;"/><path d="M1198.04,730.411l0,1.844c-1.144,-1.376 -2.861,-2 -4.812,-2c-3.979,0 -7.018,2.649 -7.018,6.681c0,4.031 3.039,6.732 7.018,6.732c1.873,0 3.512,-0.597 4.656,-1.844l0,0.727c0,2.809 -1.353,4.214 -4.422,4.214c-1.924,0 -3.901,-0.65 -5.122,-1.666l-1.455,2.445c1.585,1.299 4.158,1.974 6.759,1.974c4.864,0 7.487,-2.285 7.487,-7.33l0,-11.777l-3.091,0Zm-4.318,10.504c-2.471,0 -4.239,-1.612 -4.239,-3.978c0,-2.342 1.768,-3.929 4.239,-3.929c2.445,0 4.214,1.587 4.214,3.928c0,2.367 -1.769,3.979 -4.214,3.979Z" style="fill:#e51c62;fill-rule:nonzero;"/><path d="M1208.49,732.439l0,-2.028l-3.091,0l0,13.881l3.247,0l0,-6.732c0,-2.836 1.56,-4.292 4.03,-4.292c0.234,0 0.468,0.026 0.754,0.078l0,-3.091c-2.314,0 -4.004,0.728 -4.94,2.184Z" style="fill:#e51c62;fill-rule:nonzero;"/><path d="M1221.41,730.255c-2.237,0 -4.394,0.572 -5.874,1.714l1.272,2.366c1.039,-0.858 2.651,-1.379 4.212,-1.379c2.315,0 3.46,1.119 3.46,3.019l0,0.208l-3.59,0c-4.212,0 -5.77,1.818 -5.77,4.133c0,2.418 2,4.158 5.172,4.158c2.081,0 3.59,-0.675 4.37,-1.869l0,1.687l3.065,0l0,-8.135c0,-4.006 -2.312,-5.902 -6.317,-5.902Zm-0.442,11.856c-1.665,0 -2.653,-0.754 -2.653,-1.925c0,-1.015 0.598,-1.848 2.809,-1.848l3.356,0l0,1.613c-0.546,1.432 -1.925,2.16 -3.512,2.16Z" style="fill:#e51c62;fill-rule:nonzero;"/><path d="M1249.42,730.255c-2.211,0 -4.084,0.883 -5.201,2.312c-0.961,-1.559 -2.65,-2.312 -4.679,-2.312c-1.899,0 -3.512,0.675 -4.552,1.922l0,-1.766l-3.091,0l0,13.881l3.247,0l0,-7.044c0,-2.758 1.456,-4.162 3.616,-4.162c1.976,0 3.121,1.196 3.121,3.666l0,7.54l3.247,0l0,-7.046c0,-2.756 1.482,-4.16 3.616,-4.16c1.976,0 3.121,1.196 3.121,3.666l0,7.54l3.247,0l0,-7.956c0,-4.185 -2.338,-6.081 -5.692,-6.081Z" style="fill:#e51c62;fill-rule:nonzero;"/><path d="M1263.56,744.474c3.901,0 6.291,-1.688 6.291,-4.29c0,-5.433 -8.58,-2.939 -8.58,-5.746c0,-0.91 0.936,-1.56 2.913,-1.56c1.327,0 2.654,0.26 3.978,1.04l1.247,-2.468c-1.247,-0.753 -3.351,-1.195 -5.199,-1.195c-3.744,0 -6.108,1.714 -6.108,4.339c0,5.538 8.58,3.04 8.58,5.694c0,0.964 -0.859,1.537 -2.914,1.537c-1.743,0 -3.614,-0.573 -4.835,-1.381l-1.247,2.472c1.247,0.883 3.559,1.558 5.874,1.558Z" style="fill:#e51c62;fill-rule:nonzero;"/></svg>