<svg xmlns="http://www.w3.org/2000/svg" fill-rule="evenodd" stroke-linejoin="round" stroke-miterlimit="1.4" clip-rule="evenodd" viewBox="0 0 1440 810"><path fill="#fda4c2" d="M0 0h1440v810H0z"/><path fill="#fff" d="M1425 795H15V15h1410v780zM24 786h1392V24H24v762z"/><path fill="#08339a" fill-rule="nonzero" d="M1338.7 746.7l.4 12 11.1 9.2v-12.5l-11.5-8.7zm-1.8 10.3l-9.8-8-.8-12 10.2 7.9.4 12.1zm-12-10l-9-7-1.1-11.8 9.2 7.1.9 11.7zm-1.3-14.7l-9.3-7-1.4-13 9.8 6.8 1 13.2zm26.6-13v16l-12.4-8.8v-15.1l12.4 7.9zm-14.7-9.2v15l-10.7-7.4-1-14.9 11.7 7.3zm-23-.9l9.8 6.9-1-15-10.3-6.3 1.6 14.4z"/><path fill="#498df8" fill-rule="nonzero" d="M1383.9 727l1.7 1.2-9.3 7.1-.8 11.7-2-1.2.6-8.8-10.3 7.9-.3 12.1-2.1-1.6.3-8.7-11.5 8.7-11.5-8.7.3 8.7-2 1.6-.5-12.1-10.2-8 .5 8.9-2 1.2-.8-11.7-9.3-7 1.8-1.4 7.1 5.4-.9-13.2-9.8-6.8 2.2-1.2 7.1 5-1-15 12.6-6.3-7.2-4.2-.1-2.7 10.2 5.7 11.2-5.7-10-5.3 2.5 1.3V681l9.8 5.7 11.6-5.7-.4 13.7-11.4 5.6-1.8-.9v1.8l-1.6.8-10.1-5.6-12.6 6.3.9 14.9 10.7 7.5v-15l12.4-7.4v2.7l-10 5.9v12.4l-4.6 2.9 2.3 1.8v2.7l2-1.5 10.3 7.3v3.1l2.3-1.5 2.3 1.5V737l10.3-7.3 2 1.5v-2.7l2.3-1.8-4.6-3v-12.3l-10-6v-2.6l12.4 7.3v15l10.7-7.4 1-14.9-10-5v-3l12.5 6.3-1 15 7.1-5 2.2 1.2-9.7 6.8-1 13.2 7.2-5.4z"/><path fill="#fff" fill-rule="nonzero" d="M1350.2 755.4v12.5l11-9.2.5-12-11.5 8.7zM1374 737l-.8 12-9.8 8 .3-12.1 10.3-8zm11.5-8.8l-1.1 11.8-9 7 .8-11.7 9.3-7zm-23-16.8v15.1l-12.4 8.9v-16.1l-12.4-8 12.4-7.2 12.3 7.3zm24.8 1l-1.3 13-9.4 6.9 1-13.2 9.7-6.8zm-10.9-9.6l-.9 14.9-10.7 7.5v-15l-12.4-7.4 11.4-6.3 2.7 1.3 10 5zm-10-8l12.6 6.3-1 15 9.7-6.9 1.6-14.4-12.9-5.7-10 5.7zm-18.6 8l-12.4 7.3-11.6-7.3 12.6-6.3 11.4 6.3zm-36.9-8l10.3 6.3 12.5-6.3-7.2-4.2-2.7-1.5-12.9 5.7zm25.7-1.2l11.2-5.7-10-5.3-11.4 5.3 10.2 5.7zm25-12.5l-9.9-5.1-11.4 5.1 9.8 5.7 11.6-5.7z"/><g fill="#fff" fill-rule="nonzero"><path d="M58.4 54H72v73H58.4zM135.4 127H149V65.5h24.2V54h-62v11.5h24.2v61.7zM234.8 54V84H197V54h-13.6v73.2H197V95.7h37.8v31.4h13.6V53.9h-13.6zM302.2 128.1c22.7 0 39.4-15.9 39.4-37.6 0-21.7-16.7-37.6-39.4-37.6-22.6 0-39.3 16-39.3 37.6s16.7 37.6 39.3 37.6zm0-11.9a25 25 0 0 1-25.7-25.7 25 25 0 0 1 25.7-25.7A25 25 0 0 1 328 90.5a25 25 0 0 1-25.7 25.7zM387.5 128.1c20 0 32-11.6 32-32.9V54H406v40.8c0 15-6.7 21.5-18.5 21.5S369 109.7 369 94.7V53.9h-13.6v41.3c0 21.3 12 33 32 33zM488.4 112.4a29.5 29.5 0 0 1-15 3.8c-15.5 0-26.5-10.9-26.5-25.7 0-15.2 11-25.7 26.6-25.7 7.8 0 14.4 2.6 20.1 8.3l8.6-8.3a37.8 37.8 0 0 0-29.3-12c-23 0-39.6 15.9-39.6 37.7 0 21.8 16.7 37.6 39.3 37.6 10.4 0 21-3.1 28.7-9.3V89.7h-12.9v22.7zM570.6 54V84h-37.9V54h-13.6v73.2h13.6V95.7h37.9v31.4H584V53.9h-13.5zM618.6 127h13.6V65.5h24.2V54h-62v11.5h24.2v61.7zM710.4 127h13.5V65.5h24.3V54h-62v11.5h24.2v61.7zM809.8 54V84H772V54h-13.6v73.2H772V95.7h37.8v31.4h13.6V53.9h-13.6zM897.8 127H912l-33-73h-13.4l-32.9 73h14l7.2-16.9h36.6l7.3 17zm-39.3-27.5l13.7-32 13.8 32h-27.5zM932.5 127H946V65.5h24.2V54h-62v11.5h24.2v61.7zM1023.4 64.7h-14.7V55h27.4v62.4h15v9.7H1007v-9.7h16.4V64.7zM1110.8 100.7c0 4.1-.6 7.9-1.8 11.2a24.8 24.8 0 0 1-5 8.7 22.1 22.1 0 0 1-8 5.7c-3.1 1.3-6.7 2-10.8 2-3.8 0-7.3-.6-10.3-1.7a20 20 0 0 1-12.5-13.4 36.9 36.9 0 0 1-1.7-11.7c0-4.2.6-7.9 1.7-11.3a22.4 22.4 0 0 1 13-14.2c3.3-1.2 6.9-1.9 10.8-1.9 4 0 7.4.6 10.4 1.7a20.1 20.1 0 0 1 12.5 13.4c1.1 3.4 1.7 7.2 1.7 11.5zm-13 .3c0-5.3-1-9.4-3-12-2-2.8-5-4.1-9-4.1a10.8 10.8 0 0 0-9.3 4.8c-1 1.4-1.7 3.2-2.2 5.1-.4 2-.7 4.1-.7 6.4 0 5.4 1.1 9.4 3.3 12.2 2.2 2.7 5.2 4 9 4a10.1 10.1 0 0 0 9.1-4.7c1-1.4 1.6-3.2 2.1-5.2s.7-4.1.7-6.5zM1150.5 127h-14.3l-20.6-51.8h13.9l10.8 29.4 3.2 9.5 3.1-9 11-29.9h13.3l-20.4 51.9zM1224.1 97.2a92.4 92.4 0 0 1-.3 7.1h-34c0 2.3.3 4.3 1 6a11.8 11.8 0 0 0 7.5 7c1.8.7 3.8 1 6 1a60.1 60.1 0 0 0 17-2.5v9.9a54.8 54.8 0 0 1-9.1 1.8 67.8 67.8 0 0 1-9.8.7c-4 0-7.5-.5-10.6-1.6a21 21 0 0 1-13-13.2c-1.1-3.2-1.7-7-1.7-11.2 0-4.2.6-8 1.7-11.5 1.2-3.4 2.8-6.4 5-8.9 2-2.4 4.6-4.3 7.6-5.7 3-1.3 6.4-2 10-2 3.8 0 7 .6 9.8 1.7a19.5 19.5 0 0 1 11.5 12c1 3 1.4 6 1.4 9.4zm-12.6-1.8c0-2-.2-3.8-.8-5.3-.5-1.6-1.3-2.8-2.2-3.8-1-1-2-1.7-3.3-2.2a11 11 0 0 0-4-.7c-3.1 0-5.7 1-7.7 3.1s-3.2 5-3.5 8.9h21.5zM1268 148.5a74.8 74.8 0 0 1-18.6-22.6 55.8 55.8 0 0 1-4.3-40.5 57.4 57.4 0 0 1 13-24.4c3.2-3.6 6.5-6.9 10.2-10l7.1 7a62.7 62.7 0 0 0-15 19.4 52 52 0 0 0 0 44 60.3 60.3 0 0 0 15 19.5l-7.4 7.6zM1305.8 51a72 72 0 0 1 18.6 22.5 56.6 56.6 0 0 1 4.3 40.6 60 60 0 0 1-13 24.5c-3 3.5-6.4 6.8-10 9.9l-7.2-7.1c6.6-6 11.6-12.4 15-19.3a52 52 0 0 0 0-44 60.4 60.4 0 0 0-15-19.7l7.3-7.4zM152.3 158.4l-18.7 56-18.5-56h-12.5l-19 55.6-18.1-55.6H51.4l24.2 73.1h14.5l18.4-54 18.1 54H141l24.3-73h-13zM228.8 231.5H243l-33-73h-13.4l-32.9 73h14l7.2-16.9h36.6l7.3 17zM189.5 204l13.7-32 13.8 32h-27.5zM275 232.6c20 0 29.5-10 29.5-21.7 0-26.9-43.3-16.7-43.3-32.3 0-5.6 4.6-10 15.9-10 6.3 0 13.5 2 20.1 5.8l4.3-10.6a46.2 46.2 0 0 0-24.3-6.4c-20.1 0-29.5 10-29.5 21.8 0 27.2 43.5 16.8 43.5 32.6 0 5.4-4.8 9.5-16.2 9.5-9 0-18.3-3.3-24.2-8l-4.7 10.5c6 5.2 17.5 8.8 28.9 8.8zM401.6 231.5h14.2l-33-73h-13.4l-32.9 73h14l7.2-16.9h36.6l7.3 17zM362.3 204l13.7-32 13.8 32h-27.5zM477 193.5c5.6-3 9.3-8.5 9.3-16 0-11.7-9.4-19-27-19h-34.2v73h36.4c18.8 0 28.6-7.3 28.6-19.8a18 18 0 0 0-13.2-18.2zm-19-24.4c9.3 0 14.7 3.3 14.7 10.1 0 6.7-5.4 10-14.8 10h-19.2v-20.1h19.2zm2.6 51.8h-22v-21.1h22c10.3 0 15.8 3.2 15.8 10.5 0 7.4-5.5 10.6-15.8 10.6zM527.3 232.6c20 0 29.6-10 29.6-21.7 0-26.9-43.4-16.7-43.4-32.3 0-5.6 4.6-10 15.9-10 6.4 0 13.6 2 20.1 5.8l4.3-10.6a46.2 46.2 0 0 0-24.3-6.4c-20 0-29.5 10-29.5 21.8 0 27.2 43.5 16.8 43.5 32.6 0 5.4-4.8 9.5-16.2 9.5-9 0-18.3-3.3-24.1-8l-4.7 10.5c6 5.2 17.4 8.8 28.8 8.8zM584.1 231.5h13.6V170H622v-11.5h-62V170h24.2v61.6zM694.7 231.5l-16.8-24c9.9-3.8 15.5-12 15.5-23 0-16.3-11.9-26-31.1-26h-30.1v73h13.6v-21.3H665l15 21.3h14.6zm-15-47c0 9.1-6.1 14.6-18 14.6h-16v-29.2h16c11.9 0 18 5.3 18 14.5zM763.3 231.5h14.2l-33-73h-13.4l-32.9 73h14l7.2-16.9H756l7.3 17zM724 204l13.7-32 13.8 32H724zM819.6 232.6c12 0 22.3-4.3 29-12.2L840 212c-5.3 5.9-12 8.7-19.5 8.7a25 25 0 0 1-26.2-25.7 25 25 0 0 1 26.2-25.7c7.6 0 14.2 2.8 19.5 8.5l8.8-8.2a37 37 0 0 0-29-12.2c-22.4 0-39.1 15.7-39.1 37.6 0 21.8 16.7 37.6 39 37.6zM875.7 231.5h13.6V170h24.3v-11.5h-62V170h24.1v61.6z"/></g><g fill="#e51c62" fill-rule="nonzero"><path d="M926.5 215c-4.8 0-8.4 3.4-8.4 8.6a8 8 0 0 0 4.9 7.7l-4.2 16h8.5l5.3-14.7c1.9-4.8 2.4-6.7 2.4-9 0-5.1-3.6-8.7-8.5-8.7zM1009.3 232.6c20 0 32-11.6 32-33v-41.2h-13.4v40.8c0 15-6.7 21.5-18.5 21.5s-18.6-6.5-18.6-21.5v-40.8h-13.6v41.3c0 21.3 12 32.9 32 32.9zM1111.8 158.4V208l-40.4-49.5h-11.1v73.1h13.4V182l40.4 49.5h11.1v-73h-13.4zM1159.7 231.5h13.6V170h24.2v-11.5h-62V170h24.2v61.6zM1207.8 158.4h13.6v73.1h-13.6zM1241.1 231.5h51.8v-11.4h-38.2v-61.7h-13.6v73.1zM118.5 262.9h-13.3l-21.6 35.6L62 263H47.6l28.7 47.5V336H90v-25.8l28.6-47.3zM158.5 337c22.6 0 39.3-15.8 39.3-37.5 0-21.8-16.7-37.6-39.3-37.6-22.7 0-39.4 16-39.4 37.6s16.7 37.6 39.4 37.6zm0-11.8a25 25 0 0 1-25.7-25.7 25 25 0 0 1 25.7-25.7 25 25 0 0 1 25.7 25.7 25 25 0 0 1-25.7 25.7zM243.7 337c20 0 32-11.5 32-32.8v-41.3h-13.4v40.8c0 15-6.7 21.5-18.5 21.5s-18.6-6.5-18.6-21.5v-40.8h-13.5v41.3c0 21.3 12 32.9 32 32.9zM323.6 263H337v73h-13.5zM437 336l-.1-73.1h-11.2L397 311.4l-29-48.5h-11.2V336h13v-47.8l24 39.5h6l24.1-40.1.1 48.4H437zM486.8 262.9h-30.1V336h13.5v-21h16.6c19.2 0 31-10 31-26 0-16.3-11.8-26.1-31-26.1zm-.7 40.5h-15.9v-29h16c11.8 0 18 5.3 18 14.5s-6.2 14.5-18 14.5zM531.5 336h51.8v-11.5H545V263h-13.5V336zM607.6 324.7v-20.2H643v-11.2h-35.3v-19h39.8v-11.4h-53.3V336h54.8v-11.3h-41.3zM744.1 336V263h-11.2l-28.6 48.5-29-48.5H664V336h13v-47.8l24 39.5h6l24.1-40.1.1 48.4h12.8zM777.4 324.7v-20.2h35.3v-11.2h-35.3v-19h39.8v-11.4h-53.4V336h54.9v-11.3h-41.3zM885.4 262.9v49.5L845 263H834V336h13.4v-49.5l40.4 49.5h11.1V263h-13.4zM933.3 336H947v-61.6H971v-11.5h-62v11.5h24.2V336zM995 324.7v-20.2h35.3v-11.2H995v-19h39.8v-11.4h-53.4V336h54.8v-11.3H995zM1051.4 336h32c23.7 0 39.9-14.6 39.9-36.5 0-22-16.2-36.6-40-36.6h-32V336zm13.6-11.5v-50.1h17.7c16.3 0 26.9 10 26.9 25 0 15.2-10.6 25.1-26.9 25.1H1065zM1166.5 263h13.6v73h-13.6zM1214.7 336h13.6v-61.6h24.2v-11.5h-62v11.5h24.2V336zM1291.6 263h13.6v73h-13.6zM1376.4 262.9v49.5l-40.3-49.5h-11.2V336h13.5v-49.5l40.3 49.5h11.2V263h-13.5zM92.2 458.4V423a49 49 0 0 0-.5-5.8 3 3 0 0 0-.9-1.5c-.4-.3-1-.5-1.6-.5-1 0-2 .7-3.1 2.2-1 1.4-2.2 3.8-3.5 7.3v33.6H72V423a49 49 0 0 0-.5-5.8 3 3 0 0 0-1-1.5c-.4-.3-1-.5-1.6-.5-.9 0-1.9.7-3 2.2-1 1.4-2.2 3.8-3.6 7.3v33.6H51.6v-51.9h9.2l.2 7.6a31 31 0 0 1 2.2-4c.8-1 1.6-2 2.4-2.6.9-.7 1.8-1.2 2.8-1.5 1-.3 2-.5 3.3-.5 2.9 0 5 .8 6.6 2.3a9.6 9.6 0 0 1 2.5 6.3l2.5-4c.8-1 1.6-2 2.5-2.6.8-.7 1.8-1.2 2.8-1.5 1-.3 2-.5 3.3-.5 3.8 0 6.6 1.3 8.4 4 1.8 2.6 2.7 6.5 2.7 11.7v37.2H92.2zM144.3 452.7a92.8 92.8 0 0 1-5.7 11.8c-2 3.4-4 6.2-6.4 8.5a24 24 0 0 1-17.5 6.8 33.1 33.1 0 0 1-5.9-.5v-10.6a296 296 0 0 0 4.8.6h1.7c1.4 0 2.7-.2 4-.8 1.2-.5 2.3-1.3 3.4-2.2 1-1 2-2.2 2.8-3.5.8-1.4 1.6-2.8 2.2-4.4l-20.5-51.9H121l10.8 29.4 3.2 9.5 3.2-9 10.9-29.9h13.3l-18.1 46.2zM203.5 458.4v-29h-22.7v29h-12.5v-66.7h12.5v26.8h22.7v-26.8H216v66.7h-12.5zM273.1 428.5a92.4 92.4 0 0 1-.3 7.1h-34c0 2.3.3 4.3 1 6a11.8 11.8 0 0 0 7.5 7c1.8.7 3.8 1 6 1a60.2 60.2 0 0 0 17-2.5v9.9a54.8 54.8 0 0 1-9.1 1.8 67.7 67.7 0 0 1-9.8.7c-4 0-7.5-.5-10.6-1.6a21 21 0 0 1-13-13.1c-1.1-3.3-1.7-7-1.7-11.3 0-4.2.6-8 1.7-11.5 1.2-3.4 2.8-6.4 5-8.9 2-2.4 4.6-4.3 7.6-5.7 3-1.3 6.4-2 10-2 3.7 0 7 .6 9.8 1.7a19.5 19.5 0 0 1 11.4 12c1 3 1.5 6 1.5 9.4zm-12.6-1.8c0-2-.2-3.8-.8-5.3-.5-1.6-1.3-2.8-2.2-3.8-1-1-2-1.7-3.3-2.2a11 11 0 0 0-4-.7c-3.1 0-5.7 1-7.7 3.1s-3.2 5-3.6 8.9h21.6zM318 458.4l-.4-6.8c-1 1.1-2.2 2.2-3.4 3.2a21.2 21.2 0 0 1-14.1 4.7c-2.7 0-5-.3-7-1.1s-3.7-1.9-5-3.3c-1.4-1.4-2.5-3-3.2-5-.7-2-1-4.2-1-6.6 0-2.4.5-4.7 1.5-6.8 1-2 2.7-3.8 4.8-5.3a25 25 0 0 1 8-3.5c3.1-.9 6.9-1.3 11.2-1.3h6.7v-3.1c0-1.3-.2-2.5-.5-3.6-.4-1-1-2-1.8-2.7-.9-.8-2-1.4-3.3-1.8-1.3-.4-3-.6-4.9-.6a39.6 39.6 0 0 0-17.7 4v-10a49.6 49.6 0 0 1 28.6-2.3c2.8.7 5 1.8 6.9 3.3a13 13 0 0 1 4 5.5c.8 2.2 1.2 4.7 1.2 7.7v35.4h-10.7zm-1.9-23h-7.6c-2 0-3.9.3-5.3.7-1.5.4-2.7 1-3.6 1.7a6.6 6.6 0 0 0-2.6 5.4c0 2.1.6 3.7 2 4.8a8.6 8.6 0 0 0 5.6 1.7c1.7 0 3.5-.6 5.4-1.9 1.8-1.2 3.9-3 6.1-5.4v-7zM376.2 426.7c.1-2 0-3.6-.2-5a9.5 9.5 0 0 0-1.3-3.3 5.2 5.2 0 0 0-2-2c-.9-.4-1.8-.6-2.8-.6-1.9 0-3.8.8-5.7 2.3-2 1.5-4.1 4-6.5 7.5v32.8H345v-51.9h11.2l.5 7.6a20.5 20.5 0 0 1 6.4-6.3c1.4-.8 2.8-1.4 4.4-1.8a21.2 21.2 0 0 1 12.2.8c2 .9 3.8 2.2 5.1 4 1.4 1.7 2.4 4 3 6.6.8 2.7 1 5.8 1 9.3h-12.6zM443 457.9a76.6 76.6 0 0 1-13.2 1.6c-3.4 0-6.3-.3-8.8-1-2.5-.7-4.5-1.8-6.1-3.3a13 13 0 0 1-3.6-5.6c-.8-2.2-1.1-5-1.1-8v-25.4h-14v-9.7h14v-13.2l12.7-3.3v16.5h20.2v9.7h-20.2v24.4c0 3 .7 5.2 2 6.7 1.4 1.5 3.7 2.3 6.9 2.3a56.8 56.8 0 0 0 11.3-1.7v10z"/></g><path fill="#fff" fill-rule="nonzero" d="M803 710.6c5 0 7.3-2.5 7.3-5.4 0-6.7-10.8-4.1-10.8-8 0-1.4 1.1-2.5 4-2.5 1.5 0 3.3.5 5 1.5l1-2.7c-1.6-1-3.8-1.6-6-1.6-5 0-7.4 2.5-7.4 5.4 0 6.8 10.9 4.2 10.9 8.2 0 1.3-1.2 2.3-4 2.3a10 10 0 0 1-6-2l-1.3 2.6c1.6 1.3 4.4 2.2 7.2 2.2zM826.4 703.5c0-4.3-3-7.2-7-7.2-4.2 0-7.2 3-7.2 7.1 0 4.2 3 7.2 7.7 7.2 2.3 0 4.3-.8 5.5-2.3l-1.7-2a5 5 0 0 1-3.8 1.5c-2.4 0-4-1.3-4.5-3.3h11v-1zm-7-4.6c2 0 3.6 1.4 3.9 3.4h-7.9c.3-2 1.9-3.4 4-3.4zM837.4 696.3a6 6 0 0 0-4.8 2v-1.8h-3.1v13.9h3.2v-7c0-2.8 1.6-4.2 4-4.2 2 0 3.2 1.2 3.2 3.6v7.6h3.3v-8c0-4.2-2.5-6-5.8-6zM857.8 691v7.2a5.7 5.7 0 0 0-4.5-1.9c-4 0-7 2.8-7 7.1s3 7.2 7 7.2c2 0 3.5-.7 4.6-2v1.8h3.1V691h-3.2zm-4.1 16.8c-2.3 0-4.1-1.7-4.1-4.4 0-2.6 1.8-4.3 4.1-4.3s4.1 1.7 4.1 4.3c0 2.7-1.8 4.4-4.1 4.4zM882.4 696.5l-4.4 10.3-4.4-10.3h-3.4l6 14-.2.5c-.6 1.4-1.3 1.9-2.4 1.9-.9 0-1.8-.4-2.4-1l-1.3 2.4c.9.8 2.3 1.3 3.7 1.3 2.3 0 4.1-1 5.4-4.1l6.5-15h-3.1zM893.4 710.6c4.3 0 7.4-3 7.4-7.2 0-4.1-3.1-7-7.4-7-4.3 0-7.4 2.9-7.4 7 0 4.2 3 7.2 7.4 7.2zm0-2.8c-2.4 0-4.2-1.7-4.2-4.4 0-2.6 1.8-4.3 4.2-4.3 2.3 0 4 1.7 4 4.3 0 2.7-1.7 4.4-4 4.4zM914 696.5v7c0 2.8-1.5 4.2-3.7 4.2-2 0-3.3-1.2-3.3-3.7v-7.5h-3.2v8c0 4.1 2.4 6 6 6 1.8 0 3.4-.6 4.4-1.9v1.8h3.1v-14h-3.2zM924.7 698.5v-2h-3.1v13.9h3.2v-6.8c0-2.8 1.6-4.3 4-4.3l.8.1v-3c-2.3 0-4 .7-5 2.1zM939.7 691.1h3.2v19.3h-3.2zM953.4 710.6c4.4 0 7.4-3 7.4-7.2 0-4.1-3-7-7.4-7-4.2 0-7.3 2.9-7.3 7 0 4.2 3 7.2 7.3 7.2zm0-2.8c-2.3 0-4-1.7-4-4.4 0-2.6 1.7-4.3 4-4.3 2.4 0 4.2 1.7 4.2 4.3 0 2.7-1.8 4.4-4.2 4.4zM973.5 696.5l-4.5 10.3-4.3-10.3h-3.4l6 13.9h3.3l6-14h-3.1zM991.3 703.5c0-4.3-3-7.2-7-7.2-4.2 0-7.2 3-7.2 7.1 0 4.2 3 7.2 7.6 7.2 2.4 0 4.4-.8 5.6-2.3l-1.7-2a5 5 0 0 1-3.8 1.5c-2.4 0-4-1.3-4.5-3.3h11v-1zm-7-4.6c2 0 3.6 1.4 3.9 3.4h-7.9c.3-2 1.8-3.4 4-3.4zM1004.7 691v7.2a5.7 5.7 0 0 0-4.4-1.9c-4 0-7 2.8-7 7.1s3 7.2 7 7.2c1.9 0 3.5-.7 4.6-2v1.8h3V691h-3.2zm-4 16.8c-2.4 0-4.2-1.7-4.2-4.4 0-2.6 1.8-4.3 4.2-4.3 2.3 0 4 1.7 4 4.3 0 2.7-1.7 4.4-4 4.4zM1025.7 710.6c4.3 0 7.4-3 7.4-7.2 0-4.1-3.1-7-7.4-7-4.3 0-7.4 2.9-7.4 7 0 4.2 3.1 7.2 7.4 7.2zm0-2.8c-2.4 0-4.1-1.7-4.1-4.4 0-2.6 1.7-4.3 4-4.3 2.4 0 4.2 1.7 4.2 4.3 0 2.7-1.8 4.4-4.1 4.4zM1044 696.3a6 6 0 0 0-4.7 2v-1.8h-3.1v13.9h3.2v-7c0-2.8 1.6-4.2 4-4.2 2 0 3.2 1.2 3.2 3.6v7.6h3.3v-8c0-4.2-2.5-6-5.8-6zM1067.2 703.5c0-4.3-3-7.2-7-7.2-4.2 0-7.2 3-7.2 7.1 0 4.2 3 7.2 7.7 7.2 2.4 0 4.3-.8 5.6-2.3l-1.8-2a5 5 0 0 1-3.8 1.5c-2.4 0-4-1.3-4.5-3.3h11v-1zm-7-4.6c2.1 0 3.6 1.4 3.9 3.4h-7.9c.3-2 1.9-3.4 4-3.4zM1074.6 710.6c3.9 0 6.3-1.7 6.3-4.3 0-5.5-8.6-3-8.6-5.8 0-.9 1-1.5 3-1.5 1.3 0 2.6.2 3.9 1l1.2-2.5a11 11 0 0 0-5.2-1.2c-3.7 0-6 1.7-6 4.4 0 5.5 8.5 3 8.5 5.7 0 1-.8 1.5-2.9 1.5-1.7 0-3.6-.6-4.8-1.4l-1.3 2.5a11 11 0 0 0 5.9 1.6zM1096.2 696.3c-2.3 0-4.4.6-5.9 1.7l1.3 2.4c1-.8 2.6-1.4 4.2-1.4 2.3 0 3.5 1.2 3.5 3v.3h-3.6c-4.3 0-5.8 1.8-5.8 4 0 2.5 2 4.3 5.2 4.3 2 0 3.6-.7 4.3-2v1.8h3.1v-8.2c0-4-2.3-5.9-6.3-5.9zm-.5 11.9c-1.6 0-2.6-.8-2.6-2 0-1 .6-1.8 2.8-1.8h3.3v1.6c-.5 1.5-1.9 2.2-3.5 2.2zM1120.2 710.6c2.7 0 4.9-1.2 6-3.3l-2.6-1.5a4 4 0 0 1-3.4 2c-2.4 0-4.2-1.7-4.2-4.4 0-2.6 1.8-4.3 4.2-4.3a4 4 0 0 1 3.4 2l2.5-1.5c-1-2.1-3.2-3.3-5.9-3.3-4.4 0-7.5 3-7.5 7.1 0 4.2 3.1 7.2 7.5 7.2zM1134.2 696.3c-2.2 0-4.4.6-5.8 1.7l1.2 2.4c1-.8 2.7-1.4 4.3-1.4 2.3 0 3.4 1.2 3.4 3v.3h-3.6c-4.2 0-5.8 1.8-5.8 4 0 2.5 2 4.3 5.2 4.3 2.1 0 3.6-.7 4.4-2v1.8h3v-8.2c0-4-2.3-5.9-6.3-5.9zm-.4 11.9c-1.7 0-2.7-.8-2.7-2 0-1 .6-1.8 2.9-1.8h3.3v1.6c-.5 1.5-2 2.2-3.5 2.2zM1152.6 696.3a6 6 0 0 0-4.8 2v-1.8h-3v13.9h3.2v-7c0-2.8 1.5-4.2 3.8-4.2 2.1 0 3.3 1.2 3.3 3.6v7.6h3.3v-8c0-4.2-2.5-6-5.8-6zM1173 691v7.2a5.7 5.7 0 0 0-4.5-1.9c-4 0-7 2.8-7 7.1s3 7.2 7 7.2c2 0 3.5-.7 4.6-2v1.8h3.2V691h-3.3zm-4 16.8c-2.4 0-4.2-1.7-4.2-4.4 0-2.6 1.8-4.3 4.1-4.3 2.4 0 4.2 1.7 4.2 4.3 0 2.7-1.8 4.4-4.2 4.4zM1190.4 696.5l-4.4 10.3-4.4-10.3h-3.3l6 14-.2.5c-.6 1.4-1.3 1.9-2.5 1.9-.8 0-1.7-.4-2.4-1l-1.3 2.4c1 .8 2.4 1.3 3.8 1.3 2.3 0 4-1 5.3-4.1l6.5-15h-3.1zM1205.8 696.5v1.8a6 6 0 0 0-4.8-2c-4 0-7 2.7-7 6.7s3 6.7 7 6.7c2 0 3.6-.6 4.7-1.8v.7c0 2.8-1.4 4.2-4.4 4.2-2 0-4-.6-5.2-1.6l-1.4 2.4a11 11 0 0 0 6.8 2c4.8 0 7.4-2.3 7.4-7.3v-11.8h-3zm-4.3 10.5c-2.4 0-4.2-1.6-4.2-4 0-2.3 1.8-4 4.2-4 2.5 0 4.2 1.7 4.2 4 0 2.4-1.7 4-4.2 4zM1216.3 698.5v-2h-3v13.9h3.2v-6.8c0-2.8 1.5-4.3 4-4.3l.7.1v-3c-2.3 0-4 .7-4.9 2.1zM1229.2 696.3c-2.2 0-4.4.6-5.9 1.7l1.3 2.4c1-.8 2.7-1.4 4.2-1.4 2.3 0 3.5 1.2 3.5 3v.3h-3.6c-4.2 0-5.8 1.8-5.8 4 0 2.5 2 4.3 5.2 4.3 2 0 3.6-.7 4.4-2v1.8h3v-8.2c0-4-2.3-5.9-6.3-5.9zm-.4 11.9c-1.7 0-2.7-.8-2.7-2 0-1 .6-1.8 2.8-1.8h3.4v1.6c-.6 1.5-2 2.2-3.5 2.2zM1257.2 696.3c-2.2 0-4 1-5.2 2.3-1-1.5-2.6-2.3-4.7-2.3-1.9 0-3.5.7-4.5 2v-1.8h-3.1v13.9h3.2v-7c0-2.8 1.5-4.2 3.7-4.2 2 0 3 1.2 3 3.6v7.6h3.3v-7c0-2.8 1.5-4.2 3.6-4.2 2 0 3.2 1.2 3.2 3.6v7.6h3.2v-8c0-4.2-2.3-6-5.7-6zM1268.1 710.6c1.2 0 2.2-1 2.2-2.2a2 2 0 0 0-2.2-2.2 2 2 0 0 0-2.1 2.2c0 1.2 1 2.2 2.1 2.2z"/><path fill="#e51c62" fill-rule="nonzero" d="M854.5 730.3c-2 0-3.6.6-4.6 1.7v-7h-3.3v19.3h3.3v-7c0-2.8 1.5-4.2 3.8-4.2 2.1 0 3.4 1.2 3.4 3.7v7.5h3.2v-8c0-4.1-2.5-6-5.8-6zM871.9 741.2a3 3 0 0 1-1.9.6c-1.2 0-1.9-.7-1.9-2V733h3.7v-2.6h-3.7v-3.2H865v3.2h-2.3v2.6h2.3v6.7c0 3 1.7 4.7 4.8 4.7 1.1 0 2.3-.3 3-1l-.8-2.3zM882.6 741.2a3 3 0 0 1-1.9.6c-1.2 0-1.9-.7-1.9-2V733h3.7v-2.6h-3.7v-3.2h-3.2v3.2h-2.3v2.6h2.3v6.7c0 3 1.7 4.7 4.7 4.7 1.2 0 2.4-.3 3.2-1l-1-2.3zM893.8 730.3c-1.9 0-3.5.6-4.6 2v-1.9h-3v19h3.2v-6.8a5.7 5.7 0 0 0 4.4 1.9c4.1 0 7-2.8 7-7.1s-2.9-7.1-7-7.1zm-.3 11.4c-2.4 0-4.2-1.7-4.2-4.3 0-2.7 1.8-4.4 4.2-4.4 2.3 0 4 1.7 4 4.4 0 2.6-1.7 4.3-4 4.3zM908.3 744.5c3.9 0 6.3-1.7 6.3-4.3 0-5.4-8.6-3-8.6-5.8 0-.9 1-1.5 2.9-1.5 1.3 0 2.6.2 4 1l1.2-2.4a11 11 0 0 0-5.2-1.2c-3.7 0-6 1.7-6 4.3 0 5.5 8.5 3 8.5 5.7 0 1-.9 1.5-3 1.5-1.7 0-3.5-.5-4.8-1.4l-1.2 2.5a11 11 0 0 0 5.9 1.6zM918.4 734.6c1.2 0 2.1-1 2.1-2.2a2 2 0 0 0-2-2.1 2 2 0 0 0-2.2 2.1c0 1.3 1 2.2 2.1 2.2zm0 9.9c1.2 0 2.1-1 2.1-2.2a2 2 0 0 0-2-2.1 2 2 0 0 0-2.2 2.1c0 1.3 1 2.2 2.1 2.2zM922.1 746.9h3l8.5-24.5h-3l-8.5 24.5zM930 746.9h2.8l8.6-24.5h-2.9l-8.6 24.5zM951 730.4v7c0 2.8-1.5 4.2-3.8 4.2-2 0-3.3-1.2-3.3-3.7v-7.5h-3.2v8c0 4.1 2.4 6 6 6 1.8 0 3.4-.6 4.4-1.9v1.8h3.1v-13.9H951zM966.2 730.3c-1.8 0-3.3.6-4.4 1.8V725h-3.3v19.3h3.1v-1.8c1 1.3 2.7 2 4.6 2 4 0 7-2.8 7-7.1 0-4.4-3-7.1-7-7.1zm-.4 11.4c-2.3 0-4.1-1.7-4.1-4.3 0-2.7 1.8-4.4 4.1-4.4 2.4 0 4.1 1.7 4.1 4.4 0 2.6-1.7 4.3-4 4.3zM982.7 744.5c2.7 0 4.9-1.2 6-3.3l-2.6-1.4a4 4 0 0 1-3.4 1.9c-2.4 0-4.2-1.6-4.2-4.3 0-2.7 1.8-4.4 4.2-4.4a4 4 0 0 1 3.4 2l2.5-1.5c-1-2.1-3.2-3.2-5.9-3.2-4.4 0-7.5 2.9-7.5 7 0 4.2 3.1 7.2 7.5 7.2zM997.6 744.5c2.7 0 4.9-1.2 6-3.3l-2.6-1.4a4 4 0 0 1-3.4 1.9c-2.4 0-4.2-1.6-4.2-4.3 0-2.7 1.8-4.4 4.2-4.4a4 4 0 0 1 3.4 2l2.5-1.5c-1-2.1-3.2-3.2-5.9-3.2-4.4 0-7.5 2.9-7.5 7 0 4.2 3.1 7.2 7.5 7.2zM1010.6 744.5c4 0 6.3-1.7 6.3-4.3 0-5.4-8.6-3-8.6-5.8 0-.9 1-1.5 3-1.5 1.3 0 2.6.2 4 1l1.2-2.4a11 11 0 0 0-5.2-1.2c-3.8 0-6.1 1.7-6.1 4.3 0 5.5 8.6 3 8.6 5.7 0 1-1 1.5-3 1.5-1.7 0-3.6-.5-4.8-1.4l-1.2 2.5a11 11 0 0 0 5.8 1.6zM1024 744.5c4 0 6.3-1.7 6.3-4.3 0-5.4-8.6-3-8.6-5.8 0-.9 1-1.5 3-1.5 1.3 0 2.6.2 4 1l1.2-2.4a11 11 0 0 0-5.2-1.2c-3.8 0-6.1 1.7-6.1 4.3 0 5.5 8.5 3 8.5 5.7 0 1-.8 1.5-2.9 1.5-1.7 0-3.6-.5-4.8-1.4l-1.3 2.5a11 11 0 0 0 6 1.6zM1037.4 744.5c4 0 6.3-1.7 6.3-4.3 0-5.4-8.6-3-8.6-5.8 0-.9 1-1.5 3-1.5 1.3 0 2.6.2 4 1l1.2-2.4a11 11 0 0 0-5.2-1.2c-3.8 0-6.1 1.7-6.1 4.3 0 5.5 8.5 3 8.5 5.7 0 1-.8 1.5-2.9 1.5-1.7 0-3.6-.5-4.8-1.4l-1.3 2.5a11 11 0 0 0 6 1.6zM1047.5 744.5c1.2 0 2.2-1 2.2-2.2a2 2 0 0 0-2.2-2.1 2 2 0 0 0-2 2.1c0 1.3.9 2.2 2 2.2zM1058.8 744.5c4.4 0 7.4-3 7.4-7.1 0-4.2-3-7.1-7.4-7.1-4.2 0-7.3 2.9-7.3 7 0 4.2 3 7.2 7.3 7.2zm0-2.8c-2.3 0-4-1.7-4-4.3 0-2.7 1.7-4.4 4-4.4 2.4 0 4.2 1.7 4.2 4.4 0 2.6-1.8 4.3-4.2 4.3zM1072.5 732.4v-2h-3.1v13.9h3.2v-6.7c0-2.9 1.6-4.3 4-4.3h.8v-3c-2.3 0-4 .7-5 2.1zM1090.7 730.4v1.9a6 6 0 0 0-4.8-2c-4 0-7 2.6-7 6.6 0 4 3 6.8 7 6.8 1.9 0 3.5-.6 4.7-1.9v.8c0 2.8-1.4 4.2-4.5 4.2-1.9 0-3.9-.7-5-1.7l-1.5 2.4a11 11 0 0 0 6.7 2c4.9 0 7.5-2.3 7.5-7.3v-11.8h-3zm-4.3 10.5c-2.5 0-4.2-1.6-4.2-4 0-2.3 1.7-3.9 4.2-3.9 2.4 0 4.2 1.6 4.2 4 0 2.3-1.8 4-4.2 4zM1095.2 746.9h2.9l8.5-24.5h-2.9l-8.5 24.5zM1112.4 744.5c2.7 0 4.9-1.2 6-3.3l-2.6-1.4a4 4 0 0 1-3.4 1.9c-2.4 0-4.2-1.6-4.2-4.3 0-2.7 1.8-4.4 4.2-4.4a4 4 0 0 1 3.4 2l2.5-1.5c-1-2.1-3.2-3.2-6-3.2-4.3 0-7.4 2.9-7.4 7 0 4.2 3.1 7.2 7.5 7.2zM1126.4 730.3c-2.2 0-4.4.5-5.8 1.7l1.2 2.3c1-.8 2.7-1.3 4.3-1.3 2.3 0 3.4 1 3.4 3v.2h-3.6c-4.2 0-5.8 1.8-5.8 4.1 0 2.4 2 4.2 5.2 4.2 2.1 0 3.6-.7 4.4-1.9v1.7h3v-8.1c0-4-2.3-6-6.3-6zm-.4 11.8c-1.7 0-2.7-.7-2.7-2 0-1 .6-1.8 2.9-1.8h3.3v1.7c-.5 1.4-2 2.1-3.5 2.1zM1144.8 730.3a6 6 0 0 0-4.8 1.9v-1.8h-3v13.9h3.2v-7c0-2.8 1.5-4.2 3.8-4.2 2.1 0 3.3 1.2 3.3 3.7v7.5h3.3v-8c0-4.1-2.5-6-5.8-6zM1165.2 725v7.1a5.7 5.7 0 0 0-4.5-1.8c-4 0-7 2.7-7 7 0 4.4 3 7.2 7 7.2 2 0 3.5-.7 4.6-2v1.8h3.1V725h-3.2zm-4 16.7c-2.4 0-4.2-1.7-4.2-4.3 0-2.7 1.8-4.4 4.1-4.4 2.4 0 4.2 1.7 4.2 4.4 0 2.6-1.8 4.3-4.2 4.3zM1182.6 730.4l-4.4 10.3-4.4-10.3h-3.3l6 14-.2.5c-.6 1.4-1.3 2-2.5 2-.8 0-1.7-.4-2.4-1l-1.3 2.3c1 .9 2.4 1.3 3.8 1.3 2.3 0 4-1 5.3-4l6.5-15h-3.1zM1198 730.4v1.9a6 6 0 0 0-4.8-2c-4 0-7 2.6-7 6.6 0 4 3 6.8 7 6.8 1.9 0 3.5-.6 4.7-1.9v.8c0 2.8-1.4 4.2-4.4 4.2-2 0-4-.7-5.2-1.7l-1.4 2.4a11 11 0 0 0 6.7 2c5 0 7.5-2.3 7.5-7.3v-11.8h-3zm-4.3 10.5c-2.4 0-4.2-1.6-4.2-4 0-2.3 1.8-3.9 4.2-3.9 2.5 0 4.2 1.6 4.2 4 0 2.3-1.7 4-4.2 4zM1208.5 732.4v-2h-3.1v13.9h3.2v-6.7c0-2.9 1.6-4.3 4-4.3h.8v-3c-2.3 0-4 .7-5 2.1zM1221.4 730.3c-2.2 0-4.4.5-5.9 1.7l1.3 2.3c1-.8 2.7-1.3 4.2-1.3 2.3 0 3.5 1 3.5 3v.2h-3.6c-4.2 0-5.8 1.8-5.8 4.1 0 2.4 2 4.2 5.2 4.2 2 0 3.6-.7 4.4-1.9v1.7h3v-8.1c0-4-2.3-6-6.3-6zm-.4 11.8c-1.7 0-2.7-.7-2.7-2 0-1 .6-1.8 2.8-1.8h3.4v1.7c-.6 1.4-2 2.1-3.5 2.1zM1249.4 730.3c-2.2 0-4 .8-5.2 2.3-1-1.6-2.6-2.3-4.7-2.3-1.9 0-3.5.6-4.5 1.9v-1.8h-3.1v13.9h3.2v-7c0-2.8 1.5-4.2 3.7-4.2 2 0 3 1.2 3 3.7v7.5h3.3v-7c0-2.8 1.5-4.2 3.6-4.2 2 0 3.2 1.2 3.2 3.7v7.5h3.2v-8c0-4.1-2.3-6-5.7-6zM1263.6 744.5c3.9 0 6.3-1.7 6.3-4.3 0-5.4-8.6-3-8.6-5.8 0-.9 1-1.5 2.9-1.5 1.3 0 2.6.2 4 1l1.2-2.4a11 11 0 0 0-5.2-1.2c-3.7 0-6.1 1.7-6.1 4.3 0 5.5 8.6 3 8.6 5.7 0 1-.9 1.5-3 1.5-1.7 0-3.5-.5-4.8-1.4l-1.2 2.5a11 11 0 0 0 5.9 1.6z"/></svg>