<?xml version="1.0" encoding="UTF-8" standalone="no"?><!DOCTYPE svg PUBLIC "-//W3C//DTD SVG 1.1//EN" "http://www.w3.org/Graphics/SVG/1.1/DTD/svg11.dtd"><svg width="100%" height="100%" viewBox="0 0 615 234" version="1.1" xmlns="http://www.w3.org/2000/svg" xmlns:xlink="http://www.w3.org/1999/xlink" xml:space="preserve" xmlns:serif="http://www.serif.com/" style="fill-rule:evenodd;clip-rule:evenodd;stroke-linejoin:round;stroke-miterlimit:1.41421;"><rect x="0" y="0" width="615" height="234" style="fill:#0e224f;"/><path d="M615,5.078l0,18.883l-170.477,0l0,8.355l170.477,0l0,19.049l-207.491,0l0,8.355l207.491,0l0,18.882l-207.491,0l0,8.355l207.491,0l0,15.875l-615,0l0,-97.754l615,0Zm-452.352,81.879l0,-8.355l-162.648,0l0,8.355l162.648,0Zm0,-27.237l0,-8.355l-162.648,0l0,8.355l162.648,0Zm36.658,-27.404l0,-8.355l-199.306,0l0,8.355l199.306,0Z" style="fill:#ff645f;"/><path d="M364.369,5.125l2.465,0.046l0.049,3.689c0.059,4.476 -0.108,5.98 -0.832,7.461c-1.643,3.364 -5.753,5.003 -9.225,3.679c-0.667,-0.254 -0.884,-0.278 -1.03,-0.114c-0.102,0.114 -0.661,1.34 -1.243,2.723c-4.101,9.749 -11.26,22.844 -15.859,29.008c-2.234,2.994 -6.791,7.615 -9.594,9.727c-1.632,1.23 -1.958,1.548 -1.882,1.833c0.051,0.189 0.093,8.097 0.095,17.573l0.002,17.228l3.634,0.001c2.123,0.001 3.91,0.078 4.295,0.185c0.875,0.244 1.705,1.094 1.856,1.901c0.175,0.937 -0.34,2.1 -1.099,2.482l0,0c-0.549,0.277 -2.959,0.293 -43.443,0.283c-23.574,-0.006 -43.012,-0.073 -43.196,-0.149c-1.15,-0.478 -1.635,-2.283 -0.922,-3.439c0.68,-1.104 0.954,-1.168 5.434,-1.263l4.011,-0.084l0.167,-47.955l0.373,-0.526c0.716,-1.006 1.122,-1.067 7.15,-1.067c4.758,0 5.427,-0.032 5.427,-0.256c0,-0.141 -0.225,-0.704 -0.5,-1.25c-1.616,-3.213 -1.681,-7.276 -0.168,-10.531c0.269,-0.581 11.495,-19.456 12.863,-20.827c0.783,-0.784 1.853,-1.678 2.378,-1.987c0.524,-0.308 5.638,-2.325 11.362,-4.482l10.409,-3.921l6.843,-0.003c4.188,-0.002 6.781,0.057 6.684,0.152c-0.087,0.085 -7.114,2.766 -15.615,5.958c-8.502,3.192 -15.989,6.062 -16.639,6.379c-0.769,0.374 -1.474,0.886 -2.015,1.462c-0.927,0.985 -11.411,18.348 -11.97,19.823c-0.463,1.222 -0.557,2.965 -0.229,4.25c0.148,0.58 0.741,1.976 1.316,3.102l1.046,2.047l5.138,0.044c2.934,0.026 5.139,-0.019 5.139,-0.105c0,-0.678 -1.479,-3.082 -2.954,-4.801c-0.553,-0.646 -1.093,-1.339 -1.199,-1.54c-0.449,-0.856 -0.045,-2.292 0.818,-2.909c0.257,-0.183 0.848,-0.406 1.314,-0.495c2.176,-0.414 7.37,-3.244 10.641,-5.798c1.464,-1.143 1.799,-1.546 1.983,-2.385c0.257,-1.175 1.518,-2.038 2.647,-1.812c0.286,0.058 1.125,0.51 1.865,1.006c3.453,2.314 7.338,3.656 11.411,3.94c2.224,0.155 2.835,0.381 3.369,1.247c0.389,0.632 0.465,1.761 0.157,2.338c-0.106,0.199 -0.831,1.08 -1.612,1.959c-3.634,4.089 -8.054,10.786 -8.054,12.201c0,0.958 -0.927,1.968 -1.98,2.157c-0.336,0.06 -1.926,0.865 -3.534,1.788c-3.736,2.145 -12.714,7.758 -13.512,8.446c-1.477,1.277 -2.385,3.877 -2.041,5.845c0.399,2.282 2.012,4.352 4.015,5.151c1.416,0.565 3.773,0.54 5.021,-0.054c0.505,-0.241 4.891,-2.824 9.746,-5.742c6.435,-3.866 9.085,-5.371 9.776,-5.553c3.456,-0.907 8.514,-3.661 12.31,-6.703c2.951,-2.364 6.659,-6.47 9.093,-10.069c2.734,-4.042 7.041,-11.745 10.285,-18.392c2.136,-4.376 4.601,-10.003 4.601,-10.502c0,-0.206 -3.226,-1.907 -11.989,-6.318l-11.99,-6.036l5.383,-0.044l5.382,-0.045l10.407,5.218c10.096,5.062 10.43,5.216 11.214,5.14c0.939,-0.091 1.544,-0.488 1.978,-1.301c0.278,-0.52 0.31,-1.013 0.31,-4.82l0,-4.241l2.464,0.047Zm-101.316,92.803c-0.205,-0.115 -0.239,-3.232 -0.239,-22.077c0,-12.069 0.046,-22.063 0.101,-22.209c0.092,-0.239 1.646,-0.265 15.875,-0.265c8.675,0 15.773,0.064 15.773,0.142c0,0.078 -1.731,1.229 -3.848,2.557c-4.792,3.008 -5.798,3.746 -6.766,4.966c-3.73,4.702 -3.407,11.329 0.755,15.474c2.001,1.994 3.98,2.981 6.755,3.371c1.703,0.239 3.481,0.045 5.254,-0.574c0.725,-0.253 4.333,-2.322 10.059,-5.769c7.196,-4.332 9.17,-5.447 10.169,-5.744c0.681,-0.203 2.107,-0.738 3.169,-1.19c1.061,-0.451 1.989,-0.76 2.061,-0.688c0.073,0.073 0.113,7.297 0.09,16.053l-0.043,15.92l-29.463,0.083c-16.205,0.047 -29.571,0.024 -29.702,-0.05Zm29.256,-49.791c-0.039,-0.115 -0.229,-0.692 -0.422,-1.282c-0.391,-1.193 -1.07,-2.606 -1.833,-3.813c-0.277,-0.439 -0.448,-0.85 -0.379,-0.914c0.069,-0.064 1.103,-0.62 2.298,-1.236c2.772,-1.428 5.993,-3.583 7.628,-5.103l1.279,-1.188l2.063,0.991c2.064,0.991 4.683,1.943 5.869,2.134c0.347,0.056 0.671,0.168 0.721,0.249c0.05,0.081 -0.565,1.039 -1.366,2.129c-1.79,2.436 -3.543,5.219 -4.373,6.942l-0.625,1.298l-5.394,0.001c-4.168,0.002 -5.411,-0.046 -5.466,-0.208l0,0Z" style="fill:#fff;"/><g transform="matrix(0.183534,0,0,0.183534,77.6201,-103.198)"><path d="M-141.616,1434.78c0.214,14.059 -3.435,26.08 -10.947,36.061c-4.937,6.761 -11.913,11.537 -20.928,14.327c-4.83,1.503 -10.465,2.254 -16.904,2.254c-11.913,0 -21.787,-2.951 -29.621,-8.854c-6.547,-4.83 -11.725,-11.403 -15.535,-19.721c-3.81,-8.317 -6.037,-17.842 -6.681,-28.574l28.977,-2.093c1.288,11.758 4.401,20.28 9.337,25.566c3.649,3.991 7.835,5.879 12.557,5.665c6.654,-0.215 11.967,-3.492 15.938,-9.83c2.039,-3.114 3.058,-7.572 3.058,-13.372c0,-8.38 -3.81,-16.705 -11.43,-24.975c-6.01,-5.694 -15.025,-14.233 -27.045,-25.62c-10.088,-9.776 -17.225,-18.531 -21.411,-26.265c-4.508,-8.702 -6.761,-18.155 -6.761,-28.359c0,-18.369 6.171,-32.28 18.513,-41.733c7.62,-5.693 17.064,-8.539 28.333,-8.539c10.84,0 20.123,2.414 27.851,7.244c6.01,3.756 10.866,9.015 14.569,15.776c3.702,6.762 5.929,14.543 6.681,23.343l-29.139,5.313c-0.858,-8.264 -3.219,-14.704 -7.083,-19.318c-2.79,-3.327 -6.815,-4.991 -12.074,-4.991c-5.581,0 -9.82,2.468 -12.718,7.405c-2.361,3.971 -3.541,8.908 -3.541,14.811c0,9.23 3.971,18.621 11.913,28.172c3.005,3.649 7.512,7.942 13.522,12.879c7.084,5.903 11.752,10.035 14.006,12.396c7.513,7.513 13.308,14.918 17.386,22.216c1.932,3.434 3.488,6.6 4.669,9.498c2.898,7.191 4.4,13.63 4.508,19.318Z" style="fill:#ff645f;fill-rule:nonzero;"/><path d="M-68.368,1487.26c-13.416,0 -24.792,-4.668 -34.129,-14.006c-9.337,-9.337 -14.006,-20.659 -14.006,-33.967l0,-155.995l29.782,0l0,155.673c0,4.829 1.718,8.934 5.152,12.315c3.434,3.381 7.566,5.071 12.396,5.071c4.829,0 8.934,-1.69 12.315,-5.071c3.381,-3.381 5.071,-7.486 5.071,-12.315l0,-155.673l31.714,0l0,155.995c0,13.522 -4.722,24.899 -14.167,34.128c-9.444,9.23 -20.82,13.845 -34.128,13.845Z" style="fill:#ff645f;fill-rule:nonzero;"/><path d="M6.973,1485l0,-201.875l45.558,0c12.02,0 22.86,3.166 32.519,9.498c8.264,5.367 14.167,13.684 17.709,24.953c1.931,6.01 2.897,13.147 2.897,21.411c0,13.523 -3.595,24.362 -10.786,32.519c-3.005,3.434 -6.546,6.064 -10.625,7.888c6.762,2.576 12.503,7.674 17.226,15.294c3.112,5.151 5.419,11.805 6.922,19.962c0.751,4.186 1.127,8.854 1.127,14.006c0,12.771 -2.415,23.611 -7.244,32.519c-3.757,6.976 -9.069,12.556 -15.938,16.742c-7.727,4.722 -15.401,7.083 -23.021,7.083l-56.344,0Zm32.84,-30.104l12.718,0c10.303,0 17.44,-5.312 21.411,-15.937c1.395,-3.649 2.093,-7.835 2.093,-12.557c0,-11.269 -2.146,-19.479 -6.439,-24.631c-3.864,-4.722 -9.552,-7.083 -17.065,-7.083l-12.718,0l0,60.208Zm0,-89.346l12.718,0c9.445,0 15.777,-4.615 18.996,-13.845c1.181,-3.434 1.771,-7.674 1.771,-12.718c0,-8.371 -2.039,-14.703 -6.117,-18.996c-3.756,-3.971 -8.64,-5.957 -14.65,-5.957l-12.718,0l0,51.516Z" style="fill:#ff645f;fill-rule:nonzero;"/><path d="M166.187,1485l-30.427,0l0,-201.875l43.663,0l28.355,145.018l27.22,-145.018l41.946,0l0,201.875l-30.426,0l0,-126.856l-26.399,126.856l-24.47,0l-29.462,-126.534l0,126.534Z" style="fill:#ff645f;fill-rule:nonzero;"/><rect x="304.151" y="1283.29" width="30.426" height="201.714" style="fill:#ff645f;fill-rule:nonzero;"/><path d="M391.404,1313.88l-32.358,0l0,-30.587l94.981,0l0,30.587l-32.197,0l0,171.127l-30.426,0l0,-171.127Z" style="fill:#ff645f;fill-rule:nonzero;"/><path d="M536.613,1400.49l-40.729,-117.358l33.484,0l22.538,72.444l22.377,-72.444l33.646,0l-40.89,117.358l0,84.517l-30.426,0l0,-84.517Z" style="fill:#ff645f;fill-rule:nonzero;"/><path d="M669.264,1280.71c13.416,0 24.819,4.722 34.209,14.166c9.391,9.445 14.087,20.821 14.087,34.129l0,110.114c0,13.415 -4.723,24.818 -14.167,34.209c-9.444,9.391 -20.821,14.086 -34.129,14.086c-13.415,0 -24.791,-4.722 -34.129,-14.167c-9.337,-9.444 -14.005,-20.82 -14.005,-34.128l0,-110.114c0,-13.415 4.722,-24.818 14.166,-34.209c9.445,-9.391 20.767,-14.086 33.968,-14.086Zm16.582,47.651c0,-4.829 -1.691,-8.935 -5.071,-12.315c-3.381,-3.381 -7.486,-5.071 -12.316,-5.071c-4.829,0 -8.961,1.69 -12.396,5.071c-3.434,3.38 -5.151,7.486 -5.151,12.315l0,110.436c0,4.829 1.717,8.934 5.151,12.315c3.435,3.381 7.567,5.071 12.396,5.071c4.83,0 8.935,-1.69 12.316,-5.071c3.38,-3.381 5.071,-7.486 5.071,-12.315l0,-110.436Z" style="fill:#ff645f;fill-rule:nonzero;"/><path d="M792.257,1487.26c-13.416,0 -24.792,-4.668 -34.129,-14.006c-9.337,-9.337 -14.006,-20.659 -14.006,-33.967l0,-155.995l29.782,0l0,155.673c0,4.829 1.718,8.934 5.152,12.315c3.434,3.381 7.566,5.071 12.396,5.071c4.829,0 8.934,-1.69 12.315,-5.071c3.381,-3.381 5.071,-7.486 5.071,-12.315l0,-155.673l31.714,0l0,155.995c0,13.522 -4.722,24.899 -14.167,34.128c-9.444,9.23 -20.82,13.845 -34.128,13.845Z" style="fill:#ff645f;fill-rule:nonzero;"/><path d="M915.571,1283.29c16.957,0 29.407,4.669 37.348,14.006c6.977,8.157 10.465,19.533 10.465,34.129l0,29.299c0,14.274 -5.42,26.348 -16.26,36.222l22.535,88.058l-32.903,0l-18.448,-75.984c-0.859,0 -1.771,0 -2.737,0l-17.547,0l0,75.984l-30.426,0l0,-201.714l47.973,0Zm18.191,48.618c0,-11.698 -5.795,-17.548 -17.386,-17.548l-18.352,0l0,64.555l18.352,0c4.829,0 8.935,-1.717 12.315,-5.151c3.381,-3.435 5.071,-7.566 5.071,-12.396l0,-29.46Z" style="fill:#ff645f;fill-rule:nonzero;"/><path d="M170.292,1783.67l-36.058,-201.714l31.89,0l25.32,157.234l25.501,-157.234l31.907,0l-36.704,201.714l-41.856,0Z" style="fill:#ff645f;fill-rule:nonzero;"/><path d="M317.915,1579.38c13.415,0 24.818,4.722 34.209,14.167c9.391,9.444 14.086,20.821 14.086,34.129l0,110.113c0,13.416 -4.722,24.819 -14.166,34.21c-9.445,9.39 -20.821,14.086 -34.129,14.086c-13.416,0 -24.792,-4.722 -34.129,-14.167c-9.337,-9.444 -14.006,-20.821 -14.006,-34.129l0,-110.113c0,-13.416 4.723,-24.819 14.167,-34.21c9.444,-9.39 20.767,-14.086 33.968,-14.086Zm16.581,47.652c0,-4.83 -1.69,-8.935 -5.071,-12.316c-3.381,-3.38 -7.486,-5.071 -12.315,-5.071c-4.83,0 -8.962,1.691 -12.396,5.071c-3.434,3.381 -5.152,7.486 -5.152,12.316l0,110.435c0,4.83 1.718,8.935 5.152,12.316c3.434,3.38 7.566,5.071 12.396,5.071c4.829,0 8.934,-1.691 12.315,-5.071c3.381,-3.381 5.071,-7.486 5.071,-12.316l0,-110.435Z" style="fill:#ff645f;fill-rule:nonzero;"/><path d="M419.496,1612.54l-32.358,0l0,-30.587l94.981,0l0,30.587l-32.197,0l0,171.127l-30.426,0l0,-171.127Z" style="fill:#ff645f;fill-rule:nonzero;"/><path d="M506.589,1783.67l0,-201.875l86.61,0l0,30.587l-56.184,0l0,55.057l41.051,0l0,30.587l-41.051,0l0,55.057l56.184,0l0,30.587l-86.61,0Z" style="fill:#ff645f;fill-rule:nonzero;"/></g><rect x="384.097" y="166.454" width="1.901" height="12.603" style="fill:#ff645f;fill-rule:nonzero;"/><path d="M389.548,168.365l-2.021,0l0,-1.911l5.934,0l0,1.911l-2.011,0l0,10.693l-1.902,0l0,-10.693Z" style="fill:#ff645f;fill-rule:nonzero;"/><path d="M394.769,164.453l1.76,0l-0.291,2.876l-1.177,0l-0.292,-2.876Z" style="fill:#ff645f;fill-rule:nonzero;"/><path d="M404.123,175.919c0.014,0.879 -0.214,1.63 -0.684,2.254c-0.308,0.422 -0.744,0.72 -1.307,0.895c-0.302,0.094 -0.654,0.141 -1.056,0.141c-0.745,0 -1.362,-0.185 -1.851,-0.554c-0.409,-0.301 -0.733,-0.712 -0.971,-1.232c-0.238,-0.519 -0.377,-1.115 -0.417,-1.785l1.81,-0.131c0.081,0.735 0.275,1.267 0.584,1.598c0.228,0.249 0.489,0.367 0.784,0.353c0.416,-0.013 0.748,-0.218 0.996,-0.614c0.128,-0.194 0.191,-0.473 0.191,-0.835c0,-0.524 -0.238,-1.044 -0.714,-1.561c-0.375,-0.355 -0.939,-0.889 -1.69,-1.6c-0.63,-0.611 -1.076,-1.158 -1.338,-1.642c-0.281,-0.543 -0.422,-1.134 -0.422,-1.772c0,-1.147 0.386,-2.016 1.157,-2.607c0.476,-0.356 1.066,-0.534 1.77,-0.534c0.677,0 1.257,0.151 1.74,0.453c0.376,0.235 0.679,0.563 0.911,0.986c0.231,0.422 0.37,0.908 0.417,1.458l-1.821,0.332c-0.053,-0.516 -0.201,-0.919 -0.442,-1.207c-0.175,-0.208 -0.426,-0.312 -0.755,-0.312c-0.348,0 -0.613,0.155 -0.794,0.463c-0.148,0.248 -0.222,0.557 -0.222,0.925c0,0.577 0.249,1.164 0.745,1.761c0.188,0.228 0.469,0.496 0.845,0.804c0.442,0.369 0.734,0.627 0.875,0.775c0.469,0.469 0.831,0.932 1.086,1.388c0.121,0.215 0.218,0.412 0.292,0.593c0.181,0.45 0.275,0.852 0.281,1.207Z" style="fill:#ff645f;fill-rule:nonzero;"/><path d="M408.046,179.058l0,-12.614l5.412,0l0,1.911l-3.511,0l0,3.44l2.565,0l0,1.912l-2.565,0l0,3.44l3.511,0l0,1.911l-5.412,0Z" style="fill:#ff645f;fill-rule:nonzero;"/><path d="M417.207,176.161l-0.462,2.897l-1.979,0l2.142,-12.604l2.615,0l2.112,12.604l-1.998,0l-0.445,-2.897l-1.985,0Zm0.999,-6.82l-0.705,4.969l1.409,0l-0.704,-4.969Z" style="fill:#ff645f;fill-rule:nonzero;"/><path d="M428.948,175.919c0.014,0.879 -0.214,1.63 -0.684,2.254c-0.308,0.422 -0.744,0.72 -1.307,0.895c-0.302,0.094 -0.654,0.141 -1.057,0.141c-0.744,0 -1.361,-0.185 -1.85,-0.554c-0.409,-0.301 -0.733,-0.712 -0.971,-1.232c-0.238,-0.519 -0.377,-1.115 -0.417,-1.785l1.81,-0.131c0.081,0.735 0.275,1.267 0.584,1.598c0.228,0.249 0.489,0.367 0.784,0.353c0.416,-0.013 0.748,-0.218 0.996,-0.614c0.127,-0.194 0.191,-0.473 0.191,-0.835c0,-0.524 -0.238,-1.044 -0.714,-1.561c-0.376,-0.355 -0.939,-0.889 -1.69,-1.6c-0.63,-0.611 -1.076,-1.158 -1.338,-1.642c-0.281,-0.543 -0.422,-1.134 -0.422,-1.772c0,-1.147 0.385,-2.016 1.157,-2.607c0.476,-0.356 1.066,-0.534 1.77,-0.534c0.677,0 1.257,0.151 1.74,0.453c0.375,0.235 0.679,0.563 0.91,0.986c0.232,0.422 0.371,0.908 0.418,1.458l-1.821,0.332c-0.054,-0.516 -0.201,-0.919 -0.442,-1.207c-0.175,-0.208 -0.426,-0.312 -0.755,-0.312c-0.349,0 -0.613,0.155 -0.795,0.463c-0.147,0.248 -0.221,0.557 -0.221,0.925c0,0.577 0.248,1.164 0.745,1.761c0.187,0.228 0.469,0.496 0.844,0.804c0.443,0.369 0.735,0.627 0.876,0.775c0.469,0.469 0.831,0.932 1.086,1.388c0.121,0.215 0.218,0.412 0.292,0.593c0.181,0.45 0.275,0.852 0.281,1.207Z" style="fill:#ff645f;fill-rule:nonzero;"/><path d="M432.147,173.777l-2.545,-7.333l2.092,0l1.408,4.527l1.399,-4.527l2.102,0l-2.555,7.333l0,5.281l-1.901,0l0,-5.281Z" style="fill:#ff645f;fill-rule:nonzero;"/><path d="M437.911,173.495l0,-7.051l1.901,0l0,7.051l-0.141,2.435l-1.62,0l-0.14,-2.435Zm0,5.563l0,-1.911l1.901,0l0,1.911l-1.901,0Z" style="fill:#ff645f;fill-rule:nonzero;"/><path d="M445.988,179.058l-2.253,-12.604l1.992,0l1.582,9.825l1.594,-9.825l1.993,0l-2.293,12.604l-2.615,0Z" style="fill:#ff645f;fill-rule:nonzero;"/><path d="M455.211,166.293c0.839,0 1.551,0.295 2.138,0.886c0.587,0.59 0.88,1.3 0.88,2.132l0,6.88c0,0.838 -0.295,1.551 -0.885,2.138c-0.59,0.586 -1.301,0.88 -2.133,0.88c-0.838,0 -1.549,-0.295 -2.132,-0.886c-0.583,-0.59 -0.875,-1.3 -0.875,-2.132l0,-6.88c0,-0.838 0.295,-1.551 0.885,-2.138c0.59,-0.586 1.298,-0.88 2.122,-0.88Zm1.036,2.978c0,-0.302 -0.105,-0.559 -0.316,-0.77c-0.212,-0.211 -0.468,-0.317 -0.77,-0.317c-0.302,0 -0.56,0.106 -0.774,0.317c-0.215,0.211 -0.322,0.468 -0.322,0.77l0,6.9c0,0.302 0.107,0.558 0.322,0.769c0.214,0.212 0.472,0.317 0.774,0.317c0.302,0 0.558,-0.105 0.77,-0.317c0.211,-0.211 0.316,-0.467 0.316,-0.769l0,-6.9Z" style="fill:#ff645f;fill-rule:nonzero;"/><path d="M461.558,168.365l-2.021,0l0,-1.911l5.934,0l0,1.911l-2.012,0l0,10.693l-1.901,0l0,-10.693Z" style="fill:#ff645f;fill-rule:nonzero;"/><path d="M467,179.058l0,-12.614l5.412,0l0,1.911l-3.511,0l0,3.44l2.565,0l0,1.912l-2.565,0l0,3.44l3.511,0l0,1.911l-5.412,0Z" style="fill:#ff645f;fill-rule:nonzero;"/><path d="M479.342,166.293c0.838,0 1.551,0.295 2.138,0.886c0.586,0.59 0.88,1.3 0.88,2.132l0,6.88c0,0.838 -0.295,1.551 -0.885,2.138c-0.591,0.586 -1.301,0.88 -2.133,0.88c-0.838,0 -1.549,-0.295 -2.132,-0.886c-0.584,-0.59 -0.875,-1.3 -0.875,-2.132l0,-6.88c0,-0.838 0.295,-1.551 0.885,-2.138c0.59,-0.586 1.297,-0.88 2.122,-0.88Zm1.036,2.978c0,-0.302 -0.105,-0.559 -0.317,-0.77c-0.211,-0.211 -0.467,-0.317 -0.769,-0.317c-0.302,0 -0.56,0.106 -0.775,0.317c-0.214,0.211 -0.322,0.468 -0.322,0.77l0,6.9c0,0.302 0.108,0.558 0.322,0.769c0.215,0.212 0.473,0.317 0.775,0.317c0.302,0 0.558,-0.105 0.769,-0.317c0.212,-0.211 0.317,-0.467 0.317,-0.769l0,-6.9Z" style="fill:#ff645f;fill-rule:nonzero;"/><path d="M486.164,166.444l2.523,8.477l0,-8.477l1.901,0l0,12.614l-2.042,0l-2.615,-8.077l0,8.077l-1.902,0l0,-12.614l2.135,0Z" style="fill:#ff645f;fill-rule:nonzero;"/><path d="M497.468,179.058l-5.18,0l0,-12.604l1.901,0l0,10.713l3.279,0l0,1.891Z" style="fill:#ff645f;fill-rule:nonzero;"/><rect x="498.775" y="166.454" width="1.901" height="12.603" style="fill:#ff645f;fill-rule:nonzero;"/><path d="M504.511,166.444l2.523,8.477l0,-8.477l1.901,0l0,12.614l-2.042,0l-2.616,-8.077l0,8.077l-1.901,0l0,-12.614l2.135,0Z" style="fill:#ff645f;fill-rule:nonzero;"/><path d="M510.635,179.058l0,-12.614l5.411,0l0,1.911l-3.51,0l0,3.44l2.565,0l0,1.912l-2.565,0l0,3.44l3.51,0l0,1.911l-5.411,0Z" style="fill:#ff645f;fill-rule:nonzero;"/><path d="M522.103,166.444l2.523,8.477l0,-8.477l1.901,0l0,12.614l-2.042,0l-2.615,-8.077l0,8.077l-1.901,0l0,-12.614l2.134,0Z" style="fill:#ff645f;fill-rule:nonzero;"/><path d="M531.205,166.293c0.838,0 1.55,0.295 2.137,0.886c0.587,0.59 0.88,1.3 0.88,2.132l0,6.88c0,0.838 -0.295,1.551 -0.885,2.138c-0.59,0.586 -1.301,0.88 -2.132,0.88c-0.839,0 -1.55,-0.295 -2.133,-0.886c-0.583,-0.59 -0.875,-1.3 -0.875,-2.132l0,-6.88c0,-0.838 0.295,-1.551 0.885,-2.138c0.59,-0.586 1.298,-0.88 2.123,-0.88Zm1.036,2.978c0,-0.302 -0.106,-0.559 -0.317,-0.77c-0.212,-0.211 -0.468,-0.317 -0.77,-0.317c-0.302,0 -0.56,0.106 -0.774,0.317c-0.215,0.211 -0.322,0.468 -0.322,0.77l0,6.9c0,0.302 0.107,0.558 0.322,0.769c0.214,0.212 0.472,0.317 0.774,0.317c0.302,0 0.558,-0.105 0.77,-0.317c0.211,-0.211 0.317,-0.467 0.317,-0.769l0,-6.9Z" style="fill:#ff645f;fill-rule:nonzero;"/><path d="M543.342,166.454l1.995,0l-1.972,12.604l-1.81,0l-1.084,-6.935l-1.012,6.935l-1.819,0l-2.11,-12.604l1.991,0l0.996,6.75l0.916,-6.75l1.991,0l0.995,6.744l0.923,-6.744Z" style="fill:#ff645f;fill-rule:nonzero;"/><rect x="546.645" y="177.167" width="1.901" height="1.901" style="fill:#ff645f;fill-rule:nonzero;"/><path d="M305.766,221.357l0.067,1.757l1.629,1.353l0,-1.843l-1.696,-1.267Zm-0.258,1.512l-1.453,-1.166l-0.109,-1.785l1.507,1.166l0.055,1.785Zm-1.769,-1.476l-1.322,-1.034l-0.172,-1.728l1.367,1.046l0.127,1.716Zm-0.186,-2.167l-1.371,-1.022l-0.204,-1.915l1.439,0.994l0.136,1.943Zm3.909,-1.915l0,2.369l-1.819,-1.303l0,-2.225l1.819,1.159Zm-2.158,-1.346l0,2.219l-1.582,-1.103l-0.135,-2.189l1.717,1.073Zm-3.38,-0.13l1.425,1.011l-0.144,-2.208l-1.512,-0.934l0.231,2.131Z" style="fill:#08339a;fill-rule:nonzero;"/><path d="M312.423,218.442l0.256,0.189l-1.366,1.046l-0.127,1.716l-0.287,-0.179l0.079,-1.296l-1.507,1.166l-0.054,1.785l-0.307,-0.244l0.049,-1.268l-1.697,1.267l-1.696,-1.267l0.048,1.268l-0.306,0.244l-0.055,-1.785l-1.507,-1.166l0.079,1.296l-0.287,0.179l-0.126,-1.716l-1.367,-1.046l0.257,-0.189l1.051,0.784l-0.136,-1.944l-1.439,-0.993l0.324,-0.185l1.047,0.742l-0.144,-2.208l1.845,-0.934l-1.066,-0.606l-0.013,-0.404l1.511,0.835l1.64,-0.835l-1.462,-0.778l0.356,0.189l0,-0.409l1.446,0.845l1.703,-0.845l-0.059,2.008l-1.672,0.83l-0.267,-0.131l0,0.263l-0.238,0.118l-1.481,-0.826l-1.861,0.934l0.135,2.189l1.582,1.103l0,-2.219l1.818,-1.073l0,0.389l-1.479,0.871l0,1.822l-0.665,0.432l0.333,0.259l0,0.41l0.291,-0.23l1.521,1.073l0,0.467l0.339,-0.223l0.34,0.223l0,-0.467l1.52,-1.073l0.292,0.23l0,-0.41l0.332,-0.259l-0.665,-0.432l0,-1.822l-1.479,-0.871l0,-0.389l1.818,1.073l0,2.219l1.582,-1.103l0.136,-2.189l-1.464,-0.734l0,-0.454l1.846,0.934l-0.145,2.208l1.048,-0.742l0.323,0.185l-1.439,0.993l-0.135,1.944l1.051,-0.784Z" style="fill:#498df8;fill-rule:nonzero;"/><path d="M307.462,222.624l0,1.843l1.629,-1.353l0.068,-1.757l-1.697,1.267Zm3.516,-2.706l-0.108,1.785l-1.453,1.166l0.054,-1.785l1.507,-1.166Zm1.701,-1.287l-0.172,1.728l-1.321,1.034l0.127,-1.715l1.366,-1.047Zm-3.398,-2.479l0,2.225l-1.819,1.303l0,-2.369l-1.819,-1.159l1.819,-1.071l1.819,1.071Zm3.665,0.137l-0.203,1.915l-1.371,1.022l0.136,-1.943l1.438,-0.994Zm-1.608,-1.397l-0.136,2.189l-1.581,1.103l0,-2.219l-1.819,-1.073l1.674,-0.934l0.399,0.2l1.463,0.734Zm-1.463,-1.188l1.845,0.934l-0.145,2.208l1.426,-1.01l0.23,-2.132l-1.893,-0.831l-1.463,0.831Zm-2.753,1.188l-1.818,1.073l-1.717,-1.073l1.861,-0.934l1.674,0.934Zm-5.429,-1.188l1.512,0.934l1.845,-0.934l-1.066,-0.606l-0.397,-0.225l-1.894,0.831Zm3.789,-0.174l1.64,-0.836l-1.462,-0.778l-0.017,-0.009l-1.672,0.787l1.511,0.836Zm3.683,-1.834l-1.466,-0.758l-1.683,0.758l0,0l1.446,0.845l1.703,-0.845Z" style="fill:#fff;fill-rule:nonzero;"/><path d="M31.708,120.189c1.075,0 1.965,-0.388 2.546,-1.101l-0.916,-0.845c-0.414,0.484 -0.934,0.731 -1.551,0.731c-1.154,0 -1.973,-0.811 -1.973,-1.974c0,-1.163 0.819,-1.974 1.973,-1.974c0.617,0 1.137,0.247 1.551,0.723l0.916,-0.845c-0.581,-0.705 -1.471,-1.093 -2.537,-1.093c-1.921,0 -3.347,1.33 -3.347,3.189c0,1.859 1.426,3.189 3.338,3.189Z" style="fill:#fff;fill-rule:nonzero;"/><path d="M38.069,120.189c1.939,0 3.374,-1.347 3.374,-3.189c0,-1.842 -1.435,-3.189 -3.374,-3.189c-1.947,0 -3.373,1.356 -3.373,3.189c0,1.833 1.426,3.189 3.373,3.189Zm0,-1.215c-1.101,0 -1.93,-0.802 -1.93,-1.974c0,-1.172 0.829,-1.974 1.93,-1.974c1.102,0 1.93,0.802 1.93,1.974c0,1.172 -0.828,1.974 -1.93,1.974Z" style="fill:#fff;fill-rule:nonzero;"/><path d="M49.467,120.083l-0.017,-6.166l-1.173,0l-2.272,3.832l-2.307,-3.832l-1.179,0l0,6.166l1.337,0l0,-3.62l1.805,2.968l0.643,0l1.814,-3.048l0.009,3.7l1.34,0Z" style="fill:#fff;fill-rule:nonzero;"/><path d="M53.6,113.917l-2.668,0l0,6.166l1.426,0l0,-1.7l1.242,0c1.648,0 2.678,-0.854 2.678,-2.229c0,-1.383 -1.03,-2.237 -2.678,-2.237Zm-0.079,3.304l-1.163,0l0,-2.142l1.163,0c0.873,0 1.313,0.397 1.313,1.075c0,0.67 -0.44,1.067 -1.313,1.067Z" style="fill:#fff;fill-rule:nonzero;"/><path d="M60.005,120.189c1.753,0 2.792,-1.004 2.792,-2.818l0,-3.454l-1.408,0l0,3.401c0,1.171 -0.503,1.656 -1.375,1.656c-0.864,0 -1.375,-0.485 -1.375,-1.656l0,-3.401l-1.426,0l0,3.454c0,1.814 1.039,2.818 2.792,2.818Z" style="fill:#fff;fill-rule:nonzero;"/><path d="M65.38,120.083l1.426,0l0,-5.004l1.973,0l0,-1.162l-5.373,0l0,1.162l1.974,0l0,5.004Z" style="fill:#fff;fill-rule:nonzero;"/><path d="M70.964,118.939l0,-1.429l2.863,0l0,-1.109l-2.863,0l0,-1.34l3.242,0l0,-1.144l-4.66,0l0,6.166l4.774,0l0,-1.144l-3.356,0Z" style="fill:#fff;fill-rule:nonzero;"/><path d="M80.919,120.083l-1.383,-1.982c0.802,-0.343 1.268,-1.021 1.268,-1.947c0,-1.383 -1.03,-2.237 -2.677,-2.237l-2.669,0l0,6.166l1.426,0l0,-1.718l1.313,0l1.19,1.718l1.532,0Zm-1.559,-3.929c0,0.67 -0.44,1.076 -1.313,1.076l-1.163,0l0,-2.151l1.163,0c0.873,0 1.313,0.397 1.313,1.075Z" style="fill:#fff;fill-rule:nonzero;"/><path d="M86.452,120.189c1.762,0 2.616,-0.881 2.616,-1.911c0,-2.263 -3.586,-1.478 -3.586,-2.616c0,-0.388 0.326,-0.706 1.172,-0.706c0.547,0 1.137,0.159 1.709,0.485l0.44,-1.084c-0.572,-0.361 -1.364,-0.546 -2.14,-0.546c-1.753,0 -2.598,0.872 -2.598,1.922c0,2.29 3.585,1.498 3.585,2.651c0,0.379 -0.343,0.66 -1.19,0.66c-0.74,0 -1.515,-0.264 -2.034,-0.642l-0.485,1.074c0.546,0.422 1.532,0.713 2.511,0.713Z" style="fill:#fff;fill-rule:nonzero;"/><path d="M92.997,120.189c1.074,0 1.964,-0.388 2.546,-1.101l-0.917,-0.845c-0.414,0.484 -0.933,0.731 -1.55,0.731c-1.154,0 -1.973,-0.811 -1.973,-1.974c0,-1.163 0.819,-1.974 1.973,-1.974c0.617,0 1.136,0.247 1.55,0.723l0.917,-0.845c-0.582,-0.705 -1.472,-1.093 -2.538,-1.093c-1.92,0 -3.346,1.33 -3.346,3.189c0,1.859 1.426,3.189 3.338,3.189Z" style="fill:#fff;fill-rule:nonzero;"/><rect x="96.504" y="113.917" width="1.426" height="6.166" style="fill:#fff;fill-rule:nonzero;"/><path d="M100.811,118.939l0,-1.429l2.863,0l0,-1.109l-2.863,0l0,-1.34l3.242,0l0,-1.144l-4.659,0l0,6.166l4.773,0l0,-1.144l-3.356,0Z" style="fill:#fff;fill-rule:nonzero;"/><path d="M109.551,113.917l0,3.744l-3.067,-3.744l-1.179,0l0,6.166l1.408,0l0,-3.744l3.076,3.744l1.17,0l0,-6.166l-1.408,0Z" style="fill:#fff;fill-rule:nonzero;"/><path d="M115.373,120.189c1.075,0 1.965,-0.388 2.546,-1.101l-0.916,-0.845c-0.414,0.484 -0.934,0.731 -1.551,0.731c-1.154,0 -1.973,-0.811 -1.973,-1.974c0,-1.163 0.819,-1.974 1.973,-1.974c0.617,0 1.137,0.247 1.551,0.723l0.916,-0.845c-0.581,-0.705 -1.471,-1.093 -2.537,-1.093c-1.921,0 -3.347,1.33 -3.347,3.189c0,1.859 1.426,3.189 3.338,3.189Z" style="fill:#fff;fill-rule:nonzero;"/><path d="M120.298,118.939l0,-1.429l2.863,0l0,-1.109l-2.863,0l0,-1.34l3.242,0l0,-1.144l-4.66,0l0,6.166l4.774,0l0,-1.144l-3.356,0Z" style="fill:#fff;fill-rule:nonzero;"/><path d="M129.31,120.189c1.763,0 2.616,-0.881 2.616,-1.911c0,-2.263 -3.585,-1.478 -3.585,-2.616c0,-0.388 0.326,-0.706 1.172,-0.706c0.547,0 1.137,0.159 1.709,0.485l0.44,-1.084c-0.572,-0.361 -1.364,-0.546 -2.14,-0.546c-1.753,0 -2.598,0.872 -2.598,1.922c0,2.29 3.585,1.498 3.585,2.651c0,0.379 -0.344,0.66 -1.19,0.66c-0.74,0 -1.515,-0.264 -2.034,-0.642l-0.485,1.074c0.546,0.422 1.532,0.713 2.51,0.713Z" style="fill:#fff;fill-rule:nonzero;"/><path d="M134.095,120.083l1.426,0l0,-5.004l1.973,0l0,-1.162l-5.373,0l0,1.162l1.974,0l0,5.004Z" style="fill:#fff;fill-rule:nonzero;"/><path d="M140.895,120.189c1.754,0 2.792,-1.004 2.792,-2.818l0,-3.454l-1.408,0l0,3.401c0,1.171 -0.503,1.656 -1.375,1.656c-0.864,0 -1.375,-0.485 -1.375,-1.656l0,-3.401l-1.426,0l0,3.454c0,1.814 1.039,2.818 2.792,2.818Z" style="fill:#fff;fill-rule:nonzero;"/><path d="M145.098,120.083l2.801,0c2.018,0 3.4,-1.215 3.4,-3.083c0,-1.868 -1.382,-3.083 -3.4,-3.083l-2.801,0l0,6.166Zm1.426,-1.171l0,-3.824l1.304,0c1.225,0 2.027,0.731 2.027,1.912c0,1.181 -0.802,1.912 -2.027,1.912l-1.304,0Z" style="fill:#fff;fill-rule:nonzero;"/><path d="M153.792,118.939l0,-1.429l2.863,0l0,-1.109l-2.863,0l0,-1.34l3.242,0l0,-1.144l-4.659,0l0,6.166l4.773,0l0,-1.144l-3.356,0Z" style="fill:#fff;fill-rule:nonzero;"/><path d="M162.532,113.917l0,3.744l-3.066,-3.744l-1.18,0l0,6.166l1.408,0l0,-3.744l3.076,3.744l1.171,0l0,-6.166l-1.409,0Z" style="fill:#fff;fill-rule:nonzero;"/><path d="M166.682,120.083l1.426,0l0,-5.004l1.973,0l0,-1.162l-5.373,0l0,1.162l1.974,0l0,5.004Z" style="fill:#fff;fill-rule:nonzero;"/><path d="M175.367,120.189c1.762,0 2.616,-0.881 2.616,-1.911c0,-2.263 -3.585,-1.478 -3.585,-2.616c0,-0.388 0.326,-0.706 1.172,-0.706c0.546,0 1.137,0.159 1.709,0.485l0.44,-1.084c-0.572,-0.361 -1.365,-0.546 -2.14,-0.546c-1.753,0 -2.599,0.872 -2.599,1.922c0,2.29 3.586,1.498 3.586,2.651c0,0.379 -0.344,0.66 -1.19,0.66c-0.74,0 -1.515,-0.264 -2.035,-0.642l-0.484,1.074c0.546,0.422 1.532,0.713 2.51,0.713Z" style="fill:#fff;fill-rule:nonzero;"/><path d="M181.948,120.189c1.939,0 3.374,-1.347 3.374,-3.189c0,-1.842 -1.435,-3.189 -3.374,-3.189c-1.947,0 -3.373,1.356 -3.373,3.189c0,1.833 1.426,3.189 3.373,3.189Zm0,-1.215c-1.101,0 -1.93,-0.802 -1.93,-1.974c0,-1.172 0.829,-1.974 1.93,-1.974c1.102,0 1.93,0.802 1.93,1.974c0,1.172 -0.828,1.974 -1.93,1.974Z" style="fill:#fff;fill-rule:nonzero;"/><path d="M189.348,120.189c1.074,0 1.964,-0.388 2.546,-1.101l-0.917,-0.845c-0.414,0.484 -0.933,0.731 -1.55,0.731c-1.154,0 -1.973,-0.811 -1.973,-1.974c0,-1.163 0.819,-1.974 1.973,-1.974c0.617,0 1.136,0.247 1.55,0.723l0.917,-0.845c-0.582,-0.705 -1.472,-1.093 -2.538,-1.093c-1.92,0 -3.346,1.33 -3.346,3.189c0,1.859 1.426,3.189 3.338,3.189Z" style="fill:#fff;fill-rule:nonzero;"/><rect x="192.855" y="113.917" width="1.426" height="6.166" style="fill:#fff;fill-rule:nonzero;"/><path d="M197.162,118.939l0,-1.429l2.863,0l0,-1.109l-2.863,0l0,-1.34l3.242,0l0,-1.144l-4.659,0l0,6.166l4.773,0l0,-1.144l-3.356,0Z" style="fill:#fff;fill-rule:nonzero;"/><path d="M202.933,120.083l1.426,0l0,-5.004l1.974,0l0,-1.162l-5.373,0l0,1.162l1.973,0l0,5.004Z" style="fill:#fff;fill-rule:nonzero;"/><path d="M212.341,113.917l-1.401,0l-1.647,2.74l-1.647,-2.74l-1.515,0l2.388,3.964l0,2.202l1.426,0l0,-2.185l2.396,-3.981Z" style="fill:#fff;fill-rule:nonzero;"/><path d="M216.851,118.939l0,-1.429l2.863,0l0,-1.109l-2.863,0l0,-1.34l3.242,0l0,-1.144l-4.659,0l0,6.166l4.774,0l0,-1.144l-3.357,0Z" style="fill:#fff;fill-rule:nonzero;"/><path d="M221.345,120.083l4.519,0l0,-1.162l-3.093,0l0,-5.004l-1.426,0l0,6.166Z" style="fill:#fff;fill-rule:nonzero;"/><path d="M228.084,118.939l0,-1.429l2.863,0l0,-1.109l-2.863,0l0,-1.34l3.242,0l0,-1.144l-4.66,0l0,6.166l4.774,0l0,-1.144l-3.356,0Z" style="fill:#fff;fill-rule:nonzero;"/><path d="M235.51,120.189c1.075,0 1.965,-0.388 2.546,-1.101l-0.916,-0.845c-0.414,0.484 -0.934,0.731 -1.551,0.731c-1.154,0 -1.973,-0.811 -1.973,-1.974c0,-1.163 0.819,-1.974 1.973,-1.974c0.617,0 1.137,0.247 1.551,0.723l0.916,-0.845c-0.581,-0.705 -1.471,-1.093 -2.537,-1.093c-1.921,0 -3.347,1.33 -3.347,3.189c0,1.859 1.426,3.189 3.338,3.189Z" style="fill:#fff;fill-rule:nonzero;"/><path d="M240.233,120.083l1.426,0l0,-5.004l1.974,0l0,-1.162l-5.373,0l0,1.162l1.973,0l0,5.004Z" style="fill:#fff;fill-rule:nonzero;"/><rect x="244.4" y="113.917" width="1.426" height="6.166" style="fill:#fff;fill-rule:nonzero;"/><path d="M250.276,120.189c1.938,0 3.373,-1.347 3.373,-3.189c0,-1.842 -1.435,-3.189 -3.373,-3.189c-1.948,0 -3.374,1.356 -3.374,3.189c0,1.833 1.426,3.189 3.374,3.189Zm0,-1.215c-1.102,0 -1.93,-0.802 -1.93,-1.974c0,-1.172 0.828,-1.974 1.93,-1.974c1.101,0 1.93,0.802 1.93,1.974c0,1.172 -0.829,1.974 -1.93,1.974Z" style="fill:#fff;fill-rule:nonzero;"/><path d="M258.971,113.917l0,3.744l-3.066,-3.744l-1.18,0l0,6.166l1.409,0l0,-3.744l3.075,3.744l1.171,0l0,-6.166l-1.409,0Z" style="fill:#fff;fill-rule:nonzero;"/><g transform="matrix(0.22129,0,0,0.22129,349.43,-45.0049)"><path d="M119.051,765.984l0,13.872l-17.382,0l0,-13.872l-6.234,0l0,33.594l6.234,0l0,-14.4l17.382,0l0,14.4l6.234,0l0,-33.594l-6.234,0Z" style="fill:#fff;fill-rule:nonzero;"/><path d="M143.528,773.664c-4.13,0 -8.113,1.055 -10.846,3.164l2.35,4.368c1.918,-1.585 4.894,-2.546 7.776,-2.546c4.274,0 6.387,2.066 6.387,5.574l0,0.384l-6.627,0c-7.776,0 -10.653,3.355 -10.653,7.629c0,4.465 3.692,7.677 9.548,7.677c3.842,0 6.627,-1.246 8.068,-3.451l0,3.115l5.658,0l0,-15.018c0,-7.396 -4.268,-10.896 -11.661,-10.896Zm-0.816,21.888c-3.074,0 -4.899,-1.393 -4.899,-3.555c0,-1.874 1.105,-3.411 5.187,-3.411l6.195,0l0,2.979c-1.008,2.642 -3.554,3.987 -6.483,3.987Z" style="fill:#fff;fill-rule:nonzero;"/><path d="M180.63,773.952l-8.206,19.003l-7.966,-19.003l-6.239,0l10.99,25.626l6.19,0l10.99,-25.626l-5.759,0Z" style="fill:#fff;fill-rule:nonzero;"/><path d="M213.509,786.909c0,-8.019 -5.466,-13.245 -12.954,-13.245c-7.632,0 -13.248,5.467 -13.248,13.101c0,7.634 5.568,13.149 14.16,13.149c4.416,0 8.014,-1.438 10.316,-4.171l-3.213,-3.698c-1.823,1.874 -4.079,2.787 -6.959,2.787c-4.464,0 -7.584,-2.402 -8.304,-6.15l20.106,0c0.048,-0.575 0.096,-1.294 0.096,-1.773Zm-12.954,-8.451c3.936,0 6.768,2.546 7.248,6.246l-14.544,0c0.576,-3.748 3.408,-6.246 7.296,-6.246Z" style="fill:#fff;fill-rule:nonzero;"/><path d="M242.312,773.664c-4.13,0 -8.113,1.055 -10.846,3.164l2.35,4.368c1.918,-1.585 4.894,-2.546 7.776,-2.546c4.274,0 6.387,2.066 6.387,5.574l0,0.384l-6.627,0c-7.776,0 -10.653,3.355 -10.653,7.629c0,4.465 3.692,7.677 9.548,7.677c3.842,0 6.627,-1.246 8.068,-3.451l0,3.115l5.658,0l0,-15.018c0,-7.396 -4.268,-10.896 -11.661,-10.896Zm-0.816,21.888c-3.074,0 -4.899,-1.393 -4.899,-3.555c0,-1.874 1.105,-3.411 5.187,-3.411l6.195,0l0,2.979c-1.008,2.642 -3.554,3.987 -6.483,3.987Z" style="fill:#fff;fill-rule:nonzero;"/><path d="M276.201,773.664c-3.746,0 -6.867,1.246 -8.836,3.596l0,-3.308l-5.706,0l0,25.626l5.994,0l0,-12.957c0,-5.139 2.881,-7.731 7.155,-7.731c3.842,0 6.099,2.208 6.099,6.768l0,13.92l5.994,0l0,-14.688c0,-7.726 -4.555,-11.226 -10.7,-11.226Z" style="fill:#fff;fill-rule:nonzero;"/><path d="M310.808,769.722c2.254,0 3.837,-1.631 3.837,-3.741c0,-1.966 -1.631,-3.453 -3.837,-3.453c-2.206,0 -3.837,1.583 -3.837,3.597c0,2.014 1.631,3.597 3.837,3.597Zm-3.021,29.856l5.994,0l0,-25.626l-5.994,0l0,25.626Z" style="fill:#fff;fill-rule:nonzero;"/><path d="M354.009,773.664c-4.082,0 -7.54,1.63 -9.602,4.267c-1.775,-2.877 -4.892,-4.267 -8.638,-4.267c-3.506,0 -6.483,1.246 -8.404,3.548l0,-3.26l-5.706,0l0,25.626l5.994,0l0,-13.005c0,-5.091 2.689,-7.683 6.675,-7.683c3.65,0 5.763,2.208 5.763,6.768l0,13.92l5.994,0l0,-13.008c0,-5.088 2.737,-7.68 6.675,-7.68c3.65,0 5.763,2.208 5.763,6.768l0,13.92l5.994,0l0,-14.688c0,-7.726 -4.316,-11.226 -10.508,-11.226Z" style="fill:#fff;fill-rule:nonzero;"/><path d="M386.408,773.664c-3.505,0 -6.482,1.198 -8.499,3.644l0,-3.356l-5.706,0l0,34.938l5.994,0l0,-12.428c2.065,2.349 4.946,3.452 8.211,3.452c7.49,0 13.005,-5.178 13.005,-13.146c0,-7.926 -5.515,-13.104 -13.005,-13.104Zm-0.672,21.12c-4.322,0 -7.635,-3.121 -7.635,-8.019c0,-4.898 3.313,-8.019 7.635,-8.019c4.322,0 7.587,3.121 7.587,8.019c0,4.898 -3.265,8.019 -7.587,8.019Z" style="fill:#fff;fill-rule:nonzero;"/><path d="M414.584,773.664c-4.13,0 -8.113,1.055 -10.846,3.164l2.35,4.368c1.918,-1.585 4.894,-2.546 7.776,-2.546c4.274,0 6.387,2.066 6.387,5.574l0,0.384l-6.627,0c-7.776,0 -10.653,3.355 -10.653,7.629c0,4.465 3.692,7.677 9.548,7.677c3.842,0 6.627,-1.246 8.068,-3.451l0,3.115l5.658,0l0,-15.018c0,-7.396 -4.268,-10.896 -11.661,-10.896Zm-0.816,21.888c-3.074,0 -4.899,-1.393 -4.899,-3.555c0,-1.874 1.105,-3.411 5.187,-3.411l6.195,0l0,2.979c-1.008,2.642 -3.554,3.987 -6.483,3.987Z" style="fill:#fff;fill-rule:nonzero;"/><path d="M445.925,799.914c4.992,0 8.976,-2.158 10.944,-5.994l-4.608,-2.689c-1.536,2.448 -3.84,3.553 -6.384,3.553c-4.416,0 -7.776,-3.025 -7.776,-8.019c0,-4.946 3.36,-8.019 7.776,-8.019c2.544,0 4.848,1.104 6.384,3.553l4.608,-2.689c-1.968,-3.885 -5.952,-5.946 -10.944,-5.946c-8.112,0 -13.866,5.418 -13.866,13.101c0,7.683 5.754,13.149 13.866,13.149Z" style="fill:#fff;fill-rule:nonzero;"/><path d="M476.117,793.92c-0.912,0.72 -2.112,1.056 -3.36,1.056c-2.304,0 -3.552,-1.345 -3.552,-3.842l0,-12.196l6.864,0l0,-4.794l-6.864,0l0,-5.856l-5.994,0l0,5.856l-4.224,0l0,4.794l4.224,0l0,12.34c0,5.664 3.213,8.636 8.826,8.636c2.16,0 4.32,-0.575 5.76,-1.726l-1.68,-4.268Z" style="fill:#fff;fill-rule:nonzero;"/><path d="M507.512,799.914c7.971,0 13.677,-5.466 13.677,-13.149c0,-7.683 -5.706,-13.101 -13.677,-13.101c-7.875,0 -13.629,5.418 -13.629,13.101c0,7.683 5.754,13.149 13.629,13.149Zm0,-5.13c-4.322,0 -7.587,-3.121 -7.587,-8.019c0,-4.898 3.265,-8.019 7.587,-8.019c4.37,0 7.635,3.121 7.635,8.019c0,4.898 -3.265,8.019 -7.635,8.019Z" style="fill:#fff;fill-rule:nonzero;"/><path d="M541.497,773.664c-3.746,0 -6.867,1.246 -8.836,3.596l0,-3.308l-5.706,0l0,25.626l5.994,0l0,-12.957c0,-5.139 2.881,-7.731 7.155,-7.731c3.842,0 6.099,2.208 6.099,6.768l0,13.92l5.994,0l0,-14.688c0,-7.726 -4.555,-11.226 -10.7,-11.226Z" style="fill:#fff;fill-rule:nonzero;"/><path d="M584.6,799.914c7.971,0 13.677,-5.466 13.677,-13.149c0,-7.683 -5.706,-13.101 -13.677,-13.101c-7.875,0 -13.629,5.418 -13.629,13.101c0,7.683 5.754,13.149 13.629,13.149Zm0,-5.13c-4.322,0 -7.587,-3.121 -7.587,-8.019c0,-4.898 3.265,-8.019 7.587,-8.019c4.37,0 7.635,3.121 7.635,8.019c0,4.898 -3.265,8.019 -7.635,8.019Z" style="fill:#fff;fill-rule:nonzero;"/><path d="M622.859,773.952l0,12.96c0,5.136 -2.833,7.728 -7.011,7.728c-3.794,0 -6.003,-2.208 -6.003,-6.864l0,-13.824l-5.994,0l0,14.64c0,7.726 4.46,11.322 11.036,11.322c3.314,0 6.339,-1.247 8.26,-3.596l0,3.26l5.706,0l0,-25.626l-5.994,0Z" style="fill:#fff;fill-rule:nonzero;"/><path d="M642.437,777.695l0,-3.743l-5.706,0l0,25.626l5.994,0l0,-12.429c0,-5.235 2.88,-7.923 7.44,-7.923c0.432,0 0.864,0.048 1.392,0.144l0,-5.706c-4.272,0 -7.392,1.344 -9.12,4.031Z" style="fill:#fff;fill-rule:nonzero;"/><path d="M681.893,799.914c4.992,0 8.976,-2.158 10.944,-5.994l-4.608,-2.689c-1.536,2.448 -3.84,3.553 -6.384,3.553c-4.416,0 -7.776,-3.025 -7.776,-8.019c0,-4.946 3.36,-8.019 7.776,-8.019c2.544,0 4.848,1.104 6.384,3.553l4.608,-2.689c-1.968,-3.885 -5.952,-5.946 -10.944,-5.946c-8.112,0 -13.866,5.418 -13.866,13.101c0,7.683 5.754,13.149 13.866,13.149Z" style="fill:#fff;fill-rule:nonzero;"/><path d="M709.16,799.914c7.971,0 13.677,-5.466 13.677,-13.149c0,-7.683 -5.706,-13.101 -13.677,-13.101c-7.875,0 -13.629,5.418 -13.629,13.101c0,7.683 5.754,13.149 13.629,13.149Zm0,-5.13c-4.322,0 -7.587,-3.121 -7.587,-8.019c0,-4.898 3.265,-8.019 7.587,-8.019c4.37,0 7.635,3.121 7.635,8.019c0,4.898 -3.265,8.019 -7.635,8.019Z" style="fill:#fff;fill-rule:nonzero;"/><path d="M760.953,773.664c-4.082,0 -7.54,1.63 -9.602,4.267c-1.775,-2.877 -4.892,-4.267 -8.638,-4.267c-3.506,0 -6.483,1.246 -8.404,3.548l0,-3.26l-5.706,0l0,25.626l5.994,0l0,-13.005c0,-5.091 2.689,-7.683 6.675,-7.683c3.65,0 5.763,2.208 5.763,6.768l0,13.92l5.994,0l0,-13.008c0,-5.088 2.737,-7.68 6.675,-7.68c3.65,0 5.763,2.208 5.763,6.768l0,13.92l5.994,0l0,-14.688c0,-7.726 -4.316,-11.226 -10.508,-11.226Z" style="fill:#fff;fill-rule:nonzero;"/><path d="M811.497,773.664c-4.082,0 -7.54,1.63 -9.602,4.267c-1.775,-2.877 -4.892,-4.267 -8.638,-4.267c-3.506,0 -6.483,1.246 -8.404,3.548l0,-3.26l-5.706,0l0,25.626l5.994,0l0,-13.005c0,-5.091 2.689,-7.683 6.675,-7.683c3.65,0 5.763,2.208 5.763,6.768l0,13.92l5.994,0l0,-13.008c0,-5.088 2.737,-7.68 6.675,-7.68c3.65,0 5.763,2.208 5.763,6.768l0,13.92l5.994,0l0,-14.688c0,-7.726 -4.316,-11.226 -10.508,-11.226Z" style="fill:#fff;fill-rule:nonzero;"/><path d="M848.507,773.952l0,12.96c0,5.136 -2.833,7.728 -7.011,7.728c-3.794,0 -6.003,-2.208 -6.003,-6.864l0,-13.824l-5.994,0l0,14.64c0,7.726 4.46,11.322 11.036,11.322c3.314,0 6.339,-1.247 8.26,-3.596l0,3.26l5.706,0l0,-25.626l-5.994,0Z" style="fill:#fff;fill-rule:nonzero;"/><path d="M876.921,773.664c-3.746,0 -6.867,1.246 -8.836,3.596l0,-3.308l-5.706,0l0,25.626l5.994,0l0,-12.957c0,-5.139 2.881,-7.731 7.155,-7.731c3.842,0 6.099,2.208 6.099,6.768l0,13.92l5.994,0l0,-14.688c0,-7.726 -4.555,-11.226 -10.7,-11.226Z" style="fill:#fff;fill-rule:nonzero;"/><path d="M898.28,769.722c2.254,0 3.837,-1.631 3.837,-3.741c0,-1.966 -1.631,-3.453 -3.837,-3.453c-2.206,0 -3.837,1.583 -3.837,3.597c0,2.014 1.631,3.597 3.837,3.597Zm-3.021,29.856l5.994,0l0,-25.626l-5.994,0l0,25.626Z" style="fill:#fff;fill-rule:nonzero;"/><path d="M922.853,793.92c-0.912,0.72 -2.112,1.056 -3.36,1.056c-2.304,0 -3.552,-1.345 -3.552,-3.842l0,-12.196l6.864,0l0,-4.794l-6.864,0l0,-5.856l-5.994,0l0,5.856l-4.224,0l0,4.794l4.224,0l0,12.34c0,5.664 3.213,8.636 8.826,8.636c2.16,0 4.32,-0.575 5.76,-1.726l-1.68,-4.268Z" style="fill:#fff;fill-rule:nonzero;"/><path d="M947.238,773.952l-8.11,18.96l-8.062,-18.96l-6.239,0l11.181,25.728l-0.431,1.008c-1.152,2.544 -2.4,3.552 -4.511,3.552c-1.632,0 -3.264,-0.672 -4.416,-1.776l-2.399,4.413c1.632,1.486 4.319,2.349 6.863,2.349c4.271,0 7.534,-1.774 9.885,-7.578l11.998,-27.696l-5.759,0Z" style="fill:#fff;fill-rule:nonzero;"/><path d="M957.08,799.914c2.158,0 3.933,-1.679 3.933,-3.981c0,-2.398 -1.775,-3.981 -3.933,-3.981c-2.158,0 -3.933,1.583 -3.933,3.981c0,2.302 1.775,3.981 3.933,3.981Z" style="fill:#fff;fill-rule:nonzero;"/><path d="M274.067,854.109c2.588,-1.39 4.314,-3.934 4.314,-7.393c0,-5.328 -4.316,-8.732 -12.38,-8.732l-15.742,0l0,33.594l16.702,0c8.64,0 13.148,-3.356 13.148,-9.117c0,-4.37 -2.446,-7.201 -6.042,-8.352Zm-8.739,-11.235c4.322,0 6.771,1.537 6.771,4.659c0,3.074 -2.449,4.611 -6.771,4.611l-8.835,0l0,-9.27l8.835,0Zm1.249,23.814l-10.084,0l0,-9.702l10.084,0c4.705,0 7.25,1.489 7.25,4.851c0,3.362 -2.545,4.851 -7.25,4.851Z" style="fill:#fff;fill-rule:nonzero;"/><path d="M310.301,858.909c0,-8.019 -5.466,-13.245 -12.954,-13.245c-7.632,0 -13.248,5.467 -13.248,13.101c0,7.634 5.568,13.149 14.16,13.149c4.416,0 8.014,-1.438 10.316,-4.171l-3.213,-3.698c-1.823,1.874 -4.079,2.787 -6.959,2.787c-4.464,0 -7.584,-2.402 -8.304,-6.15l20.106,0c0.048,-0.575 0.096,-1.294 0.096,-1.773Zm-12.954,-8.451c3.936,0 6.768,2.546 7.248,6.246l-14.544,0c0.576,-3.748 3.408,-6.246 7.296,-6.246Z" style="fill:#fff;fill-rule:nonzero;"/><path d="M339.104,845.664c-4.13,0 -8.113,1.055 -10.846,3.164l2.35,4.368c1.918,-1.585 4.894,-2.546 7.776,-2.546c4.274,0 6.387,2.066 6.387,5.574l0,0.384l-6.627,0c-7.776,0 -10.653,3.355 -10.653,7.629c0,4.465 3.692,7.677 9.548,7.677c3.842,0 6.627,-1.246 8.068,-3.451l0,3.115l5.658,0l0,-15.018c0,-7.396 -4.268,-10.896 -11.661,-10.896Zm-0.816,21.888c-3.074,0 -4.899,-1.393 -4.899,-3.555c0,-1.874 1.105,-3.411 5.187,-3.411l6.195,0l0,2.979c-1.008,2.642 -3.554,3.987 -6.483,3.987Z" style="fill:#fff;fill-rule:nonzero;"/><path d="M377.405,849.695l0,-3.743l-5.706,0l0,25.626l5.994,0l0,-12.429c0,-5.235 2.88,-7.923 7.44,-7.923c0.432,0 0.864,0.048 1.392,0.144l0,-5.706c-4.272,0 -7.392,1.344 -9.12,4.031Z" style="fill:#fff;fill-rule:nonzero;"/><path d="M415.469,858.909c0,-8.019 -5.466,-13.245 -12.954,-13.245c-7.632,0 -13.248,5.467 -13.248,13.101c0,7.634 5.568,13.149 14.16,13.149c4.416,0 8.014,-1.438 10.316,-4.171l-3.213,-3.698c-1.823,1.874 -4.079,2.787 -6.959,2.787c-4.464,0 -7.584,-2.402 -8.304,-6.15l20.106,0c0.048,-0.575 0.096,-1.294 0.096,-1.773Zm-12.954,-8.451c3.936,0 6.768,2.546 7.248,6.246l-14.544,0c0.576,-3.748 3.408,-6.246 7.296,-6.246Z" style="fill:#fff;fill-rule:nonzero;"/><path d="M429.152,871.914c7.202,0 11.613,-3.116 11.613,-7.921c0,-10.03 -15.84,-5.425 -15.84,-10.606c0,-1.681 1.729,-2.881 5.379,-2.881c2.45,0 4.899,0.48 7.344,1.92l2.302,-4.557c-2.302,-1.39 -6.188,-2.205 -9.598,-2.205c-6.913,0 -11.277,3.164 -11.277,8.011c0,10.222 15.84,5.612 15.84,10.511c0,1.78 -1.585,2.838 -5.379,2.838c-3.218,0 -6.673,-1.058 -8.927,-2.55l-2.302,4.563c2.302,1.63 6.57,2.877 10.845,2.877Z" style="fill:#fff;fill-rule:nonzero;"/><path d="M460.16,845.664c-3.505,0 -6.482,1.198 -8.499,3.644l0,-3.356l-5.706,0l0,34.938l5.994,0l0,-12.428c2.065,2.349 4.946,3.452 8.211,3.452c7.49,0 13.005,-5.178 13.005,-13.146c0,-7.926 -5.515,-13.104 -13.005,-13.104Zm-0.672,21.12c-4.322,0 -7.635,-3.121 -7.635,-8.019c0,-4.898 3.313,-8.019 7.635,-8.019c4.322,0 7.587,3.121 7.587,8.019c0,4.898 -3.265,8.019 -7.587,8.019Z" style="fill:#fff;fill-rule:nonzero;"/><path d="M490.4,871.914c7.971,0 13.677,-5.466 13.677,-13.149c0,-7.683 -5.706,-13.101 -13.677,-13.101c-7.875,0 -13.629,5.418 -13.629,13.101c0,7.683 5.754,13.149 13.629,13.149Zm0,-5.13c-4.322,0 -7.587,-3.121 -7.587,-8.019c0,-4.898 3.265,-8.019 7.587,-8.019c4.37,0 7.635,3.121 7.635,8.019c0,4.898 -3.265,8.019 -7.635,8.019Z" style="fill:#fff;fill-rule:nonzero;"/><path d="M524.385,845.664c-3.746,0 -6.867,1.246 -8.836,3.596l0,-3.308l-5.706,0l0,25.626l5.994,0l0,-12.957c0,-5.139 2.881,-7.731 7.155,-7.731c3.842,0 6.099,2.208 6.099,6.768l0,13.92l5.994,0l0,-14.688c0,-7.726 -4.555,-11.226 -10.7,-11.226Z" style="fill:#fff;fill-rule:nonzero;"/><path d="M550.64,871.914c7.202,0 11.613,-3.116 11.613,-7.921c0,-10.03 -15.84,-5.425 -15.84,-10.606c0,-1.681 1.729,-2.881 5.379,-2.881c2.45,0 4.899,0.48 7.344,1.92l2.302,-4.557c-2.302,-1.39 -6.188,-2.205 -9.598,-2.205c-6.913,0 -11.277,3.164 -11.277,8.011c0,10.222 15.84,5.612 15.84,10.511c0,1.78 -1.585,2.838 -5.379,2.838c-3.218,0 -6.673,-1.058 -8.927,-2.55l-2.302,4.563c2.302,1.63 6.57,2.877 10.845,2.877Z" style="fill:#fff;fill-rule:nonzero;"/><path d="M570.464,841.722c2.254,0 3.837,-1.631 3.837,-3.741c0,-1.966 -1.631,-3.453 -3.837,-3.453c-2.206,0 -3.837,1.583 -3.837,3.597c0,2.014 1.631,3.597 3.837,3.597Zm-3.021,29.856l5.994,0l0,-25.626l-5.994,0l0,25.626Z" style="fill:#fff;fill-rule:nonzero;"/><path d="M595.52,845.664c-3.265,0 -6.146,1.103 -8.211,3.404l0,-13.1l-5.994,0l0,35.61l5.706,0l0,-3.308c2.017,2.445 4.994,3.644 8.499,3.644c7.49,0 13.005,-5.178 13.005,-13.149c0,-7.971 -5.515,-13.101 -13.005,-13.101Zm-0.672,21.12c-4.322,0 -7.635,-3.121 -7.635,-8.019c0,-4.898 3.313,-8.019 7.635,-8.019c4.322,0 7.587,3.121 7.587,8.019c0,4.898 -3.265,8.019 -7.587,8.019Z" style="fill:#fff;fill-rule:nonzero;"/><rect x="614.243" y="835.968" width="5.994" height="35.61" style="fill:#fff;fill-rule:nonzero;"/><path d="M652.205,858.909c0,-8.019 -5.466,-13.245 -12.954,-13.245c-7.632,0 -13.248,5.467 -13.248,13.101c0,7.634 5.568,13.149 14.16,13.149c4.416,0 8.014,-1.438 10.316,-4.171l-3.213,-3.698c-1.823,1.874 -4.079,2.787 -6.959,2.787c-4.464,0 -7.584,-2.402 -8.304,-6.15l20.106,0c0.048,-0.575 0.096,-1.294 0.096,-1.773Zm-12.954,-8.451c3.936,0 6.768,2.546 7.248,6.246l-14.544,0c0.576,-3.748 3.408,-6.246 7.296,-6.246Z" style="fill:#fff;fill-rule:nonzero;"/><path d="M689.454,845.952l-8.206,19.003l-7.966,-19.003l-6.239,0l10.99,25.626l6.19,0l10.99,-25.626l-5.759,0Z" style="fill:#fff;fill-rule:nonzero;"/><path d="M709.76,871.914c7.971,0 13.677,-5.466 13.677,-13.149c0,-7.683 -5.706,-13.101 -13.677,-13.101c-7.875,0 -13.629,5.418 -13.629,13.101c0,7.683 5.754,13.149 13.629,13.149Zm0,-5.13c-4.322,0 -7.587,-3.121 -7.587,-8.019c0,-4.898 3.265,-8.019 7.587,-8.019c4.37,0 7.635,3.121 7.635,8.019c0,4.898 -3.265,8.019 -7.635,8.019Z" style="fill:#fff;fill-rule:nonzero;"/><path d="M742.925,865.92c-0.912,0.72 -2.112,1.056 -3.36,1.056c-2.304,0 -3.552,-1.345 -3.552,-3.842l0,-12.196l6.864,0l0,-4.794l-6.864,0l0,-5.856l-5.994,0l0,5.856l-4.224,0l0,4.794l4.224,0l0,12.34c0,5.664 3.213,8.636 8.826,8.636c2.16,0 4.32,-0.575 5.76,-1.726l-1.68,-4.268Z" style="fill:#fff;fill-rule:nonzero;"/><path d="M772.781,858.909c0,-8.019 -5.466,-13.245 -12.954,-13.245c-7.632,0 -13.248,5.467 -13.248,13.101c0,7.634 5.568,13.149 14.16,13.149c4.416,0 8.014,-1.438 10.316,-4.171l-3.213,-3.698c-1.823,1.874 -4.079,2.787 -6.959,2.787c-4.464,0 -7.584,-2.402 -8.304,-6.15l20.106,0c0.048,-0.575 0.096,-1.294 0.096,-1.773Zm-12.954,-8.451c3.936,0 6.768,2.546 7.248,6.246l-14.544,0c0.576,-3.748 3.408,-6.246 7.296,-6.246Z" style="fill:#fff;fill-rule:nonzero;"/><path d="M784.253,849.695l0,-3.743l-5.706,0l0,25.626l5.994,0l0,-12.429c0,-5.235 2.88,-7.923 7.44,-7.923c0.432,0 0.864,0.048 1.392,0.144l0,-5.706c-4.272,0 -7.392,1.344 -9.12,4.031Z" style="fill:#fff;fill-rule:nonzero;"/><path d="M799.096,860.448l4.76,0l1.201,-22.464l-7.113,0l1.152,22.464Zm2.392,11.466c2.206,0 3.789,-1.679 3.789,-3.741c0,-2.062 -1.583,-3.693 -3.789,-3.693c-2.254,0 -3.885,1.631 -3.885,3.693c0,2.062 1.631,3.741 3.885,3.741Z" style="fill:#fff;fill-rule:nonzero;"/></g><path d="M413.158,203.132l-1.54,4.206l-1.529,-4.206l-1.116,0l-1.561,4.185l-1.497,-4.185l-1.254,0l2.082,5.671l1.275,0l1.486,-3.908l1.466,3.908l1.275,0l2.092,-5.671l-1.179,0Z" style="fill:#fff;fill-rule:nonzero;"/><path d="M422.813,203.132l-1.54,4.206l-1.529,-4.206l-1.115,0l-1.561,4.185l-1.498,-4.185l-1.253,0l2.081,5.671l1.275,0l1.487,-3.908l1.465,3.908l1.275,0l2.092,-5.671l-1.179,0Z" style="fill:#fff;fill-rule:nonzero;"/><path d="M432.469,203.132l-1.54,4.206l-1.53,-4.206l-1.115,0l-1.561,4.185l-1.498,-4.185l-1.253,0l2.082,5.671l1.274,0l1.487,-3.908l1.466,3.908l1.274,0l2.092,-5.671l-1.178,0Z" style="fill:#fff;fill-rule:nonzero;"/><path d="M434.636,208.877c0.478,0 0.87,-0.371 0.87,-0.881c0,-0.531 -0.392,-0.881 -0.87,-0.881c-0.478,0 -0.87,0.35 -0.87,0.881c0,0.51 0.392,0.881 0.87,0.881Z" style="fill:#fff;fill-rule:nonzero;"/><path d="M440.861,203.132l0,2.868c0,1.136 -0.627,1.71 -1.551,1.71c-0.84,0 -1.329,-0.489 -1.329,-1.519l0,-3.059l-1.326,0l0,3.24c0,1.709 0.987,2.505 2.442,2.505c0.733,0 1.403,-0.276 1.828,-0.796l0,0.722l1.262,0l0,-5.671l-1.326,0Z" style="fill:#fff;fill-rule:nonzero;"/><path d="M447.074,203.068c-0.722,0 -1.36,0.244 -1.817,0.753l0,-2.898l-1.326,0l0,7.88l1.263,0l0,-0.732c0.446,0.541 1.105,0.806 1.88,0.806c1.658,0 2.878,-1.146 2.878,-2.91c0,-1.764 -1.22,-2.899 -2.878,-2.899Zm-0.148,4.674c-0.957,0 -1.69,-0.691 -1.69,-1.775c0,-1.084 0.733,-1.774 1.69,-1.774c0.956,0 1.678,0.69 1.678,1.774c0,1.084 -0.722,1.775 -1.678,1.775Z" style="fill:#fff;fill-rule:nonzero;"/><path d="M453.818,208.877c1.105,0 1.987,-0.477 2.422,-1.326l-1.019,-0.595c-0.34,0.541 -0.85,0.786 -1.413,0.786c-0.977,0 -1.721,-0.67 -1.721,-1.775c0,-1.094 0.744,-1.774 1.721,-1.774c0.563,0 1.073,0.244 1.413,0.786l1.019,-0.595c-0.435,-0.86 -1.317,-1.316 -2.422,-1.316c-1.795,0 -3.068,1.199 -3.068,2.899c0,1.7 1.273,2.91 3.068,2.91Z" style="fill:#fff;fill-rule:nonzero;"/><path d="M459.905,208.877c1.105,0 1.986,-0.477 2.422,-1.326l-1.02,-0.595c-0.34,0.541 -0.85,0.786 -1.413,0.786c-0.977,0 -1.721,-0.67 -1.721,-1.775c0,-1.094 0.744,-1.774 1.721,-1.774c0.563,0 1.073,0.244 1.413,0.786l1.02,-0.595c-0.436,-0.86 -1.317,-1.316 -2.422,-1.316c-1.795,0 -3.069,1.199 -3.069,2.899c0,1.7 1.274,2.91 3.069,2.91Z" style="fill:#fff;fill-rule:nonzero;"/><path d="M465.227,208.877c1.594,0 2.57,-0.689 2.57,-1.753c0,-2.219 -3.505,-1.2 -3.505,-2.347c0,-0.372 0.382,-0.637 1.19,-0.637c0.542,0 1.084,0.106 1.625,0.425l0.51,-1.009c-0.51,-0.307 -1.37,-0.488 -2.124,-0.488c-1.53,0 -2.496,0.7 -2.496,1.773c0,2.262 3.505,1.242 3.505,2.326c0,0.394 -0.35,0.628 -1.19,0.628c-0.712,0 -1.477,-0.234 -1.975,-0.564l-0.51,1.01c0.51,0.36 1.454,0.636 2.4,0.636Z" style="fill:#fff;fill-rule:nonzero;"/><path d="M470.697,208.877c1.594,0 2.57,-0.689 2.57,-1.753c0,-2.219 -3.505,-1.2 -3.505,-2.347c0,-0.372 0.383,-0.637 1.19,-0.637c0.542,0 1.084,0.106 1.626,0.425l0.509,-1.009c-0.509,-0.307 -1.369,-0.488 -2.124,-0.488c-1.53,0 -2.496,0.7 -2.496,1.773c0,2.262 3.506,1.242 3.506,2.326c0,0.394 -0.351,0.628 -1.191,0.628c-0.712,0 -1.476,-0.234 -1.975,-0.564l-0.509,1.01c0.509,0.36 1.453,0.636 2.399,0.636Z" style="fill:#fff;fill-rule:nonzero;"/><path d="M476.168,208.877c1.593,0 2.57,-0.689 2.57,-1.753c0,-2.219 -3.506,-1.2 -3.506,-2.347c0,-0.372 0.383,-0.637 1.191,-0.637c0.542,0 1.084,0.106 1.625,0.425l0.509,-1.009c-0.509,-0.307 -1.369,-0.488 -2.124,-0.488c-1.53,0 -2.495,0.7 -2.495,1.773c0,2.262 3.505,1.242 3.505,2.326c0,0.394 -0.351,0.628 -1.19,0.628c-0.712,0 -1.477,-0.234 -1.976,-0.564l-0.509,1.01c0.509,0.36 1.454,0.636 2.4,0.636Z" style="fill:#fff;fill-rule:nonzero;"/><path d="M480.31,208.877c0.478,0 0.871,-0.371 0.871,-0.881c0,-0.531 -0.393,-0.881 -0.871,-0.881c-0.477,0 -0.87,0.35 -0.87,0.881c0,0.51 0.393,0.881 0.87,0.881Z" style="fill:#fff;fill-rule:nonzero;"/><path d="M484.92,208.877c1.764,0 3.027,-1.21 3.027,-2.91c0,-1.7 -1.263,-2.899 -3.027,-2.899c-1.742,0 -3.016,1.199 -3.016,2.899c0,1.7 1.274,2.91 3.016,2.91Zm0,-1.135c-0.956,0 -1.679,-0.691 -1.679,-1.775c0,-1.084 0.723,-1.774 1.679,-1.774c0.967,0 1.69,0.69 1.69,1.774c0,1.084 -0.723,1.775 -1.69,1.775Z" style="fill:#fff;fill-rule:nonzero;"/><path d="M490.485,203.96l0,-0.828l-1.262,0l0,5.671l1.326,0l0,-2.751c0,-1.158 0.637,-1.753 1.647,-1.753c0.095,0 0.191,0.011 0.308,0.032l0,-1.263c-0.946,0 -1.636,0.298 -2.019,0.892Z" style="fill:#fff;fill-rule:nonzero;"/><path d="M497.943,203.132l0,0.753c-0.467,-0.562 -1.169,-0.817 -1.965,-0.817c-1.626,0 -2.868,1.082 -2.868,2.729c0,1.647 1.242,2.751 2.868,2.751c0.765,0 1.434,-0.244 1.902,-0.753l0,0.297c0,1.147 -0.553,1.721 -1.807,1.721c-0.786,0 -1.594,-0.266 -2.093,-0.68l-0.594,0.998c0.648,0.531 1.699,0.807 2.762,0.807c1.986,0 3.058,-0.934 3.058,-2.995l0,-4.811l-1.263,0Zm-1.764,4.291c-1.009,0 -1.732,-0.658 -1.732,-1.625c0,-0.957 0.723,-1.605 1.732,-1.605c0.999,0 1.722,0.648 1.722,1.604c0,0.968 -0.723,1.626 -1.722,1.626Z" style="fill:#fff;fill-rule:nonzero;"/><path d="M499.76,209.865l1.189,0l3.504,-10.006l-1.189,0l-3.504,10.006Z" style="fill:#fff;fill-rule:nonzero;"/><path d="M508.607,203.132l-1.816,4.205l-1.763,-4.205l-1.381,0l2.432,5.671l1.37,0l2.432,-5.671l-1.274,0Z" style="fill:#fff;fill-rule:nonzero;"/><path d="M513.1,208.877c1.764,0 3.027,-1.21 3.027,-2.91c0,-1.7 -1.263,-2.899 -3.027,-2.899c-1.742,0 -3.016,1.199 -3.016,2.899c0,1.7 1.274,2.91 3.016,2.91Zm0,-1.135c-0.956,0 -1.679,-0.691 -1.679,-1.775c0,-1.084 0.723,-1.774 1.679,-1.774c0.967,0 1.69,0.69 1.69,1.774c0,1.084 -0.723,1.775 -1.69,1.775Z" style="fill:#fff;fill-rule:nonzero;"/><path d="M520.439,207.551c-0.202,0.159 -0.467,0.233 -0.743,0.233c-0.51,0 -0.786,-0.297 -0.786,-0.85l0,-2.699l1.519,0l0,-1.061l-1.519,0l0,-1.295l-1.327,0l0,1.295l-0.934,0l0,1.061l0.934,0l0,2.731c0,1.253 0.711,1.911 1.953,1.911c0.478,0 0.956,-0.127 1.275,-0.382l-0.372,-0.944Z" style="fill:#fff;fill-rule:nonzero;"/><path d="M527.046,205.999c0,-1.774 -1.21,-2.931 -2.866,-2.931c-1.689,0 -2.932,1.21 -2.932,2.899c0,1.69 1.232,2.91 3.133,2.91c0.978,0 1.774,-0.318 2.283,-0.923l-0.711,-0.818c-0.403,0.414 -0.902,0.617 -1.54,0.617c-0.988,0 -1.678,-0.532 -1.837,-1.361l4.449,0c0.011,-0.128 0.021,-0.287 0.021,-0.393Zm-2.866,-1.87c0.871,0 1.497,0.564 1.603,1.382l-3.218,0c0.127,-0.829 0.754,-1.382 1.615,-1.382Z" style="fill:#fff;fill-rule:nonzero;"/></svg>