<svg xmlns="http://www.w3.org/2000/svg" fill-rule="evenodd" stroke-linejoin="round" stroke-miterlimit="1.4" clip-rule="evenodd" viewBox="0 0 615 234"><path fill="#0e224f" d="M0 0h615v234H0z"/><path fill="#ff645f" d="M615 5v19H444.5v8.3H615v19H407.5v8.4H615v18.9H407.5V87H615v15.8H0V5.1h615zM162.6 87v-8.4H0V87h162.6zm0-27.3v-8.3H0v8.3h162.6zm36.7-27.4V24H0v8.3h199.3z"/><path fill="#fff" d="M364.4 5.1h2.4V9c.1 4.4 0 6-.7 7.4a7.5 7.5 0 0 1-9.3 3.7c-.6-.3-.9-.3-1-.1a168.6 168.6 0 0 1-17.1 31.7 61 61 0 0 1-9.6 9.7c-1.6 1.3-2 1.6-1.9 1.9l.1 17.5V98h3.6c2.2 0 4 0 4.3.2 1 .2 1.7 1 1.9 1.9.2.9-.3 2-1.1 2.4-.5.3-3 .3-43.4.3l-43.2-.1c-1.2-.5-1.7-2.3-1-3.5.7-1 1-1.1 5.5-1.2l4-.1.2-48 .3-.5c.7-1 1.1-1 7.2-1 4.7 0 5.4 0 5.4-.3l-.5-1.3a12.4 12.4 0 0 1-.2-10.5c.3-.6 11.5-19.4 12.9-20.8.8-.8 1.9-1.7 2.4-2L296.9 9l10.4-4h6.9c4.2 0 6.8.1 6.7.2l-15.6 6c-8.5 3.2-16 6-16.7 6.4a7 7 0 0 0-2 1.4c-1 1-11.4 18.4-12 19.9-.4 1.2-.5 3-.2 4.2.2.6.7 2 1.3 3.1l1 2 5.2.1 5.1-.1c0-.7-1.4-3-3-4.8l-1.1-1.5c-.5-.9 0-2.3.8-3a35.8 35.8 0 0 0 12-6.3c1.4-1 1.8-1.5 2-2.3.2-1.2 1.5-2 2.6-1.8.3 0 1.1.5 1.9 1 3.4 2.3 7.3 3.6 11.4 4 2.2 0 2.8.3 3.3 1.2.4.6.5 1.7.2 2.3l-1.6 2c-3.6 4-8 10.7-8 12.2 0 1-1 2-2 2.1-.4 0-2 .9-3.6 1.8-3.7 2.1-12.7 7.8-13.5 8.4a7 7 0 0 0-2 5.9 7 7 0 0 0 4 5.1c1.4.6 3.8.6 5 0 .5-.3 4.9-2.8 9.7-5.8 6.5-3.8 9.1-5.3 9.8-5.5 3.5-1 8.5-3.7 12.3-6.7 3-2.4 6.7-6.5 9.1-10a177.8 177.8 0 0 0 15-29c0-.2-3.3-1.9-12-6.3l-12-6h5.3L338 5l10.4 5.2c10.1 5 10.4 5.2 11.2 5.1 1 0 1.6-.4 2-1.3.3-.5.3-1 .3-4.8V5.1h2.5zM263 98c-.3 0-.3-3.2-.3-22l.1-22.3c.1-.2 1.7-.2 15.9-.2l15.8.1-3.9 2.6c-4.8 3-5.8 3.7-6.8 5a11.6 11.6 0 0 0 12.8 18.2c.7-.2 4.3-2.3 10-5.8a75.9 75.9 0 0 1 13.4-6.9l2-.7c.1 0 .2 7.3.2 16v16h-29.5c-16.3.1-29.6.1-29.7 0zm29.2-49.8L292 47c-.4-1.2-1-2.7-1.8-3.9-.3-.4-.5-.8-.4-.9L292 41c2.7-1.4 6-3.6 7.6-5.1l1.3-1.2 2 1a28.4 28.4 0 0 0 6.6 2.4s-.5 1-1.3 2.1a51.5 51.5 0 0 0-4.4 7l-.6 1.2h-5.4c-4.2 0-5.4 0-5.5-.2z"/><g fill="#ff645f" fill-rule="nonzero"><path d="M51.6 160.1c0 2.6-.6 4.8-2 6.7a7.2 7.2 0 0 1-3.8 2.6c-1 .3-2 .4-3.1.4-2.2 0-4-.5-5.5-1.6a9 9 0 0 1-2.8-3.6c-.7-1.6-1.1-3.3-1.2-5.3l5.3-.4c.2 2.2.8 3.7 1.7 4.7.7.7 1.4 1 2.3 1 1.2 0 2.2-.6 3-1.8.3-.5.5-1.3.5-2.4 0-1.5-.7-3-2.1-4.6l-5-4.7a21.2 21.2 0 0 1-4-4.8c-.7-1.6-1.1-3.3-1.1-5.2 0-3.4 1-6 3.4-7.7 1.3-1 3-1.5 5.2-1.5 2 0 3.6.4 5 1.3 1.2.7 2 1.6 2.7 2.9.7 1.2 1.1 2.7 1.3 4.3l-5.4 1a6.4 6.4 0 0 0-1.3-3.6c-.5-.6-1.2-1-2.2-1-1 0-1.8.5-2.3 1.4-.5.8-.7 1.7-.7 2.8 0 1.7.7 3.4 2.2 5.1.6.7 1.4 1.5 2.5 2.4 1.3 1 2.1 1.8 2.6 2.3a19 19 0 0 1 4 5.8c.5 1.3.8 2.5.8 3.5zM65 169.8c-2.4 0-4.5-.9-6.2-2.6a8.5 8.5 0 0 1-2.6-6.2v-28.7h5.5V161a3 3 0 0 0 1 2.3c.6.6 1.3.9 2.2.9a3 3 0 0 0 2.3-1 3 3 0 0 0 1-2.2v-28.6h5.7V161c0 2.4-.8 4.5-2.6 6.2a8.6 8.6 0 0 1-6.2 2.6zM78.9 169.3v-37h8.4c2.2 0 4.2.6 6 1.7 1.4 1 2.5 2.6 3.2 4.6.3 1.1.5 2.4.5 4 0 2.4-.6 4.4-2 6-.5.6-1.2 1-2 1.4 1.3.4 2.4 1.4 3.2 2.8.6 1 1 2.1 1.3 3.6a14.6 14.6 0 0 1-1.1 8.6 8 8 0 0 1-3 3 8 8 0 0 1-4.2 1.3H79zm6-5.5h2.4c1.9 0 3.2-1 3.9-2.9.2-.7.4-1.4.4-2.3 0-2-.4-3.6-1.2-4.5-.7-.9-1.8-1.3-3.1-1.3h-2.4v11zm0-16.4h2.4c1.7 0 2.9-.8 3.4-2.5.3-.6.4-1.4.4-2.3 0-1.6-.4-2.7-1.1-3.5-.7-.8-1.6-1.1-2.7-1.1h-2.4v9.4zM108.1 169.3h-5.6v-37h8l5.3 26.6 5-26.6h7.6v37H123v-23.2l-4.9 23.2h-4.5l-5.4-23.2v23.2zM133.5 132.3h5.5v37h-5.5zM149.5 138h-6v-5.7H161v5.6H155v31.5h-5.5v-31.5zM176.1 153.8l-7.5-21.5h6.2l4.1 13.3 4.1-13.3h6.2l-7.5 21.5v15.6H176v-15.6zM200.5 131.9c2.4 0 4.5.8 6.2 2.6a8.6 8.6 0 0 1 2.6 6.2V161c0 2.5-.9 4.6-2.6 6.3a8.6 8.6 0 0 1-6.2 2.6c-2.5 0-4.6-.9-6.3-2.6a8.6 8.6 0 0 1-2.6-6.3v-20.2c0-2.4.9-4.5 2.6-6.3a8.5 8.5 0 0 1 6.3-2.5zm3 8.7a3 3 0 0 0-1-2.3 3 3 0 0 0-2.2-.9c-.9 0-1.6.3-2.3 1a3 3 0 0 0-1 2.2v20.3a3 3 0 0 0 1 2.2c.7.7 1.4 1 2.3 1a3 3 0 0 0 2.3-1 3 3 0 0 0 .9-2.2v-20.3zM223 169.8c-2.4 0-4.5-.9-6.2-2.6a8.5 8.5 0 0 1-2.6-6.2v-28.7h5.5V161a3 3 0 0 0 .9 2.3c.6.6 1.4.9 2.3.9a3 3 0 0 0 2.2-1 3 3 0 0 0 1-2.2v-28.6h5.8V161c0 2.4-.9 4.5-2.6 6.2a8.6 8.6 0 0 1-6.3 2.6zM245.7 132.3c3 0 5.4.9 6.8 2.6 1.3 1.5 2 3.6 2 6.3v5.3c0 2.7-1 4.9-3 6.7l4 16.2h-6l-3.3-14h-3.8v14H237v-37h8.8zm3.3 9c0-2.2-1-3.3-3.2-3.3h-3.4V150h3.4a3 3 0 0 0 2.3-1c.6-.6.9-1.4.9-2.2v-5.4zM108.9 224.2l-6.6-37h5.8l4.7 28.8 4.6-28.9h5.9l-6.7 37h-7.7zM136 186.7c2.4 0 4.5.8 6.2 2.6a8.6 8.6 0 0 1 2.6 6.2v20.2c0 2.5-.8 4.6-2.6 6.3a8.6 8.6 0 0 1-6.2 2.6c-2.5 0-4.6-.9-6.3-2.6a8.6 8.6 0 0 1-2.6-6.3v-20.2c0-2.4.9-4.5 2.6-6.2a8.5 8.5 0 0 1 6.3-2.6zm3 8.7a3 3 0 0 0-1-2.2 3 3 0 0 0-2.2-1c-.9 0-1.6.3-2.3 1a3 3 0 0 0-.9 2.2v20.3a3 3 0 0 0 1 2.2c.6.7 1.3 1 2.2 1a3 3 0 0 0 2.3-1 3 3 0 0 0 1-2.2v-20.3zM154.6 192.8h-6V187h17.5v5.7h-5.9v31.4h-5.6v-31.4zM170.6 224.2v-37h15.9v5.5h-10.3v10.1h7.5v5.6h-7.5v10.2h10.3v5.6h-15.9z"/></g><path fill="#ff645f" fill-rule="nonzero" d="M384.1 166.5h1.9v12.6h-1.9zM389.5 168.4h-2v-2h6v2h-2V179h-2v-10.7zM394.8 164.5h1.7l-.3 2.8h-1.1l-.3-2.8zM404.1 176c0 .8-.2 1.5-.7 2.2-.3.4-.7.7-1.3.9l-1 .1a3 3 0 0 1-1.9-.5 3 3 0 0 1-1-1.3 5 5 0 0 1-.4-1.8h1.8c.1.6.3 1.2.6 1.5.3.3.5.4.8.4.4 0 .8-.3 1-.7l.2-.8c0-.5-.2-1-.7-1.6-.4-.3-1-.8-1.7-1.6l-1.3-1.6c-.3-.5-.5-1.1-.5-1.8 0-1.1.4-2 1.2-2.6.5-.3 1-.5 1.8-.5.6 0 1.2.1 1.7.4l1 1 .3 1.5-1.8.3c0-.5-.2-.9-.4-1.2-.2-.2-.5-.3-.8-.3-.3 0-.6.2-.8.5l-.2.9c0 .6.2 1.2.7 1.8l.9.8.9.7a6.5 6.5 0 0 1 1.3 2l.3 1.2zM408 179v-12.6h5.5v2h-3.6v3.4h2.6v2H410v3.3h3.6v2H408zM417.2 176.2l-.5 2.9h-2l2.2-12.6h2.6l2.1 12.6h-2l-.4-3h-2zm1-6.9l-.7 5h1.4l-.7-5zM429 176c0 .8-.3 1.5-.7 2.2-.3.4-.8.7-1.3.9l-1.1.1a3 3 0 0 1-1.9-.5 3 3 0 0 1-1-1.3 5 5 0 0 1-.3-1.8h1.8c0 .6.2 1.2.6 1.5.2.3.4.4.7.4.5 0 .8-.3 1-.7.2-.1.2-.4.2-.8 0-.5-.2-1-.7-1.6-.4-.3-1-.8-1.7-1.6l-1.3-1.6c-.3-.5-.4-1.1-.4-1.8 0-1.1.3-2 1.1-2.6.5-.3 1-.5 1.8-.5.7 0 1.2.1 1.7.4l1 1 .4 1.5-1.9.3c0-.5-.2-.9-.4-1.2-.2-.2-.4-.3-.8-.3-.3 0-.6.2-.8.5l-.2.9c0 .6.3 1.2.8 1.8l.8.8.9.7a6.5 6.5 0 0 1 1.4 2l.2 1.2zM432.1 173.8l-2.5-7.4h2l1.5 4.6 1.4-4.6h2.1l-2.6 7.4v5.3h-1.9v-5.3zM438 173.5v-7h1.8v7l-.1 2.4H438l-.2-2.4zm0 5.6v-2h1.8v2H438zM446 179l-2.3-12.5h2l1.6 9.8 1.6-9.8h2l-2.3 12.6H446zM455.2 166.3c.9 0 1.6.3 2.1.9.6.6 1 1.3 1 2.1v6.9c0 .8-.4 1.5-1 2.1a3 3 0 0 1-2 1c-1 0-1.6-.4-2.2-1a3 3 0 0 1-.9-2.1v-6.9c0-.8.3-1.5.9-2.1a3 3 0 0 1 2.1-1zm1 3a1 1 0 0 0-.3-.8 1 1 0 0 0-.7-.3 1 1 0 0 0-.8.3 1 1 0 0 0-.3.8v6.9c0 .3 0 .5.3.7.2.3.5.4.8.4.3 0 .5-.1.7-.4.2-.2.3-.4.3-.7v-7zM461.6 168.4h-2v-2h5.9v2h-2V179h-2v-10.7zM467 179v-12.6h5.4v2H469v3.4h2.6v2h-2.6v3.3h3.5v2H467zM479.3 166.3c.9 0 1.6.3 2.2.9.6.6.9 1.3.9 2.1v6.9c0 .8-.3 1.5-1 2.1a3 3 0 0 1-2 1c-.9 0-1.6-.4-2.2-1a3 3 0 0 1-.9-2.1v-6.9c0-.8.3-1.5 1-2.1.5-.6 1.2-1 2-1zm1 3a1 1 0 0 0-.2-.8 1 1 0 0 0-.8-.3 1 1 0 0 0-.8.3 1 1 0 0 0-.3.8v6.9c0 .3.1.5.3.7.2.3.5.4.8.4.3 0 .5-.1.8-.4.2-.2.3-.4.3-.7v-7zM486.2 166.4l2.5 8.5v-8.5h1.9v12.7h-2l-2.7-8.1v8H484v-12.6h2.2zM497.5 179h-5.2v-12.5h1.9v10.7h3.3v1.9zM498.8 166.5h1.9v12.6h-1.9zM504.5 166.4l2.5 8.5v-8.5h2v12.7h-2.1l-2.6-8.1v8h-2v-12.6h2.2zM510.6 179v-12.6h5.4v2h-3.5v3.4h2.6v2h-2.6v3.3h3.5v2h-5.4zM522.1 166.4l2.5 8.5v-8.5h2v12.7h-2.1l-2.6-8.1v8h-2v-12.6h2.2zM531.2 166.3c.8 0 1.6.3 2.1.9.6.6 1 1.3 1 2.1v6.9c0 .8-.4 1.5-1 2.1a3 3 0 0 1-2 1c-1 0-1.6-.4-2.2-1a3 3 0 0 1-.9-2.1v-6.9c0-.8.3-1.5.9-2.1a3 3 0 0 1 2.1-1zm1 3a1 1 0 0 0-.3-.8 1 1 0 0 0-.7-.3 1 1 0 0 0-.8.3 1 1 0 0 0-.3.8v6.9c0 .3 0 .5.3.7.2.3.5.4.8.4.3 0 .5-.1.7-.4.2-.2.3-.4.3-.7v-7zM543.3 166.5h2l-2 12.6h-1.7l-1.1-7-1 7h-1.9l-2-12.6h2l1 6.7.8-6.7h2l1 6.7 1-6.7zM546.6 177.2h1.9v1.9h-1.9z"/><path fill="#08339a" fill-rule="nonzero" d="M305.8 221.4v1.7l1.7 1.4v-1.9l-1.7-1.2zm-.3 1.5l-1.4-1.2-.2-1.8 1.6 1.2v1.8zm-1.8-1.5l-1.3-1-.2-1.8 1.4 1 .1 1.8zm-.1-2.2l-1.4-1-.2-2 1.4 1 .2 2zm3.9-1.9v2.4l-1.9-1.3v-2.2l1.9 1.1zm-2.2-1.3v2.2l-1.6-1.1-.1-2.2 1.7 1zm-3.4-.2l1.4 1v-2.2l-1.6-.9.2 2.1z"/><path fill="#498df8" fill-rule="nonzero" d="M312.4 218.4l.3.2-1.4 1-.1 1.8-.3-.2V220l-1.4 1.2v1.8l-.4-.3v-1.2l-1.6 1.2-1.7-1.2v1.2l-.3.3V221l-1.6-1.2.1 1.3-.3.2v-1.7l-1.5-1 .3-.3 1 .8v-2l-1.5-1 .3-.1 1 .7-.1-2.2 1.8-.9-1-.6v-.4l1.5.8 1.6-.8-1.4-.8.3.2v-.4l1.5.8 1.7-.8v2l-1.8.8-.2-.1v.3h-.3l-1.5-.7-1.8.9.1 2.2 1.6 1V216l1.8-1.1v.4l-1.5.9v1.8l-.6.4.3.3v.4l.3-.3 1.5 1.1v.5l.4-.2.3.2v-.5l1.5-1 .3.2v-.4l.3-.3-.6-.4v-1.8l-1.5-1v-.3l1.8 1v2.3l1.6-1.1.1-2.2-1.4-.7v-.5l1.8 1-.1 2.1 1-.7.3.2-1.4 1-.1 2 1-.9z"/><path fill="#fff" fill-rule="nonzero" d="M307.5 222.6v1.9l1.6-1.4v-1.7l-1.6 1.2zm3.5-2.7l-.1 1.8-1.5 1.2V221l1.6-1.2zm1.7-1.3l-.2 1.8-1.3 1 .1-1.7 1.4-1zm-3.4-2.4v2.2l-1.8 1.3v-2.4l-1.9-1.1 1.9-1.1 1.8 1zm3.6 0l-.2 2-1.3 1 .1-2 1.4-1zm-1.6-1.3l-.1 2.2-1.6 1V216l-1.8-1.1 1.7-1 .4.3 1.4.7zm-1.4-1.2l1.8 1-.1 2.1 1.4-1 .2-2.1-1.9-.8-1.4.8zm-2.8 1.2l-1.8 1-1.7-1 1.8-1 1.7 1zm-5.4-1.2l1.5 1 1.9-1-1.1-.6-.4-.2-2 .8zm3.8-.2l1.6-.8-1.4-.8-1.7.8 1.5.8zm3.7-1.8l-1.5-.8-1.7.8 1.5.8 1.7-.8zM31.7 120.2c1 0 2-.4 2.6-1.1l-1-.9a2 2 0 0 1-1.5.8c-1.2 0-2-.8-2-2s.8-2 2-2a2 2 0 0 1 1.5.7l1-.8c-.6-.7-1.5-1-2.6-1-1.9 0-3.3 1.2-3.3 3.1 0 1.9 1.4 3.2 3.3 3.2zM38 120.2c2 0 3.4-1.4 3.4-3.2 0-1.8-1.4-3.2-3.3-3.2-2 0-3.4 1.4-3.4 3.2 0 1.8 1.4 3.2 3.4 3.2zm0-1.2c-1 0-1.9-.8-1.9-2s.9-2 2-2c1 0 1.9.8 1.9 2s-.8 2-2 2zM49.5 120v-6h-1.2l-2.3 3.7-2.3-3.8h-1.2v6.2H44v-3.6l1.8 3h.6l1.8-3.1v3.7h1.4zM53.6 114h-2.7v6h1.5v-1.6h1.2c1.6 0 2.7-.9 2.7-2.2 0-1.4-1-2.3-2.7-2.3zm0 3.2h-1.2v-2.1h1.1c.9 0 1.3.4 1.3 1 0 .7-.4 1.1-1.3 1.1zM60 120.2c1.8 0 2.8-1 2.8-2.8v-3.5h-1.4v3.4c0 1.2-.5 1.7-1.4 1.7-.8 0-1.4-.5-1.4-1.7V114h-1.4v3.5c0 1.8 1 2.8 2.8 2.8zM65.4 120h1.4v-5h2v-1h-5.4v1h2v5zM71 119v-1.5h2.8v-1.1H71v-1.3h3.2v-1.2h-4.7v6.2h4.8v-1.2H71zM81 120l-1.5-1.9a2 2 0 0 0 1.3-2c0-1.3-1-2.2-2.7-2.2h-2.6v6.2h1.4v-1.7h1.3l1.2 1.7h1.5zm-1.6-3.8c0 .6-.5 1-1.4 1H77v-2.1H78c1 0 1.4.4 1.4 1zM86.5 120.2c1.7 0 2.6-.9 2.6-2 0-2.2-3.6-1.4-3.6-2.5 0-.4.3-.7 1.2-.7.5 0 1 .1 1.7.4l.4-1c-.6-.4-1.4-.6-2.1-.6-1.8 0-2.6.9-2.6 2 0 2.2 3.6 1.4 3.6 2.6 0 .4-.4.6-1.2.6-.8 0-1.6-.2-2-.6l-.6 1c.6.5 1.6.8 2.6.8zM93 120.2c1 0 2-.4 2.5-1.1l-.9-.9a2 2 0 0 1-1.5.8c-1.2 0-2-.8-2-2s.8-2 2-2a2 2 0 0 1 1.5.7l1-.8c-.6-.7-1.5-1-2.6-1-2 0-3.3 1.2-3.3 3.1 0 1.9 1.4 3.2 3.3 3.2zM96.5 113.9h1.4v6.2h-1.4zM100.8 119v-1.5h2.9v-1.1h-2.9v-1.3h3.3v-1.2h-4.7v6.2h4.8v-1.2h-3.4zM109.6 114v3.7l-3.1-3.8h-1.2v6.2h1.4v-3.8l3 3.8h1.3v-6.2h-1.4zM115.4 120.2c1 0 2-.4 2.5-1.1l-.9-.9a2 2 0 0 1-1.5.8c-1.2 0-2-.8-2-2s.8-2 2-2a2 2 0 0 1 1.5.7l1-.8c-.7-.7-1.6-1-2.6-1-2 0-3.4 1.2-3.4 3.1 0 1.9 1.5 3.2 3.4 3.2zM120.3 119v-1.5h2.9v-1.1h-2.9v-1.3h3.2v-1.2H119v6.2h4.8v-1.2h-3.4zM129.3 120.2c1.8 0 2.6-.9 2.6-2 0-2.2-3.6-1.4-3.6-2.5 0-.4.4-.7 1.2-.7.6 0 1.2.1 1.7.4l.5-1c-.6-.4-1.4-.6-2.2-.6-1.7 0-2.6.9-2.6 2 0 2.2 3.6 1.4 3.6 2.6 0 .4-.3.6-1.2.6-.7 0-1.5-.2-2-.6l-.5 1c.5.5 1.5.8 2.5.8zM134 120h1.5v-5h2v-1H132v1h2v5zM140.9 120.2c1.7 0 2.8-1 2.8-2.8v-3.5h-1.4v3.4c0 1.2-.5 1.7-1.4 1.7-.9 0-1.4-.5-1.4-1.7V114h-1.4v3.5c0 1.8 1 2.8 2.8 2.8zM145.1 120h2.8c2 0 3.4-1.1 3.4-3s-1.4-3-3.4-3h-2.8v6zm1.4-1v-4h1.3c1.3 0 2 .8 2 2s-.7 2-2 2h-1.3zM153.8 119v-1.5h2.9v-1.1h-3v-1.3h3.3v-1.2h-4.6v6.2h4.7v-1.2h-3.3zM162.5 114v3.7l-3-3.8h-1.2v6.2h1.4v-3.8l3 3.8h1.2v-6.2h-1.4zM166.7 120h1.4v-5h2v-1h-5.4v1h2v5zM175.4 120.2c1.7 0 2.6-.9 2.6-2 0-2.2-3.6-1.4-3.6-2.5 0-.4.3-.7 1.2-.7.5 0 1.1.1 1.7.4l.4-1c-.6-.4-1.3-.6-2.1-.6-1.8 0-2.6.9-2.6 2 0 2.2 3.6 1.4 3.6 2.6 0 .4-.4.6-1.2.6-.8 0-1.5-.2-2-.6l-.5 1c.5.5 1.5.8 2.5.8zM182 120.2c1.9 0 3.3-1.4 3.3-3.2 0-1.8-1.4-3.2-3.4-3.2-1.9 0-3.3 1.4-3.3 3.2 0 1.8 1.4 3.2 3.3 3.2zm0-1.2c-1.2 0-2-.8-2-2s.8-2 2-2c1 0 1.9.8 1.9 2s-.8 2-2 2zM189.3 120.2c1.1 0 2-.4 2.6-1.1l-1-.9a2 2 0 0 1-1.5.8c-1.1 0-2-.8-2-2s.9-2 2-2a2 2 0 0 1 1.6.7l.9-.8c-.6-.7-1.5-1-2.5-1-2 0-3.4 1.2-3.4 3.1 0 1.9 1.4 3.2 3.3 3.2zM192.9 113.9h1.4v6.2h-1.4zM197.2 119v-1.5h2.8v-1.1h-2.8v-1.3h3.2v-1.2h-4.7v6.2h4.8v-1.2h-3.3zM203 120h1.4v-5h2v-1H201v1h2v5z"/><path fill="#fff" fill-rule="nonzero" d="M212.3 114H211l-1.6 2.7-1.7-2.8h-1.5l2.4 4v2.2h1.4v-2.2l2.4-4zM216.9 119v-1.5h2.8v-1.1H217v-1.3h3.2v-1.2h-4.7v6.2h4.8v-1.2H217zM221.3 120h4.6v-1h-3.1v-5h-1.5v6zM228 119v-1.5h3v-1.1h-3v-1.3h3.3v-1.2h-4.6v6.2h4.7v-1.2h-3.3zM235.5 120.2c1 0 2-.4 2.6-1.1l-1-.9a2 2 0 0 1-1.5.8c-1.2 0-2-.8-2-2s.8-2 2-2a2 2 0 0 1 1.5.7l1-.8c-.6-.7-1.5-1-2.6-1-1.9 0-3.3 1.2-3.3 3.1 0 1.9 1.4 3.2 3.3 3.2zM240.2 120h1.5v-5h2v-1h-5.4v1h2v5zM244.4 113.9h1.4v6.2h-1.4zM250.3 120.2c2 0 3.3-1.4 3.3-3.2 0-1.8-1.4-3.2-3.3-3.2-2 0-3.4 1.4-3.4 3.2 0 1.8 1.4 3.2 3.4 3.2zm0-1.2c-1.1 0-2-.8-2-2s.9-2 2-2c1 0 2 .8 2 2s-1 2-2 2zM259 114v3.7l-3-3.8h-1.3v6.2h1.4v-3.8l3.1 3.8h1.2v-6.2H259z"/><g fill="#fff" fill-rule="nonzero"><path d="M375.8 124.5v3h-3.9v-3h-1.4v7.4h1.4v-3.2h3.9v3.2h1.4v-7.4h-1.4zM381.2 126.2a4 4 0 0 0-2.4.7l.5 1c.4-.4 1-.6 1.7-.6 1 0 1.4.5 1.4 1.2v.1H381c-1.7 0-2.4.8-2.4 1.7 0 1 .8 1.7 2.1 1.7.9 0 1.5-.3 1.8-.8v.7h1.3v-3.3c0-1.6-1-2.4-2.6-2.4zm-.2 4.8c-.7 0-1-.3-1-.7 0-.5.2-.8 1-.8h1.4v.7c-.2.5-.7.8-1.4.8zM389.4 126.3l-1.8 4.2-1.8-4.2h-1.4l2.5 5.6h1.3l2.5-5.6h-1.3zM396.7 129.1c0-1.7-1.2-2.9-2.9-2.9s-3 1.2-3 2.9 1.3 3 3.2 3c1 0 1.8-.4 2.3-1l-.7-.8a2 2 0 0 1-1.6.6c-1 0-1.6-.5-1.8-1.4h4.5v-.4zm-2.9-1.8c.9 0 1.5.5 1.6 1.3h-3.2c.1-.8.8-1.3 1.6-1.3zM403 126.2a4 4 0 0 0-2.3.7l.5 1c.4-.4 1-.6 1.7-.6 1 0 1.4.5 1.4 1.2v.1h-1.5c-1.7 0-2.3.8-2.3 1.7 0 1 .8 1.7 2 1.7 1 0 1.6-.3 1.9-.8v.7h1.2v-3.3c0-1.6-1-2.4-2.5-2.4zm-.1 4.8c-.7 0-1.1-.3-1.1-.7 0-.5.2-.8 1.1-.8h1.4v.7c-.2.5-.8.8-1.4.8zM410.6 126.2c-.9 0-1.6.3-2 .8v-.7h-1.3v5.6h1.4v-2.8c0-1.2.6-1.7 1.5-1.7s1.4.4 1.4 1.5v3h1.3v-3.2c0-1.7-1-2.5-2.3-2.5zM418.2 125.3c.5 0 .9-.3.9-.8 0-.4-.4-.8-.9-.8s-.8.4-.8.8c0 .5.3.8.8.8zm-.7 6.6h1.4v-5.6h-1.4v5.6zM427.8 126.2c-1 0-1.7.4-2.2 1-.3-.7-1-1-1.9-1-.7 0-1.4.3-1.8.8v-.7h-1.3v5.6h1.3v-2.8c0-1.2.6-1.7 1.5-1.7.8 0 1.3.4 1.3 1.5v3h1.3v-2.8c0-1.2.6-1.7 1.5-1.7.8 0 1.3.4 1.3 1.5v3h1.3v-3.2c0-1.7-1-2.5-2.3-2.5zM435 126.2c-.8 0-1.5.3-2 .8v-.7h-1.2v7.7h1.3v-2.8c.5.6 1.1.8 1.8.8 1.7 0 3-1.1 3-2.9 0-1.8-1.3-2.9-3-2.9zm-.2 4.7c-1 0-1.7-.7-1.7-1.8 0-1 .7-1.8 1.7-1.8s1.7.7 1.7 1.8c0 1-.8 1.8-1.7 1.8zM441.2 126.2a4 4 0 0 0-2.4.7l.5 1c.4-.4 1-.6 1.7-.6 1 0 1.4.5 1.4 1.2v.1H441c-1.8 0-2.4.8-2.4 1.7 0 1 .8 1.7 2.1 1.7.9 0 1.5-.3 1.8-.8v.7h1.3v-3.3c0-1.6-1-2.4-2.6-2.4zm-.2 4.8c-.7 0-1-.3-1-.7 0-.5.2-.8 1-.8h1.4v.7c-.2.5-.8.8-1.4.8zM448.1 132c1.1 0 2-.5 2.4-1.3l-1-.6c-.3.5-.8.8-1.4.8-1 0-1.7-.7-1.7-1.8s.7-1.8 1.7-1.8c.6 0 1 .3 1.4.8l1-.6c-.4-.8-1.3-1.3-2.4-1.3-1.8 0-3 1.2-3 2.9s1.2 3 3 3zM454.8 130.7l-.8.2c-.5 0-.7-.3-.7-.8v-2.7h1.5v-1h-1.5V125h-1.4v1.3h-.9v1h1v2.8c0 1.3.6 2 1.9 2 .5 0 1-.2 1.3-.5l-.4-1zM461.7 132c1.8 0 3-1.2 3-2.9s-1.2-2.9-3-2.9c-1.7 0-3 1.2-3 2.9s1.3 3 3 3zm0-1.1c-1 0-1.6-.7-1.6-1.8 0-1 .7-1.8 1.6-1.8 1 0 1.7.7 1.7 1.8 0 1-.7 1.8-1.7 1.8zM469.3 126.2c-.9 0-1.6.3-2 .8v-.7H466v5.6h1.4v-2.8c0-1.2.6-1.7 1.5-1.7s1.4.4 1.4 1.5v3h1.3v-3.2c0-1.7-1-2.5-2.3-2.5zM478.8 132c1.8 0 3-1.2 3-2.9s-1.2-2.9-3-2.9c-1.7 0-3 1.2-3 2.9s1.3 3 3 3zm0-1.1c-1 0-1.7-.7-1.7-1.8 0-1 .7-1.8 1.7-1.8s1.7.7 1.7 1.8c0 1-.7 1.8-1.7 1.8zM487.3 126.3v2.8c0 1.2-.7 1.7-1.6 1.7-.8 0-1.3-.4-1.3-1.5v-3H483v3.2c0 1.7 1 2.5 2.4 2.5.7 0 1.4-.3 1.8-.8v.7h1.3v-5.6h-1.3zM491.6 127v-.7h-1.3v5.6h1.4v-2.7c0-1.2.6-1.8 1.6-1.8h.3v-1.2c-1 0-1.6.3-2 .9zM500.3 132c1.1 0 2-.5 2.4-1.3l-1-.6c-.3.5-.8.8-1.4.8-1 0-1.7-.7-1.7-1.8s.7-1.8 1.7-1.8c.6 0 1 .3 1.4.8l1-.6c-.4-.8-1.3-1.3-2.4-1.3-1.8 0-3 1.2-3 2.9s1.2 3 3 3zM506.4 132c1.7 0 3-1.2 3-2.9s-1.3-2.9-3-2.9c-1.8 0-3 1.2-3 2.9s1.2 3 3 3zm0-1.1c-1 0-1.7-.7-1.7-1.8 0-1 .7-1.8 1.7-1.8s1.6.7 1.6 1.8c0 1-.7 1.8-1.6 1.8zM517.8 126.2c-.9 0-1.6.4-2.1 1-.4-.7-1-1-2-1-.7 0-1.3.3-1.8.8v-.7h-1.2v5.6h1.3v-2.8c0-1.2.6-1.7 1.5-1.7.8 0 1.2.4 1.2 1.5v3h1.4v-2.8c0-1.2.6-1.7 1.4-1.7.9 0 1.3.4 1.3 1.5v3h1.3v-3.2c0-1.7-1-2.5-2.3-2.5zM529 126.2c-.9 0-1.7.4-2.1 1-.4-.7-1.1-1-2-1-.7 0-1.4.3-1.8.8v-.7h-1.3v5.6h1.4v-2.8c0-1.2.6-1.7 1.5-1.7.8 0 1.2.4 1.2 1.5v3h1.4v-2.8c0-1.2.6-1.7 1.4-1.7.8 0 1.3.4 1.3 1.5v3h1.3v-3.2c0-1.7-1-2.5-2.3-2.5zM537.2 126.3v2.8c0 1.2-.6 1.7-1.6 1.7-.8 0-1.3-.4-1.3-1.5v-3H533v3.2c0 1.7 1 2.5 2.4 2.5.8 0 1.4-.3 1.9-.8v.7h1.2v-5.6h-1.3zM543.5 126.2c-.8 0-1.5.3-2 .8v-.7h-1.2v5.6h1.3v-2.8c0-1.2.6-1.7 1.6-1.7.8 0 1.3.4 1.3 1.5v3h1.4v-3.2c0-1.7-1-2.5-2.4-2.5zM548.2 125.3c.5 0 .9-.3.9-.8 0-.4-.4-.8-.9-.8s-.8.4-.8.8c0 .5.3.8.8.8zm-.7 6.6h1.4v-5.6h-1.4v5.6zM553.6 130.7l-.7.2c-.5 0-.8-.3-.8-.8v-2.7h1.5v-1h-1.5V125h-1.3v1.3h-1v1h1v2.8c0 1.3.7 2 2 2 .4 0 .9-.2 1.2-.5l-.4-1z"/><path d="M559 126.3l-1.8 4.2-1.7-4.2H554l2.5 5.7-.1.2c-.3.5-.6.8-1 .8s-.8-.2-1-.4l-.5 1c.3.3 1 .5 1.5.5 1 0 1.6-.4 2.2-1.7l2.6-6.1H559zM561.2 132c.5 0 .9-.4.9-.9s-.4-.9-.9-.9-.8.4-.8 1c0 .4.3.8.8.8zM410 144c.7-.3 1-.9 1-1.6 0-1.2-1-2-2.7-2h-3.5v7.5h3.7c2 0 3-.8 3-2 0-1-.6-1.6-1.4-1.9zm-1.9-2.5c1 0 1.5.4 1.5 1 0 .7-.5 1-1.5 1h-2v-2h2zm.3 5.3h-2.2v-2.2h2.2c1 0 1.6.4 1.6 1.1 0 .8-.5 1-1.6 1zM418.1 145c0-1.7-1.2-2.9-2.9-2.9s-2.9 1.2-2.9 3c0 1.6 1.2 2.8 3.1 2.8 1 0 1.8-.3 2.3-.9l-.7-.8a2 2 0 0 1-1.5.6c-1 0-1.7-.5-1.9-1.3h4.5v-.4zm-2.9-1.8c.9 0 1.5.6 1.6 1.4h-3.2c.1-.9.8-1.4 1.6-1.4zM424.5 142.1a4 4 0 0 0-2.4.7l.5 1c.4-.4 1-.6 1.7-.6 1 0 1.4.5 1.4 1.3h-1.4c-1.8 0-2.4.8-2.4 1.7 0 1 .8 1.7 2.1 1.7.9 0 1.5-.2 1.8-.7v.7h1.3v-3.4c0-1.6-1-2.4-2.6-2.4zm-.2 4.9c-.7 0-1-.3-1-.8 0-.4.2-.8 1-.8h1.4v.7c-.2.6-.8.9-1.4.9zM433 143v-.8h-1.3v5.7h1.3V145c0-1.1.6-1.7 1.7-1.7h.3V142c-1 0-1.7.3-2 1zM441.4 145c0-1.7-1.2-2.9-2.9-2.9s-3 1.2-3 3c0 1.6 1.3 2.8 3.2 2.8 1 0 1.8-.3 2.3-.9l-.7-.8a2 2 0 0 1-1.6.6c-1 0-1.6-.5-1.8-1.3h4.4v-.4zm-2.9-1.8c.9 0 1.5.6 1.6 1.4H437c.1-.9.7-1.4 1.6-1.4zM444.4 148c1.6 0 2.6-.7 2.6-1.8 0-2.2-3.5-1.2-3.5-2.4 0-.3.3-.6 1.2-.6.5 0 1 .1 1.6.4l.5-1c-.5-.3-1.4-.5-2.1-.5-1.6 0-2.5.7-2.5 1.8 0 2.3 3.5 1.2 3.5 2.3 0 .4-.4.7-1.2.7-.7 0-1.5-.3-2-.6l-.5 1c.5.4 1.5.6 2.4.6zM451.3 142.1c-.8 0-1.5.3-2 .8v-.7h-1.2v7.7h1.3v-2.7c.5.5 1.1.7 1.9.7 1.6 0 2.8-1.1 2.8-2.9 0-1.7-1.2-2.9-2.8-2.9zm-.2 4.7c-1 0-1.7-.7-1.7-1.8 0-1 .8-1.7 1.7-1.7 1 0 1.7.6 1.7 1.7s-.7 1.8-1.7 1.8zM458 148c1.7 0 3-1.3 3-3s-1.3-2.9-3-2.9c-1.8 0-3 1.2-3 3 0 1.6 1.2 2.8 3 2.8zm0-1.2c-1 0-1.7-.7-1.7-1.8 0-1 .7-1.7 1.7-1.7s1.6.6 1.6 1.7-.7 1.8-1.6 1.8zM465.5 142.1c-.9 0-1.5.3-2 .8v-.7h-1.2v5.7h1.3V145c0-1.1.6-1.7 1.6-1.7.8 0 1.3.5 1.3 1.5v3h1.3v-3.2c0-1.7-1-2.5-2.3-2.5zM471.3 148c1.6 0 2.6-.7 2.6-1.8 0-2.2-3.6-1.2-3.6-2.4 0-.3.4-.6 1.2-.6.6 0 1.1.1 1.7.4l.5-1c-.5-.3-1.4-.5-2.2-.5-1.5 0-2.4.7-2.4 1.8 0 2.3 3.5 1.2 3.5 2.3 0 .4-.4.7-1.2.7-.7 0-1.5-.3-2-.6l-.5 1c.5.4 1.4.6 2.4.6zM475.7 141.3c.5 0 .8-.4.8-.9 0-.4-.3-.7-.8-.7s-.9.3-.9.8c0 .4.4.8.9.8zm-.7 6.6h1.3v-5.7H475v5.7zM481.2 142.1c-.7 0-1.3.3-1.8.8v-3h-1.3v8h1.2v-.8c.5.6 1.1.8 2 .8 1.6 0 2.8-1.1 2.8-2.9 0-1.7-1.2-2.9-2.9-2.9zm-.1 4.7c-1 0-1.7-.7-1.7-1.8 0-1 .7-1.7 1.7-1.7s1.6.6 1.6 1.7-.7 1.8-1.6 1.8zM485.3 140h1.4v7.9h-1.4zM493.8 145c0-1.7-1.3-2.9-3-2.9-1.6 0-2.8 1.2-2.8 3 0 1.6 1.2 2.8 3 2.8 1 0 1.9-.3 2.4-.9l-.7-.8a2 2 0 0 1-1.6.6c-1 0-1.7-.5-1.8-1.3h4.4v-.4zm-3-1.8c1 0 1.6.6 1.7 1.4h-3.2c.1-.9.7-1.4 1.6-1.4zM502 142.2l-1.8 4.2-1.8-4.2H497l2.5 5.7h1.3l2.5-5.7H502zM506.5 148c1.8 0 3-1.3 3-3s-1.2-2.9-3-2.9c-1.7 0-3 1.2-3 3 0 1.6 1.3 2.8 3 2.8zm0-1.2c-1 0-1.7-.7-1.7-1.8 0-1 .7-1.7 1.7-1.7s1.7.6 1.7 1.7-.7 1.8-1.7 1.8zM513.8 146.6c-.2.2-.4.2-.7.2-.5 0-.8-.2-.8-.8v-2.7h1.5v-1h-1.5v-1.4H511v1.3h-1v1.1h1v2.7c0 1.3.7 2 2 2 .4 0 .9-.2 1.2-.4l-.4-1zM520.4 145c0-1.7-1.2-2.9-2.8-2.9-1.7 0-3 1.2-3 3 0 1.6 1.3 2.8 3.2 2.8 1 0 1.7-.3 2.3-.9l-.8-.8a2 2 0 0 1-1.5.6c-1 0-1.7-.5-1.8-1.3h4.4v-.4zm-2.8-1.8c.8 0 1.5.6 1.6 1.4H516c0-.9.7-1.4 1.6-1.4zM523 143v-.8h-1.3v5.7h1.3V145c0-1.1.7-1.7 1.7-1.7h.3V142c-1 0-1.6.3-2 1zM526.3 145.4h1l.3-5H526l.3 5zm.5 2.5c.5 0 .8-.3.8-.8 0-.4-.3-.8-.8-.8s-.9.4-.9.8c0 .5.4.8.9.8z"/></g><path fill="#fff" fill-rule="nonzero" d="M413.2 203.1l-1.6 4.2-1.5-4.2H409l-1.6 4.2-1.5-4.2h-1.2l2 5.7h1.3l1.5-4 1.5 4h1.2l2.1-5.7h-1.1z"/><path fill="#fff" fill-rule="nonzero" d="M422.8 203.1l-1.5 4.2-1.6-4.2h-1l-1.6 4.2-1.5-4.2h-1.3l2.1 5.7h1.3l1.5-4 1.4 4h1.3l2-5.7h-1zM432.5 203.1l-1.6 4.2-1.5-4.2h-1.1l-1.6 4.2-1.5-4.2H424l2 5.7h1.3l1.5-4 1.5 4h1.3l2-5.7h-1.1zM434.6 208.9c.5 0 1-.4 1-.9s-.5-.9-1-.9c-.4 0-.8.4-.8.9s.4.9.8.9zM440.9 203.1v2.9c0 1.1-.7 1.7-1.6 1.7-.8 0-1.3-.5-1.3-1.5v-3h-1.3v3.2c0 1.7 1 2.5 2.4 2.5.7 0 1.4-.3 1.8-.8v.7h1.3v-5.7h-1.3zM447 203c-.6 0-1.3.3-1.7.8V201h-1.4v7.9h1.3v-.7c.4.5 1.1.8 1.9.8 1.6 0 2.9-1.2 2.9-3 0-1.7-1.3-2.8-3-2.8zm0 4.7c-1 0-1.8-.6-1.8-1.7s.8-1.8 1.7-1.8c1 0 1.7.7 1.7 1.8 0 1-.7 1.7-1.7 1.7zM453.8 208.9c1.1 0 2-.5 2.4-1.3l-1-.6c-.3.5-.8.7-1.4.7-1 0-1.7-.6-1.7-1.7s.7-1.8 1.7-1.8c.6 0 1 .2 1.4.8l1-.6c-.4-.9-1.3-1.3-2.4-1.3-1.8 0-3 1.2-3 2.9s1.2 2.9 3 2.9zM459.9 208.9c1.1 0 2-.5 2.4-1.3l-1-.6c-.3.5-.8.7-1.4.7-1 0-1.7-.6-1.7-1.7s.7-1.8 1.7-1.8c.6 0 1 .2 1.4.8l1-.6c-.4-.9-1.3-1.3-2.4-1.3-1.8 0-3 1.2-3 2.9s1.2 2.9 3 2.9zM465.2 208.9c1.6 0 2.6-.7 2.6-1.8 0-2.2-3.5-1.2-3.5-2.3 0-.4.4-.7 1.2-.7.5 0 1 .1 1.6.5l.5-1c-.5-.4-1.4-.5-2.1-.5-1.5 0-2.5.7-2.5 1.7 0 2.3 3.5 1.3 3.5 2.4 0 .4-.3.6-1.2.6-.7 0-1.5-.2-2-.6l-.5 1c.5.4 1.5.7 2.4.7zM470.7 208.9c1.6 0 2.6-.7 2.6-1.8 0-2.2-3.5-1.2-3.5-2.3 0-.4.3-.7 1.2-.7.5 0 1 .1 1.6.5l.5-1c-.5-.4-1.4-.5-2.1-.5-1.6 0-2.5.7-2.5 1.7 0 2.3 3.5 1.3 3.5 2.4 0 .4-.4.6-1.2.6-.7 0-1.5-.2-2-.6l-.5 1c.5.4 1.5.7 2.4.7zM476.2 208.9c1.6 0 2.5-.7 2.5-1.8 0-2.2-3.5-1.2-3.5-2.3 0-.4.4-.7 1.2-.7.6 0 1.1.1 1.6.5l.6-1c-.6-.4-1.4-.5-2.2-.5-1.5 0-2.5.7-2.5 1.7 0 2.3 3.5 1.3 3.5 2.4 0 .4-.3.6-1.1.6s-1.5-.2-2-.6l-.5 1c.5.4 1.4.7 2.4.7zM480.3 208.9c.5 0 .9-.4.9-.9s-.4-.9-.9-.9-.9.4-.9.9.4.9 1 .9zM485 208.9c1.7 0 3-1.2 3-3 0-1.6-1.3-2.8-3-2.8-1.8 0-3.1 1.2-3.1 2.9s1.3 2.9 3 2.9zm0-1.2c-1 0-1.8-.6-1.8-1.7s.8-1.8 1.7-1.8c1 0 1.7.7 1.7 1.8 0 1-.7 1.7-1.7 1.7zM490.5 204v-.9h-1.3v5.7h1.3v-2.7c0-1.2.7-1.8 1.7-1.8h.3v-1.2c-1 0-1.6.3-2 .9zM498 203.1v.8c-.5-.6-1.2-.8-2-.8-1.6 0-2.9 1-2.9 2.7 0 1.6 1.3 2.7 2.9 2.7.7 0 1.4-.2 1.9-.7v.3c0 1.1-.6 1.7-1.8 1.7-.8 0-1.6-.3-2.1-.7l-.6 1c.6.6 1.7.8 2.7.8 2 0 3.1-.9 3.1-3v-4.8H498zm-1.8 4.3c-1 0-1.8-.6-1.8-1.6s.8-1.6 1.8-1.6 1.7.6 1.7 1.6-.7 1.6-1.7 1.6zM499.8 209.9h1.1l3.6-10h-1.2l-3.5 10zM508.6 203.1l-1.8 4.2-1.8-4.2h-1.4l2.5 5.7h1.3l2.5-5.7h-1.3zM513.1 208.9c1.8 0 3-1.2 3-3 0-1.6-1.2-2.8-3-2.8-1.7 0-3 1.2-3 2.9s1.3 2.9 3 2.9zm0-1.2c-1 0-1.7-.6-1.7-1.7s.7-1.8 1.7-1.8 1.7.7 1.7 1.8c0 1-.7 1.7-1.7 1.7zM520.4 207.6l-.7.2c-.5 0-.8-.3-.8-.9v-2.7h1.5v-1H519v-1.3h-1.3v1.3h-1v1h1v2.8c0 1.2.7 1.9 2 1.9.4 0 .9-.2 1.2-.4l-.4-1zM527 206c0-1.8-1.2-3-2.8-3-1.7 0-3 1.3-3 3s1.3 2.9 3.2 2.9c1 0 1.8-.3 2.3-1l-.7-.8a2 2 0 0 1-1.6.7c-1 0-1.7-.6-1.8-1.4h4.4v-.4zm-2.8-1.9c.9 0 1.5.6 1.6 1.4h-3.2c0-.8.7-1.4 1.6-1.4z"/></svg>