<svg xmlns="http://www.w3.org/2000/svg" xmlns:xlink="http://www.w3.org/1999/xlink" fill-rule="evenodd" stroke-linejoin="round" stroke-miterlimit="1.41" clip-rule="evenodd" viewBox="0 0 288 151"><defs><linearGradient id="b"><stop offset="0" stop-color="#186d92"/><stop offset=".5" stop-color="#468292"/><stop offset="1" stop-color="#ff9a7e"/></linearGradient><linearGradient id="a"><stop offset="0" stop-color="#f4debe"/><stop offset="1" stop-color="#f3c39f"/></linearGradient><linearGradient id="d" x1="-8.48" x2="57.44" y1="87.11" y2="153.04" gradientUnits="userSpaceOnUse" xlink:href="#a"/><linearGradient id="c" x1="143.24" x2="143.24" y1="-.22" y2="119.95" gradientUnits="userSpaceOnUse" xlink:href="#b"/></defs><path fill="url(#c)" d="M0 0h288v120.24H0z"/><circle cx="26.64" cy="118.8" r="47.04" fill="url(#d)"/><path fill="#0f81ac" d="M0 115.44h288v35.28H0z"/><path fill="#095370" fill-rule="nonzero" d="M139.2 129.89c0-.12.46-.37 1.02-.55.77-.26 2.58-.35 7.26-.36 3.65-.01 8.14-.18 10.8-.42 2.5-.22 6.23-.39 8.28-.38 3.32.02 3.64.05 2.99.34-1.42.62-4.64.89-11.75.96-7.21.07-13.6.26-16.86.5-.96.06-1.74.03-1.74-.1zm-70.32-.77c-.73-.1-2.39-.46-3.7-.8-2.76-.74-5-.82-8.06-.26-2.3.41-5.57.49-6.48.14-.65-.24-.5-.28 2.88-.64.73-.08 2.38-.35 3.69-.61 1.3-.26 2.89-.47 3.54-.47 1.44 0 2.48.03 3 .4.2.16 1 .37 1.74.46.74.09 1.49.27 1.66.4.18.15.97.2 1.96.11 1.08-.1 1.69-.05 1.74.12.06.16 1.3.24 3.56.22 1.9-.01 4.01.05 4.67.13 1.14.15 1.17.16.48.35-1.96.54-8 .8-10.68.45zm2.5-1.81a5.07 5.07 0 0 1 1.79-.47c.74-.08 1.78-.24 2.31-.36s1.88-.28 3-.36c1.12-.08 3.05-.41 4.3-.74 1.23-.33 2.8-.6 3.47-.62 2.32-.05 6.49.8 8.89 1.81 1.96.83.44.72-5.02-.37-2.69-.54-4.5-.46-6.96.3-2.19.66-4.18.9-8.39 1.02-3.22.09-3.76.05-3.4-.21zm120.19 0c.67-.67 16.36-1.44 24.55-1.2 6.71.2 9.09.38 8.82.65-.14.13-5.73.32-13.65.45-15.8.25-19.9.28-19.72.1zm-30.41-.55c.3-.33 8.64-1.16 13.72-1.38 3.55-.15 7.25.01 6.96.3-.24.24-10.78 1.03-15.76 1.18-3.68.12-5.1.09-4.92-.1zm35.22-1.98c-8.51-.2-11.12-.52-6.52-.8 4.5-.27 51.62-.27 52.54 0 1.27.38-3.17.55-17.88.7-6.86.07-14.15.16-16.2.2-2.05.05-7.42 0-11.94-.1zm-60.69-.71c.45-.29 1.68-.42 8.79-.96 4-.31 13.35-.21 24 .25 11.55.5 9.53.66-8.88.7-9.97 0-19.52.08-21.24.16-2.47.1-3.03.07-2.67-.15zm117.07-.66c-.47-.33.1-.49 2.34-.68 2.18-.18 3.83.04 3.42.45-.33.33-5.32.53-5.76.23zm9.22-.25c-.43-.18-.43-.2-.05-.35.23-.1 1.95-.29 3.82-.43 4.99-.4 8.76-.1 7.11.57-.73.3-10.26.48-10.88.21zm-111.04-3.73c-.08-.08-3.53-.25-7.68-.38-8.24-.24-10.67-.57-5.85-.79 3.83-.16 36.83.09 36.83.29 0 .43-22.91 1.3-23.3.88zm55.1-.65c-6.74-.4-15.71-.64-20.4-.54-5.68.12-5.91-.22-.41-.61 4.51-.33 11.67-.34 20.81-.03 6.19.2 21.25.44 30.78.47 1.9 0 3.42.1 3.42.23 0 .12-1.32.28-2.94.36-5.1.25-27.75.34-31.26.12z"/><path fill="#f3c39f" d="M12.25 28.9c1.34-.68 11.19-4.5 13.86-5.4 2.37-.78 9.8-2.28 15.18-3.07 1.06-.15 2.11-.38 2.33-.5a41.7 41.7 0 0 1 5.1-1.94c.23 0 .14.28-.27.89-.56.82-.63 1.56-.14 1.56.12 0 1.3-.76 2.61-1.68a51.33 51.33 0 0 1 2.97-1.98c.97-.5 2.91.14 4.34 1.45 1.9 1.73 2.21 1 .77-1.83l-1.1-2.14 2.33-1.1c3.45-1.64 2.9-2.3-1.91-2.24a9.69 9.69 0 0 1-2.43-.17c-.16-.1-.73-1.1-1.26-2.24-1.29-2.75-1.67-2.7-1.94.21-.23 2.44-.31 2.5-3.47 2.3-1.62-.09-2.64-.06-2.64.08 0 .32 1.13 1.1 2.33 1.61l.98.43-4.4.95a99.34 99.34 0 0 0-14.36 4.32c-1.55.6-4.58 1.7-6.73 2.44-3.88 1.35-8.95 3.55-10.76 4.68-.7.43-.91.7-.82 1.06.1.36-.13.62-.94 1.1-1.24.73-1.7 1.21-1.47 1.58.18.28.8.15 1.84-.37zm12.5-6.58c0 .08.17.07.36 0 1.89-.73 6.5-2.01 9.42-2.63 3.9-.82 6.99-1.52 9.1-2.07.75-.2 2.35-.54 3.56-.76a19 19 0 0 0 2.58-.6c.5-.25 1.5-2.15 1.23-2.32-.12-.07-.28-.02-.36.1-.17.27-3.12 1.2-9.45 2.97-12.03 3.36-16.43 4.79-16.43 5.31zm0 0zm27.2-7.11c.54-.94.74-1.55.63-1.9-.12-.38.03-.68.56-1.16.4-.36.8-.88.9-1.15.17-.48.18-.48.59.05.46.6 1.47 1.04 2.45 1.07l.66.02-.74.34c-.4.18-.99.34-1.3.35-.8.01-.94.67-.28 1.37l.56.6-1.02-.04c-.79-.03-1.27.13-2.07.7-1.71 1.2-1.76 1.2-.94-.25z"/><path fill="#015579" fill-rule="nonzero" d="M0 106.7V96.08l.58-.5c.71-.63 1.07-.64 2.02-.09.58.34.87.4 1.36.33.39-.06.84 0 1.2.14.82.34 1.27.1 2.2-1.12.88-1.17.88-1.17-.16-4.04-.58-1.6-.74-1.89-1.07-1.93-.89-.13-1.04.54-.6 2.67.34 1.59.19 1.8-.7 1.01a4.53 4.53 0 0 1-1.5-3.44l-.07-1.28-.49.46c-.4.39-.9 1.2-2.25 3.65a.74.74 0 0 1-.35.3c-.17.07-.2-.23-.13-1.49.1-1.86.58-3.05 1.62-3.93.36-.3.65-.6.65-.66 0-.06-.52-.1-1.16-.1H0v-1.22c0-1.41-.01-1.4 1.73-1.56l1.16-.1-.58-.36c-.31-.2-.96-.45-1.44-.56l-.87-.2s.51-1.16 1.48-1.3c.12-.02.48-.16.92-.1 1.23.12 2.05.6 2.71 1.58.32.47.65.85.73.86.08 0 .4-.3.71-.66.77-.89 1.42-1.2 2.54-1.18.96 0 2.55.57 2.38.84-.05.08-.74.34-1.53.6-1.36.41-2.52 1.04-3 1.62-.3.34-.02.34.97 0a5.3 5.3 0 0 1 3.98.44c1.64.87 3.61 3.1 2.74 3.1-.58 0-2.38-.38-3.97-.83-2.15-.61-2.5-.56-1.78.25.28.32.63 1 .78 1.5.28.96.28.97-.21 3.54-.12.6.11.57 1.01-.11.4-.3.96-.6 1.24-.67.77-.17.75-.38-.07-.73-.41-.18-.75-.4-.75-.48 0-.26 1.1-.54 1.7-.42.34.06.8.34 1.12.66.3.31.61.56.7.56.08 0 .4-.28.69-.61.5-.57.6-.62 1.43-.62 1.07 0 1.93.45 1.6.83a.72.72 0 0 1-.46.24c-.43 0-1.7.63-1.6.79.05.08.53.18 1.08.23 1.09.1 2.03.55 2.12 1.01.06.27-.06.3-1.23.26-.71-.03-1.35-.03-1.42-.02-.06.01.07.36.3.78.22.42.4 1.03.4 1.35 0 .33.06.68.13.78.13.2.95.47 1.9.63.36.06.97.26 1.37.46.69.33.77.33 1.91.1l1.2-.24.38-1.63c.24-1.02.42-2.45.48-3.8.11-2.47.03-2.6-.94-1.6-1.01 1.04-1.21.27-.71-2.78.29-1.82.24-2.28-.23-2.11-.8.28-1.19.87-2.22 3.5-.16.39-.17.39-.4.08-.53-.72-.06-3.07.8-3.96.28-.3.44-.6.37-.71-.16-.25-1.34-.09-2.47.34-1 .38-1.08.38-1.08.07 0-.4 1.23-1.5 1.92-1.72.35-.12.7-.26.77-.32.25-.23-.34-.52-1.76-.86-.78-.2-1.42-.4-1.42-.47 0-.2.99-.49 2-.6.8-.08 1.05-.02 1.97.41a3.6 3.6 0 0 0 1.14.42c.04-.04-.09-.37-.29-.72-.2-.34.81-.47 1.32.48.16.3.36.49.44.44.08-.05.2-.72.27-1.49.06-.77.69-.97.94.17.27 1.21.32 1.24 1.4.8.9-.37 2.2-.5 2.75-.3.5.2.25.5-.65.79a4.6 4.6 0 0 0-1.36.68l-.45.4h.95c1.05 0 1.97.32 2.57.87.48.45 1.25 1.74 1.12 1.87-.06.06-.48-.1-.93-.35a2.82 2.82 0 0 0-1.16-.4c-.33.06-.32.08.1.63.51.68 1.13 1.96 1 2.09-.06.05-.27-.03-.47-.18a19.72 19.72 0 0 0-2.46-1.58c-.08 0-.1.54-.04 1.2.08.94.05 1.3-.17 1.73-.35.67-.63.59-.8-.24-.18-.91-.62-2.03-.8-2.03-.22 0-.18.46.12 1.39.42 1.3.5 6.14.15 8.44-.15 1-.23 1.93-.18 2.07.08.2.25.23.96.12a11.2 11.2 0 0 1 1.8-.09c.84.04.96 0 1.23-.39a40.7 40.7 0 0 1 3.8-4.32c.93-.78.75-.9-.26-.17-1.2.86-1.42.1-.32-1.08.37-.4.64-.78.59-.83-.05-.05-.6-.14-1.22-.2s-1.13-.18-1.13-.27c0-.1.4-.3.87-.48.99-.35 1.04-.6.15-.8-.33-.09-.6-.21-.6-.3 0-.48 2.05-.65 2.8-.23.92.53 1.01.1.22-1.06-.47-.7-.5-.98-.07-.87a4.32 4.32 0 0 1 1.93 1.87c.31.76.58.8 1.32.15.7-.61 1.54-1.06 1.54-.82 0 .1-.3.57-.66 1.06-.92 1.24-.89 1.42.18 1.12.8-.24 1.64-.2 1.64.08 0 .07-.28.27-.62.43l-.62.3.82.36c.77.33 1.9 1.37 1.9 1.73 0 .23-.1.2-1.28-.26a3.56 3.56 0 0 0-1.15-.34c-.04.05.08.4.27.8.35.73.42 1.2.25 1.67-.16.39-.34.3-.57-.26-.27-.65-.95-1.45-1.22-1.45-.14 0-.24.3-.3.83a3.65 3.65 0 0 1-1.3 2.34c-.45.27-.47.1-.13-.88.47-1.37.38-2.62-.2-2.62-.07 0-.4.5-.73 1.1-.66 1.2-1.33 2.01-1.65 2.01-.1 0-.25-.25-.3-.57-.06-.31-.2-.57-.31-.57-.47.01-3.05 4.17-2.88 4.62.26.67 2.17.4 2.45-.33.1-.24.3-.58.45-.74.25-.29.25-.32-.03-.53-.32-.23-.24-.57.13-.57.14 0 .18-.14.13-.4-.1-.58.3-.54 1.04.1.58.5.6.51.68.16.13-.49.43-.35.61.28.08.28.3.56.47.61.18.06.28.2.23.32-.04.12.03.3.16.42.13.1.23.32.23.48 0 .16.12.39.27.5.3.25.56.83.45 1.01-.04.07-.24.01-.45-.12-.43-.28-.6-.18-.6.36 0 .5-.3.49-.49-.03-.2-.52-.39-.52-.72 0-.4.6-.33.74.38.74.92 0 1.4.6 1.27 1.64-.12 1.08.01 1.21 1.1 1.08.86-.1.93-.08 1.24.35l.33.44.65-.36c.36-.2.78-.37.92-.37a.5.5 0 0 0 .39-.23c.47-.84 2.53-.98 3.04-.2.07.1.45.06 1.08-.12 2.04-.56 3.7-.3 6.4 1.03 1.08.53 2.8 1.3 3.81 1.71 2.8 1.13 10.73 5.09 12.84 6.41 2.57 1.62 3.02 1.88 3.6 2.12.07.03.13.1.24.2.27.1.53.17.81.23.48.1.87.26.87.34 0 .1.26.28.57.43.31.15.54.32.5.37-.03.06-75.59.18-75.59.18V106.7zm34.86-5.62c.27-.61.1-.76-.5-.44-.56.3-.53.98.05.98.13 0 .33-.24.45-.54zm-23.7-5.27c.18-.14.38-.46.43-.73.06-.26.33-.74.6-1.05.28-.31.5-.64.5-.73 0-.16-2.4-.11-2.94.06-.25.08-.2.9.15 2.07.2.68.62.81 1.25.38zm5.13-.28c-.07-.45-.46-.6-.46-.18 0 .34.13.53.37.53.08 0 .12-.16.1-.35zm-2.02.01c.17-.27-.21-.59-.44-.36-.19.19-.07.54.18.54.08 0 .2-.08.26-.18zM288 115.44h-88.58c-.22-.2-.44-.34-.49-.37-.55-.48-.82-1.33-5.6-5.22-2.52-2.07-4.04-3.61-3.97-3.97.16-.82 1.46-1.08 5.6-1.12 2.78-.03 3.95-.2 5.01-.74.76-.38 2.13-.9 3.05-1.14 2.18-.58 2.6-.96 2.6-2.37 0-1.3.55-2.06 1.53-2.06.4 0 1.13-.8 1.88-2.07 1.1-1.85 1.46-2.16 3.56-3l2.34-.92.89.83c.85.8 1.07.82 4.78.57 4.3-.3 4.58-.45 5.63-2.98 1.08-2.6 2.28-3.86 3.67-3.86.68 0 1.63.32 2.1.7.84.67.86.8.42 2.43a5.4 5.4 0 0 0-.3 2c.1.15.9.49 1.77.75.88.26 2.2.79 2.95 1.17 1.08.56 2.15.7 5.49.7 3.57 0 4.28.1 5.15.74.96.71 1.48.74 11.2.65l10.2-.1.38-1.14c.7-2.19 1.2-2.48 3.76-2.22 3.4.35 6.34-.07 6.56-.93.26-.97 1.68-.88 2.83.18 1.08 1 2.98 1.71 4.53 1.71H288v21.78z"/><path fill="#fff" fill-opacity=".2" d="M288 56.88V0H0h288v56.88zm-196.8-3.6c0-.13-.11-.24-.25-.24s-.19.1-.1.24c.07.13.19.24.24.24.06 0 .11-.1.11-.24zm8.6-.3c.05-.29-.08-.42-.4-.42-.56 0-.86.36-.63.73.23.38.93.17 1.03-.31zM6.48 50.16c-.78.42-1.82.22-2.34-.43-.39-.5-.39-2.56 0-2.87.17-.13.69-.3 1.16-.4.7-.12.94-.05 1.34.4.27.3.56.74.65 1 .22.62-.27 2.01-.81 2.3zm264.09-2.43c-.65.94-2.01.52-2.01-.61 0-.63.95-1.36 1.5-1.15.64.24.91 1.19.5 1.76zm-171.7-.55c.16-.2.25-.65.2-1.02-.06-.6-.17-.68-.9-.68-.75 0-.86.08-.93.68-.04.37-.02.83.06 1.02.17.44 1.2.44 1.57 0zm-72.9-2.22c.67-.6.56-1.48-.2-1.67-1.2-.3-1.95.73-1.15 1.6.51.57.78.59 1.34.07zm117.02-1.09c.42-.42.36-1.02-.15-1.48-.36-.32-.59-.35-1.08-.16-.63.24-.8.76-.5 1.55.18.45 1.32.5 1.73.1zm-84.39-.83c.55-.49.56-1 .04-1.56-.49-.55-.99-.56-1.56-.04-.59.53-.55 1.17.1 1.63.67.47.88.46 1.42-.03zm88.04-4.52c.3-.79.08-1.3-.65-1.47-.42-.11-.74 0-1.1.35-.42.43-.45.59-.22 1.11.4.86 1.65.87 1.97.01zm73.84-3.15c-.4.6-.65.68-1.18.37a.85.85 0 0 1 .22-1.57c.87-.22 1.44.49.96 1.2zm-91.46-2.39c-2.02.54-3.5-.75-3-2.6.43-1.52 2.62-2.06 3.67-.9.95 1.06.55 3.17-.67 3.5zM238 31.21c.25-.5.23-.67-.09-1.02-.47-.53-1-.55-1.7-.06-.66.47-.66.7-.03 1.32.62.63 1.44.52 1.82-.24zM68.35 26.1c.84-.84-.33-2.44-1.37-1.88-.6.32-.65 1.13-.1 1.73.46.5 1.06.57 1.47.15zm38.28-2.37c.13-.21.17-.67.08-1.02-.28-1.14-2.07-.76-2.07.44 0 .28.14.64.3.8.4.4 1.39.26 1.7-.22zm136.66-.22c.25-.52.23-.66-.17-1.07-.38-.38-.6-.42-1.13-.23-.8.27-.99 1.06-.41 1.64.54.55 1.34.39 1.7-.34zM41.23 22.27c-.43.43-1.34.35-1.6-.15-.3-.55.17-1.56.77-1.68.92-.17 1.52 1.15.83 1.83zm167.1-.2c.9-.48.45-1.91-.6-1.91-1.04 0-1.52 1.4-.67 1.9.54.31.7.32 1.28.01zM151.2 16.2c.75-.9-.66-2.31-1.56-1.56-.36.3-.5 1.47-.2 1.76.3.3 1.46.16 1.76-.2zm-91.72-1.87c-.07.56-.2.68-.84.74-1.03.1-1.5-.66-.93-1.53.7-1.07 1.92-.53 1.77.79zm185.56-1.13c.6-.59.6-.76.05-1.44-.87-1.08-2.38.17-1.62 1.34.46.7.93.74 1.57.1zm13.26-1.3c.27-.4.21-.8-.2-1.2-.81-.82-1.92-.13-1.62 1 .2.75 1.35.88 1.82.2zm-26.5-4.75c.43-.44.34-1.34-.18-1.62-.7-.37-.93-.31-1.35.33-.3.46-.32.7-.12 1.08.3.55 1.19.66 1.64.21zM82.04 6.6c.4-.33.79-.94.88-1.34.14-.62.04-.86-.63-1.55-1.02-1.05-1.72-1.05-2.76 0-.92.91-1 1.31-.42 2.25.88 1.42 1.77 1.61 2.92.64zm-66.57-.11c.09-.14.08-.46 0-.73-.12-.37-.28-.45-.68-.33-.87.26-1.05.58-.53.96.54.4 1 .44 1.21.1zm27.74-1.2c.57-.31.6-.9.06-1.48-.45-.5-1.05-.57-1.47-.15-.4.4-.36 1.04.09 1.5.44.44.69.46 1.32.12zm231.1-1.18c.33-.63.3-.88-.14-1.32-.56-.56-1.27-.46-1.58.22-.23.5-.2.68.16 1.08.55.6 1.23.62 1.55.02zm-128.65-.48c.4-.73.3-1.18-.33-1.6-.7-.44-1.45-.16-1.7.64-.35 1.1 1.5 1.96 2.03.96zm-30.11-.65c.21-.22.35-.67.31-1.02-.05-.49-.22-.65-.74-.7-1.22-.15-1.77.8-.97 1.67.49.54.89.56 1.4.05z"/><path fill="#08339a" fill-rule="nonzero" d="M13.3 144.82l.06 1.6 1.48 1.23v-1.68l-1.54-1.15zm-.24 1.38l-1.32-1.06-.1-1.62 1.37 1.05.05 1.63zm-1.6-1.34l-1.2-.94-.16-1.57 1.24.95.12 1.56zm-.17-1.97l-1.25-.93-.18-1.74 1.3.9.13 1.77zm3.55-1.74v2.15l-1.65-1.18v-2.02l1.65 1.05zm-1.96-1.22v2.01l-1.44-1-.12-1.99 1.56.98zm-3.07-.12l1.3.92-.14-2-1.37-.86.21 1.94z"/><path fill="#498df8" fill-rule="nonzero" d="M19.34 142.18l.24.17-1.24.95-.12 1.56-.26-.17.07-1.17-1.37 1.05-.04 1.63-.28-.23.04-1.15-1.54 1.15-1.54-1.15.04 1.15-.28.23-.04-1.63-1.37-1.05.07 1.17-.26.17-.12-1.56-1.24-.95.23-.17.96.7-.12-1.76-1.31-.9.3-.17.94.68-.13-2 1.68-.86-.97-.55-.01-.36 1.37.75 1.5-.76-1.34-.7.33.17v-.37l1.31.77 1.55-.77-.06 1.82-1.52.76-.24-.12v.24l-.21.1-1.35-.75-1.69.85.12 1.99 1.44 1v-2.01l1.65-.98v.36l-1.34.79v1.65l-.6.4.3.23v.37l.26-.2 1.38.97v.42l.31-.2.3.2v-.42l1.39-.98.26.21v-.37l.3-.24-.6-.39v-1.65l-1.34-.8v-.35l1.65.98v2.01l1.44-1 .12-1.99-1.33-.67v-.4l1.68.84-.13 2 .95-.67.29.17-1.3.9-.13 1.77.96-.71z"/><path fill="#fff" fill-rule="nonzero" d="M14.84 145.97v1.68l1.48-1.23.06-1.6-1.54 1.15zm3.2-2.45l-.1 1.62-1.33 1.06.05-1.62 1.37-1.06zm1.54-1.17l-.16 1.57-1.2.94.12-1.56 1.24-.95zm-3.09-2.25v2.02l-1.65 1.18v-2.15l-1.65-1.05 1.65-.98 1.65.98zm3.33.12l-.18 1.74-1.25.93.12-1.77 1.31-.9zm-1.46-1.27l-.12 1.99-1.44 1v-2.01l-1.65-.98 1.52-.85.36.18 1.33.67zm-1.33-1.08l1.68.85-.13 2 1.29-.91.2-1.94-1.71-.75-1.33.75zm-2.5 1.08l-1.65.98-1.56-.98 1.69-.85 1.52.85zm-4.93-1.08l1.37.85 1.68-.85-.97-.55-.36-.2-1.72.75zm3.44-.16l1.5-.76-1.34-.7h-.01l-1.52.7 1.37.76zm3.35-1.66l-1.33-.69-1.53.69 1.31.77 1.55-.77z"/><g fill-rule="nonzero"><path fill="#183558" d="M185.04 147.03c-.26.57-.82.83-1.63.83-.61 0-1.2-.15-1.58-.44l.37-.67a1.92 1.92 0 0 0 1.43.34c.2.04.4.05.61.05.3 0 .57-.03.8-.11zm6.17 0c-.26.57-.82.83-1.63.83-.62 0-1.2-.15-1.59-.44l.38-.67a1.92 1.92 0 0 0 1.43.34c.2.04.4.05.61.05.3 0 .57-.03.8-.11zm-86.5.08c-.29.57-.67.75-1.15.75-.32 0-.65-.11-.86-.3l.3-.55c.15.14.35.23.56.23.16 0 .28-.05.39-.17a1.5 1.5 0 0 0 .76.04zm81.59-.58h.25l-.25.72h-.84l.2-.56c.5-.26.76-.77.76-1.54v-.64l1.02-2.91h.58l-1.72 4.93zm-94.61-3.9a2.16 2.16 0 0 0-.34 1.47c-.04.14-.06.29-.06.45 0 .85.63 1.48 1.52 1.48.16 0 .32-.02.47-.06a2.95 2.95 0 0 0 1.13-.1v.3c-.44.36-1.05.54-1.64.54-1.3 0-2.26-.9-2.26-2.16 0-.87.46-1.57 1.18-1.92zm83.11 3.28c.02.06.03.13.03.2 0 .34-.25.59-.58.59a.57.57 0 0 1-.58-.59c0-.35.26-.57.58-.57.1 0 .2.02.3.07.04.13.13.23.25.3zm-16.98-2.27c.09-.04.17-.09.26-.12a1.7 1.7 0 0 0-.08 1.43v.09c0 .56.37.9.84.9.09 0 .17-.02.25-.04a2.15 2.15 0 0 0 1.2-.01c-.23.51-.76.81-1.44.81-.87 0-1.53-.47-1.73-1.18.45-.28.75-.78.75-1.44 0-.16-.02-.3-.05-.44zm15.47 2.26c-.12.48-.65.8-1.5.8-.54 0-1.09-.15-1.39-.35l.31-.67c.3.19.73.31 1.13.31.15 0 .27-.01.36-.04a3.24 3.24 0 0 0 1.1-.05zm-21.01.75h-.89v-.38c-.24.28-.6.43-1 .43-.8 0-1.38-.46-1.38-1.45v-1.82h.84v1.1c0 .25.03.47.1.65.02.5.25.71.65.71h.06c.17.06.36.09.57.09.35 0 .68-.12.92-.35l.08-.04v.34h.05v.72zm40.31-1.75l.31-.1-.02.2c0 .18.05.34.14.48a.34.34 0 0 0-.06.2c0 .23.2.4.53.4a.8.8 0 0 0 .4-.11l.2.01c.4 0 .7-.11.89-.32a.9.9 0 0 0 .1-.04v.31h.03v.72h-.87v-.4c-.17.3-.51.45-.98.45-.45 0-.8-.15-1-.38.22-.28.33-.67.33-1.17v-.25zm-31.1.03l.02.02v.09c0 .56.36.9.84.9.08 0 .17-.02.24-.04a2.15 2.15 0 0 0 1.2-.01c-.23.51-.76.81-1.44.81-.79 0-1.4-.4-1.67-1l.14-.11c.3-.14.54-.37.68-.66zm36.6-.03l.32-.1-.02.2c0 .18.05.34.13.48a.34.34 0 0 0-.05.2c0 .23.2.4.53.4a.8.8 0 0 0 .4-.11l.2.01c.4 0 .7-.11.89-.32a.9.9 0 0 0 .1-.04v.31h.03v.72h-.87v-.4c-.18.3-.51.45-.99.45-.65 0-1.08-.32-1.18-.77h.15v-.24h.37v-.79zm-31.17 1c-.12.48-.65.8-1.5.8-.54 0-1.1-.15-1.4-.35l.32-.67c.29.19.73.31 1.12.31.16 0 .28-.01.37-.04a3.24 3.24 0 0 0 1.1-.05zm-12.93.03h.91c.13 0 .25-.02.36-.08a1.72 1.72 0 0 0 1.2.03c-.26.52-.78.82-1.4.82-.43 0-.78-.14-1.02-.42v.37h-.89v-.96h.33v-3.22h-.33v-.27h.84v3.73zm16.12-.03c-.13.48-.66.8-1.5.8-.54 0-1.1-.15-1.4-.35l.32-.67c.29.19.72.31 1.12.31.16 0 .28-.01.37-.04a3.24 3.24 0 0 0 1.09-.05zm5.13-1.29c.13-.5.49-.9.98-1.1a1.7 1.7 0 0 0-.08 1.44v.09c0 .56.36.9.83.9.08 0 .17-.02.24-.04a2.05 2.05 0 0 0 1.33-.05c-.3.52-.87.85-1.57.85-.7 0-1.26-.31-1.56-.81.06-.05.12-.1.16-.16a.57.57 0 0 0 .47-.58.56.56 0 0 0-.58-.57.64.64 0 0 0-.22.03zm-40.5-1.87v.01h-.37v.6h.44v.12h.08v.6h-.08v1.53c0 .3.15.48.44.48.16 0 .3-.05.42-.14l.21.54c-.18.14-.45.21-.72.21-.7 0-1.1-.37-1.1-1.08v-.23c.06-.05.11-.1.16-.17l-.16-.19v-.46l.01-.21v-.02h.36v-.22c0-.46-.13-.84-.37-1.12v-.25h.67zm-34.87 0v.01h-.36v.6h.44v.12h.08v.6h-.08v1.53c0 .3.15.48.44.48.16 0 .3-.05.42-.14l.21.54c-.18.14-.45.21-.72.21-.7 0-1.1-.37-1.1-1.08v-.23c.06-.05.11-.1.16-.17l-.16-.19v-.46l.01-.21v-.02h.36v-.22c0-.46-.13-.84-.37-1.12v-.25h.67zm11.04.7h.36v1.74c0 .58.28.85.75.85.15 0 .3-.02.41-.08.1.02.2.02.3.02.36 0 .68-.1.92-.32v1h-.72v-.4c-.24.29-.61.44-1.03.44-.82 0-1.37-.44-1.38-1.4.32-.29.5-.7.5-1.2 0-.23-.03-.45-.11-.64zm34.76-.7v.01h-.37v.6h.44v.12h.09v.6h-.09v1.53c0 .3.16.48.44.48.16 0 .31-.05.42-.14l.21.54c-.18.14-.45.21-.72.21-.67 0-1.07-.34-1.1-1h.14v-1.88c0-.27-.05-.5-.14-.7v-.37h.68zm-22.37 1.13c.16-.14.34-.25.55-.33a1.67 1.67 0 0 0-.18 1.04c-.06.14-.1.3-.1.47 0 .62.43 1 .98 1 .16 0 .32-.03.46-.11a2.16 2.16 0 0 0 .86-.03l.05.03c-.24.48-.74.75-1.37.75-.76 0-1.36-.39-1.6-1h.35v-1.82zm20.63 2.78h-.7v-.39c-.19.28-.54.43-1.02.43-.73 0-1.2-.4-1.2-.96 0-.43.25-.79.86-.9a1.1 1.1 0 0 0-.02.18c0 .13.03.26.08.37-.13.08-.17.2-.17.32 0 .27.22.45.6.45.23 0 .43-.06.58-.18h.1c.4 0 .7-.1.89-.28v.96zm-48.32-2.82c.15-.13.33-.24.52-.3a1.7 1.7 0 0 0-.19.96 1 1 0 0 0-.1.3H96c.05.18.13.35.24.5h-.38c.1.47.48.77 1.04.77.2 0 .37-.04.52-.1a2.32 2.32 0 0 0 .57 0l.18.21c-.29.34-.74.52-1.29.52-.89 0-1.52-.47-1.7-1.17l.07-.06c.14-.07.26-.15.37-.24v-1.39zm11.3.03c.15-.14.33-.25.53-.33a1.68 1.68 0 0 0-.18 1.05c-.06.13-.1.3-.1.47 0 .61.42 1 .96 1 .17 0 .33-.04.46-.1a1.98 1.98 0 0 0 1.05-.1c-.28.52-.83.84-1.51.84-.99 0-1.7-.68-1.7-1.64V145l.49-1.14zm12.67-1.12v.01h-.36v.6h.44v.12h.08v.6h-.08v1.53c0 .3.15.48.44.48.16 0 .3-.05.42-.14l.21.54c-.18.14-.45.21-.72.21-.7 0-1.1-.37-1.1-1.08v-1.54h-.53v-.6h.53v-.73h.67zm11.31 2.95c.19.23.48.37.86.37.2 0 .37-.04.52-.1a2.32 2.32 0 0 0 .57 0l.18.21c-.29.34-.74.52-1.29.52-.7 0-1.24-.29-1.53-.76h.5l-.18-.24h.37zm5.68.16c.27.14.63.23.97.23.27 0 .45-.04.55-.12a2.62 2.62 0 0 0 .83-.05c-.11.48-.63.78-1.43.78-.53 0-1.07-.15-1.35-.36l.2-.4c.08-.02.16-.04.23-.08zm-21.72-2.4h.5v.47a1 1 0 0 1 .12-.16v.86c-.06.13-.09.3-.09.48v1.55h-.75v-.96h.22v-2.24zm13.33 2.24h.31v-.79l1.38 1.75h-.91l-.78-.96zm-1.64-3.07v-.42h.75v2.69l.09-.08v.92l-.09.08v.84h-.75v-1.09c.25-.13.46-.32.59-.58l-.58-.33v.01-1.1l.2-.12v-.02l.38-.22a1.28 1.28 0 0 0-.59-.58zm70.26 3.31h.1v.72h-.94v-.96h.36v-1.84c0-.46-.13-.8-.36-1.03v-.62h.84v3.73zm-74.7.72h-.75v-.77a.87.87 0 0 0 .22-.12l-.03-.06c.15-.04.29-.1.4-.18l-.21-.54a.66.66 0 0 1-.38.14v-1.67h.75v3.2zm58.1-.72h.1v.72h-.94v-1.3a1.71 1.71 0 0 0 .45-1.92h.38v2.5zm8.2-2.22c.13-.1.27-.17.42-.23-.1.21-.17.46-.17.74 0 .22.05.43.12.62v.1c0 .47.36.79.85.79.06 0 .12 0 .17-.02.15.04.31.07.48.07.39 0 .72-.12.97-.35l.05-.03v.11c0 .25-.05.45-.17.6a2 2 0 0 1-.67.04v-.06c0 .02-.02.03-.03.04a1.82 1.82 0 0 1-.85-.34l-.2.35a1.23 1.23 0 0 1-.17-.11l-.23.4a1.5 1.5 0 0 1-1.12-1.15l.55-1.57zm-5.2 2.43a1.23 1.23 0 0 1-.17-.11l-.23.4a1.5 1.5 0 0 1-1.15-1.5c0-.7.42-1.24 1-1.45-.1.21-.16.46-.16.74 0 .22.04.43.11.62v.1c0 .47.36.79.85.79.06 0 .12 0 .18-.02.15.04.3.07.47.07.4 0 .73-.12.97-.35l.05-.03v.11c0 .25-.05.45-.16.6a2 2 0 0 1-.67.04v-.06l-.04.04a1.82 1.82 0 0 1-.85-.34l-.2.35zm-79.16.22l-1.26-2.91h.78l1 2.37.2-.45.25.57-.06.13-.1.2a.78.78 0 0 1-.64-.22l-.17.3zm63.44-2.49c.14-.19.37-.34.68-.42a.91.91 0 0 0-.03.25c0 .22.05.38.14.5a.22.22 0 0 0-.08.18c0 .42 1.13.22 1.67.65-.4 0-.84-.12-1.13-.31l-.16.35a1.6 1.6 0 0 1-.2-.11l-.18.37a2.59 2.59 0 0 1-.23-.06c.13-.16.2-.35.2-.56 0-.5-.31-.72-.68-.84zm-3.33.84a1 1 0 0 1-.04-.29c0-.46.3-.82.86-.97a.91.91 0 0 0-.03.25c0 .22.06.38.15.5a.22.22 0 0 0-.09.18c0 .42 1.13.22 1.67.65-.4 0-.84-.12-1.13-.31l-.16.35a1.6 1.6 0 0 1-.2-.11l-.18.37a2.14 2.14 0 0 1-.22-.06c.09-.1.17-.22.22-.35l-.72-.4a.99.99 0 0 1-.13.2zm6.51-.84c.15-.19.38-.34.69-.42a.91.91 0 0 0-.04.25c0 .22.06.38.15.5a.22.22 0 0 0-.09.18c0 .42 1.13.22 1.67.65-.4 0-.84-.12-1.12-.31l-.17.35a1.6 1.6 0 0 1-.2-.11l-.17.37a2.59 2.59 0 0 1-.24-.06c.13-.16.2-.35.2-.56 0-.5-.3-.72-.68-.84zm-34.07 1.24c-.21-.14-.36-.35-.36-.7 0-.46.32-.8.86-.94a.92.92 0 0 0-.02.22c0 .17.03.3.09.41-.13.07-.2.16-.2.28 0 .5 1.23.26 1.75.74-.4 0-.8-.13-1.08-.32l-.18.35a1.47 1.47 0 0 1-.2-.1l-.12.25c-.05 0-.1-.02-.14-.03l-.11-.29a.63.63 0 0 1-.29.13zm-6.52-.69c.17-.42.5-.74.92-.9a1.7 1.7 0 0 0-.19.97 1 1 0 0 0-.1.3h.15c.05.18.13.35.24.5h-.33l-.69-.87zm69.62.17H200.52v.32a.62.62 0 0 1-.1.17.9.9 0 0 1-.22.03c-.31 0-.5-.14-.53-.35h.02a.8.8 0 0 0-.01-.12l.01-.05zm-5.5 0H195v.32a.62.62 0 0 1-.09.17.9.9 0 0 1-.23.03c-.31 0-.5-.14-.52-.35a.8.8 0 0 0 0-.12l.01-.05zm-33.62.2c.09-.6.47-1.06 1.02-1.27a1.72 1.72 0 0 0-.1 1.4l-.72-.4a.93.93 0 0 1-.2.26zm32.02-1.24c.19-.07.39-.12.6-.15l.15.3c.18-.14.43-.24.7-.28.3.06.56.18.74.38h-.14c-.55 0-.91.12-1.13.32h-.07c-.3 0-.62.09-.85.24v-.81zm5.5 0c.2-.07.4-.12.6-.15l.16.3c.18-.14.43-.24.69-.28.31.06.57.18.75.38h-.14c-.55 0-.91.12-1.13.32h-.08c-.3 0-.61.09-.84.24v-.81zm-55.5.5a1.58 1.58 0 0 0-1.18.3l-.3-.54c.27-.2.63-.33 1.02-.38l.11.2c.11-.09.25-.16.4-.21.43.02.76.16.98.4h-.07c-.44 0-.75.09-.96.23zm-14.1-.22v-.06l.35-.32h.06l-.4.38zm-7.24-1.32v-.04c0-.25.2-.45.48-.45.28 0 .48.19.48.43 0 .27-.2.47-.48.47h-.01v-.4h-.47z"/><g fill="#fff"><path d="M94.88 144.85a1.7 1.7 0 0 1-.87.22c-.89 0-1.52-.63-1.52-1.48 0-.87.63-1.47 1.53-1.47.45 0 .83.15 1.16.48l.49-.48c-.4-.45-.99-.69-1.69-.69-1.31 0-2.27.9-2.27 2.16 0 1.26.96 2.16 2.26 2.16.6 0 1.2-.18 1.64-.53v-1.68h-.73v1.31zM99.58 144.1c0-1-.68-1.65-1.62-1.65a1.6 1.6 0 0 0-1.66 1.64c0 .95.7 1.64 1.77 1.64.56 0 1-.18 1.3-.52l-.4-.46c-.24.23-.52.35-.88.35-.56 0-.95-.3-1.04-.77h2.52v-.22zm-1.62-1.05c.5 0 .85.32.9.78h-1.81a.89.89 0 0 1 .91-.78zM102.02 144.98a.67.67 0 0 1-.42.14c-.3 0-.45-.17-.45-.48v-1.53h.86v-.6h-.86v-.73h-.75v.73h-.53v.6h.53v1.54c0 .71.4 1.08 1.1 1.08.28 0 .55-.07.73-.21l-.21-.54zM106.78 142.49l-1.01 2.37-1.01-2.37h-.78l1.4 3.21-.06.13c-.14.32-.3.44-.56.44-.2 0-.41-.08-.55-.22l-.3.55c.2.19.54.3.85.3.54 0 .95-.22 1.24-.95l1.5-3.46h-.72zM109.32 145.73c1 0 1.7-.68 1.7-1.64 0-.96-.7-1.64-1.7-1.64-.99 0-1.7.68-1.7 1.64 0 .96.71 1.64 1.7 1.64zm0-.64c-.54 0-.95-.39-.95-1s.4-1 .95-1c.54 0 .95.39.95 1s-.4 1-.95 1zM114.1 142.49v1.62c0 .64-.35.96-.88.96-.47 0-.75-.27-.75-.85v-1.73h-.75v1.83c0 .96.56 1.41 1.38 1.41.42 0 .8-.15 1.04-.45v.41h.7v-3.2h-.74zM116.55 142.96v-.47h-.72v3.2h.75v-1.55c0-.66.36-1 .93-1l.18.03v-.72c-.54 0-.93.17-1.14.5zM121.73 144.98a.67.67 0 0 1-.42.14c-.3 0-.45-.17-.45-.48v-1.53h.86v-.6h-.86v-.73h-.75v.73h-.53v.6h.53v1.54c0 .71.4 1.08 1.1 1.08.28 0 .55-.07.73-.21l-.21-.54zM122.93 141.96c.28 0 .48-.2.48-.47 0-.24-.2-.43-.48-.43-.27 0-.48.2-.48.45s.2.45.48.45zm-.38 3.73h.75v-3.2h-.75v3.2zM125.76 145.73c.62 0 1.12-.27 1.37-.75l-.58-.33a.9.9 0 0 1-.8.44c-.55 0-.97-.38-.97-1s.42-1 .97-1c.32 0 .6.14.8.44l.58-.33c-.25-.49-.75-.75-1.37-.75-1.02 0-1.74.68-1.74 1.64 0 .96.72 1.64 1.74 1.64zM130.16 145.7h.91l-1.46-1.87 1.34-1.34h-.9l-1.56 1.44v-2.69h-.75v4.45h.75v-.84l.56-.53 1.11 1.37zM134.44 144.1c0-1-.68-1.65-1.62-1.65a1.6 1.6 0 0 0-1.66 1.64c0 .95.7 1.64 1.77 1.64.56 0 1-.18 1.3-.52l-.4-.46c-.24.23-.52.35-.88.35-.56 0-.95-.3-1.04-.77h2.52v-.22zm-1.62-1.05c.5 0 .85.32.9.78h-1.81a.89.89 0 0 1 .91-.78zM136.88 144.98a.67.67 0 0 1-.42.14c-.3 0-.45-.17-.45-.48v-1.53h.86v-.6H136v-.73h-.75v.73h-.53v.6h.53v1.54c0 .71.4 1.08 1.1 1.08.28 0 .55-.07.73-.21l-.21-.54zM138.7 145.73c.9 0 1.45-.39 1.45-.99 0-1.25-1.98-.67-1.98-1.32 0-.21.21-.36.67-.36.3 0 .61.06.92.24l.28-.57a2.55 2.55 0 0 0-1.2-.28c-.86 0-1.4.4-1.4 1 0 1.28 1.97.7 1.97 1.32 0 .22-.2.35-.67.35-.4 0-.83-.13-1.11-.32l-.3.57c.3.2.83.36 1.36.36zM143.67 142.45c-.51 0-1.01.13-1.35.4l.3.54c.23-.2.6-.31.96-.31.54 0 .8.25.8.7v.04h-.83c-.97 0-1.33.42-1.33.95 0 .56.46.96 1.2.96.48 0 .82-.15 1-.43v.4h.71v-1.89c0-.92-.53-1.36-1.46-1.36zm-.1 2.74c-.38 0-.61-.18-.61-.45 0-.23.14-.42.65-.42h.77v.37c-.12.33-.44.5-.8.5zM147.8 144.98a.67.67 0 0 1-.41.14c-.3 0-.45-.17-.45-.48v-1.53h.86v-.6h-.86v-.73h-.75v.73h-.52v.6h.52v1.54c0 .71.4 1.08 1.1 1.08.28 0 .55-.07.73-.21l-.21-.54zM152.55 142.46v1.6c0 .6-.31.87-.75.87-.41 0-.65-.24-.65-.78v-1.69h-.94v1.83c0 1 .57 1.45 1.38 1.45.4 0 .76-.15 1-.43v.38h.9v-3.23h-.94zM156.26 142.42c-.4 0-.73.12-.97.39v-1.57h-.94v4.45h.9v-.37c.23.28.58.42 1.01.42.9 0 1.6-.65 1.6-1.66 0-1.02-.7-1.66-1.6-1.66zm-.16 2.55c-.47 0-.82-.33-.82-.9 0-.55.35-.89.82-.89s.82.34.82.9-.35.9-.82.9zM160.05 145.74c.68 0 1.22-.3 1.45-.82l-.73-.4a.8.8 0 0 1-.72.45c-.48 0-.85-.33-.85-.9 0-.56.37-.89.85-.89.3 0 .55.14.72.45l.73-.4c-.23-.52-.77-.81-1.45-.81-1.05 0-1.8.69-1.8 1.66s.75 1.66 1.8 1.66zM163.56 145.74c.68 0 1.2-.3 1.44-.82l-.72-.4a.8.8 0 0 1-.73.45c-.47 0-.84-.33-.84-.9 0-.56.37-.89.84-.89.3 0 .55.14.73.45l.72-.4c-.23-.52-.76-.81-1.44-.81-1.05 0-1.8.69-1.8 1.66s.75 1.66 1.8 1.66zM166.63 145.74c.97 0 1.52-.43 1.52-1.03 0-1.27-1.95-.73-1.95-1.29 0-.16.18-.3.6-.3.3 0 .62.06.93.24l.32-.66c-.31-.18-.8-.28-1.25-.28-.94 0-1.49.43-1.49 1.04 0 1.29 1.95.75 1.95 1.28 0 .18-.16.3-.6.3-.4 0-.83-.13-1.12-.32l-.3.67c.3.2.84.35 1.39.35zM169.82 145.74c.96 0 1.52-.43 1.52-1.03 0-1.27-1.95-.73-1.95-1.29 0-.16.18-.3.6-.3.3 0 .61.06.93.24l.31-.66c-.3-.18-.8-.28-1.24-.28-.94 0-1.5.43-1.5 1.04 0 1.29 1.96.75 1.96 1.28 0 .18-.17.3-.6.3-.4 0-.83-.13-1.12-.32l-.31.67c.3.2.85.35 1.4.35zM173 145.74c.97 0 1.53-.43 1.53-1.03 0-1.27-1.95-.73-1.95-1.29 0-.16.18-.3.6-.3.29 0 .6.06.93.24l.3-.66c-.3-.18-.79-.28-1.23-.28-.95 0-1.5.43-1.5 1.04 0 1.29 1.95.75 1.95 1.28 0 .18-.16.3-.6.3-.39 0-.83-.13-1.11-.32l-.32.67c.3.2.86.35 1.4.35zM175.46 145.74c.32 0 .58-.25.58-.59a.56.56 0 0 0-.58-.57.56.56 0 0 0-.59.57c0 .34.26.59.59.59zM178.17 145.74c1.02 0 1.77-.69 1.77-1.66s-.75-1.66-1.77-1.66c-1.03 0-1.78.69-1.78 1.66s.75 1.66 1.78 1.66zm0-.77c-.47 0-.83-.33-.83-.9 0-.55.36-.89.83-.89s.82.34.82.9-.35.9-.82.9zM181.46 142.9v-.44h-.9v3.23h.94v-1.52c0-.62.34-.9.86-.9l.2.01v-.86c-.5 0-.88.16-1.1.47zM185.54 142.46v.42a1.3 1.3 0 0 0-1.07-.46c-.9 0-1.62.61-1.62 1.56 0 .94.72 1.56 1.62 1.56.42 0 .77-.14 1.02-.4v.13c0 .58-.29.88-.95.88-.41 0-.86-.14-1.14-.36l-.37.67c.38.3.97.44 1.58.44 1.17 0 1.81-.55 1.81-1.75v-2.69h-.88zm-.89 2.3c-.49 0-.85-.3-.85-.78 0-.48.36-.8.85-.8.5 0 .85.32.85.8 0 .47-.35.79-.85.79zM186.66 146.3h.84l1.98-5.66h-.84l-1.98 5.65zM191.7 142.46v.42a1.3 1.3 0 0 0-1.06-.46c-.9 0-1.62.61-1.62 1.56 0 .94.72 1.56 1.62 1.56.42 0 .77-.14 1.02-.4v.13c0 .58-.3.88-.95.88-.42 0-.87-.14-1.14-.36l-.37.67c.37.3.97.44 1.58.44 1.16 0 1.81-.55 1.81-1.75v-2.69h-.89zm-.88 2.3c-.5 0-.85-.3-.85-.78 0-.48.36-.8.85-.8.5 0 .85.32.85.8 0 .47-.36.79-.85.79zM194.76 142.42c-.51 0-1.03.13-1.39.39l.34.65c.23-.19.59-.3.93-.3.5 0 .74.23.74.64h-.74c-.99 0-1.39.4-1.39.96 0 .56.45.98 1.2.98.48 0 .82-.16 1-.45v.4h.87v-1.84c0-.98-.57-1.43-1.56-1.43zm-.07 2.7c-.33 0-.53-.17-.53-.4 0-.22.14-.38.58-.38h.64v.33c-.1.3-.38.44-.69.44zM197.17 141.24h.93v4.45h-.93zM200.27 142.42c-.51 0-1.04.13-1.39.39l.34.65c.23-.19.58-.3.93-.3.5 0 .74.23.74.64h-.74c-.99 0-1.39.4-1.39.96 0 .56.45.98 1.2.98.48 0 .82-.16.99-.45v.4h.88v-1.84c0-.98-.57-1.43-1.56-1.43zm-.07 2.7c-.33 0-.53-.17-.53-.4 0-.22.14-.38.58-.38h.64v.33c-.1.3-.38.44-.69.44z"/></g><g fill="#fff"><path d="M82.44 135.53a1 1 0 0 0 .54-.93c0-.66-.54-1.09-1.55-1.09h-1.96v4.2h2.08c1.08 0 1.65-.42 1.65-1.14 0-.54-.3-.9-.76-1.04zm-1.1-1.4c.55 0 .86.19.86.58 0 .38-.31.57-.85.57h-1.1v-1.16h1.1zm.16 2.97h-1.26v-1.21h1.26c.6 0 .91.18.91.6s-.32.61-.9.61zM85.4 137.75c1 0 1.7-.68 1.7-1.64 0-.96-.7-1.64-1.7-1.64-.99 0-1.7.68-1.7 1.64 0 .96.71 1.64 1.7 1.64zm0-.64c-.54 0-.95-.39-.95-1s.4-1 .95-1c.54 0 .95.39.95 1s-.4 1-.95 1zM89.01 134.47c-.52 0-1.01.13-1.35.4l.29.54c.24-.2.61-.31.97-.31.53 0 .8.25.8.7v.04h-.83c-.97 0-1.33.42-1.33.95 0 .56.46.96 1.2.96.47 0 .82-.15 1-.43v.4h.7v-1.89c0-.92-.53-1.36-1.45-1.36zm-.1 2.74c-.39 0-.61-.18-.61-.45 0-.23.13-.42.64-.42h.78v.37c-.13.33-.45.5-.81.5zM92.14 134.98v-.47h-.71v3.2h.75v-1.55c0-.66.36-1 .93-1l.17.03v-.72c-.53 0-.92.17-1.14.5zM96.28 133.26v1.64c-.25-.29-.62-.43-1.04-.43-.93 0-1.61.64-1.61 1.64 0 1 .68 1.64 1.61 1.64.44 0 .82-.15 1.07-.45v.41h.72v-4.45h-.75zm-.95 3.85c-.54 0-.95-.39-.95-1s.41-1 .95-1 .96.39.96 1-.42 1-.96 1zM98.39 133.98c.28 0 .48-.2.48-.47 0-.24-.2-.43-.48-.43-.28 0-.48.2-.48.45s.2.45.48.45zM98 137.7h.75v-3.2h-.75v3.2zM101.56 134.47c-.47 0-.86.16-1.1.45v-.41h-.71v3.2h.74v-1.62c0-.64.36-.96.9-.96.48 0 .76.27.76.84v1.74h.75v-1.83c0-.97-.57-1.4-1.34-1.4zM106.35 134.5v.43a1.39 1.39 0 0 0-1.1-.46c-.93 0-1.63.61-1.63 1.54s.7 1.56 1.62 1.56c.43 0 .81-.14 1.08-.43v.17c0 .65-.32.97-1.03.97-.44 0-.9-.15-1.18-.38l-.33.56c.36.3.96.46 1.56.46 1.12 0 1.72-.53 1.72-1.7v-2.71h-.7zm-1 2.43c-.57 0-.97-.37-.97-.92 0-.54.4-.9.97-.9s.98.36.98.9c0 .55-.41.92-.98.92zM112.85 137.71h1.02l-1.88-4.2h-.96l-1.87 4.2h1l.37-.9h1.95l.37.9zm-2.01-1.64l.66-1.6.67 1.6h-1.33zM116.15 134.44c-.43 0-.78.13-1.02.42v-.38h-.89v4.4h.94v-1.51c.24.26.57.39.97.39.9 0 1.6-.65 1.6-1.66 0-1.02-.7-1.66-1.6-1.66zm-.16 2.55c-.47 0-.83-.33-.83-.9 0-.55.36-.89.83-.89.46 0 .82.34.82.9s-.36.9-.82.9zM119.27 134.91v-.43h-.89v3.23h.94v-1.52c0-.62.34-.9.85-.9h.21v-.85c-.5 0-.88.16-1.1.47zM121.41 134.03c.35 0 .58-.22.58-.54 0-.28-.23-.5-.58-.5s-.58.23-.58.52c0 .3.23.52.58.52zm-.47 3.68h.94v-3.23h-.94v3.23zM122.75 133.26h.94v4.45h-.94zM128.08 135.08c-.44 0-.8.12-1.04.37.03-.8.48-1.22 1.18-1.22.28 0 .55.06.79.21l.36-.71c-.3-.19-.73-.29-1.17-.29-1.27 0-2.14.8-2.14 2.26 0 1.36.71 2.08 1.87 2.08.9 0 1.6-.54 1.6-1.4 0-.79-.64-1.3-1.45-1.3zm-.2 1.98c-.47 0-.74-.27-.74-.63s.3-.63.73-.63.71.25.71.63c0 .39-.29.63-.7.63zM130.5 136.6a.56.56 0 0 0-.59.57c0 .25.13.43.33.51l-.27.96h.6l.34-.87c.14-.33.16-.44.16-.6a.55.55 0 0 0-.58-.57zM134.65 135.09h-.34l.06-.8h1.75v-.78h-2.56l-.21 2.37h1.07c.76 0 .98.21.98.54 0 .34-.3.55-.79.55-.44 0-.87-.14-1.2-.38l-.38.74c.41.3 1.02.45 1.6.45 1.2 0 1.75-.64 1.75-1.39 0-.74-.5-1.3-1.73-1.3zM137.33 135.6c.32 0 .58-.24.58-.58a.56.56 0 0 0-.58-.58.56.56 0 0 0-.58.58c0 .34.25.59.58.59zm0 2.16c.32 0 .58-.25.58-.59a.56.56 0 0 0-.58-.57.56.56 0 0 0-.58.57c0 .34.25.59.58.59zM140.31 135.22l.95-1.08v-.63h-2.94v.78h1.79l-.87.98v.64h.45c.55 0 .78.2.78.52 0 .34-.3.54-.78.54-.44 0-.88-.14-1.2-.38l-.38.74c.4.3 1.01.45 1.6.45 1.2 0 1.74-.64 1.74-1.35 0-.62-.38-1.09-1.14-1.2zM143.7 137.78c1.04 0 1.8-.78 1.8-2.17 0-1.38-.76-2.17-1.8-2.17-1.03 0-1.8.79-1.8 2.17 0 1.39.77 2.17 1.8 2.17zm0-.82c-.48 0-.82-.4-.82-1.35 0-.95.34-1.35.82-1.35.49 0 .82.4.82 1.35 0 .96-.33 1.35-.82 1.35zM148.08 134.44c-.43 0-.78.13-1.01.42v-.38h-.9v4.4h.94v-1.51c.24.26.57.39.97.39.9 0 1.6-.65 1.6-1.66 0-1.02-.7-1.66-1.6-1.66zm-.16 2.55c-.47 0-.82-.33-.82-.9 0-.55.35-.89.82-.89s.82.34.82.9-.35.9-.82.9zM154.45 134.44c-.49 0-.91.2-1.17.52a1.2 1.2 0 0 0-1.06-.52c-.41 0-.77.14-1.01.42v-.38h-.9v3.23h.94v-1.62c0-.57.3-.84.7-.84.4 0 .62.24.62.76v1.7h.93v-1.62c0-.57.3-.84.72-.84.38 0 .61.24.61.76v1.7h.94v-1.85c0-.98-.56-1.42-1.32-1.42zM159.55 134.47c-.52 0-1.02.13-1.36.4l.3.54c.23-.2.6-.31.97-.31.53 0 .8.25.8.7v.04h-.83c-.98 0-1.33.42-1.33.95 0 .56.46.96 1.19.96.48 0 .83-.15 1-.43v.4h.71v-1.89c0-.92-.53-1.36-1.45-1.36zm-.1 2.74c-.39 0-.62-.18-.62-.45 0-.23.14-.42.65-.42h.78v.37c-.13.33-.45.5-.82.5zM163.68 137a.67.67 0 0 1-.42.14c-.29 0-.44-.17-.44-.48v-1.53h.85v-.6h-.85v-.73h-.75v.73h-.53v.6h.53v1.54c0 .71.4 1.08 1.1 1.08.27 0 .54-.07.72-.21l-.21-.54zM167.35 135.09H167l.06-.8h1.75v-.78h-2.56l-.21 2.37h1.07c.76 0 .98.21.98.54 0 .34-.3.55-.79.55-.44 0-.87-.14-1.2-.38l-.38.74c.41.3 1.02.45 1.6.45 1.2 0 1.75-.64 1.75-1.39 0-.74-.5-1.3-1.73-1.3zM171.28 137.78c1.03 0 1.8-.78 1.8-2.17 0-1.38-.77-2.17-1.8-2.17-1.04 0-1.8.79-1.8 2.17 0 1.39.76 2.17 1.8 2.17zm0-.82c-.48 0-.82-.4-.82-1.35 0-.95.34-1.35.82-1.35.48 0 .82.4.82 1.35 0 .96-.34 1.35-.82 1.35zM173.32 133.51v.78h.84v3.42h.97v-4.2h-1.8zM177.83 137.71h1.9c1.38 0 2.32-.83 2.32-2.1s-.94-2.1-2.31-2.1h-1.91v4.2zm.97-.8v-2.6h.89c.83 0 1.38.5 1.38 1.3s-.55 1.3-1.38 1.3h-.89zM185.88 136.11c0-1.04-.73-1.67-1.68-1.67-.98 0-1.72.7-1.72 1.66s.72 1.66 1.84 1.66c.58 0 1.03-.18 1.33-.52l-.5-.54a1.1 1.1 0 0 1-.8.31c-.5 0-.84-.25-.93-.65h2.44l.02-.25zm-1.67-.97c.42 0 .72.27.79.68h-1.6a.76.76 0 0 1 .8-.68zM188.47 134.44c-.44 0-.82.15-1.07.42v-.38h-.9v3.23h.94v-1.6c0-.59.32-.86.77-.86.42 0 .66.24.66.76v1.7h.93v-1.85c0-.98-.57-1.42-1.33-1.42zM194.78 134.44c-.48 0-.9.2-1.16.52a1.2 1.2 0 0 0-1.06-.52c-.42 0-.78.14-1.02.42v-.38h-.89v3.23h.94v-1.62c0-.57.3-.84.7-.84.4 0 .62.24.62.76v1.7h.93v-1.62c0-.57.3-.84.72-.84.37 0 .6.24.6.76v1.7h.94v-1.85c0-.98-.55-1.42-1.32-1.42zM198.25 134.44c-.52 0-1.04.13-1.4.39l.34.65c.23-.19.59-.3.93-.3.5 0 .75.23.75.64h-.75c-.98 0-1.38.4-1.38.96 0 .56.44.98 1.2.98.47 0 .81-.16.99-.45v.4h.87v-1.84c0-.98-.57-1.43-1.55-1.43zm-.08 2.69c-.33 0-.52-.16-.52-.39 0-.22.13-.38.57-.38h.65v.33c-.11.3-.38.44-.7.44zM202.6 134.44c-.43 0-.8.15-1.06.42v-.38h-.9v3.23h.94v-1.6c0-.59.33-.86.78-.86.41 0 .65.24.65.76v1.7h.94v-1.85c0-.98-.58-1.42-1.34-1.42zM207.94 137.78c1.2 0 1.78-.6 1.78-1.3 0-1.54-2.44-1-2.44-1.78 0-.26.22-.48.8-.48.37 0 .77.1 1.16.33l.3-.74a2.82 2.82 0 0 0-1.46-.37c-1.2 0-1.77.6-1.77 1.3 0 1.57 2.44 1.03 2.44 1.81 0 .26-.23.45-.8.45-.51 0-1.04-.18-1.4-.43l-.32.73a3 3 0 0 0 1.7.48zM212.15 136.9a.63.63 0 0 1-.38.12c-.25 0-.4-.15-.4-.43v-1.31h.8v-.72h-.8v-.79h-.94v.79h-.5v.72h.5v1.32c0 .77.45 1.16 1.2 1.16.3 0 .58-.07.77-.2l-.25-.66z"/></g></g><path fill="#183558" fill-rule="nonzero" d="M152.58 56.8c-.9 2.04-2.81 2.98-5.71 2.98-2.3 0-4.56-.7-5.88-1.94l.86-1.3a7.52 7.52 0 0 0 4.97 1.73c1.43 0 2.51-.3 3.27-.9a7.42 7.42 0 0 0 2.49-.56zm30.48-13.71a6.6 6.6 0 0 0-.78 2.95 5.34 5.34 0 0 0-.66 2.65c0 2.96 2.01 4.93 4.7 4.93 1.08 0 2.04-.32 2.81-.89a6.6 6.6 0 0 0 2.8-.78 6.21 6.21 0 0 1-5.6 3.18 6.22 6.22 0 0 1-6.44-6.44 6.2 6.2 0 0 1 3.17-5.6zm-86.8 5.1a3.97 3.97 0 0 0-.04 1.56c-.55.4-.76.98-.76 1.66 0 1.46 1.17 2.37 3.2 2.37 1.23 0 2.26-.38 3.01-1.09a4.86 4.86 0 0 0 2.7-1.12V55h-1.64v-1.96c-.77 1.3-2.25 2.08-4.34 2.08-2.86 0-4.6-1.48-4.6-3.67 0-1.43.66-2.69 2.46-3.25zm13.03-5.8l.12-.95h1.58v.94h.67v1.44H111v7.54c0 1.49.76 2.3 2.18 2.3.7 0 1.4-.21 1.87-.64l.6 1.22c-.67.6-1.68.88-2.66.88-2.38 0-3.7-1.34-3.7-3.67v-7.63h-1.05v-.5c0-.33-.02-.64-.06-.94h1.11zm-27.53.7a6.6 6.6 0 0 0-.79 2.95 5.34 5.34 0 0 0-.66 2.65c0 2.96 2.02 4.93 4.7 4.93 1.09 0 2.05-.32 2.82-.89a6.6 6.6 0 0 0 2.8-.78 6.21 6.21 0 0 1-5.61 3.18A6.2 6.2 0 0 1 78.97 51v-4.63a5.98 5.98 0 0 1 2.79-3.29zm137.44-.7l.13-.95h1.58v.94h.67v1.44h-.67v7.54c0 1.49.76 2.3 2.18 2.3.7 0 1.4-.21 1.87-.64l.6 1.22c-.67.6-1.68.88-2.66.88-2.38 0-3.7-1.34-3.7-3.67v-7.63h-1.05c0-.52-.05-1-.13-1.44h1.19zM60.96 38.2v1.53h-.6v6.6h.6v1.54h-.6V55h-1.78V38.2h2.38zM75.11 55h-1.7V37.2h1.7V55zm45.33 0h-1.7v-4.14c.28-.13.54-.3.77-.5l-.6-1.22-.17.14v-6.9h1.7V55zm77.47 0h-1.7v-7.86a7.02 7.02 0 0 0 0-4.64v-.13h1.7V55zM131.2 42.3l.44-.01c3.07 0 5.18 1.77 5.18 5.4V55h-1.7v-7.15c0-2.66-1.4-4.03-3.8-4.03-.17 0-.35 0-.51.02.05-.57.19-1.09.39-1.54zm-4.3 12.7h-1.7V42.38h1.64v2.33c.2-.35.46-.67.75-.95v1.92a5.1 5.1 0 0 0-.68 2.7v6.63zm81.77-12.7l.44-.01c3.07 0 5.18 1.77 5.18 5.4V55h-1.7v-7.15c0-2.66-1.4-4.03-3.8-4.03-.17 0-.34 0-.51.02.06-.57.19-1.09.39-1.54zM204.37 55h-1.7V42.38h1.63v2.33c.2-.35.46-.67.75-.95v1.92a5.1 5.1 0 0 0-.68 2.7v6.63zm-37.39-16.8v1.54h-.6v8.4h.6v1.56h-.6V55h-1.77V38.2h2.37zm-23.68 4.87a6.22 6.22 0 0 0-.7 2.84c-.42.7-.65 1.54-.65 2.47a4.43 4.43 0 0 0 3.62 4.52l-.72 1.07c.18.17.37.32.57.47a5.97 5.97 0 0 1-4.74-3.64v-4.83a5.71 5.71 0 0 1 2.62-2.9zm9.88 7.46v2.94l-.01.5a5.5 5.5 0 0 1-1.72.4c.02-.21.03-.44.03-.68v-1.61a5.28 5.28 0 0 1-2.76 2.1c-1-.23-1.9-.65-2.64-1.2a5.05 5.05 0 0 0 3.63-.88 5.7 5.7 0 0 0 3.47-1.57zm24.04-4.03c-.96 2.04-3.19 3.2-6.33 3.2h-.65v-1.56h.6c1.5 0 2.68-.3 3.53-.87 1.09-.1 2.05-.37 2.85-.77zm-79.37 2.3c.04.13.1.25.16.38-.06 0-.11 0-.17.02a3.08 3.08 0 0 1 0-.4zm-28.82-.92h-4.82v-1.54h4.82v1.54zm28.9-5.5c.43-.06.87-.1 1.32-.1 1.94 0 3.38.58 4.23 1.74h-.96c-.57 0-1.08.03-1.53.1a4.62 4.62 0 0 0-1.9-.35 6.6 6.6 0 0 0-3.8 1.17v-.11c0-.54-.05-1.05-.16-1.54a7.83 7.83 0 0 1 1.93-.74l.2.33c.2-.18.43-.35.67-.5zM70.1 39.74h-5.88v-1.53h5.88v1.53zm126.98-.12c.72 0 1.25-.55 1.25-1.24a1.2 1.2 0 0 0-1.24-1.18c-.7 0-1.25.55-1.25 1.2 0 .67.55 1.22 1.24 1.22zm-78.7-1.1l-.01-.12c0-.65.55-1.2 1.24-1.2a1.2 1.2 0 1 1 0 2.42c-.36 0-.68-.15-.9-.39v-.71h-.34z"/><path fill="#fff" fill-rule="nonzero" d="M73.95 37.31v-1.53H62.45v16.8h1.77v-7.13h8.69v-1.53H64.2v-6.6h9.75zM77.27 34.77h1.7v17.8h-1.7zM88.89 52.7a6.2 6.2 0 0 0 6.4-6.43c0-3.75-2.7-6.4-6.4-6.4a6.2 6.2 0 0 0-6.44 6.4 6.23 6.23 0 0 0 6.44 6.43zm0-1.51c-2.7 0-4.71-1.97-4.71-4.92s2.02-4.92 4.7-4.92c2.7 0 4.69 1.97 4.69 4.92s-2 4.92-4.68 4.92zM103.12 39.86c-2 0-3.87.63-5.14 1.7l.77 1.28a6.43 6.43 0 0 1 4.2-1.5c2.35 0 3.58 1.18 3.58 3.35v.76h-4.01c-3.63 0-4.87 1.63-4.87 3.58 0 2.18 1.74 3.67 4.6 3.67 2.1 0 3.58-.8 4.35-2.09v1.97h1.63v-7.82c0-3.27-1.85-4.9-5.11-4.9zm-.6 11.5c-2.02 0-3.2-.91-3.2-2.38 0-1.3.8-2.26 3.25-2.26h3.96v2.07c-.68 1.66-2.1 2.57-4.01 2.57zM118.9 50.59c-.47.43-1.17.65-1.87.65-1.41 0-2.18-.82-2.18-2.3V41.4h3.84v-1.44h-3.84V37.2h-1.7v2.76h-2.26v1.44h2.26v7.63c0 2.33 1.32 3.67 3.7 3.67.98 0 1.99-.29 2.66-.89l-.6-1.22zM123.47 37.2c.72 0 1.24-.56 1.24-1.25a1.2 1.2 0 0 0-1.24-1.18c-.7 0-1.25.56-1.25 1.2 0 .67.55 1.23 1.25 1.23zm-.86 15.38h1.7V39.96h-1.7v12.62zM135.5 39.86c-2.2 0-3.9.89-4.8 2.42v-2.32h-1.64v12.62h1.7v-6.62c0-2.89 1.7-4.57 4.42-4.57 2.4 0 3.8 1.37 3.8 4.04v7.15h1.7v-7.32c0-3.62-2.11-5.4-5.19-5.4zM155.41 39.96v2.42a5.7 5.7 0 0 0-4.99-2.52c-3.6 0-6.33 2.47-6.33 6.1 0 3.62 2.73 6.14 6.33 6.14 2.07 0 3.87-.84 4.92-2.45v1.61c0 3.12-1.46 4.59-4.66 4.59a7.51 7.51 0 0 1-4.97-1.73l-.86 1.3c1.32 1.24 3.58 1.93 5.88 1.93 4.18 0 6.31-1.96 6.31-6.3v-11.1h-1.63zm-4.82 10.63c-2.79 0-4.78-1.9-4.78-4.63 0-2.74 2-4.61 4.78-4.61 2.78 0 4.8 1.87 4.8 4.6 0 2.74-2.02 4.64-4.8 4.64zM174.76 35.78h-6.29v16.8h1.77v-5.3h4.52c4.27 0 6.86-2.16 6.86-5.74 0-3.6-2.59-5.76-6.86-5.76zm-.05 9.94h-4.47v-8.4h4.47c3.36 0 5.14 1.53 5.14 4.22 0 2.64-1.78 4.18-5.14 4.18zM190.19 52.7a6.2 6.2 0 0 0 6.4-6.43c0-3.75-2.7-6.4-6.4-6.4a6.2 6.2 0 0 0-6.43 6.4 6.23 6.23 0 0 0 6.43 6.43zm0-1.51c-2.69 0-4.7-1.97-4.7-4.92s2.01-4.92 4.7-4.92c2.69 0 4.68 1.97 4.68 4.92s-2 4.92-4.68 4.92zM200.94 37.2c.72 0 1.25-.56 1.25-1.25a1.2 1.2 0 0 0-1.25-1.18c-.7 0-1.25.56-1.25 1.2 0 .67.56 1.23 1.25 1.23zm-.86 15.38h1.7V39.96h-1.7v12.62zM212.97 39.86c-2.19 0-3.9.89-4.8 2.42v-2.32h-1.64v12.62h1.7v-6.62c0-2.89 1.71-4.57 4.42-4.57 2.4 0 3.8 1.37 3.8 4.04v7.15h1.7v-7.32c0-3.62-2.11-5.4-5.18-5.4zM228.83 50.59c-.48.43-1.18.65-1.88.65-1.41 0-2.18-.82-2.18-2.3V41.4h3.84v-1.44h-3.84V37.2h-1.7v2.76h-2.26v1.44h2.26v7.63c0 2.33 1.32 3.67 3.7 3.67.98 0 1.98-.29 2.66-.89l-.6-1.22z"/><path fill="#f3c39f" fill-rule="nonzero" d="M112.96 28.12c1.34 0 2.14-.77 2.14-2.2v-2.77h-.9v2.73c0 1.01-.44 1.45-1.23 1.45-.8 0-1.25-.44-1.25-1.45v-2.73h-.9v2.77c0 1.43.8 2.2 2.14 2.2zM119.85 25.5c.38-.2.63-.57.63-1.07 0-.78-.63-1.28-1.8-1.28h-2.3v4.9h2.43c1.26 0 1.92-.49 1.92-1.33a1.2 1.2 0 0 0-.88-1.21zm-1.27-1.63c.63 0 .98.22.98.68 0 .44-.35.67-.98.67h-1.3v-1.35h1.3zm.18 3.47h-1.47v-1.42h1.47c.68 0 1.06.22 1.06.71 0 .5-.37.7-1.06.7zM123.97 28.12c.8 0 1.5-.28 1.95-.82l-.59-.56c-.36.4-.8.59-1.3.59a1.67 1.67 0 0 1-1.76-1.73c0-1 .74-1.72 1.75-1.72.51 0 .95.19 1.31.57l.59-.55a2.48 2.48 0 0 0-1.94-.82c-1.5 0-2.62 1.06-2.62 2.52 0 1.47 1.11 2.52 2.61 2.52zM131 28.12c.8 0 1.48-.28 1.94-.82l-.59-.56c-.35.4-.8.59-1.3.59a1.67 1.67 0 0 1-1.76-1.73c0-1 .74-1.72 1.75-1.72.51 0 .96.19 1.31.57l.59-.55a2.48 2.48 0 0 0-1.94-.82c-1.5 0-2.62 1.06-2.62 2.52 0 1.47 1.12 2.52 2.61 2.52zM135.3 28.12c1.35 0 1.99-.67 1.99-1.45 0-1.8-2.9-1.12-2.9-2.17 0-.37.3-.66 1.06-.66.42 0 .9.12 1.35.38l.28-.7a3.1 3.1 0 0 0-1.63-.44c-1.34 0-1.97.67-1.97 1.47 0 1.81 2.91 1.12 2.91 2.18 0 .36-.32.64-1.08.64-.6 0-1.23-.23-1.62-.54l-.32.7c.41.35 1.17.6 1.94.6zM139.71 28.12c1.34 0 1.98-.67 1.98-1.45 0-1.8-2.9-1.12-2.9-2.17 0-.37.3-.66 1.06-.66.43 0 .91.12 1.35.38l.29-.7a3.1 3.1 0 0 0-1.63-.44c-1.35 0-1.98.67-1.98 1.47 0 1.81 2.92 1.12 2.92 2.18 0 .36-.33.64-1.09.64-.6 0-1.23-.23-1.62-.54l-.31.7c.4.35 1.17.6 1.93.6zM144.11 28.12c1.35 0 1.98-.67 1.98-1.45 0-1.8-2.9-1.12-2.9-2.17 0-.37.3-.66 1.06-.66.43 0 .91.12 1.35.38l.3-.7a3.1 3.1 0 0 0-1.64-.44c-1.34 0-1.97.67-1.97 1.47 0 1.81 2.9 1.12 2.9 2.18 0 .36-.31.64-1.08.64-.6 0-1.22-.23-1.61-.54l-.32.7c.4.35 1.17.6 1.93.6zM150.92 24.27c-.51 0-.95.18-1.24.54v-.5h-.84v5.1h.88V27.6c.3.34.72.5 1.2.5 1.09 0 1.9-.75 1.9-1.92 0-1.15-.81-1.9-1.9-1.9zm-.1 3.08c-.63 0-1.12-.45-1.12-1.17 0-.71.49-1.17 1.12-1.17.63 0 1.1.46 1.1 1.17 0 .72-.47 1.17-1.1 1.17zM154.48 24.86v-.54h-.83v3.73h.87v-1.81c0-.76.42-1.16 1.09-1.16l.2.03v-.84c-.62 0-1.08.2-1.33.6zM160.03 26.2c0-1.17-.8-1.93-1.89-1.93-1.11 0-1.93.8-1.93 1.91 0 1.12.81 1.92 2.06 1.92.65 0 1.17-.2 1.5-.6l-.46-.55c-.27.28-.6.41-1.01.41-.66 0-1.11-.35-1.22-.9h2.94l.01-.25zm-1.89-1.23c.58 0 .99.37 1.06.91h-2.12c.08-.54.5-.9 1.06-.9zM162.03 28.1c1.05 0 1.69-.45 1.69-1.15 0-1.47-2.31-.8-2.31-1.55 0-.25.25-.42.78-.42.36 0 .72.07 1.08.28l.33-.67c-.33-.2-.9-.32-1.4-.32-1 0-1.64.47-1.64 1.17 0 1.5 2.3.82 2.3 1.53 0 .26-.22.42-.78.42a2.5 2.5 0 0 1-1.3-.37l-.34.66c.34.24.96.42 1.59.42zM167.99 26.2c0-1.17-.8-1.93-1.89-1.93-1.11 0-1.93.8-1.93 1.91 0 1.12.81 1.92 2.06 1.92.65 0 1.17-.2 1.5-.6l-.46-.55c-.27.28-.6.41-1.02.41-.65 0-1.1-.35-1.2-.9h2.92l.02-.25zm-1.89-1.23c.57 0 .99.37 1.06.91h-2.12c.08-.54.5-.9 1.06-.9zM170.95 24.27c-.54 0-1 .19-1.29.53v-.49h-.83v3.74h.87v-1.89c0-.75.43-1.12 1.05-1.12.56 0 .89.32.89.98v2.03h.87v-2.14c0-1.13-.66-1.64-1.56-1.64zM175.63 27.23c-.14.1-.31.15-.5.15-.33 0-.51-.2-.51-.56v-1.78h1v-.7h-1v-.85h-.88v.85h-.61v.7h.61v1.8c0 .83.47 1.26 1.3 1.26.3 0 .62-.08.83-.25l-.24-.62zM177.75 28.1c1.05 0 1.7-.45 1.7-1.15 0-1.47-2.32-.8-2.32-1.55 0-.25.25-.42.79-.42.35 0 .71.07 1.07.28l.33-.67c-.33-.2-.9-.32-1.4-.32-1 0-1.64.47-1.64 1.17 0 1.5 2.3.82 2.3 1.53 0 .26-.22.42-.78.42a2.5 2.5 0 0 1-1.3-.37l-.33.66c.33.24.95.42 1.58.42zM180.48 25.43c.31 0 .57-.24.57-.58a.56.56 0 0 0-.57-.58.56.56 0 0 0-.58.58c0 .34.26.58.58.58zm0 2.67c.31 0 .57-.24.57-.58a.56.56 0 0 0-.57-.58.56.56 0 0 0-.58.58c0 .34.26.58.58.58z"/><path fill="#183558" fill-rule="nonzero" d="M120.15 74.8a4.73 4.73 0 0 0-.5 3.18c-.07.27-.1.55-.1.85a3.1 3.1 0 0 0 3.24 3.2c.47 0 .9-.08 1.3-.26a5.24 5.24 0 0 0 1.8-.17l.42.4a4.62 4.62 0 0 1-3.61 1.51c-2.78 0-4.86-1.96-4.86-4.68 0-1.78.9-3.24 2.3-4.03zm38.1 6.69c-.32 1.15-1.49 2.02-3.58 2.02a5.86 5.86 0 0 1-3.59-1.09l.59-1.31c.72.59 1.88 1 3 1 .7 0 1.2-.12 1.53-.33h.2c.73 0 1.35-.1 1.86-.29zm-13.29-.05c-.59 1.35-1.85 2.07-3.6 2.07-2.5 0-4-1.44-4-4.09v-5.13h1.7v5.07c0 1.87.84 2.67 2.3 2.67.49 0 .9-.08 1.24-.26l.49.01c.7 0 1.33-.11 1.87-.34zm4.43 1.94h-1.69v-9.1h1.69v9.1zm-14.96-3.43c-.23.18-.5.33-.8.44l2.08 3h-1.81l-1.86-2.67-.36.01h-.32v-1.39h.25c.62 0 1.11-.12 1.48-.34h.32l.36-.01.66.96zm-4.76-5.67v1.43h-.04v3.63h.04v1.4h-.04v2.64h-1.69v-3l.1-.12-.1-.1v-5.88h1.73zm33.29 0v1.42h-1.25v2.37h.05v1.39h-.05v2.5h5.14v1.42h-6.82V79.6a2.56 2.56 0 0 0 0-1.04v-4.26h2.93zm-9.86.16a2.57 2.57 0 0 0 .1 1.67c-.17.2-.25.43-.25.68 0 1.73 4.26.92 5.21 3.07-.28.3-.82.5-1.66.52-.95-1.19-5.22-.5-5.22-3.5 0-1.05.59-1.98 1.82-2.44zm-17.73 4.23v.01l-.02-.02h.02v.02z"/><g fill="#f3c39f" fill-rule="nonzero"><path d="M111.53 68.29h.95l-2.2-4.9h-.9l-2.2 4.9h.93l.48-1.13h2.45l.5 1.13zm-2.63-1.85l.92-2.14.92 2.14h-1.84zM117.3 68.36c.81 0 1.5-.29 1.95-.82l-.59-.56c-.35.4-.8.58-1.3.58a1.67 1.67 0 0 1-1.76-1.72c0-1 .74-1.72 1.75-1.72.52 0 .96.19 1.31.57l.6-.55a2.48 2.48 0 0 0-1.95-.82c-1.5 0-2.62 1.06-2.62 2.52s1.12 2.52 2.62 2.52zM121.62 68.36c1.34 0 1.98-.67 1.98-1.46 0-1.8-2.9-1.11-2.9-2.16 0-.37.3-.66 1.06-.66.43 0 .9.12 1.35.38l.29-.7a3.1 3.1 0 0 0-1.63-.44c-1.35 0-1.98.67-1.98 1.46 0 1.82 2.91 1.13 2.91 2.19 0 .36-.32.63-1.08.63a2.7 2.7 0 0 1-1.62-.54l-.31.71c.4.35 1.16.59 1.93.59zM126.02 68.36c1.35 0 1.98-.67 1.98-1.46 0-1.8-2.9-1.11-2.9-2.16 0-.37.3-.66 1.06-.66.43 0 .91.12 1.35.38l.29-.7a3.1 3.1 0 0 0-1.63-.44c-1.35 0-1.98.67-1.98 1.46 0 1.82 2.92 1.13 2.92 2.19 0 .36-.33.63-1.09.63a2.7 2.7 0 0 1-1.62-.54l-.31.71c.4.35 1.17.59 1.93.59zM130.42 68.36c1.35 0 1.98-.67 1.98-1.46 0-1.8-2.9-1.11-2.9-2.16 0-.37.3-.66 1.06-.66.43 0 .91.12 1.36.38l.28-.7a3.1 3.1 0 0 0-1.63-.44c-1.34 0-1.97.67-1.97 1.46 0 1.82 2.91 1.13 2.91 2.19 0 .36-.32.63-1.09.63a2.7 2.7 0 0 1-1.61-.54l-.32.71c.4.35 1.17.59 1.93.59zM139.27 63.4h-.9l-1.44 2.38-1.44-2.39h-.97l1.92 3.19v1.71h.91v-1.73l1.92-3.17zM142.88 66.44c0-1.17-.8-1.93-1.9-1.93-1.1 0-1.92.8-1.92 1.91 0 1.11.8 1.92 2.06 1.92.64 0 1.17-.21 1.5-.6l-.46-.55c-.27.27-.6.4-1.02.4-.65 0-1.1-.34-1.2-.89h2.92l.02-.26zm-1.9-1.23c.58 0 1 .37 1.06.91h-2.12c.09-.55.5-.91 1.07-.91zM145.04 64.51c-.6 0-1.18.15-1.58.46l.34.64c.28-.23.72-.37 1.14-.37.62 0 .93.3.93.81v.06h-.97c-1.13 0-1.55.49-1.55 1.1 0 .66.54 1.13 1.39 1.13.56 0 .97-.18 1.18-.5v.45h.82V66.1c0-1.08-.62-1.59-1.7-1.59zm-.12 3.2c-.45 0-.71-.21-.71-.53 0-.27.16-.5.75-.5h.9v.44c-.14.39-.51.58-.94.58zM148.7 65.1v-.55h-.84v3.74h.88v-1.81c0-.77.42-1.16 1.08-1.16.06 0 .13 0 .2.02v-.83c-.62 0-1.07.2-1.33.59zM153.73 67.53v-1.35h2.36v-.75h-2.36v-1.28h2.66v-.76h-3.57v4.9h3.67v-.76h-2.76zM159.54 64.51c-.54 0-1 .18-1.28.53v-.49h-.84v3.74h.88V66.4c0-.75.42-1.13 1.04-1.13.56 0 .9.32.9.99v2.03h.86v-2.14c0-1.13-.66-1.64-1.56-1.64zM165.04 63.1V65c-.3-.34-.72-.5-1.2-.5-1.09 0-1.9.75-1.9 1.91s.81 1.92 1.9 1.92c.5 0 .94-.18 1.23-.53v.48h.84v-5.2h-.87zm-1.1 4.5c-.63 0-1.11-.46-1.11-1.18 0-.71.48-1.17 1.11-1.17.63 0 1.11.46 1.11 1.17 0 .72-.48 1.17-1.11 1.17zM172.42 67.31c-.31.18-.65.25-1 .25-1.04 0-1.78-.73-1.78-1.72 0-1.01.74-1.72 1.78-1.72.53 0 .97.17 1.35.56l.58-.56a2.53 2.53 0 0 0-1.97-.8c-1.53 0-2.65 1.06-2.65 2.52s1.12 2.52 2.64 2.52c.7 0 1.4-.21 1.91-.62v-1.96h-.86v1.53zM175.83 64.51c-.6 0-1.19.15-1.59.46l.35.64c.28-.23.71-.37 1.13-.37.62 0 .93.3.93.81v.06h-.96c-1.14 0-1.56.49-1.56 1.1 0 .66.54 1.13 1.4 1.13.56 0 .96-.18 1.17-.5v.45h.83V66.1c0-1.08-.63-1.59-1.7-1.59zm-.12 3.2c-.45 0-.72-.21-.72-.53 0-.27.16-.5.76-.5h.9v.44c-.14.39-.52.58-.94.58zM178.65 63.1h.87v5.19h-.87zM182.1 64.51c-.6 0-1.18.15-1.58.46l.34.64c.28-.23.71-.37 1.13-.37.63 0 .93.3.93.81v.06h-.96c-1.14 0-1.56.49-1.56 1.1 0 .66.54 1.13 1.4 1.13.56 0 .96-.18 1.17-.5v.45h.83V66.1c0-1.08-.62-1.59-1.7-1.59zm-.12 3.2c-.45 0-.72-.21-.72-.53 0-.27.17-.5.76-.5h.9v.44c-.14.39-.51.58-.94.58zM126.09 81.42c1.5 0 2.77-.53 3.61-1.52l-1.1-1.04a3.16 3.16 0 0 1-2.42 1.08 3.1 3.1 0 0 1-3.25-3.2 3.1 3.1 0 0 1 3.25-3.2c.95 0 1.76.35 2.43 1.07l1.09-1.03a4.61 4.61 0 0 0-3.6-1.52c-2.8 0-4.87 1.96-4.87 4.68 0 2.72 2.07 4.68 4.86 4.68zM139.1 81.29L137 78.3a2.9 2.9 0 0 0 1.94-2.87c0-2.02-1.48-3.24-3.87-3.24h-3.74v9.1H133v-2.65h2.06c.12 0 .23 0 .35-.02l1.86 2.67h1.82zm-1.86-5.86c0 1.14-.77 1.82-2.25 1.82h-1.98v-3.63H135c1.48 0 2.25.66 2.25 1.8zM144.74 81.42c2.49 0 3.98-1.44 3.98-4.1V72.2h-1.66v5.07c0 1.87-.84 2.68-2.3 2.68-1.47 0-2.32-.8-2.32-2.68V72.2h-1.69v5.14c0 2.65 1.5 4.09 4 4.09zM151.09 72.19h1.69v9.1h-1.7zM158.05 81.42c2.5 0 3.68-1.25 3.68-2.7 0-3.34-5.4-2.08-5.4-4.02 0-.69.58-1.24 1.98-1.24.8 0 1.7.24 2.51.72l.54-1.31c-.8-.52-1.94-.8-3.03-.8-2.5 0-3.67 1.24-3.67 2.7 0 3.39 5.41 2.1 5.41 4.06 0 .68-.6 1.19-2.02 1.19a5.03 5.03 0 0 1-3-1l-.58 1.3c.75.66 2.17 1.1 3.58 1.1zM165.1 79.87v-2.5h4.4v-1.4h-4.4v-2.36h4.95v-1.42h-6.64v9.1h6.82v-1.42h-5.13z"/></g></svg>