<svg xmlns="http://www.w3.org/2000/svg" stroke-linecap="round" viewBox="0 0 66 150"><path fill="#373231" d="M4.2 130.9v-9.5l33 19.2v9.4l-33-19.1z"/><path fill="#5d5655" d="M33 142.8l-33-19V19l33 19v104.8z"/><path fill="#504948" d="M66 133.3L37.1 150v-9.5l-4.2 2.3V38L66 19v114.3z"/><path fill="#736a69" d="M0 19L33 0l33 19-32.9 19L0 19z"/><path fill="#645b5a" d="M8.2 66.5l4.1 2.4v4.8l-8.2-4.8 4.1-2.4zm0 52.4l4.1 2.4v4.8L4 121.3l4.2-2.4z"/><path fill="#3e3837" d="M4 121.3l4.2-2.4V76.1l-4-2.3-.1 47.5zm0-52.4l4.2-2.4v-38L4 26.1v42.8z"/><path fill="#47403f" d="M8.2 118.9l4.1 2.4.1-42.8-4.2-2.4v42.8zm0-52.4l4.1 2.4.1-38-4.1-2-.1 37.6z"/><path fill="none" stroke="#000" stroke-width="3.3" d="M1239.3 2064v-408.8L1026.9 1533v408.8l212.4 122.2z" transform="matrix(.1164 0 0 .1165 -115.4 -104.8)"/><path fill="none" stroke="#000" stroke-width="3.3" d="M1240 2023.5l-.7-368.3-212.4-122.2.6 367.9 212.4 122.6z" transform="matrix(.1164 0 0 .1165 -115.4 -152.4)"/><path fill="#b7adad" d="M8.2 100v-4.8l4.2 2.4v4.8L8.2 100zm.1-47.7v-4.7l4.1 2.4v4.7l-4.1-2.4z"/><g fill="none" stroke="#fff" stroke-opacity=".8" stroke-width="1.5"><path d="M1133 1226.4l35.2 20.3" transform="matrix(.1164 0 0 .1165 -115.4 -100)"/><path d="M1133 1226.4l35.2 20.3" transform="matrix(.1164 0 0 .1165 -115.4 -102.4)"/><path d="M1133 1226.4l35.2 20.3" transform="matrix(.1164 0 0 .1165 -115.4 -103.6)"/><path d="M1133 1226.4l35.2 20.3" transform="matrix(.1164 0 0 .1165 -115.4 -101.3)"/><path d="M1133 1226.4l35.2 20.3" transform="matrix(.1164 0 0 .1165 -115.4 -104.8)"/><path d="M1133 1226.4l35.2 20.3" transform="matrix(.1164 0 0 .1165 -115.4 -71.5)"/><path d="M1133 1226.4l35.2 20.3" transform="matrix(.1164 0 0 .1165 -115.4 -73.9)"/><path d="M1133 1226.4l35.2 20.3" transform="matrix(.1164 0 0 .1165 -115.4 -75)"/><path d="M1133 1226.4l35.2 20.3" transform="matrix(.1164 0 0 .1165 -115.4 -72.7)"/><path d="M1133 1226.4l35.2 20.3" transform="matrix(.1164 0 0 .1165 -115.4 -76.2)"/><path d="M1133 1226.4l35.2 20.3" transform="matrix(.1164 0 0 .1165 -115.4 -52.4)"/><path d="M1133 1226.4l35.2 20.3" transform="matrix(.1164 0 0 .1165 -115.4 -54.8)"/><path d="M1133 1226.4l35.2 20.3" transform="matrix(.1164 0 0 .1165 -115.4 -56)"/><path d="M1133 1226.4l35.2 20.3" transform="matrix(.1164 0 0 .1165 -115.4 -53.6)"/><path d="M1133 1226.4l35.2 20.3" transform="matrix(.1164 0 0 .1165 -115.4 -57.2)"/><path d="M1133 1226.4l35.2 20.3" transform="matrix(.1164 0 0 .1165 -115.4 -19.1)"/><path d="M1133 1226.4l35.2 20.3" transform="matrix(.1164 0 0 .1165 -115.4 -21.5)"/><path d="M1133 1226.4l35.2 20.3" transform="matrix(.1164 0 0 .1165 -115.4 -22.7)"/><path d="M1133 1226.4l35.2 20.3" transform="matrix(.1164 0 0 .1165 -115.4 -20.3)"/><path d="M1133 1226.4l35.2 20.3" transform="matrix(.1164 0 0 .1165 -115.4 -23.9)"/></g></svg>