<svg xmlns="http://www.w3.org/2000/svg" fill-rule="evenodd" stroke-linejoin="round" stroke-miterlimit="1.4" clip-rule="evenodd" viewBox="0 0 900 471"><path fill="#0e224f" d="M0 0h900v471H0z"/><path fill="#f3be33" d="M900 7.4v27.7H650.5v12.2H900v27.9H596.4v12.2H900V115H596.4v12.3H900v23.2H0V7.5h900zM238 127.3V115H0v12.3h238zm0-40V75.3H0v12.2h238zm53.7-40V35H0v12.2h291.7z"/><path fill="#fff" d="M533.2 7.5h3.6l.1 5.5c0 6.5-.2 8.7-1.2 10.9a11 11 0 0 1-13.5 5.4c-1-.4-1.3-.4-1.5-.2a246.6 246.6 0 0 1-25 46.4 89.2 89.2 0 0 1-14 14.3c-2.5 1.8-3 2.2-2.8 2.7v25.7l.1 25.2h5.3c3.1 0 5.7.1 6.3.3 1.3.3 2.5 1.6 2.7 2.7.3 1.4-.5 3.1-1.6 3.7-.8.4-4.3.4-63.6.4-34.5 0-63-.1-63.2-.2-1.7-.7-2.4-3.4-1.3-5 1-1.7 1.4-1.8 8-2h5.8l.2-70.2.6-.8c1-1.5 1.6-1.5 10.4-1.5 7 0 8 0 8-.4l-.7-1.9a18.2 18.2 0 0 1-.3-15.4c.4-.8 16.8-28.4 18.8-30.4 1.2-1.2 2.7-2.5 3.5-3 .8-.4 8.3-3.4 16.6-6.5l15.3-5.7h10c6.1 0 10 0 9.8.2l-22.9 8.7-24.3 9.3c-1.2.6-2.2 1.3-3 2.2a461 461 0 0 0-17.5 29c-.7 1.8-.8 4.3-.3 6.2.2.8 1 2.9 1.9 4.5l1.5 3h15.1c0-1-2.2-4.6-4.4-7l-1.7-2.3c-.7-1.3 0-3.4 1.2-4.3a52.5 52.5 0 0 0 17.5-9.2c2.1-1.7 2.6-2.3 2.9-3.5.4-1.7 2.2-3 3.9-2.6.4 0 1.6.7 2.7 1.4a34 34 0 0 0 16.7 5.8c3.2.2 4.1.5 5 1.8.5 1 .6 2.6.1 3.4-.1.3-1.2 1.6-2.3 2.9a64.2 64.2 0 0 0-11.8 17.9c0 1.4-1.4 2.8-2.9 3.1-.5.1-2.8 1.3-5.2 2.6A374.8 374.8 0 0 0 422.1 93a10.1 10.1 0 0 0-3 8.5c.6 3.4 3 6.4 5.8 7.6 2.1.8 5.6.8 7.4-.1l14.3-8.4c9.4-5.7 13.2-7.9 14.3-8.1 5-1.4 12.4-5.4 18-9.8 4.3-3.5 9.7-9.5 13.3-14.8A260.3 260.3 0 0 0 514 25.6c0-.3-4.8-2.7-17.6-9.2L479 7.6l7.9-.1h7.8L510 15c14.7 7.4 15.2 7.6 16.4 7.5 1.3-.1 2.2-.7 2.9-2 .4-.7.4-1.4.4-7V7.4l3.6.1zM385 143.3a1838.8 1838.8 0 0 1-.2-64.8c0-.3 2.4-.4 23.2-.4 12.7 0 23 .1 23 .2l-5.6 3.8c-7 4.4-8.4 5.4-9.9 7.2a17 17 0 0 0 18.7 26.8c1-.4 6.4-3.4 14.7-8.5 10.6-6.3 13.5-8 15-8.4 1-.3 3-1 4.6-1.7 1.5-.7 2.9-1.1 3-1l.1 23.5v23.3h-43.2c-23.7.2-43.3.1-43.4 0zm42.8-72.9l-.6-1.8c-.6-1.8-1.6-3.8-2.7-5.6l-.6-1.3 3.4-1.9c4-2 8.7-5.2 11.1-7.4l2-1.8 3 1.5a41.5 41.5 0 0 0 9.6 3.5l-2 3a75.2 75.2 0 0 0-6.4 10.2l-1 2h-7.8c-6.1 0-8-.1-8-.4z"/><g fill="#f3be33" fill-rule="nonzero"><path d="M52.7 258.6l10.8 36.5v-36.5h8.2V313H63l-11.2-34.7v34.7h-8.2v-54.3h9.2zM91.8 258c3.6 0 6.7 1.3 9.2 3.8 2.5 2.5 3.8 5.6 3.8 9.2v29.5c0 3.6-1.3 6.7-3.8 9.2a12.5 12.5 0 0 1-9.2 3.8c-3.6 0-6.6-1.3-9.2-3.8a12.6 12.6 0 0 1-3.7-9.2V271c0-3.6 1.3-6.7 3.8-9.2 2.5-2.5 5.6-3.8 9.1-3.8zm4.5 12.8c0-1.3-.5-2.4-1.4-3.3-1-1-2-1.4-3.3-1.4-1.3 0-2.4.5-3.3 1.4-1 .9-1.4 2-1.4 3.3v29.7c0 1.3.4 2.4 1.4 3.3.9.9 2 1.3 3.3 1.3 1.3 0 2.4-.4 3.3-1.3 1-1 1.4-2 1.4-3.3v-29.7zM120.1 312.9H112v-54.3h11.7l7.6 39 7.3-39H150V313h-8.2v-34.1l-7 34H128l-7.9-34v34zM157.2 258.7h8.1v54.2h-8.1zM181.8 258.6l10.9 36.5v-36.5h8.2V313H192l-11.3-34.7v34.7h-8.1v-54.3h9.1zM218.2 300.4l-2 12.5h-8.5l9.2-54.2h11.2l9.1 54.2h-8.6l-1.9-12.5h-8.5zm4.3-29.3l-3 21.4h6l-3-21.4zM245.1 267h-8.7v-8.3H262v8.2h-8.7v46h-8.2v-46zM268.5 258.7h8.2v54.2h-8.2zM296.8 258c3.7 0 6.7 1.3 9.2 3.8 2.6 2.5 3.8 5.6 3.8 9.2v29.5c0 3.6-1.2 6.7-3.8 9.2a12.5 12.5 0 0 1-9.2 3.8c-3.6 0-6.6-1.3-9.1-3.8a12.6 12.6 0 0 1-3.8-9.2V271c0-3.6 1.3-6.7 3.8-9.2 2.6-2.5 5.6-3.8 9.1-3.8zm4.5 12.8c0-1.3-.5-2.4-1.4-3.3-.9-1-2-1.4-3.3-1.4-1.3 0-2.4.5-3.3 1.4-1 .9-1.4 2-1.4 3.3v29.7c0 1.3.5 2.4 1.4 3.3 1 .9 2 1.3 3.3 1.3 1.3 0 2.4-.4 3.3-1.3 1-1 1.4-2 1.4-3.3v-29.7zM326.2 258.6l10.8 36.5v-36.5h8.2V313h-8.8l-11.2-34.7v34.7H317v-54.3h9.2zM379 299.4c.1 3.8-.9 7-2.9 9.7a10.6 10.6 0 0 1-5.6 3.8c-1.3.4-2.8.6-4.6.6-3.2 0-5.8-.8-8-2.4-1.7-1.3-3-3-4-5.3-1.1-2.2-1.7-4.7-1.9-7.6l7.8-.6c.3 3.2 1.2 5.5 2.5 6.9 1 1 2.1 1.6 3.4 1.5 1.8 0 3.2-1 4.3-2.6.5-.9.8-2 .8-3.6 0-2.3-1-4.5-3-6.7l-7.3-7a31 31 0 0 1-5.8-7 16.3 16.3 0 0 1-1.8-7.6c0-5 1.6-8.7 5-11.2 2-1.5 4.5-2.3 7.6-2.3 2.9 0 5.4.6 7.4 2 1.7 1 3 2.4 4 4.2 1 1.8 1.6 3.9 1.8 6.3l-7.9 1.4c-.2-2.2-.8-4-1.9-5.2-.7-.9-1.8-1.3-3.2-1.3-1.5 0-2.7.6-3.4 2-.7 1-1 2.3-1 4 0 2.4 1 5 3.2 7.5.8 1 2 2.1 3.6 3.4a54 54 0 0 1 3.8 3.4 27.7 27.7 0 0 1 6 8.5c.7 2 1.1 3.7 1.1 5.2zM163 338.2c3.6 0 6.7 1.3 9.2 3.8 2.5 2.6 3.8 5.6 3.8 9.2v29.6c0 3.6-1.3 6.6-3.8 9.2a12.5 12.5 0 0 1-9.2 3.7c-3.6 0-6.7-1.2-9.2-3.8a12.6 12.6 0 0 1-3.7-9.1v-29.6c0-3.6 1.2-6.7 3.8-9.2 2.5-2.5 5.6-3.8 9.1-3.8zm4.5 12.8c0-1.3-.5-2.4-1.4-3.3-1-.9-2-1.4-3.3-1.4-1.3 0-2.4.5-3.3 1.4-1 1-1.4 2-1.4 3.3v29.7c0 1.3.4 2.4 1.4 3.3.9.9 2 1.3 3.3 1.3 1.3 0 2.4-.4 3.3-1.3.9-1 1.4-2 1.4-3.3V351zM196 339c4 0 7.2 1.2 9.6 3.7a13 13 0 0 1 3.3 9.1v8c0 3.5-1.3 6.5-3.8 9a12.2 12.2 0 0 1-9 3.9h-4.7V393h-8.2v-54.2h12.9zm5 13c0-1.4-.5-2.6-1.3-3.4-.9-1-2-1.3-3.4-1.3h-5v17.3h5c1.3 0 2.4-.5 3.3-1.4 1-1 1.4-2 1.4-3.3v-8zM215.4 393V339h23.3v8.2h-15.1v14.8h11v8.2h-11v14.8h15v8.2h-23.2zM253.5 338.9l10.8 36.4V339h8.2V393h-8.8l-11.2-34.7V393h-8.2v-54.2h9.2z"/></g><path fill="#f3be33" fill-rule="nonzero" d="M497 320.5l3.7 12.4v-12.4h2.8V339h-3l-3.8-11.9V339h-2.8v-18.5h3.1zM510.3 320.3c1.3 0 2.3.4 3.2 1.3.8.8 1.3 1.9 1.3 3.1v10c0 1.3-.5 2.3-1.3 3.2-.9.9-2 1.3-3.2 1.3-1.2 0-2.2-.5-3-1.3a4.3 4.3 0 0 1-1.4-3.1v-10.1c0-1.2.5-2.3 1.3-3.1.9-.9 2-1.3 3.1-1.3zm1.6 4.3c0-.4-.2-.8-.5-1-.3-.4-.7-.6-1.1-.6-.5 0-.8.2-1.2.5-.3.3-.4.7-.4 1.1v10.1c0 .5.1.9.4 1.2.4.3.7.4 1.2.4.4 0 .8-.1 1.1-.4.3-.3.5-.7.5-1.2v-10zM520 339h-2.8v-18.5h4l2.6 13.3 2.5-13.3h3.8V339h-2.8v-11.6L525 339h-2.2l-2.7-11.6V339zM532.6 320.5h2.8v18.4h-2.8zM541 320.5l3.7 12.4v-12.4h2.8V339h-3l-3.8-11.9V339h-2.8v-18.5h3zM553.4 334.7l-.7 4.3h-3l3.2-18.5h3.9l3 18.5H557l-.6-4.3h-3zm1.4-10l-1 7.3h2l-1-7.3zM562.5 323.3h-3v-2.8h8.8v2.8h-3V339h-2.8v-15.7zM570.5 320.5h2.8v18.4h-2.8zM580.1 320.3c1.3 0 2.3.4 3.2 1.3.8.8 1.3 1.9 1.3 3.1v10c0 1.3-.5 2.3-1.3 3.2-.9.9-2 1.3-3.2 1.3-1.2 0-2.2-.5-3-1.3a4.3 4.3 0 0 1-1.4-3.1v-10.1c0-1.2.5-2.3 1.3-3.1.9-.9 2-1.3 3.1-1.3zm1.6 4.3c0-.4-.2-.8-.5-1-.3-.4-.7-.6-1.1-.6-.5 0-.8.2-1.2.5-.3.3-.4.7-.4 1.1v10.1c0 .5.1.9.4 1.2.4.3.7.4 1.2.4.4 0 .8-.1 1.1-.4.3-.3.5-.7.5-1.2v-10zM590.1 320.5l3.7 12.4v-12.4h2.8V339h-3l-3.8-11.9V339H587v-18.5h3.1zM608.1 334.4c0 1.3-.3 2.4-1 3.3-.4.6-1 1-1.9 1.3l-1.5.2c-1.1 0-2-.3-2.7-.8-.6-.5-1.1-1-1.5-1.8-.3-.8-.5-1.7-.6-2.6l2.7-.2c.1 1 .4 1.8.8 2.3.4.4.7.5 1.2.5.6 0 1-.3 1.4-.9.2-.3.3-.7.3-1.2 0-.8-.3-1.5-1-2.3l-2.5-2.3c-1-1-1.6-1.7-2-2.4-.4-.8-.6-1.7-.6-2.6 0-1.7.6-3 1.7-3.8.7-.6 1.6-.8 2.6-.8s1.8.2 2.6.6c.5.4 1 .9 1.3 1.5.3.6.5 1.3.6 2.1l-2.7.5c0-.7-.3-1.3-.6-1.8-.3-.3-.6-.4-1.1-.4-.5 0-1 .2-1.2.7-.2.3-.3.8-.3 1.3a4 4 0 0 0 1 2.6l1.3 1.2 1.3 1.1a9.4 9.4 0 0 1 2 2.9c.3.7.4 1.2.4 1.8zM616.7 339h-2.8v-18.5h7.9v2.8h-5.1v5h3.7v2.8h-3.7v7.9zM628.1 320.3c1.2 0 2.3.4 3.1 1.3.9.8 1.3 1.9 1.3 3.1v10c0 1.3-.4 2.3-1.3 3.2-.8.9-1.9 1.3-3.1 1.3-1.2 0-2.3-.5-3.1-1.3a4.3 4.3 0 0 1-1.3-3.1v-10.1c0-1.2.4-2.3 1.3-3.1.9-.9 1.9-1.3 3.1-1.3zm1.5 4.3c0-.4-.1-.8-.4-1-.4-.4-.7-.6-1.2-.6-.4 0-.8.2-1.1.5-.3.3-.5.7-.5 1.1v10.1c0 .5.2.9.5 1.2.3.3.7.4 1.1.4.5 0 .8-.1 1.2-.4.3-.3.4-.7.4-1.2v-10zM639.4 320.5c1.5 0 2.7.4 3.4 1.3.6.7 1 1.8 1 3.1v2.7c0 1.3-.6 2.4-1.5 3.3l2 8h-3l-1.7-6.9h-1.8v7H635v-18.5h4.4zm1.6 4.5c0-1.1-.5-1.6-1.6-1.6h-1.6v5.9h1.6c.5 0 .9-.2 1.2-.5.3-.3.4-.7.4-1.1V325zM649.5 339h-2.8v-18.5h4l2.6 13.3 2.5-13.3h3.8V339h-2.8v-11.6l-2.4 11.6h-2.2l-2.7-11.6V339zM671.1 334.4c0 1.3-.3 2.4-1 3.3-.4.6-1 1-1.9 1.3l-1.5.2c-1.1 0-2-.3-2.7-.8-.6-.5-1.1-1-1.5-1.8-.3-.8-.5-1.7-.6-2.6l2.7-.2c.1 1 .4 1.8.8 2.3.4.4.8.5 1.2.5.6 0 1-.3 1.4-.9.2-.3.3-.7.3-1.2 0-.8-.3-1.5-1-2.3l-2.5-2.3c-1-1-1.6-1.7-2-2.4-.4-.8-.6-1.7-.6-2.6 0-1.7.6-3 1.7-3.8.7-.6 1.6-.8 2.6-.8s1.8.2 2.6.6c.5.4 1 .9 1.3 1.5.3.6.5 1.3.6 2.1l-2.7.5c0-.7-.3-1.3-.6-1.8-.3-.3-.6-.4-1.1-.4-.5 0-1 .2-1.2.7-.2.3-.3.8-.3 1.3a4 4 0 0 0 1 2.6l1.3 1.2 1.3 1.1a9.4 9.4 0 0 1 2 2.9c.3.7.4 1.2.4 1.8zM680.4 334.7l-.6 4.3h-3l3.2-18.5h3.8L687 339H684l-.7-4.3h-2.9zm1.5-10l-1 7.3h2l-1-7.3zM689.7 339l-3.3-18.5h2.9l2.3 14.4 2.3-14.4h3l-3.4 18.5h-3.8zM699.8 334.7l-.7 4.3h-2.9l3.2-18.5h3.8l3.1 18.5h-3l-.6-4.3h-2.9zm1.5-10l-1 7.3h2l-1-7.3zM716.2 339h-7.6v-18.5h2.8v15.7h4.8v2.8zM718.1 320.5h2.8v18.4h-2.8zM726.8 334.7l-.7 4.3h-2.9l3.2-18.5h3.8l3 18.5h-2.8l-.7-4.3h-2.9zm1.5-10l-1 7.3h2l-1-7.3zM735.6 339v-18.5h4.2c1.1 0 2 .3 3 .9a4 4 0 0 1 1.6 2.3c.2.5.3 1.2.3 2 0 1.1-.4 2.1-1 2.9l-1 .7c.6.2 1.1.7 1.6 1.4.3.5.5 1 .6 1.8a7.4 7.4 0 0 1-.6 4.3 4 4 0 0 1-1.4 1.5 4 4 0 0 1-2.1.7h-5.2zm3-2.8h1.2c1 0 1.6-.5 2-1.4l.1-1.2c0-1-.1-1.8-.5-2.3-.4-.4-1-.6-1.6-.6h-1.2v5.5zm0-8.2h1.2c.9 0 1.4-.4 1.7-1.2l.2-1.2c0-.8-.2-1.3-.6-1.7-.3-.4-.8-.6-1.3-.6h-1.2v4.7zM755 339h-7.6v-18.5h2.8v15.7h4.8v2.8zM757 339v-18.5h7.8v2.8h-5.1v5h3.8v2.8h-3.8v5h5.1v2.9H757zM774.2 334.7l-.7 4.3h-3l3.2-18.5h3.8l3.1 18.5h-2.9l-.6-4.3h-3zm1.4-10l-1 7.3h2l-1-7.3zM783.3 323.3h-3v-2.8h8.8v2.8h-3V339h-2.8v-15.7zM797.8 323.3h-3v-2.8h8.7v2.8h-3V339h-2.7v-15.7zM808.5 331.1v7.9h-2.8v-18.5h2.8v7.8h3.4v-7.8h2.7V339H812V331h-3.4zM817.1 339v-18.5h8v2.8h-5.2v5h3.8v2.8h-3.8v5h5.1v2.9h-7.9zM833.3 339.2c-1.2 0-2.3-.4-3.1-1.3a4.2 4.2 0 0 1-1.3-3.1v-10c0-1.3.4-2.3 1.3-3.2.8-.9 1.9-1.3 3-1.3 1.3 0 2.4.4 3.2 1.3.9.9 1.3 2 1.3 3.1v2.1h-2.9v-2.1c0-.5-.2-.9-.5-1.2-.3-.3-.7-.4-1.1-.4-.4 0-.8.1-1.1.4-.3.3-.5.7-.5 1.2v10c0 .5.2.9.5 1.2.3.3.7.5 1.1.5.4 0 .8-.2 1.1-.5.3-.3.5-.7.5-1.1v-2.6h2.9v2.6c0 1.2-.4 2.3-1.3 3.1-.9.9-2 1.3-3.1 1.3zM844.4 339.2c-1.3 0-2.3-.5-3.2-1.3a4.2 4.2 0 0 1-1.2-3.1v-14.3h2.7v14.3c0 .4.1.8.4 1 .4.4.7.5 1.2.5.4 0 .8-.1 1.1-.4.3-.3.5-.7.5-1.2v-14.2h2.9v14.3c0 1.2-.5 2.3-1.3 3.1-.9.8-2 1.3-3.1 1.3zM851.2 339v-18.5h4.2c1.1 0 2.1.3 3 .9a4 4 0 0 1 1.6 2.3c.2.5.3 1.2.3 2 0 1.1-.4 2.1-1 2.9l-1 .7c.6.2 1.2.7 1.6 1.4.3.5.5 1 .6 1.8a7.3 7.3 0 0 1-.5 4.3 4 4 0 0 1-1.5 1.5 4 4 0 0 1-2.1.7h-5.2zm3-2.8h1.2c1 0 1.6-.5 2-1.4l.2-1.2c0-1-.2-1.8-.6-2.3-.4-.4-.9-.6-1.6-.6h-1.2v5.5zm0-8.2h1.2c.9 0 1.5-.4 1.7-1.2.2-.3.2-.7.2-1.2 0-.8-.2-1.3-.5-1.7-.4-.4-.8-.6-1.4-.6h-1.2v4.7zM863 339v-18.5h8v2.8h-5.2v5h3.8v2.8h-3.8v5h5.1v2.9H863z"/><path fill="#08339a" fill-rule="nonzero" d="M443.5 444.5l.3 6.6 6 5v-6.9l-6.3-4.7zm-1 5.6l-5.3-4.3-.4-6.6 5.6 4.3.2 6.6zm-6.5-5.4l-5-3.9-.6-6.4 5.1 3.9.5 6.4zm-.7-8.1l-5-3.8-.9-7.1 5.4 3.7.5 7.2zm14.6-7.1v8.8l-6.8-4.9v-8.3l6.8 4.4zm-8-5v8.2l-6-4.1-.5-8.1 6.4 4zm-12.7-.5l5.4 3.7-.6-8.2-5.6-3.5.8 8z"/><path fill="#498df8" fill-rule="nonzero" d="M468.3 433.7l1 .7-5.1 3.9-.5 6.4-1-.7.2-4.8-5.6 4.3-.2 6.6-1.1-.9.2-4.7-6.3 4.7-6.4-4.7.2 4.7-1.1 1-.2-6.7-5.6-4.3.3 4.8-1.1.7-.5-6.4-5-4 .9-.6 4 2.9-.6-7.3-5.4-3.6 1.3-.7 3.9 2.7-.6-8.2 6.9-3.5-4-2.2v-1.5l5.6 3 6-3-5.3-3 1.3.8v-1.5l5.4 3.1 6.3-3.1-.2 7.4-6.2 3.1-1-.5v1l-1 .5-5.4-3.1-7 3.5.5 8.1 6 4.1v-8.3l6.7-4v1.5l-5.5 3.2v6.8l-2.5 1.6 1.3 1v1.5l1-.8 5.7 4v1.7l1.3-.8 1.2.8v-1.7l5.7-4 1 .8v-1.5l1.3-1-2.5-1.6v-6.8l-5.5-3.2v-1.4l6.8 4v8.2l5.9-4.1.5-8.1-5.5-2.8V416l7 3.5-.6 8.2 3.9-2.7 1.2.7-5.4 3.6-.5 7.3 4-3z"/><path fill="#fff" fill-rule="nonzero" d="M449.9 449.2v6.9l6-5 .3-6.6-6.3 4.7zm13-10l-.4 6.6-5.4 4.3.2-6.6 5.6-4.3zm6.4-4.8l-.7 6.4-4.9 3.9.5-6.4 5-4zm-12.7-9.3v8.3l-6.7 4.9v-8.8L443 425l6.8-4 6.7 4zm13.7.6l-.8 7-5 3.9.4-7.2 5.4-3.7zm-6-5.2l-.5 8.1-6 4.1v-8.3l-6.7-4 6.3-3.4 1.4.7 5.5 2.8zm-5.5-4.5l7 3.5-.6 8.2 5.3-3.7.8-8-7-3-5.5 3zm-10.2 4.5l-6.8 4-6.4-4 7-3.5 6.2 3.5zm-20.2-4.5l5.6 3.5 6.9-3.5-4-2.2-1.5-.9-7 3.1zm14-.6l6.2-3.1-5.4-3h-.1l-6.2 3 5.6 3zm13.8-6.8l-5.5-2.9-6.2 2.9 5.4 3.1 6.3-3.1z"/><g fill="#fff" fill-rule="nonzero"><path d="M320.3 196c1.5 0 2.8-.5 3.7-1.5l-1.3-1.3c-.6.7-1.4 1.1-2.3 1.1a2.8 2.8 0 0 1-2.9-2.9c0-1.7 1.2-2.9 2.9-2.9.9 0 1.7.4 2.3 1l1.3-1.2c-.9-1-2.2-1.5-3.7-1.5-2.8 0-5 1.9-5 4.6 0 2.7 2.2 4.7 5 4.7zM329.6 196c2.8 0 5-1.9 5-4.6 0-2.7-2.2-4.6-5-4.6-2.9 0-5 2-5 4.6 0 2.7 2.1 4.7 5 4.7zm0-1.7a2.8 2.8 0 0 1-2.8-2.9c0-1.7 1.2-2.9 2.8-2.9 1.6 0 2.8 1.2 2.8 3 0 1.6-1.2 2.8-2.8 2.8zM346.3 196v-9h-1.8l-3.3 5.5-3.4-5.6h-1.7v9h2v-5.3l2.6 4.4h1l2.6-4.5v5.4h2zM352.3 187h-3.9v9h2v-2.6h2c2.3 0 3.8-1.2 3.8-3.2s-1.5-3.3-3.9-3.3zm-.1 4.7h-1.7v-3h1.7c1.3 0 2 .5 2 1.5s-.7 1.5-2 1.5zM361.7 196c2.5 0 4-1.4 4-4v-5h-2v4.9c0 1.7-.7 2.4-2 2.4s-2-.7-2-2.4v-5h-2.1v5c0 2.7 1.5 4.2 4 4.2zM369.5 196h2.1v-7.4h3V187h-8v1.7h3v7.3zM377.7 194.3v-2.1h4.2v-1.7h-4.2v-2h4.8V187h-6.9v9h7v-1.6h-4.9zM392.3 196l-2-3a3 3 0 0 0 1.8-2.8c0-2-1.5-3.3-3.9-3.3h-3.9v9h2v-2.5h2l1.7 2.5h2.3zm-2.3-5.8c0 1-.6 1.6-2 1.6h-1.6v-3.2h1.7c1.3 0 2 .6 2 1.6zM400.4 196c2.6 0 3.8-1.2 3.8-2.7 0-3.3-5.2-2.2-5.2-3.8 0-.6.4-1 1.7-1a5 5 0 0 1 2.5.6l.6-1.6a6 6 0 0 0-3.1-.7c-2.6 0-3.8 1.2-3.8 2.8 0 3.3 5.2 2.2 5.2 3.8 0 .6-.5 1-1.7 1-1 0-2.2-.4-3-1l-.7 1.6c.8.7 2.3 1 3.7 1zM410 196c1.5 0 2.8-.5 3.7-1.5l-1.4-1.3c-.6.7-1.3 1.1-2.2 1.1a2.8 2.8 0 0 1-3-2.9c0-1.7 1.3-2.9 3-2.9.9 0 1.6.4 2.2 1l1.4-1.2c-.9-1-2.2-1.5-3.7-1.5-2.8 0-5 1.9-5 4.6 0 2.7 2.2 4.7 5 4.7zM415.1 187h2.1v9h-2.1zM421.4 194.3v-2.1h4.2v-1.7h-4.2v-2h4.7V187h-6.8v9h7v-1.6h-4.9zM434.2 187v5.4l-4.5-5.5H428v9h2v-5.5l4.5 5.5h1.7v-9h-2zM442.7 196c1.6 0 2.9-.5 3.7-1.5l-1.3-1.3c-.6.7-1.4 1.1-2.3 1.1a2.8 2.8 0 0 1-2.9-2.9c0-1.7 1.2-2.9 3-2.9.8 0 1.6.4 2.2 1l1.3-1.2c-.8-1-2.1-1.5-3.7-1.5-2.8 0-4.9 1.9-4.9 4.6 0 2.7 2.1 4.7 5 4.7zM450 194.3v-2.1h4.1v-1.7H450v-2h4.8V187h-6.9v9h7v-1.6H450zM463.1 196c2.6 0 3.8-1.2 3.8-2.7 0-3.3-5.2-2.2-5.2-3.8 0-.6.5-1 1.7-1a5 5 0 0 1 2.5.6l.6-1.6a6 6 0 0 0-3-.7c-2.7 0-3.9 1.2-3.9 2.8 0 3.3 5.3 2.2 5.3 3.8 0 .6-.5 1-1.8 1-1 0-2.2-.4-3-1l-.7 1.6c.8.7 2.3 1 3.7 1zM470.1 196h2v-7.4h3V187h-7.9v1.7h3v7.3zM480 196c2.6 0 4.1-1.4 4.1-4v-5h-2v4.9c0 1.7-.8 2.4-2 2.4-1.3 0-2-.7-2-2.4v-5H476v5c0 2.7 1.5 4.2 4 4.2zM486.2 196h4.1c3 0 5-1.8 5-4.6 0-2.7-2-4.5-5-4.5h-4v9zm2.1-1.8v-5.6h1.9c1.8 0 3 1 3 2.8 0 1.7-1.2 2.8-3 2.8h-1.9zM499 194.3v-2.1h4.1v-1.7H499v-2h4.8V187h-6.8v9h7v-1.6h-5zM511.7 187v5.4l-4.5-5.5h-1.7v9h2v-5.5l4.6 5.5h1.7v-9h-2zM517.8 196h2v-7.4h3V187h-7.9v1.7h2.9v7.3zM530.5 196c2.6 0 3.8-1.2 3.8-2.7 0-3.3-5.2-2.2-5.2-3.8 0-.6.5-1 1.7-1a5 5 0 0 1 2.5.6l.6-1.6a6 6 0 0 0-3-.7c-2.7 0-3.9 1.2-3.9 2.8 0 3.3 5.3 2.2 5.3 3.8 0 .6-.5 1-1.8 1-1 0-2.2-.4-3-1l-.7 1.6c.8.7 2.3 1 3.7 1zM540.1 196c2.9 0 5-1.9 5-4.6 0-2.7-2.1-4.6-5-4.6-2.8 0-4.9 2-4.9 4.6 0 2.7 2 4.7 5 4.7zm0-1.7a2.8 2.8 0 0 1-2.8-2.9c0-1.7 1.2-2.9 2.8-2.9 1.6 0 2.9 1.2 2.9 3 0 1.6-1.3 2.8-2.9 2.8zM551 196c1.5 0 2.8-.5 3.7-1.5l-1.4-1.3c-.6.7-1.3 1.1-2.2 1.1a2.8 2.8 0 0 1-3-2.9c0-1.7 1.3-2.9 3-2.9.9 0 1.6.4 2.2 1l1.4-1.2c-.9-1-2.2-1.5-3.7-1.5-2.8 0-5 1.9-5 4.6 0 2.7 2.2 4.7 5 4.7zM556 187h2.2v9H556zM562.4 194.3v-2.1h4.2v-1.7h-4.2v-2h4.7V187h-6.8v9h7v-1.6h-4.9zM570.8 196h2.1v-7.4h3V187h-8v1.7h3v7.3z"/><path d="M584.6 187h-2l-2.4 4-2.5-4h-2.2l3.5 5.7v3.2h2.1v-3.2l3.5-5.8zM418.8 213.6v-2.1h4.2v-1.6h-4.2v-2h4.8v-1.7h-6.8v9h7v-1.6h-5zM425.4 215.3h6.6v-1.7h-4.5v-7.4h-2v9zM435.3 213.6v-2.1h4.2v-1.6h-4.2v-2h4.7v-1.7h-6.8v9h7v-1.6h-5zM446.1 215.4c1.6 0 3-.5 3.8-1.6l-1.4-1.2c-.6.7-1.3 1-2.2 1a2.8 2.8 0 0 1-3-2.8c0-1.7 1.3-3 3-3 .9 0 1.6.4 2.2 1.1l1.4-1.2c-.9-1-2.2-1.6-3.7-1.6-2.9 0-5 2-5 4.7s2.1 4.6 5 4.6zM453 215.3h2.1v-7.4h3v-1.7h-8v1.7h3v7.4zM459.2 206.2h2v9h-2zM467.8 215.4c2.8 0 4.9-2 4.9-4.6 0-2.7-2.1-4.7-5-4.7-2.8 0-4.9 2-4.9 4.7 0 2.6 2.1 4.6 5 4.6zm0-1.8a2.8 2.8 0 0 1-2.9-2.8c0-1.8 1.2-3 2.9-3 1.6 0 2.8 1.2 2.8 3 0 1.7-1.2 2.8-2.8 2.8zM480.5 206.2v5.5l-4.5-5.5h-1.7v9h2v-5.4l4.5 5.5h1.7v-9h-2z"/></g><g fill="#fff" fill-rule="nonzero"><path d="M527.7 259.1l-2.8 8.3-2.7-8.3h-1.9l-2.8 8.3-2.7-8.3h-2.1l3.6 10.9h2.2l2.7-8 2.7 8h2.1l3.6-10.9h-1.9zM533.6 261.6c-1.3 0-2.6.3-3.5 1l.8 1.4c.6-.5 1.6-.8 2.5-.8 1.4 0 2 .7 2 1.8v.2h-2c-2.6 0-3.5 1-3.5 2.4 0 1.5 1.2 2.5 3 2.5 1.3 0 2.2-.4 2.7-1.1v1h1.8v-4.9c0-2.4-1.4-3.5-3.8-3.5zm-.2 7c-1 0-1.6-.4-1.6-1 0-.7.4-1.2 1.7-1.2h2v1c-.3.9-1.2 1.3-2.1 1.3zM544.6 261.6c-1.2 0-2.2.4-2.8 1.2v-1.1h-1.9v8.3h2v-4.2c0-1.7.9-2.5 2.3-2.5 1.2 0 2 .7 2 2.2v4.5h1.9v-4.8c0-2.5-1.5-3.6-3.5-3.6zM555 268.2c-.3.2-.7.3-1 .3-.8 0-1.2-.4-1.2-1.2v-4h2.2v-1.5h-2.2v-2h-2v2h-1.3v1.5h1.3v4c0 1.8 1 2.8 2.9 2.8a3 3 0 0 0 1.8-.6l-.5-1.3zM565.9 268.2c-.3.2-.7.3-1.1.3-.7 0-1.2-.4-1.2-1.2v-4h2.3v-1.5h-2.3v-2h-1.9v2h-1.4v1.5h1.4v4c0 1.8 1 2.8 2.9 2.8a3 3 0 0 0 1.8-.6l-.5-1.3zM571.5 270.1c2.6 0 4.4-1.8 4.4-4.3 0-2.4-1.8-4.2-4.4-4.2-2.6 0-4.4 1.8-4.4 4.2 0 2.5 1.8 4.3 4.4 4.3zm0-1.7c-1.4 0-2.5-1-2.5-2.6 0-1.5 1-2.5 2.5-2.5 1.4 0 2.5 1 2.5 2.5 0 1.6-1.1 2.6-2.5 2.6zM586.7 261.6c-1 0-2 .4-2.7 1.1v-4.2h-2V270h2v-1c.6.7 1.5 1.1 2.7 1.1a4 4 0 0 0 4.2-4.3 4 4 0 0 0-4.2-4.2zm-.2 6.8c-1.4 0-2.5-1-2.5-2.6 0-1.5 1-2.5 2.5-2.5 1.4 0 2.4 1 2.4 2.5 0 1.6-1 2.6-2.4 2.6zM600.5 265.9c0-2.6-1.7-4.3-4.2-4.3a4.1 4.1 0 0 0-4.3 4.2c0 2.5 1.9 4.3 4.6 4.3 1.5 0 2.6-.5 3.4-1.3l-1-1.2a3 3 0 0 1-2.3.9c-1.5 0-2.5-.8-2.7-2h6.5v-.6zm-4.2-2.7c1.3 0 2.2.8 2.4 2H594c.2-1.2 1-2 2.3-2zM606.2 270.1c1.6 0 3-.7 3.6-2l-1.5-.8c-.5.8-1.3 1.1-2.1 1.1-1.4 0-2.5-1-2.5-2.6s1-2.5 2.5-2.5c.8 0 1.6.3 2 1.1l1.6-.9c-.7-1.2-2-1.9-3.6-1.9-2.6 0-4.5 1.8-4.5 4.2 0 2.5 1.9 4.3 4.5 4.3zM615 270.1c2.6 0 4.5-1.8 4.5-4.3 0-2.4-1.9-4.2-4.5-4.2-2.5 0-4.4 1.8-4.4 4.2 0 2.5 1.9 4.3 4.4 4.3zm0-1.7c-1.4 0-2.4-1-2.4-2.6 0-1.5 1-2.5 2.4-2.5 1.5 0 2.5 1 2.5 2.5 0 1.6-1 2.6-2.5 2.6zM631.8 261.6c-1.3 0-2.4.5-3.1 1.4-.6-1-1.6-1.4-2.8-1.4-1.1 0-2.1.4-2.7 1.2v-1.1h-1.9v8.3h2v-4.2c0-1.7.8-2.5 2.1-2.5 1.2 0 1.9.7 1.9 2.2v4.5h2v-4.2c0-1.7.8-2.5 2.1-2.5 1.2 0 1.9.7 1.9 2.2v4.5h2v-4.8c0-2.5-1.5-3.6-3.5-3.6zM645.6 265.9c0-2.6-1.8-4.3-4.2-4.3a4.1 4.1 0 0 0-4.3 4.2c0 2.5 1.8 4.3 4.6 4.3 1.4 0 2.6-.5 3.3-1.3l-1-1.2a3 3 0 0 1-2.3.9c-1.4 0-2.4-.8-2.7-2h6.5v-.6zm-4.2-2.7c1.3 0 2.2.8 2.3 2H639c.2-1.2 1.1-2 2.4-2zM656.2 268.2c-.3.2-.7.3-1.1.3-.8 0-1.2-.4-1.2-1.2v-4h2.3v-1.5h-2.3v-2H652v2h-1.4v1.5h1.4v4c0 1.8 1 2.8 2.9 2.8a3 3 0 0 0 1.8-.6l-.5-1.3zM663 261.6c-1.1 0-2 .4-2.7 1v-4.1h-2V270h2v-4.2c0-1.7.9-2.5 2.3-2.5 1.2 0 2 .7 2 2.2v4.5h1.9v-4.8c0-2.5-1.5-3.6-3.5-3.6zM676.9 265.9c0-2.6-1.8-4.3-4.2-4.3a4.1 4.1 0 0 0-4.3 4.2c0 2.5 1.8 4.3 4.6 4.3 1.4 0 2.6-.5 3.3-1.3l-1-1.2a3 3 0 0 1-2.3.9c-1.4 0-2.5-.8-2.7-2h6.5v-.6zm-4.2-2.7c1.2 0 2.2.8 2.3 2h-4.7c.2-1.2 1.1-2 2.4-2zM687.7 261.6c-1.2 0-2.2.4-2.8 1.2v-1.1H683v8.3h2v-4.2c0-1.7.9-2.5 2.3-2.5 1.2 0 2 .7 2 2.2v4.5h1.9v-4.8c0-2.5-1.5-3.6-3.5-3.6zM701.5 265.9c0-2.6-1.7-4.3-4.2-4.3a4.1 4.1 0 0 0-4.2 4.2c0 2.5 1.8 4.3 4.5 4.3 1.5 0 2.6-.5 3.4-1.3l-1-1.2a3 3 0 0 1-2.3.9c-1.5 0-2.5-.8-2.7-2h6.5v-.6zm-4.2-2.7c1.3 0 2.2.8 2.4 2H695c.2-1.2 1-2 2.3-2zM710.6 270l-3.2-4.2 3.1-4.1h-2l-2.1 2.7-2-2.7h-2.2l3 4-3.2 4.3h2.2l2.1-2.9 2.2 2.9h2.1zM716.5 268.2c-.3.2-.7.3-1 .3-.8 0-1.2-.4-1.2-1.2v-4h2.2v-1.5h-2.2v-2h-2v2H711v1.5h1.3v4c0 1.8 1 2.8 2.9 2.8a3 3 0 0 0 1.9-.6l-.6-1.3zM728.2 270.2c1.8 0 3.3-.7 4.3-1.9l-1.3-1.2c-.8.9-1.8 1.3-3 1.3a3.7 3.7 0 0 1-3.8-3.8c0-2.3 1.6-3.9 3.9-3.9 1.1 0 2.1.5 2.9 1.3l1.3-1.2a5.5 5.5 0 0 0-4.3-1.8c-3.3 0-5.8 2.3-5.8 5.6 0 3.2 2.5 5.6 5.8 5.6zM737.8 270.2c3 0 4.4-1.5 4.4-3.3 0-4-6.5-2.5-6.5-4.8 0-.8.7-1.5 2.4-1.5 1 0 2 .3 3 .9l.6-1.6c-1-.6-2.3-1-3.6-1-3 0-4.4 1.6-4.4 3.3 0 4 6.5 2.5 6.5 4.9 0 .8-.7 1.4-2.4 1.4a6 6 0 0 1-3.6-1.2l-.7 1.5a7 7 0 0 0 4.3 1.4zM747.5 270.2c3 0 4.4-1.5 4.4-3.3 0-4-6.4-2.5-6.4-4.8 0-.8.7-1.5 2.3-1.5 1 0 2 .3 3 .9l.7-1.6c-1-.6-2.3-1-3.6-1-3 0-4.4 1.6-4.4 3.3 0 4 6.4 2.5 6.4 4.9 0 .8-.7 1.4-2.4 1.4a6 6 0 0 1-3.6-1.2l-.7 1.5a7 7 0 0 0 4.3 1.4zM757.3 270.2c3 0 4.4-1.5 4.4-3.3 0-4-6.4-2.5-6.4-4.8 0-.8.6-1.5 2.3-1.5 1 0 2 .3 3 .9l.7-1.6c-1-.6-2.4-1-3.7-1-3 0-4.3 1.6-4.3 3.3 0 4 6.4 2.5 6.4 4.9 0 .8-.7 1.4-2.4 1.4a6 6 0 0 1-3.6-1.2l-.7 1.5a7 7 0 0 0 4.3 1.4zM775.6 265.9c0-2.6-1.7-4.3-4.2-4.3a4.1 4.1 0 0 0-4.3 4.2c0 2.5 1.8 4.3 4.6 4.3 1.5 0 2.6-.5 3.4-1.3l-1-1.2a3 3 0 0 1-2.3.9c-1.5 0-2.5-.8-2.7-2h6.5v-.6zm-4.2-2.7c1.3 0 2.2.8 2.4 2H769c.2-1.2 1-2 2.3-2zM784.7 270l-3.2-4.2 3-4.1h-2l-2 2.7-2-2.7h-2.2l3 4-3.2 4.3h2.2l2.1-2.9 2.1 2.9h2.2zM793.7 265.9c0-2.6-1.8-4.3-4.2-4.3a4.1 4.1 0 0 0-4.3 4.2c0 2.5 1.8 4.3 4.6 4.3 1.4 0 2.6-.5 3.3-1.3l-1-1.2a3 3 0 0 1-2.3.9c-1.4 0-2.4-.8-2.7-2h6.6v-.6zm-4.2-2.7c1.3 0 2.2.8 2.3 2h-4.7c.2-1.2 1.1-2 2.4-2zM799.4 270.1c1.6 0 2.9-.7 3.5-2l-1.5-.8c-.5.8-1.2 1.1-2 1.1-1.5 0-2.6-1-2.6-2.6s1.1-2.5 2.5-2.5c.9 0 1.6.3 2.1 1.1l1.5-.9c-.6-1.2-2-1.9-3.5-1.9-2.7 0-4.5 1.8-4.5 4.2 0 2.5 1.8 4.3 4.5 4.3zM810.7 261.7v4.2c0 1.7-1 2.5-2.3 2.5-1.2 0-2-.7-2-2.2v-4.5h-1.9v4.7c0 2.5 1.5 3.7 3.6 3.7 1 0 2-.4 2.7-1.2v1.1h1.8v-8.3h-2zM819.6 268.2c-.3.2-.7.3-1 .3-.8 0-1.2-.4-1.2-1.2v-4h2.2v-1.5h-2.2v-2h-2v2h-1.3v1.5h1.3v4c0 1.8 1 2.8 2.9 2.8a3 3 0 0 0 1.9-.6l-.6-1.3zM822.7 260.3c.8 0 1.3-.5 1.3-1.2 0-.6-.5-1.1-1.3-1.1-.7 0-1.2.5-1.2 1.2 0 .6.5 1.1 1.2 1.1zm-1 9.7h2v-8.3h-2v8.3zM832.2 261.7l-2.7 6.2-2.6-6.2h-2l3.6 8.3h2l3.5-8.3h-1.8zM842.8 265.9c0-2.6-1.8-4.3-4.2-4.3a4.1 4.1 0 0 0-4.3 4.2c0 2.5 1.8 4.3 4.6 4.3 1.4 0 2.6-.5 3.3-1.3l-1-1.2a3 3 0 0 1-2.2.9c-1.5 0-2.5-.8-2.7-2h6.5v-.6zm-4.2-2.7c1.3 0 2.2.8 2.4 2h-4.7c.1-1.2 1-2 2.3-2zM846.2 266.4h2c0-1.8 2.6-2 2.6-4.6 0-1.8-1.5-2.8-3.8-2.8-2 0-3.4.7-4.2 1.9l1.5 1a3 3 0 0 1 2.5-1.3c1.2 0 2 .6 2 1.5 0 1.6-2.6 2-2.6 4.3zm1 3.7c.7 0 1.2-.5 1.2-1.2s-.5-1.2-1.3-1.2c-.7 0-1.2.5-1.2 1.2s.5 1.2 1.2 1.2zM550.3 284.1v-1.7h-8v11h2V289h5.3v-1.7h-5.2v-3.3h5.9zM552.9 283.6c.7 0 1.2-.5 1.2-1.2 0-.6-.5-1-1.2-1s-1.2.4-1.2 1c0 .7.5 1.2 1.2 1.2zm-1 9.7h2V285h-2v8.3zM556.4 281.8h2v11.5h-2zM561 281.8h1.9v11.5h-2zM573.4 293.4c2.6 0 4.4-1.7 4.4-4.2s-1.8-4.3-4.4-4.3c-2.5 0-4.4 1.8-4.4 4.3s1.9 4.2 4.4 4.2zm0-1.6c-1.4 0-2.4-1-2.4-2.6s1-2.6 2.4-2.6 2.5 1 2.5 2.6-1 2.6-2.5 2.6zM585.8 285v4.2c0 1.7-1 2.5-2.3 2.5-1.2 0-2-.7-2-2.2V285h-1.8v4.8c0 2.5 1.4 3.6 3.5 3.6 1.1 0 2-.4 2.7-1.1v1h1.8V285h-1.9zM594.7 291.5c-.3.2-.6.3-1 .3-.8 0-1.2-.4-1.2-1.2v-4h2.2v-1.5h-2.2v-2h-2v2h-1.3v1.5h1.4v4c0 1.9 1 2.8 2.8 2.8a3 3 0 0 0 1.9-.5l-.6-1.4zM604.3 285c-1.3 0-2.6.3-3.5 1l.8 1.4c.6-.6 1.6-.9 2.5-.9 1.4 0 2 .7 2 1.8v.2h-2c-2.6 0-3.5 1-3.5 2.4 0 1.5 1.2 2.5 3 2.5 1.3 0 2.2-.4 2.7-1v1h1.8v-5c0-2.3-1.4-3.5-3.8-3.5zm-.2 7c-1 0-1.6-.4-1.6-1.1 0-.6.4-1.1 1.7-1.1h2v1c-.3.8-1.2 1.2-2.1 1.2zM618.3 283.2c.4 0 .8.2 1 .4l.6-1.5c-.4-.3-1.1-.4-1.8-.4-1.9 0-3 1.1-3 2.8v.6h-1.3v1.5h1.4v6.7h2v-6.7h2.1v-1.5H617v-.5c0-1 .5-1.4 1.3-1.4zM624.2 293.4c2.6 0 4.5-1.7 4.5-4.2s-1.9-4.3-4.5-4.3c-2.5 0-4.4 1.8-4.4 4.3s1.9 4.2 4.4 4.2zm0-1.6c-1.4 0-2.4-1-2.4-2.6s1-2.6 2.4-2.6c1.5 0 2.5 1 2.5 2.6s-1 2.6-2.5 2.6zM632.4 286.2V285h-1.9v8.3h2v-4c0-1.7 1-2.6 2.4-2.6h.4V285c-1.3 0-2.3.5-3 1.3zM647.5 285c-1.4 0-2.5.5-3.1 1.3-.6-1-1.6-1.4-2.8-1.4-1.2 0-2.1.4-2.8 1.2v-1H637v8.2h2v-4.2c0-1.6.8-2.5 2.1-2.5 1.2 0 1.9.7 1.9 2.2v4.5h1.9v-4.2c0-1.6.9-2.5 2.2-2.5 1.1 0 1.8.7 1.8 2.2v4.5h2v-4.7c0-2.5-1.4-3.7-3.4-3.7zM662.3 285c-1.1 0-2 .3-2.7 1v-4.2h-2v11.5h1.9v-1c.7.7 1.6 1.1 2.8 1.1a4 4 0 0 0 4.2-4.2 4 4 0 0 0-4.2-4.3zm-.3 6.8c-1.4 0-2.4-1-2.4-2.6s1-2.6 2.4-2.6 2.5 1 2.5 2.6-1 2.6-2.5 2.6zM674 285l-2.6 6.2-2.6-6.2h-2l3.6 8.3-.2.4c-.4.8-.8 1.1-1.4 1.1-.6 0-1.1-.2-1.5-.6l-.8 1.5c.6.5 1.4.7 2.3.7 1.3 0 2.4-.5 3.2-2.4l3.9-9h-2zM693.5 293.3v-10.9h-1.7l-4.3 7.2-4.3-7.2h-1.7v11h2v-7.2l3.5 5.9h1l3.5-6v7.2h2zM699.4 285c-1.4 0-2.7.3-3.5 1l.7 1.4c.6-.6 1.6-.9 2.5-.9 1.4 0 2.1.7 2.1 1.8v.2h-2.1c-2.6 0-3.5 1-3.5 2.4 0 1.5 1.2 2.5 3.1 2.5 1.2 0 2.1-.4 2.6-1v1h1.8v-5c0-2.3-1.3-3.5-3.7-3.5zm-.3 7c-1 0-1.6-.4-1.6-1.1 0-.6.4-1.1 1.7-1.1h2v1c-.3.8-1.1 1.2-2 1.2zM707.5 286.2V285h-1.9v8.3h2v-4c0-1.7 1-2.6 2.4-2.6h.4V285c-1.3 0-2.4.5-3 1.3zM715.8 293.4c1.6 0 3-.7 3.6-2l-1.5-.8c-.5.8-1.3 1.2-2.1 1.2-1.4 0-2.5-1-2.5-2.6s1-2.6 2.5-2.6c.8 0 1.6.3 2 1.1l1.6-.9c-.7-1.2-2-1.9-3.6-1.9-2.6 0-4.5 1.8-4.5 4.3s1.9 4.2 4.5 4.2zM725.7 285c-1.2 0-2.2.3-2.8 1v-4.2h-2v11.5h2v-4.2c0-1.6 1-2.5 2.3-2.5 1.3 0 2 .7 2 2.2v4.5h2v-4.7c0-2.5-1.5-3.7-3.5-3.7zM734.8 282.4v1.7h2.3v9.2h2v-10.9h-4.3zM744.6 286.6h-1l.2-2.5h4.7v-1.7h-6.4l-.5 6h2.6c2.2 0 3 .6 3 1.7 0 1-1 1.6-2.4 1.6-1.2 0-2.4-.4-3.2-1l-.8 1.5c1 .8 2.5 1.3 4 1.3 3 0 4.3-1.6 4.3-3.5 0-2-1.2-3.4-4.5-3.4zM759.6 291.5c-.3.2-.6.3-1 .3-.8 0-1.2-.4-1.2-1.2v-4h2.2v-1.5h-2.2v-2h-2v2h-1.3v1.5h1.4v4c0 1.9 1 2.8 2.8 2.8a3 3 0 0 0 1.9-.5l-.6-1.4zM765.2 293.4c2.6 0 4.5-1.7 4.5-4.2s-1.9-4.3-4.5-4.3c-2.5 0-4.4 1.8-4.4 4.3s1.9 4.2 4.4 4.2zm0-1.6c-1.4 0-2.4-1-2.4-2.6s1-2.6 2.4-2.6 2.5 1 2.5 2.6-1 2.6-2.5 2.6zM779 285c-1.3 0-2.6.3-3.5 1l.7 1.4c.7-.6 1.6-.9 2.6-.9 1.3 0 2 .7 2 1.8v.2h-2.1c-2.5 0-3.5 1-3.5 2.4 0 1.5 1.2 2.5 3.1 2.5 1.3 0 2.2-.4 2.6-1v1h1.9v-5c0-2.3-1.4-3.5-3.8-3.5zm-.3 7c-1 0-1.6-.4-1.6-1.1 0-.6.4-1.1 1.7-1.1h2v1c-.3.8-1.1 1.2-2 1.2zM789.9 285c-1.2 0-2.1.3-2.8 1.1v-1h-1.8v11.2h1.9v-4c.7.8 1.6 1.1 2.7 1.1a4 4 0 0 0 4.2-4.2 4 4 0 0 0-4.2-4.3zm-.3 6.8c-1.4 0-2.4-1-2.4-2.6s1-2.6 2.4-2.6 2.5 1 2.5 2.6-1 2.6-2.5 2.6zM800.5 285c-1.1 0-2 .3-2.7 1.1v-1h-1.9v11.2h2v-4c.6.8 1.6 1.1 2.6 1.1a4 4 0 0 0 4.2-4.2 4 4 0 0 0-4.2-4.3zm-.2 6.8c-1.4 0-2.5-1-2.5-2.6s1.1-2.6 2.5-2.6 2.5 1 2.5 2.6-1.1 2.6-2.5 2.6zM806.6 281.8h2v11.5h-2zM817 285l-2.6 6.2-2.7-6.2h-2l3.6 8.3-.1.4c-.4.8-.8 1.1-1.5 1.1-.5 0-1-.2-1.4-.6l-.8 1.5c.6.5 1.4.7 2.3.7 1.3 0 2.4-.5 3.2-2.4l3.8-9H817zM820.2 289.7h1.5l.4-7.3h-2.3l.4 7.3zm.8 3.7c.7 0 1.2-.5 1.2-1.2s-.5-1.2-1.2-1.2c-.8 0-1.3.5-1.3 1.2s.5 1.2 1.3 1.2z"/></g><path fill="#fff" fill-rule="nonzero" d="M583.2 373.7l-2.3 6.1-2.2-6.1H577l-2.2 6-2.2-6h-1.9l3 8.3h2l2.1-5.8 2.2 5.8h1.8l3-8.3h-1.6zM597.3 373.7l-2.3 6.1-2.2-6.1h-1.6l-2.3 6-2.2-6h-1.8l3 8.3h1.9l2.1-5.8 2.2 5.8h1.9l3-8.3h-1.7zM611.4 373.7l-2.2 6.1-2.3-6.1h-1.6l-2.3 6-2.2-6H599l3 8.3h1.9l2.2-5.8 2.1 5.8h1.9l3-8.3h-1.7zM614.6 382c.7 0 1.3-.5 1.3-1.2 0-.8-.6-1.3-1.3-1.3-.7 0-1.3.5-1.3 1.3 0 .7.6 1.3 1.3 1.3zM623.7 373.7v4.2c0 1.6-1 2.5-2.3 2.5-1.2 0-2-.8-2-2.3v-4.4h-1.8v4.7c0 2.5 1.4 3.7 3.5 3.7 1.1 0 2-.4 2.7-1.2v1h1.8v-8.2h-1.9zM632.8 373.6c-1 0-2 .3-2.7 1v-4.2h-1.9V382h1.8v-1.1c.7.8 1.7 1.2 2.8 1.2a4 4 0 0 0 4.2-4.3 4 4 0 0 0-4.2-4.2zm-.2 6.8c-1.4 0-2.5-1-2.5-2.6s1-2.6 2.5-2.6c1.4 0 2.4 1 2.4 2.6s-1 2.6-2.4 2.6zM642.7 382c1.6 0 2.9-.6 3.5-1.9l-1.5-.8c-.5.8-1.2 1.1-2 1.1-1.5 0-2.6-1-2.6-2.6s1.1-2.6 2.6-2.6c.8 0 1.5.4 2 1.2l1.5-.9c-.6-1.3-2-2-3.5-2-2.7 0-4.5 1.8-4.5 4.3s1.8 4.3 4.5 4.3zM651.6 382c1.6 0 2.9-.6 3.5-1.9l-1.5-.8c-.5.8-1.2 1.1-2 1.1-1.5 0-2.6-1-2.6-2.6s1.1-2.6 2.6-2.6c.8 0 1.5.4 2 1.2l1.5-.9c-.6-1.3-2-2-3.5-2-2.7 0-4.5 1.8-4.5 4.3s1.8 4.3 4.5 4.3zM659.4 382c2.3 0 3.7-1 3.7-2.5 0-3.2-5.1-1.7-5.1-3.4 0-.6.6-1 1.7-1 .8 0 1.6.2 2.4.7l.8-1.5c-.8-.5-2-.7-3.1-.7-2.3 0-3.7 1-3.7 2.6 0 3.3 5.1 1.8 5.1 3.4 0 .5-.5.9-1.7.9-1 0-2.2-.4-2.9-.8l-.7 1.4c.7.6 2 1 3.5 1zM667.4 382c2.3 0 3.7-1 3.7-2.5 0-3.2-5.1-1.7-5.1-3.4 0-.6.6-1 1.7-1 .8 0 1.6.2 2.4.7l.8-1.5c-.8-.5-2-.7-3.1-.7-2.3 0-3.7 1-3.7 2.6 0 3.3 5.1 1.8 5.1 3.4 0 .5-.5.9-1.7.9-1 0-2.2-.4-2.9-.8l-.7 1.4c.7.6 2 1 3.5 1zM675.4 382c2.3 0 3.7-1 3.7-2.5 0-3.2-5-1.7-5-3.4 0-.6.5-1 1.6-1 .8 0 1.6.2 2.4.7l.8-1.5c-.8-.5-2-.7-3.1-.7-2.3 0-3.7 1-3.7 2.6 0 3.3 5.1 1.8 5.1 3.4 0 .5-.5.9-1.7.9-1 0-2.2-.4-2.9-.8l-.7 1.4c.7.6 2 1 3.5 1zM681.4 382c.7 0 1.3-.5 1.3-1.2 0-.8-.6-1.3-1.3-1.3-.7 0-1.2.5-1.2 1.3 0 .7.5 1.3 1.2 1.3zM688.2 382c2.6 0 4.4-1.7 4.4-4.2s-1.8-4.2-4.4-4.2c-2.6 0-4.4 1.7-4.4 4.2s1.8 4.3 4.4 4.3zm0-1.6c-1.4 0-2.5-1-2.5-2.6s1-2.6 2.5-2.6c1.4 0 2.5 1 2.5 2.6s-1.1 2.6-2.5 2.6zM696.3 374.9v-1.2h-1.8v8.3h2v-4c0-1.8.9-2.6 2.3-2.6h.5v-1.8c-1.4 0-2.4.4-3 1.3zM707.2 373.7v1a3.6 3.6 0 0 0-2.8-1.1c-2.4 0-4.2 1.6-4.2 4s1.8 4 4.2 4c1 0 2-.4 2.7-1.1v.4c0 1.7-.8 2.5-2.6 2.5a5 5 0 0 1-3-1l-1 1.5c1 .8 2.6 1.2 4.1 1.2 3 0 4.5-1.4 4.5-4.4v-7h-1.9zm-2.5 6.2c-1.5 0-2.6-1-2.6-2.3 0-1.4 1-2.4 2.6-2.4 1.4 0 2.5 1 2.5 2.4s-1 2.3-2.5 2.3zM709.9 383.5h1.7l5.2-14.6H715l-5.1 14.6zM721.1 373.6c-1.2 0-2.2.4-2.9 1.1v-1h-1.8v8.3h2v-4.2c0-1.7.9-2.5 2.3-2.5 1.2 0 2 .7 2 2.2v4.5h1.9v-4.8c0-2.5-1.5-3.6-3.5-3.6zM730.9 382c2.5 0 4.4-1.7 4.4-4.2s-1.9-4.2-4.4-4.2c-2.6 0-4.5 1.7-4.5 4.2s1.9 4.3 4.5 4.3zm0-1.6c-1.4 0-2.5-1-2.5-2.6s1-2.6 2.5-2.6c1.4 0 2.4 1 2.4 2.6s-1 2.6-2.4 2.6zM747.6 373.6c-1.3 0-2.4.5-3 1.4-.7-1-1.7-1.4-2.9-1.4-1.1 0-2 .4-2.7 1.1v-1h-1.9v8.3h2v-4.2c0-1.7.9-2.5 2.2-2.5 1.1 0 1.8.7 1.8 2.2v4.5h2v-4.2c0-1.7.8-2.5 2.1-2.5 1.2 0 1.9.7 1.9 2.2v4.5h2v-4.8c0-2.5-1.5-3.6-3.5-3.6zM754.5 372.3c.7 0 1.2-.5 1.2-1.2s-.5-1.1-1.2-1.1-1.2.5-1.2 1.1c0 .7.5 1.2 1.2 1.2zm-1 9.7h2v-8.3h-2v8.3zM762.7 373.6c-1.2 0-2.2.4-2.8 1.1v-1H758v8.3h2v-4.2c0-1.7.9-2.5 2.3-2.5 1.2 0 2 .7 2 2.2v4.5h1.9v-4.8c0-2.5-1.5-3.6-3.5-3.6zM771.8 373.6c-1.3 0-2.6.3-3.5 1l.8 1.4c.6-.5 1.6-.8 2.5-.8 1.4 0 2 .7 2 1.8v.1h-2c-2.6 0-3.5 1.1-3.5 2.5s1.2 2.5 3 2.5c1.3 0 2.2-.4 2.7-1.1v1h1.8V377c0-2.4-1.4-3.5-3.8-3.5zm-.2 7c-1 0-1.6-.4-1.6-1 0-.7.3-1.2 1.7-1.2h2v1c-.4.8-1.2 1.3-2.1 1.3zM782.5 380.1c-.3.3-.6.4-1 .4-.8 0-1.2-.5-1.2-1.3v-4h2.2v-1.5h-2.2v-1.9h-2v2H777v1.5h1.4v4c0 1.8 1 2.8 2.8 2.8a3 3 0 0 0 1.9-.6l-.6-1.4zM792.2 377.9c0-2.6-1.8-4.3-4.2-4.3a4.1 4.1 0 0 0-4.3 4.2c0 2.5 1.8 4.3 4.6 4.3 1.4 0 2.6-.5 3.3-1.4l-1-1.2a3 3 0 0 1-2.2 1c-1.5 0-2.5-.9-2.7-2h6.5v-.6zM788 375c1.3 0 2.2.8 2.4 2h-4.8c.2-1.2 1.2-2 2.4-2z"/></svg>