<svg xmlns="http://www.w3.org/2000/svg" viewBox="0 0 924 939"><path fill="#535659" d="M659 863V711l45-76 220-127v202L659 863z"/><path fill="#757779" d="M923 203l-87 304-352-203L571 0l352 203z"/><path fill="#e4e4e6" d="M609 47l264 152-81 283-264-153 81-282z"/><path fill="#e4e4e6" d="M586 60l264 153-81 282-264-152 81-283z"/><path fill="#f0f0f1" d="M609 47l-23 12 264 154 23-14"/><path fill="#ced0d5" d="M769 495l81-283 23-13-81 283-23 13z"/><path fill="#777c80" d="M880 483L440 228 264 330l440 254 176-101z"/><path fill="#717e8d" d="M880 483L704 584 264 330l176-102 440 255zM272 330l432 249 168-96-432-250-168 97z"/><path fill="#e9ebee" d="M176 330l220-127 44 25-176 102 439 254 176-102 44 26-219 127-528-305z"/><path fill="#73767a" d="M176 330l-44 76 527 305 45-76-528-305z"/><path fill="#dde0e3" d="M154 368l22 63 439 254 66-13 23-37-528-305-22 38z"/><path fill="#454441" d="M352 508l131 76 22-38-131-77-22 39z"/><path fill="#797d80" d="M0 787l264 152 88-51 44 26 175-102v-51L264 584 44 711l44 25-88 51z"/><path fill="#ccd0d5" d="M264 914v-26l264-152 21 13-285 165z"/><path fill="#e2e4e7" d="M264 914L44 787v-26l220 127v26z"/><path fill="#edeff1" d="M528 736L308 609 44 761l220 127 264-152z"/><path fill="#63676b" d="M220 609l-88-51V406l527 305v152l-87-51-1-51-351-203v51z"/><path fill="#545759" d="M220 609v-51l44 26-44 25z"/></svg>