<svg xmlns="http://www.w3.org/2000/svg" fill-rule="evenodd" stroke-linejoin="round" stroke-miterlimit="1.4" clip-rule="evenodd" viewBox="0 0 1917 958">
  <path fill="#fff" d="M0 0h1917v958H0z"/>
  <path fill="#f6f6f6" fill-rule="nonzero" d="M485.1 194.1a62.3 62.3 0 0 1-46-18.8c-12.1-13.1-17.8-31.3-17.8-54 0-23 5.7-41.2 17.8-54.2a60.2 60.2 0 0 1 46.2-18.2c9 .5 18.4 1.9 25.6 4.7h.1c7.8 3.1 14.7 7.7 20.4 13.9a83 83 0 0 1 17.7 54.3c0 22.4-5.7 40.5-17.4 53.6a62.3 62.3 0 0 1-46.6 18.7zm295.4-19.8zM464 90.3v.1c-5.4 6.8-8.4 17-8.4 31.3a54 54 0 0 0 8.3 31c5.3 6.7 12.2 10 21.3 10 9.4.2 16.6-4.3 21-9.9 5.4-6.8 8.4-17 8.4-31.1 0-14.3-3-24.5-8.3-31.3a24.7 24.7 0 0 0-21-10.3A26.2 26.2 0 0 0 464 90.4zm377.3 67zM464 152.8zm342.5-.2zm18.4 41.5a55.8 55.8 0 0 1-44.4-19.8c-11.3-13.4-16.6-31.3-16.6-53.2 0-22.1 5.5-40.1 17-53.3 11-14 29.2-18.2 43.8-18.9 9.9.2 15.9 1.1 22.4 3.3 6.3 2 12 5 16.8 8.8A58.5 58.5 0 0 1 883 97.5l-34.5 6.3a42 42 0 0 0-10-18.4v-.1c-3.5-3.3-7.7-5-13.2-5-9.2.2-14.4 4.6-18 9.4-5.1 7-8 17.4-8 31.4-.1 10.8 2 23 7.2 31.5 4.5 6.8 10.2 9.9 17.6 9.9 8.5 0 14-2 17.3-5.2 5.4-6.4 5.5-11.4 5.5-18.8h35.4c-1.2 38.1-23 54.8-57.4 55.6zm-451-95.6c0-5.4-1.7-9.2-4.6-12-2.8-2.8-7.3-4.6-14.5-4.6h-19.4v33h17.2c8 0 13.2-1.8 16.3-4.5 3.2-3 5-6.8 5-11.9zm-125 10.6c2.7-2.8 4.1-6.4 4.1-11.2 0-4.5-1.2-8-3.4-10.7a19.6 19.6 0 0 0-13.8-5.3h-17v31.6h17c6.5 0 10.5-1.7 13-4.3l.1-.1zm558.4-19.5zm31.1-4.3l.1.1v-.1zM273.2 63.5h.1zM863.8 61zm-16.7-8.8zM689.3 81.9v24.2h56.2v30.4h-56.2v24.2h60v30.6h-93.6V51.5h93.6v30.4h-60zm-57.7 64.7c-1.6 28.1-11.5 46.8-42.2 47.5a117 117 0 0 1-37.8-10.1v-35.3c10.8 6.4 23.7 12.3 34.8 12.4 9.2.3 11.3-8 11.4-15.2V51.5h33.8v95.1zM956.3 82v109.4h-33.6V81.9h-40.2V51.5h114v30.4h-40.2zM218.8 191.3H185V51.5h50.8c15.4 0 28.1 3.8 37.5 12A43 43 0 0 1 287.4 98c0 14-5.5 26.6-14.1 34.4a55.4 55.4 0 0 1-37.5 11.8h-17v47.2zm83-139.8h53c16 0 29.5 3.9 39.2 12.2a40.5 40.5 0 0 1 14.2 32.6v.5c0 10-3 18.8-8.9 26.2l-.3.4a43.1 43.1 0 0 1-18.2 12.8l36.3 55.1h-43l-28.6-50.6h-10v50.6h-33.7V51.5z"/>
  <path fill="#f6f6f6" fill-rule="nonzero" d="M485.1 801.4a62.3 62.3 0 0 1-46-18.9c-12.1-13-17.8-31.3-17.8-54 0-22.8 5.7-41.2 17.8-54.1a60.2 60.2 0 0 1 46.2-18.2c9 .5 18.4 1.9 25.6 4.7h.1c7.8 3 14.7 7.7 20.4 13.9A83 83 0 0 1 549 729c0 22.4-5.7 40.5-17.4 53.5a62.3 62.3 0 0 1-46.6 18.8zm295.4-19.8zm-316.4-84c-5.4 6.9-8.4 17-8.4 31.4a54 54 0 0 0 8.3 31c5.3 6.7 12.2 10 21.3 10 9.4.2 16.6-4.3 21-9.9 5.4-6.8 8.4-17 8.4-31.1 0-14.3-3-24.5-8.3-31.3v-.1a24.7 24.7 0 0 0-21-10.2 26.2 26.2 0 0 0-21.3 10.2zm377.3 67zM464 760zm342.5-.3zm18.4 41.6a55.8 55.8 0 0 1-44.4-19.8c-11.3-13.4-16.6-31.4-16.6-53.2 0-22.2 5.5-40.1 17-53.3 11-14 29.2-18.3 43.8-19 9.9.2 15.9 1.2 22.4 3.3 6.3 2 12 5 16.8 8.9a58.5 58.5 0 0 1 19.1 36.5l-34.5 6.3a42 42 0 0 0-10-18.4v-.1c-3.5-3.3-7.7-5-13.2-5-9.2.2-14.4 4.6-18 9.3-5.1 7.1-8 17.4-8 31.5-.1 10.8 2 23 7.2 31.4 4.5 6.9 10.2 10 17.6 10 8.5 0 14-2 17.3-5.2 5.4-6.4 5.5-11.4 5.5-18.8h35.4c-1.2 38-23 54.7-57.4 55.6zm-451-95.6c0-5.5-1.7-9.3-4.6-12-2.8-2.8-7.3-4.6-14.5-4.6h-19.4v33h17.2c8 0 13.2-1.8 16.3-4.6 3.2-3 5-6.7 5-11.8zm-125 10.6c2.7-2.8 4.1-6.4 4.1-11.2 0-4.6-1.2-8-3.4-10.7a19.6 19.6 0 0 0-13.8-5.3h-17v31.6h17c6.5 0 10.5-1.7 13-4.3l.1-.1zm558.4-19.5zm31.1-4.3h.1zm-565.2-21.8h.1zm590.6-2.5zm-16.7-8.9zm-157.8 29.8v24.2h56.2v30.4h-56.2V768h60v30.6h-93.6V658.8h93.6v30.4h-60zm-57.7 64.7c-1.6 28.1-11.5 46.8-42.2 47.5a117 117 0 0 1-37.8-10.2V756c10.8 6.3 23.7 12.2 34.8 12.4 9.2.3 11.3-8 11.4-15.2v-94.4h33.8v95.1zm324.7-64.7v109.4h-33.6V689.2h-40.2v-30.4h114v30.4h-40.2zM218.8 798.6H185V658.8h50.8c15.4 0 28.1 3.8 37.5 12a43 43 0 0 1 14.1 34.4c0 14-5.5 26.5-14.1 34.3a55.4 55.4 0 0 1-37.5 11.9h-17v47.2zm83-139.8h53c16 0 29.5 3.8 39.2 12.2a40.5 40.5 0 0 1 14.2 32.6v.5c0 10-3 18.8-8.9 26.2l-.3.3a43 43 0 0 1-18.2 13l36.3 55h-43L345.5 748h-10v50.6h-33.7V658.8zM1368.1 193.8a62.3 62.3 0 0 1-46-18.8c-12.1-13.1-17.8-31.3-17.8-54 0-23 5.7-41.2 17.8-54.2a60.2 60.2 0 0 1 46.2-18.2c9 .5 18.4 1.9 25.6 4.7h.1c7.8 3.1 14.7 7.7 20.4 13.9a83 83 0 0 1 17.7 54.3c0 22.4-5.7 40.5-17.4 53.6a62.3 62.3 0 0 1-46.6 18.7zm295.4-19.8zM1347 90v.1c-5.4 6.8-8.4 17-8.4 31.3a54 54 0 0 0 8.3 31c5.3 6.7 12.2 10 21.3 10 9.4.2 16.6-4.3 21-9.9 5.4-6.8 8.4-17 8.4-31.1 0-14.3-3-24.5-8.3-31.3a24.7 24.7 0 0 0-21-10.3 26.2 26.2 0 0 0-21.3 10.3zm377.3 67zm-377.4-4.5zm342.5-.2zm18.4 41.5a55.8 55.8 0 0 1-44.4-19.8c-11.3-13.4-16.6-31.3-16.6-53.2 0-22.1 5.5-40.1 17-53.3 11-14 29.2-18.2 43.8-18.9 9.9.1 15.9 1.1 22.4 3.2 6.3 2 12 5 16.8 9a58.5 58.5 0 0 1 19.1 36.4l-34.6 6.3a42 42 0 0 0-9.9-18.4V85c-3.5-3.3-7.7-5-13.2-5-9.2.2-14.4 4.6-18 9.4-5.1 7-8 17.4-8 31.4-.1 10.8 2 23 7.2 31.5 4.5 6.8 10.2 9.9 17.6 9.9 8.5 0 14-2 17.3-5.2 5.4-6.4 5.5-11.4 5.5-18.8h35.4c-1.2 38-23 54.8-57.4 55.6zm-451-95.6c0-5.4-1.7-9.2-4.6-12-2.8-2.8-7.3-4.6-14.5-4.6h-19.4v33h17.2c8 0 13.2-1.8 16.3-4.5 3.2-3 5-6.8 5-11.9zm-125 10.6c2.7-2.8 4.1-6.4 4.1-11.2 0-4.5-1.2-8-3.4-10.7a19.6 19.6 0 0 0-13.8-5.3h-17v31.6h17c6.5 0 10.5-1.7 13-4.3l.1-.1zm558.4-19.5zm31.1-4.3h.1zm-565.2-21.8h.1zm590.6-2.5zm-16.7-8.9zm-157.8 29.8v24.2h56.2v30.4h-56.2v24.2h60V191h-93.6V51.2h93.6v30.4h-60zm-57.7 64.7c-1.6 28.1-11.5 46.8-42.2 47.5a117 117 0 0 1-37.8-10.1v-35.3c10.8 6.4 23.7 12.3 34.8 12.4 9.2.3 11.3-8 11.4-15.2V51.2h33.8v95.1zm324.7-64.7V191h-33.6V81.6h-40.2V51.2h114v30.4h-40.2zM1101.8 191H1068V51.2h50.8c15.4 0 28.1 3.8 37.5 12a43 43 0 0 1 14.1 34.4c0 14-5.5 26.6-14.1 34.4a55.4 55.4 0 0 1-37.5 11.8h-17V191zm83-139.8h53c16 0 29.5 3.8 39.2 12.2a40.5 40.5 0 0 1 14.2 32.6v.5c0 10-3 18.8-8.9 26.2l-.3.4a43.1 43.1 0 0 1-18.2 12.8l36.3 55.1h-43l-28.6-50.6h-10V191h-33.7V51.2z"/>
  <path fill="#f6f6f6" fill-rule="nonzero" d="M1368.1 193.8a62.3 62.3 0 0 1-46-18.8c-12.1-13.1-17.8-31.3-17.8-54 0-23 5.7-41.2 17.8-54.2a60.2 60.2 0 0 1 46.2-18.2c9 .5 18.4 1.9 25.6 4.7h.1c7.8 3.1 14.7 7.7 20.4 13.9a83 83 0 0 1 17.7 54.3c0 22.4-5.7 40.5-17.4 53.6a62.3 62.3 0 0 1-46.6 18.7zm295.4-19.8zM1347 90v.1c-5.4 6.8-8.4 17-8.4 31.3a54 54 0 0 0 8.3 31c5.3 6.7 12.2 10 21.3 10 9.4.2 16.6-4.3 21-9.9 5.4-6.8 8.4-17 8.4-31.1 0-14.3-3-24.5-8.3-31.3a24.7 24.7 0 0 0-21-10.3 26.2 26.2 0 0 0-21.3 10.3zm377.3 67zm-377.4-4.5zm342.5-.2zm18.4 41.5a55.8 55.8 0 0 1-44.4-19.8c-11.3-13.4-16.6-31.3-16.6-53.2 0-22.1 5.5-40.1 17-53.3 11-14 29.2-18.2 43.8-18.9 9.9.1 15.9 1.1 22.4 3.2 6.3 2 12 5 16.8 9a58.5 58.5 0 0 1 19.1 36.4l-34.6 6.3a42 42 0 0 0-9.9-18.4V85c-3.5-3.3-7.7-5-13.2-5-9.2.2-14.4 4.6-18 9.4-5.1 7-8 17.4-8 31.4-.1 10.8 2 23 7.2 31.5 4.5 6.8 10.2 9.9 17.6 9.9 8.5 0 14-2 17.3-5.2 5.4-6.4 5.5-11.4 5.5-18.8h35.4c-1.2 38-23 54.8-57.4 55.6zm-451-95.6c0-5.4-1.7-9.2-4.6-12-2.8-2.8-7.3-4.6-14.5-4.6h-19.4v33h17.2c8 0 13.2-1.8 16.3-4.5 3.2-3 5-6.8 5-11.9zm-125 10.6c2.7-2.8 4.1-6.4 4.1-11.2 0-4.5-1.2-8-3.4-10.7a19.6 19.6 0 0 0-13.8-5.3h-17v31.6h17c6.5 0 10.5-1.7 13-4.3l.1-.1zm558.4-19.5zm31.1-4.3h.1zm-565.2-21.8h.1zm590.6-2.5zm-16.7-8.9zm-157.8 29.8v24.2h56.2v30.4h-56.2v24.2h60V191h-93.6V51.2h93.6v30.4h-60zm-57.7 64.7c-1.6 28.1-11.5 46.8-42.2 47.5a117 117 0 0 1-37.8-10.1v-35.3c10.8 6.4 23.7 12.3 34.8 12.4 9.2.3 11.3-8 11.4-15.2V51.2h33.8v95.1zm324.7-64.7V191h-33.6V81.6h-40.2V51.2h114v30.4h-40.2zM1101.8 191H1068V51.2h50.8c15.4 0 28.1 3.8 37.5 12a43 43 0 0 1 14.1 34.4c0 14-5.5 26.6-14.1 34.4a55.4 55.4 0 0 1-37.5 11.8h-17V191zm83-139.8h53c16 0 29.5 3.8 39.2 12.2a40.5 40.5 0 0 1 14.2 32.6v.5c0 10-3 18.8-8.9 26.2l-.3.4a43.1 43.1 0 0 1-18.2 12.8l36.3 55.1h-43l-28.6-50.6h-10V191h-33.7V51.2zM1368.1 396.8a62.3 62.3 0 0 1-46-18.8c-12.1-13.1-17.8-31.3-17.8-54 0-23 5.7-41.2 17.8-54.2a60.2 60.2 0 0 1 46.2-18.2c9 .5 18.4 1.9 25.6 4.7h.1c7.8 3.1 14.7 7.7 20.4 13.9a83 83 0 0 1 17.7 54.3c0 22.4-5.7 40.5-17.4 53.6a62.3 62.3 0 0 1-46.6 18.7zm295.4-19.8zM1347 293v.1c-5.4 6.8-8.4 17-8.4 31.3a54 54 0 0 0 8.3 31c5.3 6.7 12.2 10 21.3 10 9.4.2 16.6-4.3 21-9.9 5.4-6.8 8.4-17 8.4-31.1 0-14.3-3-24.5-8.3-31.3a24.7 24.7 0 0 0-21-10.3 26.2 26.2 0 0 0-21.3 10.3zm377.3 67zm-377.4-4.5zm342.5-.2zm18.4 41.5a55.8 55.8 0 0 1-44.4-19.8c-11.3-13.4-16.6-31.3-16.6-53.2 0-22.1 5.5-40.1 17-53.3 11-14 29.2-18.2 43.8-18.9 9.9.1 15.9 1.1 22.4 3.2 6.3 2 12 5 16.8 9a58.5 58.5 0 0 1 19.1 36.4l-34.6 6.3a42 42 0 0 0-9.9-18.4v-.1c-3.5-3.3-7.7-5-13.2-5-9.2.2-14.4 4.6-18 9.4-5.1 7-8 17.4-8 31.4-.1 10.8 2 23 7.2 31.5 4.5 6.8 10.2 9.9 17.6 9.9 8.5 0 14-2 17.3-5.2 5.4-6.4 5.5-11.4 5.5-18.8h35.4c-1.2 38-23 54.8-57.4 55.6zm-451-95.6c0-5.4-1.7-9.2-4.6-12-2.8-2.8-7.3-4.6-14.5-4.6h-19.4v33h17.2c8 0 13.2-1.8 16.3-4.5 3.2-3 5-6.8 5-11.9zm-125 10.6c2.7-2.8 4.1-6.4 4.1-11.2 0-4.5-1.2-8-3.4-10.7a19.6 19.6 0 0 0-13.8-5.3h-17v31.6h17c6.5 0 10.5-1.7 13-4.3l.1-.1zm558.4-19.5zm31.1-4.3h.1zm-565.2-21.8h.1zm590.6-2.5zm-16.7-8.9zm-157.8 29.8v24.2h56.2v30.4h-56.2v24.2h60V394h-93.6V254.2h93.6v30.4h-60zm-57.7 64.7c-1.6 28.1-11.5 46.8-42.2 47.5a117 117 0 0 1-37.8-10.1v-35.3c10.8 6.4 23.7 12.3 34.8 12.4 9.2.3 11.3-8 11.4-15.2v-94.4h33.8v95.1zm324.7-64.7V394h-33.6V284.6h-40.2v-30.4h114v30.4h-40.2zM1101.8 394H1068V254.2h50.8c15.4 0 28.1 3.8 37.5 12a43 43 0 0 1 14.1 34.4c0 14-5.5 26.6-14.1 34.4a55.4 55.4 0 0 1-37.5 11.8h-17V394zm83-139.8h53c16 0 29.5 3.8 39.2 12.2a40.5 40.5 0 0 1 14.2 32.6v.5c0 10-3 18.8-8.9 26.2l-.3.4a43.1 43.1 0 0 1-18.2 12.8l36.3 55.1h-43l-28.6-50.6h-10V394h-33.7V254.2zM1368.1 599.8a62.3 62.3 0 0 1-46-18.8c-12.1-13.1-17.8-31.3-17.8-54 0-23 5.7-41.2 17.8-54.2a60.2 60.2 0 0 1 46.2-18.2c9 .5 18.4 1.9 25.6 4.7h.1c7.8 3.1 14.7 7.7 20.4 13.9a83 83 0 0 1 17.7 54.3c0 22.4-5.7 40.5-17.4 53.6a62.3 62.3 0 0 1-46.6 18.7zm295.4-19.8zM1347 496v.1c-5.4 6.8-8.4 17-8.4 31.3a54 54 0 0 0 8.3 31c5.3 6.7 12.2 10 21.3 10 9.4.2 16.6-4.3 21-9.9 5.4-6.8 8.4-17 8.4-31.1 0-14.3-3-24.5-8.3-31.3a24.7 24.7 0 0 0-21-10.3 26.2 26.2 0 0 0-21.3 10.3zm377.3 67zm-377.4-4.5zm342.5-.2zm18.4 41.5a55.8 55.8 0 0 1-44.4-19.8c-11.3-13.4-16.6-31.3-16.6-53.2 0-22.1 5.5-40.1 17-53.3 11-14 29.2-18.2 43.8-18.9 9.9.1 15.9 1.1 22.4 3.2 6.3 2 12 5 16.8 9a58.5 58.5 0 0 1 19.1 36.4l-34.6 6.3a42 42 0 0 0-9.9-18.4v-.1c-3.5-3.3-7.7-5-13.2-5-9.2.2-14.4 4.6-18 9.4-5.1 7-8 17.4-8 31.4-.1 10.8 2 23 7.2 31.5 4.5 6.8 10.2 9.9 17.6 9.9 8.5 0 14-2 17.3-5.2 5.4-6.4 5.5-11.4 5.5-18.8h35.4c-1.2 38-23 54.8-57.4 55.6zm-451-95.6c0-5.4-1.7-9.2-4.6-12-2.8-2.8-7.3-4.6-14.5-4.6h-19.4v33h17.2c8 0 13.2-1.8 16.3-4.5 3.2-3 5-6.8 5-11.9zm-125 10.6c2.7-2.8 4.1-6.4 4.1-11.2 0-4.5-1.2-8-3.4-10.7a19.6 19.6 0 0 0-13.8-5.3h-17v31.6h17c6.5 0 10.5-1.7 13-4.3l.1-.1zm558.4-19.5zm31.1-4.3h.1zm-565.2-21.8h.1zm590.6-2.5zm-16.7-8.9zm-157.8 29.8v24.2h56.2v30.4h-56.2v24.2h60V597h-93.6V457.2h93.6v30.4h-60zm-57.7 64.7c-1.6 28.1-11.5 46.8-42.2 47.5a117 117 0 0 1-37.8-10.1v-35.3c10.8 6.4 23.7 12.3 34.8 12.4 9.2.3 11.3-8 11.4-15.2v-94.4h33.8v95.1zm324.7-64.7V597h-33.6V487.6h-40.2v-30.4h114v30.4h-40.2zM1101.8 597H1068V457.2h50.8c15.4 0 28.1 3.8 37.5 12a43 43 0 0 1 14.1 34.4c0 14-5.5 26.6-14.1 34.4a55.4 55.4 0 0 1-37.5 11.8h-17V597zm83-139.8h53c16 0 29.5 3.8 39.2 12.2a40.5 40.5 0 0 1 14.2 32.6v.5c0 10-3 18.8-8.9 26.2l-.3.4a43.1 43.1 0 0 1-18.2 12.8l36.3 55.1h-43l-28.6-50.6h-10V597h-33.7V457.2zM1368.1 802.8a62.3 62.3 0 0 1-46-18.8c-12.1-13.1-17.8-31.3-17.8-54 0-23 5.7-41.2 17.8-54.2a60.2 60.2 0 0 1 46.2-18.2c9 .5 18.4 1.9 25.6 4.7h.1c7.8 3.1 14.7 7.7 20.4 13.9a83 83 0 0 1 17.7 54.3c0 22.4-5.7 40.5-17.4 53.6a62.3 62.3 0 0 1-46.6 18.7zm295.4-19.8zM1347 699v.1c-5.4 6.8-8.4 17-8.4 31.3a54 54 0 0 0 8.3 31c5.3 6.7 12.2 10 21.3 10 9.4.2 16.6-4.3 21-9.9 5.4-6.8 8.4-17 8.4-31.1 0-14.3-3-24.5-8.3-31.3a24.7 24.7 0 0 0-21-10.3 26.2 26.2 0 0 0-21.3 10.3zm377.3 67zm-377.4-4.5zm342.5-.2zm18.4 41.5a55.8 55.8 0 0 1-44.4-19.8c-11.3-13.4-16.6-31.3-16.6-53.2 0-22.1 5.5-40.1 17-53.3 11-14 29.2-18.2 43.8-18.9 9.9.1 15.9 1.1 22.4 3.2 6.3 2 12 5 16.8 9a58.5 58.5 0 0 1 19.1 36.4l-34.6 6.3a42 42 0 0 0-9.9-18.4v-.1c-3.5-3.3-7.7-5-13.2-5-9.2.2-14.4 4.6-18 9.4-5.1 7-8 17.4-8 31.4-.1 10.8 2 23 7.2 31.5 4.5 6.8 10.2 9.9 17.6 9.9 8.5 0 14-2 17.3-5.2 5.4-6.4 5.5-11.4 5.5-18.8h35.4c-1.2 38-23 54.8-57.4 55.6zm-451-95.6c0-5.4-1.7-9.2-4.6-12-2.8-2.8-7.3-4.6-14.5-4.6h-19.4v33h17.2c8 0 13.2-1.8 16.3-4.5 3.2-3 5-6.8 5-11.9zm-125 10.6c2.7-2.8 4.1-6.4 4.1-11.2 0-4.5-1.2-8-3.4-10.7a19.6 19.6 0 0 0-13.8-5.3h-17v31.6h17c6.5 0 10.5-1.7 13-4.3l.1-.1zm558.4-19.5zm31.1-4.3h.1zm-565.2-21.8h.1zm590.6-2.5zm-16.7-8.9zm-157.8 29.8v24.2h56.2v30.4h-56.2v24.2h60V800h-93.6V660.2h93.6v30.4h-60zm-57.7 64.7c-1.6 28.1-11.5 46.8-42.2 47.5a117 117 0 0 1-37.8-10.1v-35.3c10.8 6.4 23.7 12.3 34.8 12.4 9.2.3 11.3-8 11.4-15.2v-94.4h33.8v95.1zm324.7-64.7V800h-33.6V690.6h-40.2v-30.4h114v30.4h-40.2zM1101.8 800H1068V660.2h50.8c15.4 0 28.1 3.8 37.5 12a43 43 0 0 1 14.1 34.4c0 14-5.5 26.6-14.1 34.4a55.4 55.4 0 0 1-37.5 11.8h-17V800zm83-139.8h53c16 0 29.5 3.8 39.2 12.2a40.5 40.5 0 0 1 14.2 32.6v.5c0 10-3 18.8-8.9 26.2l-.3.4a43.1 43.1 0 0 1-18.2 12.8l36.3 55.1h-43l-28.6-50.6h-10V800h-33.7V660.2zM1368.1 1005.8a62.3 62.3 0 0 1-46-18.8c-12.1-13.1-17.8-31.3-17.8-54 0-23 5.7-41.2 17.8-54.2a60.2 60.2 0 0 1 46.2-18.2c9 .5 18.4 1.9 25.6 4.7h.1c7.8 3.1 14.7 7.7 20.4 13.9a83 83 0 0 1 17.7 54.3c0 22.4-5.7 40.5-17.4 53.6a62.3 62.3 0 0 1-46.6 18.7zm295.4-19.8zM1347 902v.1c-5.4 6.8-8.4 17-8.4 31.3a54 54 0 0 0 8.3 31.1c5.3 6.6 12.2 9.9 21.3 9.9 9.4.2 16.6-4.3 21-9.9 5.4-6.8 8.4-17 8.4-31.1 0-14.3-3-24.5-8.3-31.3a24.7 24.7 0 0 0-21-10.3 26.2 26.2 0 0 0-21.3 10.3zm377.3 67zm-377.4-4.5zm342.5-.2zm18.4 41.5a55.8 55.8 0 0 1-44.4-19.8c-11.3-13.4-16.6-31.3-16.6-53.2 0-22.1 5.5-40.1 17-53.3 11-14 29.2-18.2 43.8-18.9 9.9.2 15.9 1.1 22.4 3.3 6.3 2 12 5 16.8 8.8a58.5 58.5 0 0 1 19.1 36.5l-34.6 6.3a42 42 0 0 0-9.9-18.4v-.1c-3.5-3.3-7.7-5-13.2-5-9.2.2-14.4 4.6-18 9.4-5.1 7-8 17.4-8 31.4-.1 10.8 2 23 7.2 31.5 4.5 6.8 10.2 9.9 17.6 9.9 8.5 0 14-2 17.3-5.2 5.4-6.4 5.5-11.4 5.5-18.8h35.4c-1.2 38.1-23 54.8-57.4 55.6zm-451-95.6c0-5.4-1.7-9.2-4.6-12-2.8-2.8-7.3-4.6-14.5-4.6h-19.4v33h17.2c8 0 13.2-1.8 16.3-4.5 3.2-3 5-6.8 5-11.9zm-125 10.6c2.7-2.8 4.1-6.4 4.1-11.2 0-4.5-1.2-8-3.4-10.7a19.6 19.6 0 0 0-13.8-5.3h-17v31.6h17c6.5 0 10.5-1.7 13-4.3l.1-.1zm558.4-19.5zm31.1-4.3l.1.1v-.1zm-565.2-21.8h.1zm590.6-2.5zm-16.7-8.8zm-157.8 29.7v24.2h56.2v30.4h-56.2v24.2h60v30.6h-93.6V863.2h93.6v30.4h-60zm-57.7 64.7c-1.6 28.1-11.5 46.8-42.2 47.5a117 117 0 0 1-37.8-10.1v-35.3c10.8 6.4 23.7 12.3 34.8 12.4 9.2.3 11.3-8 11.4-15.2v-94.4h33.8v95.1zm324.7-64.7V1003h-33.6V893.6h-40.2v-30.4h114v30.4h-40.2zM1101.8 1003H1068V863.2h50.8c15.4 0 28.1 3.8 37.5 12a43 43 0 0 1 14.1 34.4c0 14-5.5 26.6-14.1 34.4a55.4 55.4 0 0 1-37.5 11.8h-17v47.2zm83-139.8h53c16 0 29.5 3.9 39.2 12.2a40.5 40.5 0 0 1 14.2 32.6v.5c0 10-3 18.8-8.9 26.2l-.3.4a43.1 43.1 0 0 1-18.2 12.8l36.3 55.1h-43l-28.6-50.6h-10v50.6h-33.7V863.2zM485.1 1005.8a62.3 62.3 0 0 1-46-18.8c-12.1-13.1-17.8-31.3-17.8-54 0-23 5.7-41.2 17.8-54.2a60.2 60.2 0 0 1 46.2-18.2c9 .5 18.4 1.9 25.6 4.7h.1c7.8 3.1 14.7 7.7 20.4 13.9a83 83 0 0 1 17.7 54.3c0 22.4-5.7 40.5-17.4 53.6a62.3 62.3 0 0 1-46.6 18.7zM780.5 986zM464 902v.1c-5.4 6.8-8.4 17-8.4 31.3a54 54 0 0 0 8.3 31.1c5.3 6.6 12.2 9.9 21.3 9.9 9.4.2 16.6-4.3 21-9.9 5.4-6.8 8.4-17 8.4-31.1 0-14.3-3-24.5-8.3-31.3a24.7 24.7 0 0 0-21-10.3 26.2 26.2 0 0 0-21.3 10.3zm377.3 67zM464 964.5zm342.5-.2zm18.4 41.5a55.8 55.8 0 0 1-44.4-19.8c-11.3-13.4-16.6-31.3-16.6-53.2 0-22.1 5.5-40.1 17-53.3 11-14 29.2-18.2 43.8-18.9 9.9.2 15.9 1.1 22.4 3.3 6.3 2 12 5 16.8 8.8a58.5 58.5 0 0 1 19.1 36.5l-34.5 6.3a42 42 0 0 0-10-18.4v-.1c-3.5-3.3-7.7-5-13.2-5-9.2.2-14.4 4.6-18 9.4-5.1 7-8 17.4-8 31.4-.1 10.8 2 23 7.2 31.5 4.5 6.8 10.2 9.9 17.6 9.9 8.5 0 14-2 17.3-5.2 5.4-6.4 5.5-11.4 5.5-18.8h35.4c-1.2 38.1-23 54.8-57.4 55.6zm-451-95.6c0-5.4-1.7-9.2-4.6-12-2.8-2.8-7.3-4.6-14.5-4.6h-19.4v33h17.2c8 0 13.2-1.8 16.3-4.5 3.2-3 5-6.8 5-11.9zm-125 10.6c2.7-2.8 4.1-6.4 4.1-11.2 0-4.5-1.2-8-3.4-10.7a19.6 19.6 0 0 0-13.8-5.3h-17v31.6h17c6.5 0 10.5-1.7 13-4.3l.1-.1zm558.4-19.5zm31.1-4.3l.1.1v-.1zm-565.2-21.8h.1zm590.6-2.5zm-16.7-8.8zm-157.8 29.7v24.2h56.2v30.4h-56.2v24.2h60v30.6h-93.6V863.2h93.6v30.4h-60zm-57.7 64.7c-1.6 28.1-11.5 46.8-42.2 47.5a117 117 0 0 1-37.8-10.1v-35.3c10.8 6.4 23.7 12.3 34.8 12.4 9.2.3 11.3-8 11.4-15.2v-94.4h33.8v95.1zm324.7-64.7V1003h-33.6V893.6h-40.2v-30.4h114v30.4h-40.2zM218.8 1003H185V863.2h50.8c15.4 0 28.1 3.8 37.5 12a43 43 0 0 1 14.1 34.4c0 14-5.5 26.6-14.1 34.4a55.4 55.4 0 0 1-37.5 11.8h-17v47.2zm83-139.8h53c16 0 29.5 3.9 39.2 12.2a40.5 40.5 0 0 1 14.2 32.6v.5c0 10-3 18.8-8.9 26.2l-.3.4a43.1 43.1 0 0 1-18.2 12.8l36.3 55.1h-43l-28.6-50.6h-10v50.6h-33.7V863.2z"/>
  <path fill="url(#_Linear1)" fill-rule="nonzero" d="M91 99l964 119.4V845L91 730V99z"/>
  <clipPath id="a">
    <path d="M91 99l964 119.4V845L91 730V99z" clip-rule="nonzero"/>
  </clipPath>
  <g fill-rule="nonzero" clip-path="url(#a)">
    <path fill="url(#_Linear3)" d="M91 99h964v746H91z"/>
    <path fill="url(#_Linear4)" style="mix-blend-mode: overlay" d="M312.5 399.4c33 130.2 112.8 323.2 259.6 431C762.6 970.2 1055 845 1055 845V218.4l-769.6-97.2S270 232 312.5 399.4z"/>
    <g fill="#fff">
      <path d="M949.5 554.6c0-3.7-1.2-6.4-3.6-8.4h-.1v-.1c-2.2-2-6.1-3.5-12.9-3.5h-23.4v23.8H933c7.2 0 11-1.5 13-3.3h.1c2.3-2 3.5-4.7 3.5-8.5zm27-21.6zm-.8-14.6v.1zm-30.5-9.9c2.3-2 3.5-4.7 3.5-8.5 0-4-1.3-6.8-3.6-8.8h-.1v-.1c-2.3-2-6-3.5-12.5-3.5h-23V512h22.8c6.5 0 10.4-1.4 12.8-3.4v-.1zm24.7-40v.1zm-339.7 42.9h46.6v-54.2h33.6V597h-33.6v-55h-46.6v55h-33.6V457.2h33.6v54.2zM769.4 543s2.6 16 6.3 19.2a26.2 26.2 0 0 0 17.7 5.8c7.6 0 13.3-2 17.5-5.8 0 0 6.5-9.4 6.5-19.2v-85.8H851v86.2c0 17.2-4.9 31.2-15 41.3l-.3.3c-10.4 10-24.7 14.8-42.3 14.8h-.4a58.1 58.1 0 0 1-41.9-14.8c-10.4-10.3-15.3-24.5-15.3-42v-85.8h33.6V543zM876 457.2h57.4c15.1 0 27.6 3.6 36.6 11.4 8.6 7.2 13 16.7 13 28v.4c0 8.1-2.4 15.4-7.2 21.4 0 0-5 5.5-8 7.5a37 37 0 0 1 8.9 7.1c5.8 6.1 8.5 14 8.5 23v.4c0 8.7-2.3 16.4-6.9 22.7a42.2 42.2 0 0 1-20.2 14.4c-6.7 2.4-15 3.5-24.5 3.5H876V457.2z"/>
      <path d="M485.1 396.8a62.3 62.3 0 0 1-46-18.8c-12.1-13.1-17.8-31.3-17.8-54 0-23 5.7-41.2 17.8-54.2a60.2 60.2 0 0 1 46.2-18.2c9 .5 18.4 1.9 25.6 4.7h.1c7.8 3.1 14.7 7.7 20.4 13.9a83 83 0 0 1 17.7 54.3c0 22.4-5.7 40.5-17.4 53.6a62.3 62.3 0 0 1-46.6 18.7zM780.5 377zM464 293v.1c-5.4 6.8-8.4 17-8.4 31.3a54 54 0 0 0 8.3 31c5.3 6.7 12.2 10 21.3 10 9.4.2 16.6-4.3 21-9.9 5.4-6.8 8.4-17 8.4-31.1 0-14.3-3-24.5-8.3-31.3a24.7 24.7 0 0 0-21-10.3 26.2 26.2 0 0 0-21.3 10.3zm377.3 67zM464 355.5zm342.5-.2zm18.4 41.5a55.8 55.8 0 0 1-44.4-19.8c-11.3-13.4-16.6-31.3-16.6-53.2 0-22.1 5.5-40.1 17-53.3 11-14 29.2-18.2 43.8-18.9 9.9.1 15.9 1.1 22.4 3.2 6.3 2 12 5 16.8 9a58.5 58.5 0 0 1 19.1 36.4l-34.5 6.3a42 42 0 0 0-10-18.4v-.1c-3.5-3.3-7.7-5-13.2-5-9.2.2-14.4 4.6-18 9.4-5.1 7-8 17.4-8 31.4-.1 10.8 2 23 7.2 31.5 4.5 6.8 10.2 9.9 17.6 9.9 8.5 0 14-2 17.3-5.2 5.4-6.4 5.5-11.4 5.5-18.8h35.4c-1.2 38-23 54.8-57.4 55.6zm-451-95.6c0-5.4-1.7-9.2-4.6-12-2.8-2.8-7.3-4.6-14.5-4.6h-19.4v33h17.2c8 0 13.2-1.8 16.3-4.5 3.2-3 5-6.8 5-11.9zm-125 10.6c2.7-2.8 4.1-6.4 4.1-11.2 0-4.5-1.2-8-3.4-10.7a19.6 19.6 0 0 0-13.8-5.3h-17v31.6h17c6.5 0 10.5-1.7 13-4.3l.1-.1zm558.4-19.5zm31.1-4.3h.1zm-565.2-21.8h.1zm590.6-2.5zm-16.7-8.9zm-157.8 29.8v24.2h56.2v30.4h-56.2v24.2h60V394h-93.6V254.2h93.6v30.4h-60zm-57.7 64.7c-1.6 28.1-11.5 46.8-42.2 47.5a117 117 0 0 1-37.8-10.1v-35.3c10.8 6.4 23.7 12.3 34.8 12.4 9.2.3 11.3-8 11.4-15.2v-94.4h33.8v95.1zm324.7-64.7V394h-33.6V284.6h-40.2v-30.4h114v30.4h-40.2zM218.8 394H185V254.2h50.8c15.4 0 28.1 3.8 37.5 12a43 43 0 0 1 14.1 34.4c0 14-5.5 26.6-14.1 34.4a55.4 55.4 0 0 1-37.5 11.8h-17V394zm83-139.8h53c16 0 29.5 3.8 39.2 12.2a40.5 40.5 0 0 1 14.2 32.6v.5c0 10-3 18.8-8.9 26.2l-.3.4a43.1 43.1 0 0 1-18.2 12.8l36.3 55.1h-43l-28.6-50.6h-10V394h-33.7V254.2z"/>
    </g>
    <path fill="#fff" d="M485.1 194.1a62.3 62.3 0 0 1-46-18.8c-12.1-13.1-17.8-31.3-17.8-54 0-23 5.7-41.2 17.8-54.2a60.2 60.2 0 0 1 46.2-18.2c9 .5 18.4 1.9 25.6 4.7h.1c7.8 3.1 14.7 7.7 20.4 13.9a83 83 0 0 1 17.7 54.3c0 22.4-5.7 40.5-17.4 53.6a62.3 62.3 0 0 1-46.6 18.7zm295.4-19.8zM464 90.3v.1c-5.4 6.8-8.4 17-8.4 31.3a54 54 0 0 0 8.3 31c5.3 6.7 12.2 10 21.3 10 9.4.2 16.6-4.3 21-9.9 5.4-6.8 8.4-17 8.4-31.1 0-14.3-3-24.5-8.3-31.3a24.7 24.7 0 0 0-21-10.3A26.2 26.2 0 0 0 464 90.4zm377.3 67zM464 152.8zm342.5-.2zm18.4 41.5a55.8 55.8 0 0 1-44.4-19.8c-11.3-13.4-16.6-31.3-16.6-53.2 0-22.1 5.5-40.1 17-53.3 11-14 29.2-18.2 43.8-18.9 9.9.2 15.9 1.1 22.4 3.3 6.3 2 12 5 16.8 8.8A58.5 58.5 0 0 1 883 97.5l-34.5 6.3a42 42 0 0 0-10-18.4v-.1c-3.5-3.3-7.7-5-13.2-5-9.2.2-14.4 4.6-18 9.4-5.1 7-8 17.4-8 31.4-.1 10.8 2 23 7.2 31.5 4.5 6.8 10.2 9.9 17.6 9.9 8.5 0 14-2 17.3-5.2 5.4-6.4 5.5-11.4 5.5-18.8h35.4c-1.2 38.1-23 54.8-57.4 55.6zm-451-95.6c0-5.4-1.7-9.2-4.6-12-2.8-2.8-7.3-4.6-14.5-4.6h-19.4v33h17.2c8 0 13.2-1.8 16.3-4.5 3.2-3 5-6.8 5-11.9zm-125 10.6c2.7-2.8 4.1-6.4 4.1-11.2 0-4.5-1.2-8-3.4-10.7a19.6 19.6 0 0 0-13.8-5.3h-17v31.6h17c6.5 0 10.5-1.7 13-4.3l.1-.1zm558.4-19.5zm31.1-4.3l.1.1v-.1zM273.2 63.5h.1zM863.8 61zm-16.7-8.8zM689.3 81.9v24.2h56.2v30.4h-56.2v24.2h60v30.6h-93.6V51.5h93.6v30.4h-60zm-57.7 64.7c-1.6 28.1-11.5 46.8-42.2 47.5a117 117 0 0 1-37.8-10.1v-35.3c10.8 6.4 23.7 12.3 34.8 12.4 9.2.3 11.3-8 11.4-15.2V51.5h33.8v95.1zM956.3 82v109.4h-33.6V81.9h-40.2V51.5h114v30.4h-40.2zM218.8 191.3H185V51.5h50.8c15.4 0 28.1 3.8 37.5 12A43 43 0 0 1 287.4 98c0 14-5.5 26.6-14.1 34.4a55.4 55.4 0 0 1-37.5 11.8h-17v47.2zm83-139.8h53c16 0 29.5 3.9 39.2 12.2a40.5 40.5 0 0 1 14.2 32.6v.5c0 10-3 18.8-8.9 26.2l-.3.4a43.1 43.1 0 0 1-18.2 12.8l36.3 55.1h-43l-28.6-50.6h-10v50.6h-33.7V51.5zM485.1 801.4a62.3 62.3 0 0 1-46-18.9c-12.1-13-17.8-31.3-17.8-54 0-22.8 5.7-41.2 17.8-54.1a60.2 60.2 0 0 1 46.2-18.2c9 .5 18.4 1.9 25.6 4.7h.1c7.8 3 14.7 7.7 20.4 13.9A83 83 0 0 1 549 729c0 22.4-5.7 40.5-17.4 53.5a62.3 62.3 0 0 1-46.6 18.8zm295.4-19.8zm-316.4-84c-5.4 6.9-8.4 17-8.4 31.4a54 54 0 0 0 8.3 31c5.3 6.7 12.2 10 21.3 10 9.4.2 16.6-4.3 21-9.9 5.4-6.8 8.4-17 8.4-31.1 0-14.3-3-24.5-8.3-31.3v-.1a24.7 24.7 0 0 0-21-10.2 26.2 26.2 0 0 0-21.3 10.2zm377.3 67zM464 760zm342.5-.3zm18.4 41.6a55.8 55.8 0 0 1-44.4-19.8c-11.3-13.4-16.6-31.4-16.6-53.2 0-22.2 5.5-40.1 17-53.3 11-14 29.2-18.3 43.8-19 9.9.2 15.9 1.2 22.4 3.3 6.3 2 12 5 16.8 8.9a58.5 58.5 0 0 1 19.1 36.5l-34.5 6.3a42 42 0 0 0-10-18.4v-.1c-3.5-3.3-7.7-5-13.2-5-9.2.2-14.4 4.6-18 9.3-5.1 7.1-8 17.4-8 31.5-.1 10.8 2 23 7.2 31.4 4.5 6.9 10.2 10 17.6 10 8.5 0 14-2 17.3-5.2 5.4-6.4 5.5-11.4 5.5-18.8h35.4c-1.2 38-23 54.7-57.4 55.6zm-451-95.6c0-5.5-1.7-9.3-4.6-12-2.8-2.8-7.3-4.6-14.5-4.6h-19.4v33h17.2c8 0 13.2-1.8 16.3-4.6 3.2-3 5-6.7 5-11.8zm-125 10.6c2.7-2.8 4.1-6.4 4.1-11.2 0-4.6-1.2-8-3.4-10.7a19.6 19.6 0 0 0-13.8-5.3h-17v31.6h17c6.5 0 10.5-1.7 13-4.3l.1-.1zm558.4-19.5zm31.1-4.3h.1zm-565.2-21.8h.1zm590.6-2.5zm-16.7-8.9zm-157.8 29.8v24.2h56.2v30.4h-56.2V768h60v30.6h-93.6V658.8h93.6v30.4h-60zm-57.7 64.7c-1.6 28.1-11.5 46.8-42.2 47.5a117 117 0 0 1-37.8-10.2V756c10.8 6.3 23.7 12.2 34.8 12.4 9.2.3 11.3-8 11.4-15.2v-94.4h33.8v95.1zm324.7-64.7v109.4h-33.6V689.2h-40.2v-30.4h114v30.4h-40.2zM218.8 798.6H185V658.8h50.8c15.4 0 28.1 3.8 37.5 12a43 43 0 0 1 14.1 34.4c0 14-5.5 26.5-14.1 34.3a55.4 55.4 0 0 1-37.5 11.9h-17v47.2zm83-139.8h53c16 0 29.5 3.8 39.2 12.2a40.5 40.5 0 0 1 14.2 32.6v.5c0 10-3 18.8-8.9 26.2l-.3.3a43 43 0 0 1-18.2 13l36.3 55h-43L345.5 748h-10v50.6h-33.7V658.8z" style="mix-blend-mode: overlay"/>
  </g>
  <g fill-rule="nonzero">
    <path fill="#212121" d="M1540.2 684a1 1 0 0 0-1 1c0 .6.4 1 1 1s1-.4 1-1c0-.5-.4-1-1-1zm-63.8.3v4.7a3.6 3.6 0 0 0-3.2-1.4 4.1 4.1 0 0 0-4 4.1v.4c0 2.3 1.8 4.1 4 4.1h.2c1.2 0 2.3-.4 3-1.4v1.3h1.5v-11.8h-1.5zm-23.6 1.6v1.8h-1.5v1.3h1.5v4.6c0 1.7 1 2.6 2.6 2.6a3 3 0 0 0 1.9-.5l-.5-1.2c-.3.3-.7.4-1.2.4-.8 0-1.3-.5-1.3-1.4V689h2.4v-1.3h-2.4v-1.8h-1.5zm48.8 0v1.8h-1.4v1.3h1.4v4.6c0 1.7 1 2.6 2.7 2.6a3 3 0 0 0 1.8-.5l-.5-1.2c-.3.3-.7.4-1.2.4-.8 0-1.3-.5-1.3-1.4V689h2.4v-1.3h-2.4v-1.8h-1.5zm52.2 0v1.8h-1.4v1.3h1.4v4.6c0 1.7 1 2.6 2.7 2.6a3 3 0 0 0 1.8-.5l-.4-1.2c-.3.3-.8.4-1.2.4-.9 0-1.4-.5-1.4-1.4V689h2.5v-1.3h-2.4v-1.8h-1.6zm-106.5 1.7c-2.2 0-3.5 1-3.5 2.6 0 3.3 5.3 1.7 5.3 3.6 0 .7-.6 1.1-2 1.1-1 0-2-.3-3-.9l-.6 1.2c.7.6 2 1 3.5 1 2.2 0 3.6-1 3.6-2.5 0-3.2-5.3-1.6-5.3-3.6 0-.7.6-1.2 2-1.2.8 0 1.6.2 2.4.7l.7-1.2c-1-.5-2-.8-3.1-.8zm37 0h-.2a4.1 4.1 0 0 0-4.1 4.2v.1c0 2.5 1.8 4.3 4.5 4.3 1.4 0 2.6-.4 3.4-1.3l-.9-1c-.6.7-1.5 1-2.4 1-1.7 0-2.9-1-3-2.5h6.8v-.4c0-2.6-1.7-4.4-4.2-4.4zm10.7 0c-1.3 0-2.4.5-3 1.4v-1.3h-1.5v8.4h1.5v-4.3c0-1.8 1-2.8 2.7-2.8 1.5 0 2.3.8 2.3 2.5v4.6h1.5v-4.8c0-2.5-1.4-3.7-3.5-3.7zm20 0c-2.2 0-3.6 1-3.6 2.6 0 3.3 5.4 1.7 5.4 3.6 0 .7-.6 1.1-2 1.1-1 0-2.1-.3-3-.9l-.6 1.2c.7.6 2 1 3.5 1 2.2 0 3.6-1 3.6-2.5 0-3.2-5.3-1.6-5.3-3.6 0-.7.6-1.2 2-1.2.8 0 1.6.2 2.4.7l.6-1.2c-1-.5-2-.8-3-.8zm8.8 0c-2.5 0-4.4 1.8-4.4 4.3s1.9 4.3 4.4 4.3h.2c2.3 0 4.2-1.9 4.2-4.2v-.2a4.2 4.2 0 0 0-4.4-4.2zm10.2 0c-2.6 0-4.5 1.8-4.5 4.3s1.9 4.3 4.5 4.3c1.5 0 2.8-.6 3.4-1.8l-1.1-.7c-.5.8-1.4 1.2-2.3 1.2-1.7 0-3-1.1-3-3 0-1.8 1.3-3 3-3 1 0 1.7.4 2.3 1.3l1.1-.8c-.6-1.2-1.9-1.8-3.4-1.8zm13.3 0h-.1a4.2 4.2 0 0 0-4.1 4.2v.1c0 2.5 1.8 4.3 4.5 4.3 1.4 0 2.6-.4 3.3-1.3l-.8-1c-.6.7-1.5 1-2.4 1-1.7 0-2.9-1-3.1-2.5h6.9v-.4c0-2.6-1.7-4.4-4.2-4.4zm-88.2.1v4.9c0 2.4 1.4 3.6 3.6 3.6 1.2 0 2.2-.5 2.9-1.3v1.2h1.4v-8.4h-1.5v4.4c0 1.8-1 2.8-2.6 2.8-1.5 0-2.3-.9-2.3-2.5v-4.7h-1.5zm80.3 0v8.4h1.5v-8.4h-1.5zm19.1 0l3.8 8.4-.3.6c-.4 1-.9 1.3-1.6 1.3-.6 0-1-.2-1.5-.6l-.7 1.2c.6.5 1.4.7 2.2.7 1.3 0 2.3-.5 3-2.3l4.1-9.3h-1.5l-3 6.8-2.8-6.8h-1.6zm-74.3 1.2c1.4 0 2.6 1 2.7 2.4h-5.4a2.6 2.6 0 0 1 2.7-2.4zm63.1 0c1.4 0 2.6 1 2.7 2.4h-5.4a2.6 2.6 0 0 1 2.7-2.4zm-73.8 0c1.6 0 2.9 1.2 2.9 3s-1.3 3-2.9 3c-1.6 0-2.8-1.2-2.8-3s1.2-3 2.8-3zm50.3 0c1.7 0 2.9 1.2 2.9 3s-1.2 3-2.9 3c-1.6 0-2.8-1.2-2.8-3s1.2-3 2.8-3zM1546.5 669a1 1 0 0 0-1 1c0 .5.4 1 1 1s1-.5 1-1.1c0-.5-.4-1-1-1zm-44.5 1.7v1.8h-1.4v1.3h1.4v4.6c0 1.7 1 2.7 2.7 2.7a3 3 0 0 0 1.9-.6l-.5-1.1c-.3.3-.8.4-1.2.4-.9 0-1.3-.5-1.3-1.4v-4.6h2.4v-1.3h-2.4v-1.8h-1.5zm-54 1.8c-2.6 0-4.5 1.7-4.5 4.3 0 2.5 1.9 4.3 4.5 4.3 1.5 0 2.7-.7 3.4-1.8l-1.2-.8c-.5.8-1.4 1.3-2.3 1.2-1.6 0-2.9-1.1-2.9-3 0-1.7 1.3-2.9 3-2.9.9 0 1.7.4 2.2 1.2l1.2-.7c-.7-1.2-2-1.8-3.4-1.8zm8.9 0c-2.6 0-4.4 1.7-4.4 4.3a4.2 4.2 0 0 0 4.5 4.3c2.3 0 4.2-2 4.2-4.2v-.3c0-2.3-1.9-4.1-4.1-4.1h-.2zm10.8 0c-1.2 0-2.3.4-2.9 1.3v-1.3h-1.4v8.5h1.5v-4.4c0-1.8 1-2.8 2.5-2.8 1.4 0 2.2.8 2.2 2.5v4.7h1.5v-4.4c0-1.8 1-2.8 2.6-2.8 1.3 0 2.1.8 2.1 2.5v4.7h1.6V676c0-2.5-1.4-3.6-3.5-3.6-1.3-.1-2.5.5-3.2 1.5-.6-1-1.7-1.5-3-1.5zm17 0c-1.3 0-2.4.4-3 1.4v-1.4h-1.5v11.6h1.5v-4.4c.7.9 1.8 1.4 3 1.4 2.4 0 4.2-1.7 4.2-4.3v-.2a4.1 4.1 0 0 0-4.2-4.1zm26.9 0h-.1a4.2 4.2 0 0 0-4.2 4.3c0 2.5 1.9 4.3 4.6 4.3 1.2 0 2.5-.5 3.3-1.4l-.8-1c-.7.7-1.5 1-2.5 1-1.6 0-2.8-1-3-2.4h6.8v-.5c0-2.6-1.7-4.3-4.1-4.3zm10.8 0c-1.5 0-2.5.5-3 1.5v-1.5h-1.5v8.5h1.5v-4.2c0-1.9 1-2.9 2.7-2.9h.3v-1.4zm9 0c-2.2 0-3.5 1-3.5 2.5 0 3.4 5.3 1.7 5.3 3.6 0 .7-.6 1.2-2 1.2-1 0-2-.3-3-1l-.6 1.3c.7.5 2.1 1 3.5 1 2.2 0 3.7-1 3.7-2.5 0-3.3-5.4-1.7-5.4-3.7 0-.6.7-1.1 2-1.1.8 0 1.7.1 2.4.6l.7-1.2c-1-.5-2-.8-3-.7zm9 0c-2.7 0-4.5 1.7-4.5 4.3 0 2.5 1.8 4.3 4.4 4.3 1.5 0 2.8-.7 3.5-1.8l-1.2-.8c-.5.8-1.4 1.3-2.3 1.2-1.6 0-2.9-1.1-2.9-3 0-1.7 1.3-2.9 3-2.9.8 0 1.7.4 2.2 1.2l1.2-.7c-.7-1.2-2-1.8-3.5-1.8zm13.2 0a4.2 4.2 0 0 0-4.2 4.3c0 2.5 1.8 4.3 4.6 4.3 1.4 0 2.5-.5 3.3-1.4l-.9-1c-.6.7-1.5 1-2.4 1-1.7 0-2.9-1-3-2.4h6.8v-.5c0-2.6-1.7-4.3-4.2-4.3zm10.8 0c-1.3 0-2.4.5-3 1.3v-1.3h-1.5v8.5h1.6v-4.4c0-1.8 1-2.8 2.6-2.8 1.5 0 2.3.8 2.3 2.5v4.7h1.6V676c0-2.5-1.5-3.6-3.5-3.6zm10.1 0c-2.6 0-4.4 1.7-4.4 4.3 0 2.5 1.8 4.3 4.4 4.3 1.5 0 2.8-.7 3.5-1.8l-1.2-.8c-.5.8-1.4 1.3-2.3 1.2-1.7 0-3-1.1-3-3 0-1.7 1.3-2.9 3-2.9 1 0 1.7.4 2.3 1.2l1.2-.7c-.7-1.2-2-1.8-3.5-1.8zm8.8 0h-.2a4.2 4.2 0 0 0-4.1 4.1v.2c0 2.5 1.8 4.3 4.6 4.3 1.4 0 2.5-.5 3.3-1.4l-.9-1c-.6.7-1.5 1-2.4 1-1.7 0-2.9-1-3-2.4h6.8v-.5c0-2.6-1.7-4.3-4.2-4.3zm-92.3 0v5c0 2.4 1.4 3.6 3.6 3.6 1.2 0 2.2-.5 2.9-1.4v1.3h1.4v-8.5h-1.5v4.4c0 1.8-1 2.8-2.6 2.8-1.5 0-2.3-.8-2.3-2.5v-4.7h-1.5zm54.8 0v8.5h1.5v-8.5h-1.5zm-34.2 1.3c1.4 0 2.6 1 2.7 2.4h-5.4a2.6 2.6 0 0 1 2.7-2.4zm42 0c1.4 0 2.6 1 2.8 2.4h-5.5a2.6 2.6 0 0 1 2.7-2.4zm29.7 0c1.4 0 2.6 1 2.7 2.4h-5.5a2.6 2.6 0 0 1 2.7-2.4zm-126.4 0c1.6 0 2.8 1.2 2.8 3s-1.2 3-2.9 3c-1.6 0-2.8-1.2-2.8-3s1.2-3 2.9-3zm27.6 0c1.6 0 2.9 1.2 2.9 3s-1.3 3-2.9 3c-1.6 0-2.8-1.2-2.8-3s1.2-3 2.8-3zM1459.9 665.4c5 0 9.3-1.8 12.1-5.1l-3.6-3.5c-2.1 2.3-5.1 3.7-8.2 3.6-6.4 0-11-4.4-11-10.7 0-6.4 4.6-10.8 11-10.8 3 0 6 1.2 8.2 3.6l3.6-3.5a15.5 15.5 0 0 0-12-5.1c-9.5 0-16.5 6.6-16.5 15.8 0 9.1 7 15.7 16.4 15.7zm82 0c8.4 0 12.4-4.2 12.4-9 0-11.3-18.2-7.1-18.2-13.6 0-2.3 2-4.2 6.7-4.2 2.7 0 5.7.8 8.4 2.4l1.8-4.4a19.4 19.4 0 0 0-10.2-2.7c-8.4 0-12.3 4.2-12.3 9.1 0 11.4 18.2 7 18.2 13.7 0 2.3-2 4-6.8 4a17 17 0 0 1-10-3.4l-2 4.4c2.5 2.2 7.3 3.7 12 3.7zm-55 0c8.3 0 12.3-4.2 12.3-9 0-11.3-18.2-7.1-18.2-13.6 0-2.3 2-4.2 6.7-4.2 2.7 0 5.7.8 8.5 2.4l1.8-4.4a19.4 19.4 0 0 0-10.2-2.7c-8.4 0-12.4 4.2-12.4 9.1 0 11.4 18.2 7 18.2 13.7 0 2.3-2 4-6.8 4a17 17 0 0 1-10-3.4l-2 4.4c2.5 2.2 7.3 3.7 12 3.7zm27.5 0c8.4 0 12.4-4.2 12.4-9 0-11.3-18.2-7.1-18.2-13.6 0-2.3 2-4.2 6.7-4.2 2.6 0 5.7.8 8.4 2.4l1.8-4.4a19.4 19.4 0 0 0-10.2-2.7c-8.4 0-12.3 4.2-12.3 9.1 0 11.4 18.2 7 18.2 13.7 0 2.3-2 4-6.8 4a17 17 0 0 1-10.1-3.4l-2 4.4c2.5 2.2 7.3 3.7 12 3.7z"/>
    <path fill="#08339a" d="M1391.9 683.4l.3 9 8.3 7v-9.5l-8.6-6.5zm-1.4 7.8l-7.4-6-.6-9.2 7.8 6 .2 9.2zm-9-7.6l-6.8-5.3-.9-8.9 7 5.4.7 8.8zm-1-11l-7-5.3-1-9.8 7.3 5 .7 10zm20-9.9v12.1l-9.3-6.6v-11.4l9.3 5.9zm-11-6.9v11.4l-8.1-5.7-.7-11.2 8.8 5.5zm-17.3-.7l7.3 5.2-.7-11.3-7.8-4.8 1.2 11z"/>
    <path fill="#498df8" d="M1426 668.5l1.3 1-7 5.3-.7 8.8-1.4-1 .4-6.6-7.8 6-.2 9.1-1.6-1.2.2-6.5-8.7 6.5-8.6-6.5.2 6.5-1.6 1.2-.2-9.1-7.8-6 .4 6.7-1.4.9-.7-8.8-7-5.4 1.3-1 5.4 4-.7-9.9-7.3-5 1.6-1 5.4 3.8-.7-11.3 9.4-4.8-5.5-3.1v-2l7.7 4.2 8.4-4.3-7.5-4 1.8 1v-2.1l7.5 4.3 8.7-4.3-.3 10.3-8.6 4.2-1.4-.6v1.3l-1.2.6-7.6-4.2-9.5 4.8.7 11.2 8 5.6v-11.3l9.4-5.5v2l-7.6 4.4v9.3l-3.4 2.3 1.7 1.3v2.1l1.5-1.2 7.8 5.5v2.4l1.8-1.1 1.7 1.1V676l7.8-5.5 1.5 1.2v-2.1l1.7-1.3-3.4-2.3v-9.3l-7.6-4.4v-2l9.3 5.5V667l8.1-5.6.7-11.2-7.5-3.8v-2.3l9.5 4.8-.8 11.3 5.4-3.8 1.6 1-7.3 5-.7 10 5.4-4z"/>
    <path fill="#fff" d="M1400.6 690v9.4l8.3-7 .3-9-8.6 6.5zm18-14l-.6 9.2-7.4 6 .3-9.2 7.7-6zm8.7-6.5l-.9 8.8-6.8 5.3.7-8.8 7-5.3zm-17.4-12.7v11.4l-9.3 6.6v-12l-9.4-6 9.4-5.5 9.3 5.5zm18.7.7l-1 9.8-7 5.2.7-10 7.4-5zm-8.2-7.2l-.7 11.2-8 5.7v-11.4l-9.4-5.5 8.6-4.8 2 1 7.5 3.8zm-7.5-6l9.5 4.7-.8 11.3 7.3-5.2 1.2-10.9-9.7-4.2-7.5 4.2zm-14 6l-9.4 5.5-8.8-5.5 9.6-4.8 8.5 4.8zm-27.9-6l7.8 4.7 9.4-4.8-5.4-3-2-1.2-9.8 4.2zm19.4-1l8.4-4.2-7.4-4h-.1l-8.6 4 7.7 4.2zm18.9-9.4l-7.5-3.8-8.6 3.9 7.4 4.3 8.7-4.3z"/>
    <path fill="#494949" d="M1338.2 546.2l-.2.3h-.3l-.5-.1a6.1 6.1 0 0 0-1.6-.9 4 4 0 0 0-1.3-.2c-.5 0-1 0-1.3.2l-1 .5a2.2 2.2 0 0 0-.7 1.8c0 .4.1.8.3 1 .3.4.6.6 1 .8l1.2.6a87.3 87.3 0 0 1 2.9 1l1.2.8c.4.3.7.7 1 1.2.1.5.3 1 .3 1.7 0 .8-.2 1.5-.4 2a4.9 4.9 0 0 1-2.9 2.9 7.3 7.3 0 0 1-5.3-.2l-1.2-.7c-.4-.2-.8-.5-1-.9l.6-1.2.3-.2h.3c.2 0 .4 0 .6.2l.8.5 1 .6c.5.2 1 .2 1.6.2l1.4-.1 1-.6c.3-.3.5-.6.6-1 .2-.3.3-.7.3-1.1a2 2 0 0 0-.4-1.2c-.2-.3-.5-.6-.9-.8l-1.2-.5-1.5-.4-1.4-.6c-.5-.2-.9-.5-1.2-.8a3.8 3.8 0 0 1-1.3-3.1 4.4 4.4 0 0 1 3-4.2 7 7 0 0 1 4.8 0c.8.3 1.4.8 2 1.3l-.6 1.2zm19.4 5.5c0 1.3-.2 2.4-.6 3.4a7.7 7.7 0 0 1-7.6 5c-1.2 0-2.4-.1-3.4-.5a7.6 7.6 0 0 1-4.2-4.5c-.4-1-.6-2.1-.6-3.4 0-1.2.2-2.3.6-3.3.4-1 1-2 1.6-2.7.8-.8 1.6-1.4 2.6-1.8 1-.4 2.2-.6 3.4-.6 1.2 0 2.3.2 3.3.6a7.5 7.5 0 0 1 4.3 4.5c.4 1 .6 2.1.6 3.3zm-2.5 0a8 8 0 0 0-.4-2.6c-.3-.8-.7-1.4-1.2-2a5 5 0 0 0-1.8-1.2 6 6 0 0 0-2.3-.5c-.9 0-1.7.2-2.4.5a5 5 0 0 0-3 3.2 8 8 0 0 0-.3 2.6c0 1 .1 2 .4 2.7.2.8.6 1.4 1.1 2a5 5 0 0 0 1.8 1.2 6.2 6.2 0 0 0 4.7 0 5 5 0 0 0 1.8-1.2c.5-.6.9-1.2 1.2-2 .2-.8.4-1.7.4-2.7zm8-6.2v5.5h6.6v2h-6.6v7h-2.5v-16.5h10.3v2h-7.8zm21.8 0h-5.2V560h-2.5v-14.5h-5.2v-2h13v2zm24-2l-5.2 16.5h-2.2l-4-12.2-.3-1-.2 1-4 12.2h-2.3l-5.1-16.5h2l.5.1c.2.1.3.3.3.5l3.3 11 .1.7.2.8.2-.8.2-.7 3.7-11c0-.2.1-.3.3-.4.1-.2.3-.2.5-.2h.7l.6.1.3.5 3.7 11 .3 1.4.3-1.4 3.3-11c0-.2.1-.3.3-.4.1-.2.3-.2.5-.2h2zm10 10.3l-2.4-6.4-.5-1.6-.3 1-.3.7-2.4 6.3h6zm4.9 6.2h-1.9c-.2 0-.4 0-.5-.2a1 1 0 0 1-.3-.4l-1.5-3.8h-7.3l-1.4 3.8c0 .2-.2.3-.3.4l-.6.2h-1.8l6.5-16.5h2.5l6.6 16.5zm6.7-8.6c.7 0 1.2 0 1.7-.2.5-.1.9-.4 1.2-.6.3-.3.6-.6.7-1 .2-.4.3-.9.3-1.3 0-1-.4-1.7-1-2.2-.6-.5-1.5-.7-2.8-.7h-2.3v6h2.2zm7.7 8.6h-2.2c-.4 0-.7-.2-.9-.5l-4-5.7-.5-.4-.7-.2h-1.6v6.8h-2.5v-16.5h4.8c1 0 2 .1 2.8.3.7.2 1.4.5 1.9 1 .5.4.8.8 1 1.4.3.6.4 1.2.4 2a4.4 4.4 0 0 1-2.3 4 6 6 0 0 1-1.6.6c.3.2.6.4.8.8l4.6 6.4zm12.4-2v2h-10.2v-16.5h10.2v2h-7.8v5.2h6.3v2h-6.3v5.3h7.8zm19.1 0v2h-10.3v-16.5h10.3v2h-7.8v5.2h6.3v2h-6.3v5.3h7.8zm16.5-14.5V560h-1.2a1 1 0 0 1-.5-.1l-.4-.3-9.3-12.1V560h-2v-16.5h1.7l.3.4 9.4 12v-.6V543.5h2zm17.6 8.5v6.4a9.4 9.4 0 0 1-5.7 1.8 10 10 0 0 1-3.7-.6c-1-.5-2-1-2.7-1.8a7.7 7.7 0 0 1-1.8-2.6c-.4-1-.6-2.2-.6-3.5 0-1.2.2-2.3.6-3.4a7.6 7.6 0 0 1 4.4-4.4 10.5 10.5 0 0 1 7 0 7.2 7.2 0 0 1 2.4 1.5l-.7 1.1c-.1.2-.3.3-.4.3h-.6a17 17 0 0 1-.7-.5l-.8-.4a7.2 7.2 0 0 0-2.8-.5c-.9 0-1.7.2-2.4.5a5 5 0 0 0-1.9 1.2c-.5.6-.9 1.3-1.2 2-.2.8-.4 1.7-.4 2.6 0 1 .2 2 .5 2.8a5.3 5.3 0 0 0 3.2 3.3 7.2 7.2 0 0 0 3.5.3 8 8 0 0 0 2.6-.8v-3.5h-2.4l-.4-.1a.4.4 0 0 1-.2-.3V552h5.2zm5.8 8h-2.5v-16.5h2.5V560zm17.6-16.5V560h-1.3a1 1 0 0 1-.5-.1l-.3-.3-9.4-12.1v.6l.1.6V560h-2.2v-16.5h1.8l.3.4 9.4 12v-.6V543.5h2zm14.3 14.5v2h-10.2v-16.5h10.2v2h-7.8v5.2h6.3v2h-6.3v5.3h7.8zm13.3 0v2h-10.3v-16.5h10.3v2h-7.8v5.2h6.2v2h-6.2v5.3h7.8zm7.7-6.6c.6 0 1.2 0 1.6-.2a2.8 2.8 0 0 0 2-1.6l.2-1.3c0-1-.3-1.7-1-2.2-.6-.5-1.5-.7-2.7-.7h-2.3v6h2.2zm7.7 8.6h-2.2c-.4 0-.8-.2-1-.5l-4-5.7c-.2-.2-.3-.4-.5-.4l-.6-.2h-1.6v6.8h-2.5v-16.5h4.8c1 0 2 .1 2.7.3.8.2 1.4.5 2 1 .4.4.8.8 1 1.4.3.6.4 1.2.4 2a5 5 0 0 1-.3 1.5c-.1.5-.4 1-.7 1.4l-1.3 1-1.7.7c.4.2.6.4.8.8l4.7 6.4zm4.6 0h-2.5v-16.5h2.5V560zm17.6-16.5V560h-1.3a1 1 0 0 1-.5-.1l-.3-.3-9.4-12.1a316.4 316.4 0 0 0 .1 1.2V560h-2.2v-16.5h1.8l.4.4 9.3 12v-.6V543.5h2zm17.5 8.5v6.4a9.3 9.3 0 0 1-5.7 1.8 10 10 0 0 1-3.6-.6c-1.1-.5-2-1-2.8-1.8a7.6 7.6 0 0 1-1.7-2.6 9.6 9.6 0 0 1 0-6.8 7.5 7.5 0 0 1 4.3-4.5 10.5 10.5 0 0 1 7 0 7.2 7.2 0 0 1 2.4 1.5l-.7 1.1c0 .2-.2.3-.4.3h-.6a17 17 0 0 1-.6-.5l-1-.4a6.7 6.7 0 0 0-2.6-.5c-1 0-1.8.2-2.5.5a5 5 0 0 0-1.9 1.2c-.5.6-.9 1.3-1.1 2a8 8 0 0 0 0 5.3c.3.9.7 1.5 1.2 2.1.5.6 1.2 1 2 1.3a7.1 7.1 0 0 0 3.5.3 8.6 8.6 0 0 0 1.8-.4l.8-.4v-3.5h-2.4l-.4-.1-.1-.3V552h5.1zm19.7-6.5h-5.2V560h-2.5v-14.5h-5.2v-2h13v2zm12.6 12.5v2H1632v-16.5h10.2v2h-7.7v5.2h6.2v2h-6.2v5.3h7.7zm11.8-4.2l-2.4-6.4-.5-1.6a23.6 23.6 0 0 1-.6 1.7l-2.4 6.3h6zm4.9 6.2h-1.9c-.2 0-.4 0-.5-.2a.9.9 0 0 1-.3-.4l-1.5-3.8h-7.3l-1.4 3.8c0 .2-.2.3-.3.4l-.6.2h-1.8l6.5-16.5h2.5l6.6 16.5zm19.4-16.5V560h-2.1v-11.8-.5-.6l-5.5 10c-.2.4-.5.6-.9.6h-.3a1 1 0 0 1-.9-.5L1663 547l.1 1.2V560h-2.2v-16.5h2.4l.3.4 5.5 9.9.3.6.3.7.5-1.3 5.5-9.9c0-.2.2-.3.3-.3l.5-.1h1.8z"/>
    <path fill="#02b9d2" d="M1343.6 517.7c.9 0 1.7-.2 2.4-.5a5 5 0 0 0 1.8-1.3c.5-.5.9-1.2 1.1-2 .3-.8.4-1.8.4-2.8V494h6.8V511c0 1.8-.3 3.4-.9 5a10.9 10.9 0 0 1-6.4 6.3 14.4 14.4 0 0 1-10.5 0c-1.5-.6-2.8-1.4-4-2.5-1-1-1.8-2.4-2.4-3.9-.6-1.5-.9-3-.9-4.9V494h6.8V511c0 1 .1 2 .4 2.8.3.8.6 1.4 1.1 2 .5.6 1.1 1 1.8 1.3.7.3 1.6.5 2.5.5zm29.3.2c.9 0 1.6-.1 2.2-.3.5-.3 1-.6 1.3-1l.7-1.1a5.4 5.4 0 0 0 0-2.9c-.2-.4-.4-.7-.8-1-.3-.3-.8-.6-1.3-.7-.6-.2-1.3-.3-2.1-.3h-4.8v7.3h4.8zm-4.8-19v7.2h3.5l2-.1a4 4 0 0 0 1.6-.6c.4-.3.7-.6 1-1.1.2-.5.3-1 .3-1.8a5 5 0 0 0-.3-1.7c-.1-.4-.4-.8-.8-1.1-.3-.3-.8-.5-1.4-.6l-2-.2h-3.9zm4-5c2 0 3.7.1 5.1.5 1.4.4 2.6 1 3.5 1.6a6 6 0 0 1 2 2.5 8.3 8.3 0 0 1 .3 5.1c-.2.6-.5 1.2-1 1.7-.3.6-.8 1-1.5 1.5-.6.4-1.3.8-2.2 1.1a8 8 0 0 1 4.3 2.3c.9 1 1.3 2.4 1.3 4a8 8 0 0 1-2.8 6.3c-1 .8-2 1.4-3.4 1.8-1.4.5-3 .7-4.7.7h-11.6v-29.1h10.7zm35.7 21.6h.5l.5.4 2.6 2.8a11.3 11.3 0 0 1-4.4 3.5c-1.8.7-3.8 1.1-6.3 1.1-2.2 0-4.2-.4-6-1.1a13 13 0 0 1-7.2-7.8 17.4 17.4 0 0 1 .1-12 13.8 13.8 0 0 1 7.6-7.8 15.4 15.4 0 0 1 9-.8 14.1 14.1 0 0 1 5 2l1.9 1.6-2.3 3c-.1.3-.3.4-.5.6l-.8.2-.7-.1a19.1 19.1 0 0 0-2.5-1.4 7.6 7.6 0 0 0-3.3-.6 6.8 6.8 0 0 0-5.5 2.4c-.6.8-1.1 1.8-1.5 3-.4 1.1-.5 2.4-.5 4 0 1.4.2 2.7.6 3.9a9 9 0 0 0 1.6 3 7 7 0 0 0 5.5 2.4l1.7-.1c.5 0 1-.2 1.4-.3a6.6 6.6 0 0 0 2.4-1.5l.5-.3.6-.1zm33.4 2.1v5.4h-17.6v-29.1h6.8v23.7h10.8zm18.9-5.7l-2.7-8a39.2 39.2 0 0 1-1.4-4 29.9 29.9 0 0 1-1.3 4l-2.6 8h8zm10.7 11.1h-5.2c-.6 0-1.1-.1-1.5-.4l-.8-1-1.7-5.1h-11l-1.8 5c-.1.4-.4.8-.8 1-.4.4-.8.5-1.4.5h-5.3l11.3-29.1h7l11.2 29.1zm13.7-5.3c1 0 1.7-.2 2.4-.5a5 5 0 0 0 3-3.3 9 9 0 0 0 .4-2.8V494h6.7V511c0 1.8-.3 3.4-.9 5a11 11 0 0 1-6.4 6.3 14.4 14.4 0 0 1-10.5 0 10.9 10.9 0 0 1-6.4-6.4c-.5-1.5-.8-3-.8-4.9V494h6.7V511c0 1 .2 2 .4 2.8.3.8.7 1.4 1.2 2 .5.6 1 1 1.8 1.3.7.3 1.5.5 2.4.5zm43.2-23.8V523h-3.5c-.5 0-1 0-1.3-.2-.3-.2-.7-.5-1-1l-13.8-17.3.1 1.5v17h-5.9v-29.1h4.3c.2 0 .4 0 .5.2.2 0 .4.1.5.3l.5.5 13.9 17.5a19 19 0 0 1-.2-3.1v-15.4h6zm25.3 21.6h.5l.5.4 2.7 2.8a11.1 11.1 0 0 1-4.5 3.5c-1.7.7-3.8 1.1-6.2 1.1a13.3 13.3 0 0 1-13.2-9 17.6 17.6 0 0 1 0-11.9 13.5 13.5 0 0 1 7.6-7.8 15.4 15.4 0 0 1 9-.8 14 14 0 0 1 5 2l2 1.6-2.4 3a3 3 0 0 1-.5.6l-.8.2-.7-.1a10 10 0 0 1-1.5-1l-1-.4-1.4-.4a9.2 9.2 0 0 0-4.9.4c-1 .5-1.7 1-2.4 1.9-.7.7-1.2 1.7-1.6 2.9-.3 1.1-.5 2.4-.5 4 0 1.4.2 2.7.6 3.9.4 1.2 1 2.1 1.7 3a7.3 7.3 0 0 0 5.4 2.4l1.7-.1c.5 0 1-.2 1.4-.3a6.3 6.3 0 0 0 2.4-1.5l.6-.3.5-.1zm32-21.6V523h-6.8v-12.3h-11.8V523h-6.8v-29.1h6.8V506h11.8V494h6.8zm25.2 14.3c1.8 0 3-.5 3.8-1.3a5 5 0 0 0 1.2-3.5c0-.7-.1-1.3-.3-1.8-.2-.6-.5-1-1-1.4-.3-.4-.8-.7-1.5-1-.6-.2-1.3-.3-2.2-.3h-3.5v9.3h3.5zm0-14.3c2.1 0 3.9.2 5.3.7 1.5.5 2.7 1.1 3.7 2 1 .9 1.6 1.9 2 3 .5 1.2.8 2.4.8 3.8a11 11 0 0 1-.7 4 8 8 0 0 1-2.2 3.1c-1 .9-2.2 1.5-3.6 2-1.5.5-3.2.8-5.3.8h-3.5v9.7h-6.7v-29.1h10.2zm28.6 18l-2.7-8a39.2 39.2 0 0 1-1.4-4 29.9 29.9 0 0 1-1.2 4l-2.7 8h8zm10.7 11.1h-5.2c-.6 0-1.1-.1-1.5-.4l-.8-1-1.7-5.1h-11l-1.8 5c-.1.4-.4.8-.8 1-.4.4-.8.5-1.4.5h-5.3l11.3-29.1h7l11.2 29.1zm28.7-14.6a13.7 13.7 0 0 1-9 13.5c-1.7.7-3.8 1.1-6 1.1h-11.4v-29.1h11.3c2.3 0 4.4.3 6.2 1a13.4 13.4 0 0 1 7.8 7.7 15 15 0 0 1 1.1 5.8zm-6.9 0c0-1.4-.2-2.7-.5-3.9a8 8 0 0 0-1.7-3 6.8 6.8 0 0 0-2.5-1.8c-1-.4-2.2-.6-3.5-.6h-4.5v18.7h4.5c1.3 0 2.5-.2 3.5-.6a7 7 0 0 0 2.5-1.9c.8-.8 1.3-1.8 1.7-3 .3-1.1.5-2.4.5-3.9zM1273 566.2h11.5l-1.1 4.8h-9.2l-1.2-4.8zm29-14.5l-5.4-5-3.8 17.8 9 6.5.2-19.3zm-46 0l5.4-5 3.8 17.8-9 6.5-.2-19.3zm34.4 12.6h-23.6l-1.1-5.8c10-2.7 21.6-1.2 26.2 0l-1.5 5.8zm-21.7-17.6l-5 .7 1.7 9.1 4.5-1-1.2-8.8zm20.6 0l5 .7-1.7 9.1-4.5-1 1.2-8.8zm-17.5 8.6l-1.2-8.9 8.3-.5c3.3 0 8.5.5 8.5.5l-1.4 9s-4.3-.3-7.1-.3l-7 .2zm18.9-18l4.5 1.2-.8 7-4.9-.8 1.2-7.4zm-23.4 0l-5 1 1.2 7.2 5-.8-1.2-7.4zm3 7.4l-1-7.7s4.2-.7 9.6-.7c5.6 0 9.9.7 9.9.7l-1.2 7.7s-5.3-.4-8.7-.4c-3.3 0-8.5.4-8.5.4zm9.5-59.7v3.1s4.4 4.6 8 10.4c2.5 3.9 4.2 8.3 5.5 12.3 3 9.5 2.1 25.5 2.1 25.5s-7.6-2.2-16.5-2.2c-8.5 0-16.8 2.2-16.8 2.2s-.3-16 2.9-25.5c1.3-3.9 3.2-8.5 5.6-12.3 3.9-6 8.3-10.4 8.3-10.4V485h1zm-.9 34.7c4.2 0 7.5-3.5 7.5-7.7 0-4.3-3.3-7.7-7.5-7.7a7.6 7.6 0 0 0-7.6 7.7c0 4.2 3.4 7.7 7.6 7.7zm0-13.5a6 6 0 0 1 5.9 6 6 6 0 0 1-6 6 6 6 0 0 1-5.8-6 6 6 0 0 1 5.9-6z"/>
  </g>
  <g fill-rule="nonzero">
    <path fill="url(#_Linear5)" d="M1352.6 332h-9.7v-46.4h9.7V332zm41.3-11.4c.5 0 1 .2 1.3.6l3.8 4a18.2 18.2 0 0 1-7 5.5c-2.7 1.2-6 1.8-9.9 1.8-3.5 0-6.6-.6-9.4-1.7a20.5 20.5 0 0 1-11.5-12.5 28 28 0 0 1 1.4-21.9 21.2 21.2 0 0 1 13.6-10.6 25.3 25.3 0 0 1 19.2 2.9c1.1.8 2.2 1.6 3 2.5l-3.2 4.4a3 3 0 0 1-.7.7 2 2 0 0 1-1.2.3c-.5 0-1-.1-1.6-.5-.5-.4-1.1-.8-2-1.2a13.6 13.6 0 0 0-7-1.8c-2 0-3.8.4-5.4 1-1.6.8-3 1.8-4.2 3.1a14 14 0 0 0-2.7 5c-.6 1.9-1 4-1 6.6 0 2.5.4 4.7 1 6.7.8 1.9 1.7 3.5 3 4.9a12.4 12.4 0 0 0 9.3 4h3a12 12 0 0 0 4.6-1.6l2-1.6.7-.4c.3-.2.6-.2.9-.2zM1414 332h-9.6v-46.4h9.6V332zm41.3-11.4c.6 0 1 .2 1.4.6l3.8 4a18 18 0 0 1-7 5.5c-2.8 1.2-6 1.8-10 1.8-3.4 0-6.5-.6-9.3-1.7a20.5 20.5 0 0 1-11.6-12.5 28 28 0 0 1 1.4-21.9 22.3 22.3 0 0 1 8-8.3 25.4 25.4 0 0 1 24.8.6c1.2.8 2.2 1.6 3.1 2.5l-3.2 4.4a3 3 0 0 1-.7.7 2 2 0 0 1-1.3.3c-.5 0-1-.1-1.5-.5l-2-1.2a13.1 13.1 0 0 0-7.1-1.8c-2 0-3.7.4-5.4 1-1.6.8-3 1.8-4.2 3.1a14 14 0 0 0-2.6 5c-.7 1.9-1 4-1 6.6 0 2.5.3 4.7 1 6.7.7 1.9 1.7 3.5 2.9 4.9a12.4 12.4 0 0 0 9.4 4h3a12 12 0 0 0 4.5-1.6c.7-.4 1.4-1 2-1.6l.8-.4c.3-.2.5-.2.8-.2zm35.8-26.1c-.3.5-.6.8-1 1a2 2 0 0 1-1.1.4c-.5 0-1-.2-1.6-.5a27 27 0 0 0-4.4-2.2c-.9-.3-2-.5-3.3-.5-2.2 0-3.8.5-5 1.5a5 5 0 0 0-1.6 4c0 1 .3 1.8.9 2.5.6.6 1.4 1.2 2.4 1.7s2.1 1 3.4 1.3a94.3 94.3 0 0 1 7.7 2.9c1.3.6 2.4 1.4 3.4 2.3 1 1 1.8 2.1 2.4 3.5.6 1.3 1 3 1 5a16 16 0 0 1-1.2 5.9 14.1 14.1 0 0 1-8.3 8 22.1 22.1 0 0 1-15.6-.5 23.1 23.1 0 0 1-7-4.4l2.9-4.5c.2-.4.5-.7 1-.9.3-.2.7-.3 1.1-.3.6 0 1.2.2 1.9.6a73.5 73.5 0 0 0 5 2.8c1.1.5 2.5.7 4 .7 2.2 0 4-.5 5.2-1.6 1.2-1 1.8-2.5 1.8-4.5 0-1.2-.3-2.2-.9-2.9a7 7 0 0 0-2.3-1.8c-1-.5-2.2-1-3.4-1.3a134.5 134.5 0 0 1-7.8-2.7 11.5 11.5 0 0 1-5.8-6 14.2 14.2 0 0 1 .2-10.4c.7-1.7 1.7-3 3-4.4a15 15 0 0 1 4.9-3 22.2 22.2 0 0 1 14.4.2c2.4.8 4.4 2 6 3.6l-2.3 4.5zm56 14.3c0 4-.4 7.5-1.2 10.5-1 3-2.1 5.5-3.7 7.5-1.5 1.9-3.3 3.3-5.4 4.3-2.1 1-4.4 1.4-6.8 1.4a14.5 14.5 0 0 1-12.2-5.8c-1.5-2-2.7-4.4-3.6-7.4-.8-3-1.3-6.5-1.3-10.5s.5-7.6 1.3-10.6c.9-3 2-5.4 3.6-7.4a14 14 0 0 1 5.4-4.3c2.1-1 4.4-1.4 6.8-1.4 2.4 0 4.7.4 6.8 1.4 2 1 4 2.4 5.4 4.3 1.6 2 2.8 4.5 3.7 7.4.8 3 1.3 6.5 1.3 10.6zm-9 0c0-3.3-.3-6-.8-8.2-.4-2-1-3.8-1.7-5a6.6 6.6 0 0 0-2.6-2.6 6.5 6.5 0 0 0-6 0c-1 .5-1.8 1.3-2.5 2.6-.7 1.2-1.3 3-1.8 5-.4 2.2-.7 4.9-.7 8.2 0 3.3.3 6 .7 8.1.5 2.2 1 3.8 1.8 5a6.7 6.7 0 0 0 2.5 2.7 6.5 6.5 0 0 0 6 0c1-.5 1.8-1.4 2.6-2.6.7-1.3 1.3-3 1.7-5 .5-2.2.7-5 .7-8.2zm43.9 16.7v6.5h-26v-6.5h9.1v-25.4-1.7l.2-1.8-6.1 5.1c-.4.3-.9.5-1.3.6a3 3 0 0 1-1.1 0c-.4 0-.7-.2-1-.3l-.6-.6-2.8-3.8 14.3-12h7.2v39.9h8zm26.3-11.2v-13.9a37.4 37.4 0 0 1 .3-4.8l-13.5 18.7h13.2zm13 0v5c0 .4-.1.8-.5 1.2-.3.3-.7.5-1.2.5h-3.7v11h-7.6v-11h-19.2c-.6 0-1-.2-1.5-.6-.5-.3-.8-.7-.9-1.3l-.9-4.4 21.8-29.2h8.3v28.8h5.4zm-370.2 55.6a14 14 0 0 1 1.5-4.6 11.1 11.1 0 0 1 6.5-5.3 15 15 0 0 1 9.2 0c1.4.6 2.6 1.2 3.5 2 1 1 1.7 2 2.2 3 .5 1.2.8 2.4.8 3.7 0 1.1-.1 2.2-.4 3a6.7 6.7 0 0 1-2.8 4c-.7.4-1.5.8-2.4 1.1 4.2 1.4 6.3 4.1 6.3 8.3 0 1.9-.4 3.5-1 5-.8 1.3-1.7 2.5-2.8 3.4-1.2 1-2.5 1.7-4 2.2-1.6.5-3.2.7-4.8.7-1.8 0-3.3-.2-4.7-.6a10.7 10.7 0 0 1-6.2-4.8 22 22 0 0 1-2-4.3l3.1-1.2c.8-.3 1.6-.4 2.3-.3a2 2 0 0 1 1.5 1.1l1 1.8 1.3 1.4a5.4 5.4 0 0 0 3.6 1.2 5.8 5.8 0 0 0 4.3-1.7c.5-.5.9-1 1.1-1.7.3-.7.4-1.3.4-2 0-.8 0-1.5-.2-2.2a3 3 0 0 0-1-1.7c-.6-.5-1.4-.9-2.5-1.1-1-.3-2.5-.4-4.3-.4V375c1.5 0 2.8-.1 3.7-.4a6 6 0 0 0 2.3-1c.6-.5 1-1 1.1-1.6.2-.7.4-1.4.4-2.1 0-1.6-.5-2.8-1.3-3.6-.8-.9-2-1.3-3.5-1.3a5.6 5.6 0 0 0-3.3 1.1 5.3 5.3 0 0 0-1.9 2.6c-.3.9-.7 1.4-1.2 1.7-.5.3-1.2.3-2.2.2l-3.6-.7zm29 22.5c0-.6 0-1 .3-1.6.2-.5.5-.9.9-1.3l1.2-.8a4 4 0 0 1 1.7-.3 4 4 0 0 1 1.6.3 3.9 3.9 0 0 1 2.1 2.1c.2.5.3 1 .3 1.6 0 .5 0 1-.3 1.5a4 4 0 0 1-.8 1.3 4 4 0 0 1-3 1.1c-.5 0-1 0-1.6-.3a4 4 0 0 1-2.1-2 4 4 0 0 1-.3-1.6zm0-17.5c0-.6 0-1 .3-1.6.2-.5.5-.9.9-1.3l1.2-.8a4 4 0 0 1 1.7-.3 4 4 0 0 1 1.6.3 3.9 3.9 0 0 1 2.1 2.1c.2.5.3 1 .3 1.6 0 .5 0 1-.3 1.5a4 4 0 0 1-.8 1.3 4 4 0 0 1-3 1.1c-.5 0-1 0-1.6-.3a4 4 0 0 1-2.1-2 4 4 0 0 1-.3-1.6zm13-5a14 14 0 0 1 1.5-4.6 11.1 11.1 0 0 1 6.5-5.3 15 15 0 0 1 9.3 0c1.4.6 2.5 1.2 3.5 2 1 1 1.6 2 2.1 3 .6 1.2.8 2.4.8 3.7 0 1.1-.1 2.2-.4 3a6.7 6.7 0 0 1-2.8 4c-.7.4-1.5.8-2.4 1.1 4.2 1.4 6.3 4.1 6.3 8.3 0 1.9-.3 3.5-1 5a11.8 11.8 0 0 1-6.8 5.7c-1.5.4-3.1.6-4.8.6-1.7 0-3.3-.2-4.7-.6a10.7 10.7 0 0 1-6.2-4.8 22 22 0 0 1-1.9-4.3l3-1.2c.9-.3 1.6-.4 2.3-.3a2 2 0 0 1 1.5 1.1l1 1.8 1.3 1.4a5.4 5.4 0 0 0 3.6 1.2c1 0 1.9-.2 2.6-.5.7-.3 1.3-.7 1.8-1.2s.8-1 1-1.7c.3-.7.4-1.3.4-2 0-.8 0-1.5-.2-2.2a3 3 0 0 0-1-1.7c-.6-.5-1.4-.9-2.5-1.1-1-.3-2.4-.4-4.3-.4V375c1.6 0 2.8-.1 3.8-.4a6 6 0 0 0 2.2-1c.6-.5 1-1 1.2-1.6l.3-2.1c0-1.6-.4-2.8-1.3-3.6-.8-.9-2-1.3-3.5-1.3a5.6 5.6 0 0 0-3.3 1.1 5.3 5.3 0 0 0-1.8 2.6c-.3.9-.8 1.4-1.3 1.7-.5.3-1.2.3-2.1.2l-3.7-.7zm54.5 8c0 3.1-.4 5.9-1 8.2a17 17 0 0 1-2.9 5.8 11.5 11.5 0 0 1-4.3 3.4c-1.6.7-3.4 1.1-5.3 1.1s-3.6-.4-5.3-1.1c-1.6-.8-3-1.9-4.2-3.4a17.2 17.2 0 0 1-2.8-5.8c-.7-2.3-1-5-1-8.3 0-3.1.3-5.9 1-8.2a17 17 0 0 1 2.8-5.8 11 11 0 0 1 4.2-3.4c1.7-.7 3.4-1 5.3-1a11.2 11.2 0 0 1 9.6 4.5c1.2 1.5 2.1 3.4 2.8 5.7.7 2.3 1 5 1 8.2zm-7.2 0c0-2.6-.2-4.7-.5-6.4-.4-1.7-.8-3-1.4-4-.6-1-1.3-1.6-2-2a5 5 0 0 0-4.7 0c-.7.4-1.4 1-2 2-.5 1-1 2.3-1.3 4a31.9 31.9 0 0 0 0 12.7c.3 1.7.8 3 1.3 4 .6 1 1.3 1.6 2 2a5 5 0 0 0 4.7 0c.7-.4 1.4-1 2-2 .6-1 1-2.3 1.4-4 .3-1.6.5-3.8.5-6.4zm24.3-.1c2.4 0 4.1-.6 5.2-1.7a6.4 6.4 0 0 0 1.6-4.7c0-.9-.1-1.7-.4-2.4-.3-.8-.7-1.4-1.2-2-.6-.5-1.3-.9-2.1-1.2-.9-.2-1.9-.4-3-.4h-4.8v12.4h4.7zm0-18c2.5 0 4.7.2 6.5.8 1.8.6 3.3 1.4 4.4 2.4 1.2 1 2 2.3 2.6 3.7a13.3 13.3 0 0 1 0 9.6c-.6 1.5-1.5 2.8-2.7 3.8-1.2 1.1-2.6 2-4.4 2.5-1.8.6-4 1-6.4 1h-4.7V396h-7.5v-36.3h12.2zm59.1 0V396h-6.6v-22.3-1.5l.2-1.6-10.4 19.7c-.6 1-1.4 1.6-2.6 1.6h-1a3 3 0 0 1-1.6-.4 3 3 0 0 1-1-1.2l-10.5-19.8.1 1.7V396h-6.6v-36.3H1390.5l.6.2.6.3.4.7 10.2 19.3a22.4 22.4 0 0 1 1.7 3.7 67.2 67.2 0 0 1 1.6-3.7l10.1-19.3.5-.7.5-.3.7-.2h6.5zm19.6-2.6h5.4v47.3h-5.4v-47.3zm38.9 33c1.2 0 2.2 0 3-.4.7-.3 1.3-.7 1.8-1.2.5-.4.8-1 1-1.6.2-.6.3-1.3.3-2s-.2-1.3-.4-2c-.2-.5-.5-1-1-1.4-.5-.4-1.1-.7-2-1-.7-.2-1.6-.3-2.8-.3h-6.3v10h6.4zm-6.4-24.8v9.8h4.9c1 0 2 0 2.8-.2.8-.2 1.5-.5 2-.9.6-.4 1-.9 1.3-1.5.3-.6.4-1.4.4-2.3 0-.9 0-1.6-.3-2.3-.3-.6-.6-1-1.1-1.5-.5-.4-1.2-.6-2-.8a12 12 0 0 0-2.7-.3h-5.3zm5.3-5.7c2.5 0 4.5.3 6.3.7 1.7.5 3.1 1.1 4.2 2 1 .8 1.9 1.8 2.4 3a10.4 10.4 0 0 1 .4 6.4 7 7 0 0 1-1.2 2.2c-.5.7-1.1 1.3-2 1.8-.7.6-1.7 1-2.8 1.4 2.5.6 4.3 1.6 5.5 2.9 1.2 1.3 1.8 3 1.8 5.1a10.2 10.2 0 0 1-3.5 7.7c-1.1 1-2.5 1.7-4.2 2.3-1.6.5-3.5.8-5.7.8h-14v-36.3h12.8zm27.9 36.3h-7.6v-36.3h7.6V396zm56.3-36.3l-11.2 36.3h-6.8l-7.4-23.7a14.9 14.9 0 0 1-.7-2.4 26.3 26.3 0 0 1-.7 2.4l-7.5 23.7h-6.8l-11.2-36.3h6.3c.7 0 1.2.2 1.6.5.5.3.8.7 1 1.2l5.5 20.4a105 105 0 0 1 .9 4 37 37 0 0 1 1-4l6.5-20.4.9-1.2c.4-.3 1-.5 1.6-.5h2.2c.7 0 1.2.2 1.6.5.4.3.7.7 1 1.2l6.4 20.4a19.1 19.1 0 0 1 1 3.8l.4-2 .4-1.8 5.7-20.4c0-.5.4-.8.8-1.2.5-.3 1-.5 1.6-.5h6zm11.7 5.9v9.3h12v5.7h-12v9.5h15.5v5.9h-23v-36.3h23v5.9h-15.5zm28.7 0v9.3h12v5.7h-12v9.5h15.5v5.9h-23v-36.3h23v5.9H1606zm28.6 9.1h1.5c1.3 0 2.1-.4 2.7-1.1l9.2-12.3c.4-.6.9-1 1.4-1.2.5-.3 1.1-.4 1.9-.4h6.5l-11.6 14.9c-.7 1-1.5 1.7-2.3 2a6.7 6.7 0 0 1 3 2.4l11.8 17h-6.7l-1.1-.1c-.3 0-.6-.2-.8-.3-.2 0-.4-.2-.6-.4l-.5-.6-9.3-13c-.3-.5-.7-.8-1.1-1-.5-.2-1-.3-1.9-.3h-2V396h-7.5v-36.3h7.5v15zm48.8 15.2v6.1h-21.5v-36.3h7.5V390h14zm16.2-7.8V396h-7.5v-14l-13.1-22.3h6.6c.6 0 1.1.2 1.5.5.4.3.7.7 1 1.2l6 11.4a53.3 53.3 0 0 1 1.9 4.1 23.8 23.8 0 0 1 1.8-4.1l6-11.4c.1-.4.4-.8.8-1.1.4-.4 1-.6 1.6-.6h6.6l-13.2 22.4zM1305 435.4V454h-2.7c-.6 0-1-.3-1.2-.8l-.3-1.5c-.7.8-1.6 1.4-2.5 1.9a7 7 0 0 1-3.2.7c-1 0-1.9-.2-2.7-.5-.7-.4-1.4-.9-2-1.5-.4-.6-.8-1.3-1.1-2.2-.3-.9-.4-1.8-.4-2.8v-11.8h4.4v11.8c0 1.1.3 2 .8 2.6.5.6 1.3 1 2.4 1 .7 0 1.4-.3 2.1-.6.7-.3 1.3-.8 2-1.4v-13.4h4.4zm8.8 13.7c.5.6 1 1 1.7 1.3a4.8 4.8 0 0 0 3.7 0c.5-.2 1-.6 1.4-1.1.4-.6.7-1.2.9-2 .2-.8.3-1.8.3-3 0-2-.4-3.4-1-4.3-.7-1-1.7-1.4-3-1.4-.8 0-1.5.2-2.2.6l-1.8 1.6v8.3zm0-11.4c.8-.8 1.6-1.4 2.5-1.9 1-.4 2-.7 3.1-.7 1 0 2 .3 2.9.7a6 6 0 0 1 2.2 1.8c.6.8 1 1.7 1.4 2.8a14 14 0 0 1 0 7.8 9.3 9.3 0 0 1-1.7 3.2 7.2 7.2 0 0 1-8.6 2.1l-1-.7-1-1-.2 1.2c0 .3-.2.6-.4.7a1 1 0 0 1-.7.2h-3v-26.7h4.5v10.5zm29.2 1.6a2 2 0 0 1-.4.4l-.5.2c-.2 0-.4 0-.7-.2a10.3 10.3 0 0 0-1.8-1l-1.5-.2c-.8 0-1.5.2-2 .5a4 4 0 0 0-1.6 1.2c-.4.5-.6 1.1-.8 1.9a10.5 10.5 0 0 0 0 5.2 6 6 0 0 0 .9 1.9c.4.5.9 1 1.4 1.2.6.3 1.2.4 2 .4a4.8 4.8 0 0 0 2.8-.8l.7-.6c.3-.2.5-.3.8-.3.4 0 .6.1.8.4l1.3 1.6a8.1 8.1 0 0 1-5.3 3h-2a7.7 7.7 0 0 1-5.9-2.5 9.2 9.2 0 0 1-1.7-3 12 12 0 0 1 0-7.8c.3-1.1.9-2.1 1.6-3 .8-.8 1.7-1.5 2.8-2 1.1-.4 2.4-.7 3.9-.7a8.8 8.8 0 0 1 6.4 2.6l-1.2 1.6zm17 0a2 2 0 0 1-.3.4l-.5.2c-.3 0-.5 0-.7-.2a10.3 10.3 0 0 0-1.9-1l-1.5-.2c-.8 0-1.5.2-2 .5a4 4 0 0 0-1.5 1.2c-.4.5-.7 1.1-.9 1.9a10.5 10.5 0 0 0 0 5.2 6 6 0 0 0 1 1.9c.3.5.8 1 1.4 1.2.6.3 1.2.4 1.9.4a4.8 4.8 0 0 0 2.8-.8l.8-.6c.2-.2.5-.3.8-.3.3 0 .6.1.8.4l1.2 1.6a8.1 8.1 0 0 1-5.3 3h-2a7.7 7.7 0 0 1-5.9-2.5 9.2 9.2 0 0 1-1.7-3c-.4-1.1-.6-2.5-.6-4 0-1.3.2-2.6.5-3.7.4-1.2 1-2.2 1.8-3 .7-.9 1.7-1.6 2.8-2 1.1-.5 2.4-.8 3.8-.8s2.6.3 3.7.7c1 .5 2 1 2.8 2l-1.2 1.5zm15.5-.3l-.4.4a1 1 0 0 1-.5.2l-.7-.2a24.3 24.3 0 0 0-2-.8c-.4-.2-.8-.2-1.4-.2-.9 0-1.6.2-2 .5-.6.4-.8.9-.8 1.5 0 .4.1.7.4 1 .2.3.6.5 1 .7l1.4.6a31.6 31.6 0 0 1 3.3 1.2c.6.2 1 .5 1.5.9.4.4.8.8 1 1.3.3.6.4 1.2.4 2s-.2 1.7-.5 2.4c-.3.8-.8 1.4-1.4 2-.6.5-1.4 1-2.3 1.2a10 10 0 0 1-5 .3 10.5 10.5 0 0 1-3.3-1.2l-1.3-.9 1-1.7.5-.4.7-.2c.3 0 .5 0 .8.2a22.5 22.5 0 0 0 2 1c.4.2 1 .3 1.6.3.6 0 1 0 1.4-.2l1-.5.5-.7.1-.9c0-.4 0-.7-.4-1-.2-.3-.5-.5-1-.7a97.8 97.8 0 0 1-4.8-1.7l-1.4-1a4.5 4.5 0 0 1-1.4-3.6 5.3 5.3 0 0 1 1.7-4c.6-.5 1.3-.9 2.2-1.2a9 9 0 0 1 3-.5c1.3 0 2.4.3 3.5.7 1 .4 2 1 2.6 1.6l-1 1.6zm15.8 0c-.1.2-.2.4-.4.4a1 1 0 0 1-.5.2l-.7-.2a24.3 24.3 0 0 0-2-.8c-.3-.2-.8-.2-1.4-.2-.9 0-1.6.2-2 .5-.6.4-.8.9-.8 1.5 0 .4.1.7.4 1 .2.3.6.5 1 .7l1.5.6a31.6 31.6 0 0 1 3.3 1.2c.5.2 1 .5 1.4.9.4.4.8.8 1 1.3.3.6.4 1.2.4 2s-.1 1.7-.5 2.4c-.3.8-.7 1.4-1.4 2-.6.5-1.4 1-2.3 1.2a10 10 0 0 1-5 .3 10.5 10.5 0 0 1-3.3-1.2l-1.3-.9 1-1.7.5-.4.7-.2c.3 0 .5 0 .8.2a22.5 22.5 0 0 0 2 1c.4.2 1 .3 1.7.3.5 0 1 0 1.3-.2l1-.5.5-.7.2-.9c0-.4-.2-.7-.4-1l-1-.7a97.8 97.8 0 0 1-4.8-1.7l-1.5-1a4.5 4.5 0 0 1-1.4-3.6 5.3 5.3 0 0 1 1.7-4c.6-.5 1.4-.9 2.2-1.2a9 9 0 0 1 3-.5c1.3 0 2.5.3 3.5.7 1 .4 2 1 2.6 1.6l-1 1.6zm15.8 0c0 .2-.2.4-.3.4a1 1 0 0 1-.5.2l-.7-.2a24.3 24.3 0 0 0-2-.8c-.4-.2-.9-.2-1.5-.2-.8 0-1.5.2-2 .5-.5.4-.8.9-.8 1.5 0 .4.1.7.4 1l1 .7 1.5.6a31.6 31.6 0 0 1 3.3 1.2c.5.2 1 .5 1.4.9.5.4.8.8 1 1.3.3.6.4 1.2.4 2s-.1 1.7-.4 2.4c-.4.8-.8 1.4-1.4 2-.7.5-1.4 1-2.4 1.2a10 10 0 0 1-5 .3 10.5 10.5 0 0 1-3.3-1.2l-1.2-.9 1-1.7.4-.4.7-.2c.3 0 .6 0 .8.2a22.5 22.5 0 0 0 2 1c.4.2 1 .3 1.7.3.5 0 1 0 1.3-.2l1-.5.5-.7.2-.9c0-.4-.1-.7-.4-1l-1-.7a97.8 97.8 0 0 1-4.8-1.7l-1.5-1a4.5 4.5 0 0 1-1.4-3.6 5.3 5.3 0 0 1 1.8-4c.5-.5 1.3-.9 2.1-1.2a9 9 0 0 1 3-.5c1.3 0 2.5.3 3.5.7 1 .4 2 1 2.6 1.6l-1 1.6zm4 12.5l.1-1.1.6-.9a2.8 2.8 0 0 1 3-.6 2.7 2.7 0 0 1 .9 4.5c-.3.2-.5.4-.9.5-.3.2-.7.3-1 .3a2.7 2.7 0 0 1-2.6-1.7 3 3 0 0 1-.2-1zm17.3-16.4c1.4 0 2.6.3 3.7.7a8 8 0 0 1 4.8 4.9c.4 1.2.6 2.5.6 4 0 1.4-.2 2.7-.6 3.9a8.3 8.3 0 0 1-4.8 4.9 10 10 0 0 1-3.7.7c-1.4 0-2.6-.3-3.8-.7a8 8 0 0 1-4.7-5 11.4 11.4 0 0 1 0-7.9c.4-1 1-2 1.8-2.9.8-.8 1.8-1.4 3-1.9 1-.4 2.3-.7 3.7-.7zm0 15.6c1.5 0 2.7-.5 3.4-1.5.7-1 1.1-2.5 1.1-4.5s-.4-3.5-1-4.6c-.8-1-2-1.6-3.5-1.6-1.6 0-2.7.6-3.5 1.6-.7 1-1 2.6-1 4.6 0 2 .3 3.5 1 4.5.8 1 2 1.6 3.5 1.6zm16.7-12a8 8 0 0 1 2-2.7c.8-.6 1.8-1 2.9-1 .8 0 1.5.3 2 .6l-.3 3.4-.2.4-.5.2-.8-.1a6 6 0 0 0-1-.1c-.5 0-1 0-1.3.2l-1 .6c-.4.3-.7.6-.9 1l-.7 1.3V454h-4.4v-18.5h2.6c.5 0 .8.1 1 .3.1.1.3.4.3.8l.3 2.1zm15.8 5.5c.5 0 1 0 1.4-.2l1-.6c.3-.3.5-.6.6-1 .2-.4.2-.8.2-1.2 0-1-.2-1.6-.8-2.2-.5-.5-1.3-.8-2.4-.8-1.1 0-2 .3-2.5.8-.5.6-.8 1.3-.8 2.2 0 .4 0 .8.2 1.2.1.4.3.7.6 1l1 .6 1.5.2zm5 10.5l-.3-.9a2 2 0 0 0-1-.5l-1.2-.3a20 20 0 0 0-3.3-.2l-1.8-.1c-.5.3-.9.6-1.2 1a2 2 0 0 0-.2 2.1c.2.3.4.6.8.8a10 10 0 0 0 3.5.6c.8 0 1.5 0 2-.2.7 0 1.2-.3 1.6-.5.4-.2.6-.5.8-.8.2-.3.3-.6.3-1zm4.4-18.6v1.6c0 .5-.3.9-1 1l-1.6.3c.3.6.4 1.3.4 2a5.5 5.5 0 0 1-2 4.4c-.7.6-1.5 1-2.4 1.2a9.4 9.4 0 0 1-4.9.3c-.5.3-.8.7-.8 1.1 0 .4.1.7.5.9l1.3.3 2 .2a35.5 35.5 0 0 1 4.4.4c.7.1 1.4.4 2 .7a3.7 3.7 0 0 1 1.8 3.5 5 5 0 0 1-.6 2.3c-.4.8-1 1.5-1.8 2.1-.7.6-1.7 1-2.8 1.4a14.1 14.1 0 0 1-7.4.1c-1-.2-1.9-.5-2.6-1-.6-.4-1.2-1-1.5-1.5-.3-.6-.5-1.2-.5-1.9 0-.8.3-1.6.8-2.1.5-.6 1.2-1.1 2.1-1.4a3 3 0 0 1-1.1-1c-.3-.5-.5-1-.5-1.7 0-.3 0-.6.2-.9l.4-.8.8-.8a5 5 0 0 1 1-.7c-.9-.6-1.6-1.2-2.2-2-.5-.9-.8-1.9-.8-3a5.5 5.5 0 0 1 2.1-4.4 7 7 0 0 1 2.3-1.2 10 10 0 0 1 7.1.6h5.3zm6 17.9c-.3.5-.6 1-1 1.2-.5.3-1 .4-1.4.4h-2l10.6-26.9c.2-.5.5-.9.9-1.1.4-.3.8-.4 1.4-.4h1.9L1476 454zm17-4.9c.5.6 1 1 1.6 1.3a5 5 0 0 0 3.8 0c.5-.2 1-.6 1.4-1.1.4-.6.6-1.2.9-2 .2-.8.3-1.7.3-2.8 0-1-.1-2-.3-2.7-.2-.8-.4-1.4-.8-1.9a3 3 0 0 0-1.1-1c-.5-.2-1-.3-1.6-.3-1 0-1.7.2-2.4.6l-1.8 1.6v8.3zm-.2-11.1c.7-.9 1.6-1.6 2.5-2.1a6.9 6.9 0 0 1 6.2-.2 6 6 0 0 1 2.1 1.9c.7.7 1.1 1.7 1.4 3a14.7 14.7 0 0 1 0 7.8 9.2 9.2 0 0 1-1.6 3 7.3 7.3 0 0 1-5.8 2.8c-1 0-1.9-.2-2.6-.5-.8-.3-1.4-.8-2-1.3v7.5h-4.4v-24.5h2.7c.5 0 1 .3 1.1.8l.4 1.8zm20.4.6c.6-1 1.3-2 2-2.6.9-.6 1.8-1 2.9-1 .8 0 1.5.3 2 .6l-.3 3.4-.2.4-.5.2-.8-.1a6 6 0 0 0-1-.1c-.5 0-1 0-1.3.2l-1 .6-.9 1-.6 1.3V454h-4.5v-18.5h2.6c.5 0 .8.1 1 .3.2.1.3.4.3.8l.3 2.1zm16.9-3.5c1.4 0 2.6.3 3.7.7a8 8 0 0 1 4.8 4.9c.4 1.2.6 2.5.6 4 0 1.4-.2 2.7-.6 3.9-.5 1.2-1 2.2-1.9 3a8 8 0 0 1-2.9 1.9 10 10 0 0 1-3.7.7c-1.4 0-2.6-.3-3.8-.7a8.1 8.1 0 0 1-4.7-5c-.5-1-.7-2.4-.7-3.9 0-1.4.2-2.7.7-4 .4-1 1-2 1.8-2.9.8-.8 1.8-1.4 3-1.9 1-.4 2.3-.7 3.7-.7zm0 15.6c1.5 0 2.7-.5 3.4-1.5.7-1 1.1-2.5 1.1-4.5s-.4-3.5-1.1-4.6c-.7-1-1.9-1.6-3.4-1.6-1.6 0-2.7.6-3.5 1.6-.7 1-1 2.6-1 4.6 0 2 .3 3.5 1 4.5.8 1 2 1.6 3.5 1.6zm17.1-15.3v19.1c0 .8-.1 1.6-.3 2.3a4.7 4.7 0 0 1-2.9 3.1 7 7 0 0 1-2.7.5 7.1 7.1 0 0 1-2.3-.4l.2-2.4c0-.2.1-.4.3-.4l.9-.1c.4 0 .8 0 1.1-.2.3 0 .6-.2.7-.4l.4-.8.1-1.2v-19h4.5zm.6-5.4c0 .4 0 .8-.2 1.1l-.7 1a3 3 0 0 1-2 .7 2.7 2.7 0 0 1-2-.8 3 3 0 0 1-.6-.9l-.2-1 .2-1.2a3 3 0 0 1 1.5-1.5l1.1-.2c.4 0 .8 0 1.1.2l1 .6.6 1 .2 1zm15.8 12.5a5 5 0 0 0-.2-1.6c-.2-.5-.4-1-.7-1.3l-1.3-1a4 4 0 0 0-1.7-.3c-1.3 0-2.3.4-3 1.1-.8.8-1.3 1.8-1.5 3.1h8.4zm-8.4 2.7c0 1 .2 1.8.5 2.5.2.7.6 1.2 1 1.7.4.4 1 .8 1.5 1 .6.2 1.3.3 2 .3a6 6 0 0 0 1.9-.2l1.3-.6 1-.5c.4-.2.6-.3 1-.3.3 0 .6.2.7.4l1.3 1.6a7.6 7.6 0 0 1-3.6 2.4c-.6.3-1.3.4-2 .5l-2 .2a10 10 0 0 1-3.6-.7 8 8 0 0 1-4.8-5 12 12 0 0 1 0-7.8 8.5 8.5 0 0 1 4.5-4.8c1-.5 2.3-.8 3.7-.8a9 9 0 0 1 3.2.6 7 7 0 0 1 4.2 4.3c.4 1 .6 2.2.6 3.5 0 .7 0 1.1-.2 1.4-.1.2-.4.3-.8.3h-11.4zm29-5.9l-.4.4-.5.2c-.3 0-.5 0-.7-.2a10.3 10.3 0 0 0-1.9-1l-1.5-.2c-.8 0-1.5.2-2 .5a4 4 0 0 0-1.5 1.2c-.4.5-.7 1.1-.9 1.9-.2.7-.3 1.6-.3 2.5 0 1 .1 1.9.3 2.7.2.7.6 1.4 1 1.9.3.5.8 1 1.4 1.2.6.3 1.2.4 1.9.4a4.8 4.8 0 0 0 2.8-.8l.8-.6c.2-.2.5-.3.8-.3.3 0 .6.2.8.4l1.2 1.6a8.4 8.4 0 0 1-5.3 3h-2a7.7 7.7 0 0 1-5.9-2.5 9.2 9.2 0 0 1-1.7-3c-.4-1.1-.6-2.5-.6-4 0-1.3.2-2.6.5-3.7.4-1.2 1-2.2 1.8-3 .7-.9 1.7-1.6 2.8-2 1.1-.5 2.4-.8 3.8-.8s2.6.3 3.7.7c1 .5 2 1 2.8 2l-1.2 1.5zm10.3 14.9c-1.6 0-2.9-.5-3.7-1.4-.9-.9-1.3-2.1-1.3-3.7v-10.3h-1.9l-.6-.3c-.2-.1-.3-.4-.3-.7v-1.7l3-.5 1-5c0-.3.1-.5.3-.6.2-.2.4-.2.6-.2h2.3v5.8h5v3.2h-5v10c0 .5.2 1 .5 1.3.2.3.6.5 1.1.5h.7l.5-.3.4-.2.3-.1.3.1.3.3 1.3 2.2c-.6.5-1.4.9-2.2 1.2-.8.3-1.7.4-2.6.4zm7-13h9.4v3.7h-9.3v-3.7zm18.1-3.8c.7-.7 1.5-1.2 2.4-1.6.8-.4 1.9-.7 3-.7 1 0 2 .2 2.7.6.8.3 1.4.8 2 1.4.5.6.9 1.4 1.1 2.2.3.9.4 1.8.4 2.8V454h-4.4v-11.8c0-1-.3-2-.8-2.6-.5-.6-1.3-.9-2.3-.9-.8 0-1.5.2-2.2.5-.7.4-1.3.8-1.9 1.4V454h-4.4v-26.7h4.4v10.2zm31.8-2V454h-2.7c-.6 0-1-.3-1.1-.8l-.4-1.5c-.7.8-1.5 1.4-2.5 1.9a7 7 0 0 1-3.2.7c-1 0-1.9-.2-2.7-.5-.7-.4-1.4-.9-1.9-1.5s-1-1.3-1.2-2.2c-.3-.9-.4-1.8-.4-2.8v-11.8h4.4v11.8c0 1.1.3 2 .8 2.6.5.6 1.3 1 2.4 1 .7 0 1.5-.3 2.1-.6.7-.3 1.3-.8 2-1.4v-13.4h4.4zm8.8 13.7c.5.6 1 1 1.7 1.3a4.8 4.8 0 0 0 3.7 0c.6-.2 1-.6 1.4-1.1.4-.6.7-1.2.9-2 .2-.8.3-1.8.3-3 0-2-.3-3.4-1-4.3-.7-1-1.7-1.4-3-1.4-.8 0-1.5.2-2.1.6-.7.4-1.3 1-1.9 1.6v8.3zm0-11.4c.8-.8 1.6-1.4 2.5-1.9 1-.4 2-.7 3.1-.7 1 0 2 .3 2.9.7a6 6 0 0 1 2.2 1.8c.6.8 1 1.7 1.4 2.8a14 14 0 0 1 0 7.8 9.3 9.3 0 0 1-1.7 3.2 7.2 7.2 0 0 1-8.6 2.1l-1-.7-1-1-.2 1.2c0 .3-.2.6-.4.7a1 1 0 0 1-.7.2h-2.9v-26.7h4.4v10.5z"/>
    <path fill="url(#_Linear6)" d="M1286.8 463.2h387.5v1.8h-387.5z"/>
  </g>
  <defs>
    <linearGradient id="_Linear1" x2="1" gradientTransform="rotate(-105.1 887.3 -373.8) scale(399.405)" gradientUnits="userSpaceOnUse">
      <stop offset="0" stop-color="#0267b0" stop-opacity="0"/>
      <stop offset="1" stop-color="#bb6bd9" stop-opacity="0"/>
    </linearGradient>
    <linearGradient id="_Linear3" x2="1" gradientTransform="rotate(-105.1 887.3 -373.8) scale(399.405)" gradientUnits="userSpaceOnUse">
      <stop offset="0" stop-color="#02b9d2"/>
      <stop offset="1" stop-color="#498df8"/>
    </linearGradient>
    <linearGradient id="_Linear4" x2="1" gradientTransform="scale(-933.203) rotate(58.6 .1 -1.5)" gradientUnits="userSpaceOnUse">
      <stop offset="0" stop-color="#7e7e7e"/>
      <stop offset="1" stop-color="#fff" stop-opacity="0"/>
    </linearGradient>
    <linearGradient id="_Linear5" x2="1" gradientTransform="matrix(0 212 -212 0 1480.5 269)" gradientUnits="userSpaceOnUse">
      <stop offset="0" stop-color="#02b9d2"/>
      <stop offset="1" stop-color="#498df8"/>
    </linearGradient>
    <linearGradient id="_Linear6" x2="1" gradientTransform="matrix(0 212 -212 0 1480.5 269)" gradientUnits="userSpaceOnUse">
      <stop offset="0" stop-color="#02b9d2"/>
      <stop offset="1" stop-color="#498df8"/>
    </linearGradient>
  </defs>
</svg>
