<svg xmlns="http://www.w3.org/2000/svg" width="16" height="16" viewBox="0 0 16 16"><defs><linearGradient id="grad" x1="0%" x2="0%" y1="0%" y2="100%"><stop offset="0%" style="stop-color:#dadada;stop-opacity:1"/><stop offset="100%" style="stop-color:#fff;stop-opacity:1"/></linearGradient></defs><path fill="#fff" d="M14 3l-3-3H2v16h12V3z"/><path fill="#7f7f7f" d="M14 3v13H2V0h9l3 3zM3 1v14h10V3.4L10.6 1H3z"/><path fill="#7f7f7f" d="M14 3v1h-4V0h1l3 3zm-3 0h1.6L11 1.4V3z"/><path fill="url(#grad)" d="M9 5V2H4v12h8V5H9z"/><path fill="#f8310e" fill-rule="nonzero" d="M11.9 11c-.2-.2-.5-.2-1-.3a9 9 0 0 0-1.3.1 3 3 0 0 1-.6-.4c-.5-.4-.9-1-1.1-1.6v-.2s.3-1.4.2-2v-.1c-.1-.2-.2-.3-.4-.3h-.2c-.2 0-.4 0-.5.3C7 7 7 7.9 7.3 9v.2l-.7 1.4-.7 1.3h-.2l-.5.3c-.7.5-1.1 1-1.2 1.3l.1.3.2.1.3.1c.5 0 1-.6 1.9-2l2.8-.7c.7.4 1.6.7 2.1.7h.2c.2 0 .2-.1.3-.2v-.6-.2zm-7.4 2.6c0-.2.4-.7 1-1.1l.1-.2c-.5.9-.9 1.2-1.1 1.3m3.1-7.2c.2 0 .3.4.3.8l-.2.8a4 4 0 0 1-.2-1l.1-.6m-1 5.2a41.9 41.9 0 0 0 1-2A4.3 4.3 0 0 0 8.8 11c-.8.1-1.5.3-2.1.6m5 0h-.3l-1.1-.4h1.2c.3.1.3.3.2.3"/></svg>