<svg xmlns="http://www.w3.org/2000/svg" width="16" height="16" viewBox="0 0 16 16"><defs><linearGradient id="grad" x1="0%" x2="0%" y1="0%" y2="100%"><stop offset="0%" style="stop-color:#eac200;stop-opacity:1"/><stop offset="50%" style="stop-color:#fff657;stop-opacity:1"/><stop offset="100%" style="stop-color:#cc7b17;stop-opacity:1"/></linearGradient></defs><path fill="#fff" d="M14 3l-3-3H2v16h12V3z"/><path fill="#7f7f7f" d="M14 3v13H2V0h9l3 3zM3 1v14h10V3.4L10.6 1H3z"/><path fill="#7f7f7f" d="M14 3v1h-4V0h1l3 3zm-3 0h1.6L11 1.4V3z"/><path fill="url(#grad)" d="M9 5V2H4v12h8V5H9z"/><circle cx="6" cy="5" r="2" fill="#fff" fill-opacity=".9"/><path fill-opacity=".7" fill-rule="nonzero" d="M13 7.8c-.8-.4-1.9 0-2.7.6-.8.5-1.6-1.3-3-.8-.5.3-1 1-1.4.9-.9-.3.5-2 2.2-2 .8 0 1.9.8 1.9.8.6-.5 1.9-.9 3-.6v1z"/></svg>