<svg xmlns="http://www.w3.org/2000/svg" id="Logo_-_Bright_Purple" width="300" height="59.7" data-name="Logo - Bright Purple" viewBox="0 0 300 59.7"><g id="Logo_Bright_Purple" data-name="Logo Bright Purple"><path id="Path_460" fill="#4f00b5" d="M725.153,99.31c-9.13,0-15.923,6.794-15.923,15.71s6.793,15.71,15.923,15.71,15.922-6.794,15.922-15.71S734.282,99.31,725.153,99.31Zm0,26.751c-6.369,0-10.828-4.459-10.828-11.04s4.459-11.04,10.828-11.04,10.827,4.458,10.827,11.04S731.523,126.061,725.153,126.061Z" data-name="Path 460" transform="translate(-598.825 -85.365)"/><rect id="Rectangle_562" width="4.884" height="29.723" fill="#4f00b5" data-name="Rectangle 562" transform="translate(173.245 14.794)"/><path id="Path_461" fill="#4f00b5" d="M1196.528,104.686h-3.49l-6.488,6.488v23.234h9.979c9.341,0,15.922-6.581,15.922-14.861S1205.869,104.686,1196.528,104.686Zm0,25.052h-5.1V109.357h5.1c6.581,0,10.828,4.246,10.828,10.191S1203.109,129.738,1196.528,129.738Z" data-name="Path 461" transform="translate(-1000.778 -89.891)"/><rect id="Rectangle_563" width="4.883" height="29.723" fill="#4f00b5" data-name="Rectangle 563" transform="translate(218.04 14.794)"/><path id="Path_462" fill="#4f00b5" d="M1482.985,118.842h5.307l-.007,6.795s-7.352-.043-10.184-.043c-6.369,0-10.828-4.2-10.828-10.573,0-6.582,4.458-11.04,10.828-11.04a10.481,10.481,0,0,1,9.979,6.156h4.883A14.819,14.819,0,0,0,1478.1,99.31c-8.917,0-15.923,6.581-15.923,15.71s6.538,15.244,15.923,15.244h8.585l6.489-6.488v-9.6h-10.191Z" data-name="Path 462" transform="translate(-1232.887 -85.365)"/><path id="Path_463" fill="#4f00b5" d="M1725.027,104.686l-7.59,25.264h-1.062l-7.589-25.264h-8.546v29.723h4.883V113.6l-.425-4.034h.9l7.378,24.84h7.643l7.377-24.84h.9l-.424,4.034v20.806h4.883V104.686Z" data-name="Path 463" transform="translate(-1433.36 -89.891)"/><path id="Path_464" fill="#4f00b5" d="M956.137,104.687h-4.882v23.207l6.462,6.515h13.495v-4.671H956.137Z" data-name="Path 464" transform="translate(-802.635 -89.893)"/><path id="Path_465" fill="#4f00b5" d="M542.14,108.014c0-2.335,1.911-4.246,5.945-4.246a8.165,8.165,0,0,1,7.013,3.814l3.207-3.207c-1.492-2.386-4.448-5.065-10.221-5.065-6.794,0-11.04,4.246-11.04,8.917,0,10.616,17.834,7.219,17.834,13.587,0,2.548-1.91,4.459-6.581,4.459a9.15,9.15,0,0,1-7.857-4.881l-3.325,3.324c1.517,2.754,4.677,6.014,11.182,6.014,7.431,0,11.677-4.246,11.677-9.129C559.974,111.2,542.14,114.384,542.14,108.014Z" data-name="Path 465" transform="translate(-453.827 -85.365)"/><path id="Path_458" fill="#4f00b5" d="M58.764,42.446V34.968L43.512,50.219H15.288V36.108l19.83-19.83H58.764V10.99H32.927L10,33.917V48.281l7.226,7.226H45.7Z" data-name="Path 458" transform="translate(-10 -10.99)"/><path id="Path_459" fill="#4f00b5" d="M135.7,107.146l-13.061,13.061v7.478l15.252-15.251h28.224v14.111l-19.83,19.829H122.642v5.288h25.837l22.927-22.927V114.372l-7.226-7.226Z" data-name="Path 459" transform="translate(-104.856 -91.963)"/></g></svg>