<svg width="50" height="38" viewBox="0 0 50 38" fill="none" xmlns="http://www.w3.org/2000/svg">
<path d="M42.4151 3.21491C42.3981 3.18946 42.3811 3.16402 42.3471 3.15553C39.1054 1.67108 35.6765 0.610748 32.1626 0.00848249C32.1285 -1.29561e-07 32.0945 0.00848236 32.069 0.016965C32.0435 0.0254476 32.0179 0.0508957 32.0009 0.0848262C31.533 0.924605 31.1075 1.79831 30.7332 2.68051C26.9384 2.10369 23.0842 2.10369 19.2979 2.68051C18.9151 1.78983 18.4896 0.924605 18.0132 0.0848262C17.9962 0.0593783 17.9706 0.0339302 17.9451 0.016965C17.9196 -2.59122e-07 17.8855 0 17.8515 0C14.3376 0.602266 10.9087 1.66259 7.667 3.14705C7.64148 3.15553 7.61595 3.18098 7.59893 3.20643C1.11556 12.8596 -0.662686 22.2838 0.205167 31.5808C0.205167 31.6062 0.213676 31.6232 0.222184 31.6486C0.230692 31.6741 0.247709 31.6826 0.264726 31.6995C4.04244 34.4903 8.26259 36.6195 12.755 37.9936C12.789 38.0021 12.8231 38.0021 12.8486 37.9936C12.8741 37.9852 12.9082 37.9597 12.9252 37.9343C13.8866 36.6279 14.746 35.2368 15.4777 33.7947C15.4862 33.7778 15.4947 33.7523 15.4947 33.7269C15.4947 33.7014 15.4947 33.6845 15.4862 33.659C15.4777 33.6336 15.4692 33.6166 15.4522 33.6081C15.4351 33.5996 15.4181 33.5827 15.3926 33.5742C14.0483 33.0568 12.738 32.4375 11.4873 31.7165C11.4617 31.6995 11.4447 31.6826 11.4277 31.6656C11.4107 31.6486 11.4022 31.6147 11.4022 31.5893C11.4022 31.5638 11.4022 31.5384 11.4192 31.5129C11.4362 31.4875 11.4447 31.4705 11.4702 31.4535C11.734 31.2584 11.9978 31.0549 12.2445 30.8513C12.27 30.8343 12.2956 30.8173 12.3211 30.8173C12.3466 30.8173 12.3806 30.8173 12.4062 30.8258C20.5912 34.5497 29.4569 34.5497 37.5484 30.8258C37.5739 30.8173 37.6079 30.8089 37.6334 30.8089C37.659 30.8089 37.693 30.8258 37.71 30.8428C37.9568 31.0464 38.2205 31.2584 38.4843 31.4535C38.5013 31.4705 38.5183 31.4875 38.5353 31.5129C38.5524 31.5384 38.5524 31.5638 38.5524 31.5893C38.5524 31.6147 38.5438 31.6402 38.5268 31.6656C38.5098 31.6911 38.4928 31.708 38.4758 31.7165C37.2251 32.446 35.9233 33.0652 34.5704 33.5657C34.5534 33.5742 34.5279 33.5827 34.5109 33.5996C34.4939 33.6166 34.4854 33.6336 34.4768 33.659C34.4683 33.6845 34.4683 33.7014 34.4683 33.7269C34.4683 33.7523 34.4768 33.7693 34.4854 33.7947C35.2341 35.2368 36.0849 36.6195 37.0379 37.9343C37.0549 37.9597 37.0889 37.9852 37.1144 37.9936C37.14 38.0021 37.1825 38.0021 37.208 37.9936C41.709 36.6195 45.9376 34.4903 49.7238 31.6995C49.7409 31.6826 49.7579 31.6656 49.7664 31.6486C49.7749 31.6317 49.7834 31.6062 49.7834 31.5808C50.8299 20.8248 48.0392 11.4855 42.3896 3.20643L42.4151 3.21491ZM16.7199 25.9229C14.2525 25.9229 12.2275 23.6665 12.2275 20.9012C12.2275 18.1358 14.2184 15.8795 16.7199 15.8795C19.2469 15.8795 21.2549 18.1528 21.2123 20.9012C21.2123 23.675 19.2214 25.9229 16.7199 25.9229ZM33.3452 25.9229C30.8778 25.9229 28.8528 23.6665 28.8528 20.9012C28.8528 18.1358 30.8438 15.8795 33.3452 15.8795C35.8722 15.8795 37.8802 18.1528 37.8377 20.9012C37.8377 23.675 35.8637 25.9229 33.3452 25.9229Z" fill="white"/>
</svg>
