<svg xmlns="http://www.w3.org/2000/svg" width="14" height="14" viewBox="0 0 32 32"><path fill="#212529" d="M26.72 0c1.81 0 3.29 1.46 3.29 3.28V32l-3.45-3.05-1.93-1.79-2.06-1.9.85 2.96H5.27A3.3 3.3 0 0 1 2 24.94V3.28A3.28 3.28 0 0 1 5.27 0h21.45zm-6.18 20.9c3.53-.12 4.91-2.43 4.91-2.43 0-5.16-2.31-9.33-2.31-9.33-2.3-1.75-4.5-1.68-4.5-1.68l-.23.25c1.46.39 2.81 1.08 3.98 2.03a13.05 13.05 0 0 0-8.04-1.5l-.27.03c-.56.04-1.92.25-3.63 1.01l-.96.46s1.34-1.27 4.22-2.1l-.15-.18s-2.21-.05-4.51 1.68c0 0-2.3 4.17-2.3 9.33 0 0 1.35 2.31 4.89 2.42l1.06-1.33a4.98 4.98 0 0 1-2.8-1.89c.19.14.38.26.58.37h.01l.07.03c1.1.57 2.3 1 3.52 1.24 2.87.56 5.85-.02 8.3-1.62 2.44-1.6-.8 1.32-2.9 1.9.49.62 1.06 1.3 1.06 1.3zm-7.44-7.48c-.9 0-1.62.8-1.62 1.78 0 .97.73 1.78 1.62 1.78.92 0 1.63-.8 1.63-1.78.02-.98-.71-1.78-1.63-1.78zm5.85 0c-.92 0-1.63.8-1.63 1.78 0 .97.73 1.78 1.63 1.78.9 0 1.62-.8 1.62-1.78s-.72-1.78-1.62-1.78z"/></svg>