<svg width="50" height="49" viewBox="0 0 50 49" fill="none" xmlns="http://www.w3.org/2000/svg">
<path d="M50 24.5913C50 11.0084 38.8086 0 25 0C11.1914 0 0 11.0084 0 24.5913C0 36.1184 8.07617 45.8012 18.9648 48.4621V32.1031H13.8086V24.5913H18.9648V21.354C18.9648 12.9873 22.8125 9.10645 31.1719 9.10645C32.7539 9.10645 35.4883 9.41384 36.6113 9.72123V16.5223C36.0254 16.4646 35 16.4262 33.7207 16.4262C29.6191 16.4262 28.0371 17.9535 28.0371 21.9208V24.5913H36.2012L34.7949 32.1031H28.0273V49C40.4102 47.5303 50 37.1655 50 24.5913Z" fill="white"/>
</svg>
