<svg width="50" height="48" viewBox="0 0 50 48" fill="none" xmlns="http://www.w3.org/2000/svg">
<path d="M16.7238 38.6495C16.7238 38.848 16.4919 39.0068 16.1996 39.0068C15.8669 39.0366 15.6351 38.8778 15.6351 38.6495C15.6351 38.451 15.8669 38.2922 16.1593 38.2922C16.4617 38.2624 16.7238 38.4212 16.7238 38.6495ZM13.5887 38.2029C13.5181 38.4014 13.7198 38.6297 14.0222 38.6892C14.2843 38.7885 14.5867 38.6892 14.6472 38.4907C14.7077 38.2922 14.5161 38.0639 14.2137 37.9746C13.9516 37.9051 13.6593 38.0044 13.5887 38.2029ZM18.0444 38.0342C17.752 38.1036 17.5504 38.2922 17.5806 38.5205C17.6109 38.719 17.873 38.848 18.1754 38.7786C18.4677 38.7091 18.6694 38.5205 18.6391 38.322C18.6089 38.1334 18.3367 38.0044 18.0444 38.0342ZM24.6774 0C10.6956 0 0 10.4515 0 24.218C0 35.2253 7.03629 44.6445 17.0867 47.9596C18.377 48.1878 18.8306 47.4037 18.8306 46.7586C18.8306 46.1432 18.8004 42.7487 18.8004 40.6644C18.8004 40.6644 11.744 42.1532 10.2621 37.7066C10.2621 37.7066 9.1129 34.8183 7.45968 34.0739C7.45968 34.0739 5.15121 32.5156 7.62097 32.5454C7.62097 32.5454 10.131 32.7439 11.5121 35.1062C13.7198 38.9374 17.4194 37.8356 18.8609 37.1806C19.0927 35.5925 19.748 34.4908 20.4738 33.8357C14.8387 33.2203 9.15323 32.4164 9.15323 22.8681C9.15323 20.1386 9.91935 18.7689 11.5323 17.0221C11.2702 16.3769 10.4133 13.7169 11.7944 10.2827C13.9012 9.63757 18.75 12.9626 18.75 12.9626C20.7661 12.4068 22.9335 12.1189 25.0806 12.1189C27.2278 12.1189 29.3952 12.4068 31.4113 12.9626C31.4113 12.9626 36.2601 9.62764 38.3669 10.2827C39.748 13.7268 38.8911 16.3769 38.629 17.0221C40.2419 18.7789 41.2298 20.1486 41.2298 22.8681C41.2298 32.4462 35.2923 33.2104 29.6573 33.8357C30.5847 34.6198 31.371 36.1086 31.371 38.4411C31.371 41.786 31.3407 45.9249 31.3407 46.7387C31.3407 47.3839 31.8044 48.168 33.0847 47.9397C43.1653 44.6445 50 35.2253 50 24.218C50 10.4515 38.6593 0 24.6774 0ZM9.79839 34.2327C9.66734 34.332 9.69758 34.5603 9.86895 34.7488C10.0302 34.9077 10.2621 34.9771 10.3931 34.8481C10.5242 34.7488 10.494 34.5206 10.3226 34.332C10.1613 34.1732 9.92943 34.1037 9.79839 34.2327ZM8.70968 33.4288C8.63911 33.5578 8.73992 33.7166 8.94153 33.8159C9.10282 33.9151 9.30444 33.8853 9.375 33.7464C9.44556 33.6173 9.34476 33.4585 9.14314 33.3593C8.94153 33.2997 8.78024 33.3295 8.70968 33.4288ZM11.9758 36.9622C11.8145 37.0912 11.875 37.389 12.1069 37.5776C12.3387 37.8059 12.631 37.8356 12.7621 37.6768C12.8931 37.5478 12.8327 37.25 12.631 37.0615C12.4093 36.8332 12.1069 36.8034 11.9758 36.9622ZM10.8266 35.5032C10.6653 35.6024 10.6653 35.8605 10.8266 36.0888C10.9879 36.3171 11.2601 36.4163 11.3911 36.3171C11.5524 36.188 11.5524 35.93 11.3911 35.7017C11.25 35.4734 10.9879 35.3741 10.8266 35.5032Z" fill="white"/>
</svg>
