<svg width="50" height="49" viewBox="0 0 50 49" fill="none" xmlns="http://www.w3.org/2000/svg">
<path d="M25.0056 11.937C17.9225 11.9152 12.1668 17.5351 12.1445 24.4781C12.1221 31.4211 17.8556 37.063 24.9387 37.0848C32.0218 37.1067 37.7775 31.4867 37.7998 24.5437C37.8221 17.6007 32.0887 11.9589 25.0056 11.937ZM24.9387 16.3543C29.5343 16.3324 33.2711 19.9734 33.2934 24.4781C33.3157 28.9829 29.6012 32.6457 25.0056 32.6676C20.4099 32.6894 16.6732 29.0485 16.6509 24.5437C16.6286 20.039 20.343 16.3762 24.9387 16.3543ZM35.3569 11.4231C35.3569 9.80492 36.6955 8.49286 38.3463 8.49286C39.9972 8.49286 41.3358 9.80492 41.3358 11.4231C41.3358 13.0413 39.9972 14.3534 38.3463 14.3534C36.6955 14.3534 35.3569 13.0413 35.3569 11.4231ZM49.8243 14.3971C49.6347 10.4719 48.72 6.99492 45.7864 4.13026C42.8639 1.26559 39.3168 0.369017 35.3123 0.172208C31.1852 -0.0574027 18.8148 -0.0574027 14.6877 0.172208C10.6944 0.358083 7.14724 1.25466 4.21361 4.11932C1.27998 6.98399 0.376464 10.4609 0.175683 14.3862C-0.0585611 18.4317 -0.0585611 30.5573 0.175683 34.6029C0.36531 38.5281 1.27998 42.0051 4.21361 44.8697C7.14724 47.7344 10.6832 48.631 14.6877 48.8278C18.8148 49.0574 31.1852 49.0574 35.3123 48.8278C39.3168 48.6419 42.8639 47.7453 45.7864 44.8697C48.7089 42.0051 49.6235 38.5281 49.8243 34.6029C50.0586 30.5573 50.0586 18.4427 49.8243 14.3971ZM44.4925 38.9436C43.6224 41.0866 41.9381 42.7376 39.7407 43.6014C36.4501 44.8807 28.6419 44.5855 25.0056 44.5855C21.3692 44.5855 13.5499 44.8697 10.2705 43.6014C8.08422 42.7486 6.39989 41.0976 5.51868 38.9436C4.21361 35.7181 4.51478 28.0644 4.51478 24.5C4.51478 20.9356 4.22476 13.2709 5.51868 10.0564C6.38874 7.91337 8.07306 6.26236 10.2705 5.39858C13.5611 4.11932 21.3692 4.41454 25.0056 4.41454C28.6419 4.41454 36.4612 4.13026 39.7407 5.39858C41.9269 6.25142 43.6113 7.90243 44.4925 10.0564C45.7975 13.2819 45.4964 20.9356 45.4964 24.5C45.4964 28.0644 45.7975 35.729 44.4925 38.9436Z" fill="white"/>
</svg>
