<svg xmlns="http://www.w3.org/2000/svg" width="14" height="14" version="1.0" xml:space="preserve"><g><title>Layer 1</title><g id="layer1" stroke="null"><g id="svg_4" stroke="null" transform="matrix(0.00719769 0 0 0.00719769 47.9002 181.391)"><g id="svg_3" stroke="null" transform="matrix(0.857143 0 0 0.857143 8 306)"><path id="svg_1" fill="#212529" fill-rule="evenodd" stroke="null" d="m-6897.57078,-25864.53929l236.4,0l0,531.3l-236.4,0l0,-531.3" class="st0" clip-rule="evenodd"/><path id="svg_2" fill="#212529" fill-rule="evenodd" stroke="null" d="m-7444.17078,-26408.43929l401.7,0l-286,-270.7l157.6,-160.6l272.1,278.3l0,-396l236.4,0l0,395.9l272,-278.3l157.6,160.6l-286,270.7l401.8,0l0,223.9l-404.3,0l287.3,278.3l-157.6,156.9l-390.3,-390.9l-390.3,390.9l-157.6,-156.9l287.3,-278.3l-404.2,0l0,-223.8l2.5,0" class="st0" clip-rule="evenodd"/></g></g></g><g id="svg_10" stroke="null"><g id="svg_9" stroke="null" transform="matrix(0.0102109 0 0 0.00989492 67.3226 218.77)"><g id="svg_8" stroke="null" transform="matrix(0.857143 0 0 0.857143 8 306)"><path id="svg_6" fill="#212529" fill-rule="evenodd" stroke="null" d="m-7012.0516,-25046.02016l236.4,0l0,531.3l-236.4,0l0,-531.3" class="st0" clip-rule="evenodd"/><path id="svg_7" fill="#212529" fill-rule="evenodd" stroke="null" d="m-7558.6516,-25589.92016l401.7,0l-286,-270.7l157.6,-160.6l272.1,278.3l0,-396l236.4,0l0,395.9l272,-278.3l157.6,160.6l-286,270.7l401.8,0l0,223.9l-404.3,0l287.3,278.3l-157.6,156.9l-390.3,-390.9l-390.3,390.9l-157.6,-156.9l287.3,-278.3l-404.2,0l0,-223.8l2.5,0" class="st0" clip-rule="evenodd"/></g></g></g></g></svg>