<svg width="50" height="43" viewBox="0 0 50 43" fill="none" xmlns="http://www.w3.org/2000/svg">
<path d="M36.4258 10.2363C33.9648 10.2363 31.9043 8.55583 31.3574 6.29924C28.3691 6.71215 26.0645 9.24721 26.0645 12.2912V12.3104C30.6934 12.4833 34.9121 13.7604 38.2617 15.7961C39.4922 14.8647 41.0352 14.3077 42.7051 14.3077C46.7383 14.3077 50 17.515 50 21.4808C50 24.3423 48.3008 26.8102 45.8301 27.9625C45.5957 36.2975 36.3574 43 25.0098 43C13.6621 43 4.44336 36.3071 4.19922 27.9817C1.71875 26.839 0 24.3615 0 21.4808C0 17.515 3.26172 14.3077 7.29492 14.3077C8.97461 14.3077 10.5176 14.8647 11.7578 15.8057C15.0781 13.7796 19.2578 12.5025 23.8379 12.3104V12.2816C23.8379 8.02769 27.1289 4.51318 31.3379 4.07146C31.8164 1.74765 33.9062 0 36.4258 0C39.2969 0 41.6309 2.295 41.6309 5.11813C41.6309 7.94127 39.2969 10.2363 36.4258 10.2363ZM15.3809 21.4424C13.3398 21.4424 11.582 23.4397 11.4551 26.042C11.3281 28.6443 13.125 29.7005 15.166 29.7005C17.207 29.7005 18.7402 28.7595 18.8574 26.1572C18.9746 23.5549 17.4219 21.4424 15.3711 21.4424H15.3809ZM38.5742 26.0324C38.457 23.4301 36.6992 21.4328 34.6484 21.4328C32.5977 21.4328 31.0449 23.5453 31.1621 26.1476C31.2793 28.7499 32.8125 29.6909 34.8535 29.6909C36.8945 29.6909 38.6914 28.6347 38.5645 26.0324H38.5742ZM32.7051 32.831C32.8516 32.4853 32.6074 32.0916 32.2266 32.0531C29.9805 31.8323 27.5488 31.7075 25.0195 31.7075C22.4902 31.7075 20.0586 31.8323 17.8125 32.0531C17.4316 32.0916 17.1875 32.4853 17.334 32.831C18.5938 35.7885 21.5625 37.8627 25.0195 37.8627C28.4766 37.8627 31.4453 35.7885 32.7051 32.831Z" fill="white"/>
</svg>
