<svg xmlns="http://www.w3.org/2000/svg" width="14" height="14" viewBox="0 0 32 32"><path fill="#212529" d="M32 16.2a3.5 3.5 0 0 0-6-2.5c-2.7-1.9-6-3-9.3-3l1.6-7.5 5.2 1.1c0 1.3 1.2 2.4 2.5 2.4 1.4 0 2.5-1.1 2.5-2.5S27.4 1.7 26 1.7c-1 0-1.8.6-2.2 1.4L18 2h-.5l-.3.5-1.7 8.3c-3.8.2-7.1 1.3-9.6 3a3.5 3.5 0 1 0-3.8 5.7l-.1 1c0 5.5 6.2 9.9 14 9.9s14-4.4 14-9.8v-1c1.2-.6 2-1.9 2-3.3zM8 18.7c0-1.4 1-2.5 2.5-2.5 1.3 0 2.5 1.1 2.5 2.5s-1.2 2.5-2.5 2.5A2.5 2.5 0 0 1 8 18.7zm14 6.6c-1.8 1.8-5 1.9-6 1.9s-4.3-.2-6-1.9a.6.6 0 0 1 0-.9c.3-.2.7-.2 1 0 1 1.1 3.4 1.5 5 1.5s4-.4 5-1.5a.6.6 0 0 1 1 0c.2.3.2.7 0 1zm-.5-4a2.5 2.5 0 0 1-2.5-2.6c0-1.3 1.1-2.5 2.5-2.5s2.5 1.2 2.5 2.5c0 1.4-1.1 2.5-2.5 2.5z"/></svg>