<svg viewBox="0 0 320 32" xmlns="http://www.w3.org/2000/svg" fill-rule="evenodd" clip-rule="evenodd" stroke-linejoin="round" stroke-miterlimit="1.41">
  <path d="M13.69 24.9h3.68V16h2.45l.33-3.07h-2.78V11.4c0-.8.08-1.22 1.23-1.22h1.53V7.1h-2.45c-2.95 0-3.99 1.49-3.99 3.99v1.84h-1.84V16h1.84v8.9zM50.23 8.89a3.68 3.68 0 0 0-2.48 3.7l.03.63-.63-.08c-2.32-.3-4.34-1.3-6.06-2.98l-.84-.84-.21.62a3.72 3.72 0 0 0 .79 3.8c.5.55.39.63-.49.3-.3-.1-.57-.18-.6-.14-.08.1.22 1.26.46 1.73.33.64 1 1.27 1.75 1.64l.62.3-.74.01c-.71 0-.74.01-.66.29.25.83 1.26 1.72 2.38 2.1l.79.28-.69.4c-1.02.6-2.21.93-3.41.96-.57.01-1.04.06-1.04.1 0 .13 1.55.85 2.45 1.13 2.71.84 5.93.48 8.35-.95a11.18 11.18 0 0 0 4.23-5c.44-1.03.87-2.94.87-3.85 0-.6.04-.67.75-1.38.42-.4.81-.86.89-.98.13-.25.11-.25-.53-.03-1.08.38-1.24.33-.7-.25.4-.4.86-1.15.86-1.37 0-.04-.19.03-.4.14-.23.13-.74.32-1.12.44l-.7.22-.61-.43a5.19 5.19 0 0 0-1.09-.57 4.34 4.34 0 0 0-2.22.06z" fill="#0a0e1a" fill-rule="nonzero"/>
  <path d="M89.24 23.55H70.76V11.9L80 17.73l9.24-5.83v11.65zm0-12.43L80 16.7l-9.24-5.57V8.47h18.48v2.65zM106.8 22.55a1.88 1.88 0 1 0 0-3.76 1.88 1.88 0 0 0 0 3.76zm4.74 0h2.73c0-5.16-4.2-9.35-9.35-9.35v2.71a6.59 6.59 0 0 1 6.62 6.63zm4.81 0h2.73c0-7.81-6.35-14.16-14.16-14.16v2.71c6.3 0 11.43 5.13 11.43 11.44zM137.68 6.73v1.8a.88.88 0 0 0 1.76 0v-1.8h9.04v1.8a.88.88 0 0 0 1.76 0v-1.8h1.12c1.06 0 1.92.86 1.92 1.92v14.72c0 1.06-.86 1.93-1.92 1.93h-14.72a1.92 1.92 0 0 1-1.92-1.93V8.65c0-1.06.86-1.92 1.92-1.92h1.04zm2.06 16.47V20.2h-3.06v3.01h3.06zm3.84 0V20.2h-3.05v3.01h3.05zm3.85 0V20.2h-3.05v3.01h3.05zm3.89-3.88V16.3h-3.06v3.02h3.06zm-11.58 0V16.3h-3.06v3.02h3.06zm7.69 0V16.3h-3.05v3.02h3.05zm-3.85 0V16.3h-3.05v3.02h3.05zm-3.84-4.05v-3.02h-3.06v3.02h3.06zm7.69 0v-3.02h-3.05v3.02h3.05zm3.89 0v-3.02h-3.06v3.02h3.06zm-7.74 0v-3.02h-3.05v3.02h3.05zm5.22-9.04a.56.56 0 1 1 1.12 0v2.29a.56.56 0 1 1-1.12 0v-2.3zm-10.8 0a.56.56 0 0 1 1.12 0v2.29a.56.56 0 1 1-1.12 0v-2.3z" fill="#0a0e1a"/>
  <path d="M182.76 6.39c1.14 0 2.07.92 2.07 2.07v18.1l-2.17-1.92-1.22-1.13-1.3-1.2.54 1.87h-11.44a2.07 2.07 0 0 1-2.07-2.08V8.46c0-1.15.93-2.07 2.07-2.07h13.52zm-3.9 13.17c2.23-.07 3.1-1.53 3.1-1.53 0-3.25-1.46-5.88-1.46-5.88-1.45-1.1-2.84-1.06-2.84-1.06l-.14.16a6.71 6.71 0 0 1 2.51 1.28 8.22 8.22 0 0 0-5.07-.95l-.17.02c-.35.03-1.21.16-2.29.64l-.6.29s.84-.8 2.66-1.32l-.1-.12s-1.39-.03-2.84 1.06c0 0-1.45 2.63-1.45 5.88 0 0 .85 1.46 3.08 1.53l.67-.84a3.14 3.14 0 0 1-1.76-1.19 3.54 3.54 0 0 0 .36.23h.01l.04.02a8.47 8.47 0 0 0 2.22.78 7.07 7.07 0 0 0 5.23-1.02s-.5.83-1.82 1.2c.3.39.66.82.66.82zm-4.69-4.71c-.57 0-1.02.5-1.02 1.12 0 .61.46 1.12 1.02 1.12.58 0 1.03-.5 1.03-1.12.01-.62-.45-1.12-1.03-1.12zm3.69 0c-.58 0-1.03.5-1.03 1.12 0 .61.46 1.12 1.03 1.12.57 0 1.02-.5 1.02-1.12 0-.62-.45-1.12-1.02-1.12zM218.65 16.15a2.33 2.33 0 0 0-3.95-1.68 11.6 11.6 0 0 0-6.24-1.98l1.07-5 3.47.74a1.66 1.66 0 1 0 .17-.8l-3.87-.82a.4.4 0 0 0-.3.05.37.37 0 0 0-.18.27l-1.18 5.58c-2.48.07-4.72.82-6.34 1.98a2.33 2.33 0 1 0-2.58 3.8 4.2 4.2 0 0 0-.06.7c0 3.6 4.18 6.52 9.34 6.52s9.34-2.9 9.34-6.51c0-.23-.02-.48-.06-.7a2.35 2.35 0 0 0 1.37-2.15zm-16 1.66a1.66 1.66 0 1 1 3.33 0 1.66 1.66 0 0 1-3.33 0zm9.3 4.41c-1.14 1.15-3.32 1.23-3.95 1.23-.65 0-2.83-.1-3.95-1.23a.43.43 0 0 1 0-.6.43.43 0 0 1 .6 0c.73.72 2.26.97 3.35.97 1.09 0 2.63-.25 3.34-.98a.43.43 0 0 1 .61 0c.15.18.15.44 0 .61zm-.3-2.73a1.66 1.66 0 1 1 0-3.32 1.66 1.66 0 0 1 0 3.32z" fill="#0a0e1a" fill-rule="nonzero"/>
</svg>
