<svg xmlns="http://www.w3.org/2000/svg" width="14" height="14" viewBox="0 0 32 32"><path fill="#212529" d="M20 3a6.7 6.7 0 0 0-4.5 6.8l.1 1.1-1.1-.1c-4.3-.5-8-2.4-11-5.4L1.8 3.9l-.4 1C.7 7.5 1.2 10 3 12c.9 1 .7 1.1-1 .5l-1-.2c-.2.2.4 2.3.8 3.1a7.4 7.4 0 0 0 3.2 3l1.1.6H4.8c-1.3 0-1.4 0-1.2.5.4 1.5 2.3 3.1 4.3 3.8l1.4.5-1.2.8a13 13 0 0 1-6.2 1.7c-1 0-1.9.1-1.9.2a19.5 19.5 0 0 0 19.6.3 20.3 20.3 0 0 0 9.3-16c0-1.2 0-1.3 1.4-2.6l1.6-1.8c.2-.4.2-.4-1 0-2 .7-2.2.6-1.3-.5.8-.7 1.6-2 1.6-2.5 0 0-.3 0-.7.3l-2 .8-1.3.4L26 4c-.6-.4-1.3-.8-2-1a7.9 7.9 0 0 0-4 0z"/></svg>