<?xml version="1.0" encoding="UTF-8" standalone="no"?>
<!DOCTYPE svg PUBLIC "-//W3C//DTD SVG 1.1//EN" "http://www.w3.org/Graphics/SVG/1.1/DTD/svg11.dtd">
<svg width="100%" height="100%" viewBox="0 0 1000 1000" version="1.1" xmlns="http://www.w3.org/2000/svg" xmlns:xlink="http://www.w3.org/1999/xlink" xml:space="preserve" xmlns:serif="http://www.serif.com/" style="fill-rule:evenodd;clip-rule:evenodd;stroke-linejoin:round;stroke-miterlimit:1.41421;">
    <g id="Cube">
        <path id="Fill" d="M386,60L385,89L227,133L226,163L93,382L69,396L110,555L88,570L204,775L226,764L343,882L366,870L495,865L624,869L648,884L768,768L789,780L908,576L889,562L933,403L909,389L841,281L695,211L693,239L535,293L533,441L696,554L671,572L668,600L647,587L525,665L525,702L495,685L470,700L470,668L352,587L327,601L325,571L302,554L473,447L470,295L466,293L476,287L477,260L503,273L630,209L632,63L503,122L386,60Z" style="fill:rgb(73,141,248);"/>
        <path id="Top-Right" serif:id="Top Right" d="M495,1000L493,1000L495,865L627,773L621,906L495,1000ZM648,884L658,752L776,669L765,799L648,884ZM789,780L802,651L908,576L893,703L789,780ZM499,310L648,391L639,558L498,646L498,474L353,388L499,310ZM806,619L821,475L933,403L916,545L806,619ZM814,297L798,458L670,537L683,373L535,293L666,225L814,297ZM825,441L841,281L695,211L813,148L960,213L938,371L825,441ZM193,293L340,225L470,295L322,370L193,293ZM164,276L49,206L193,145L310,209L164,276ZM475,134L344,194L227,133L357,75L475,134ZM632,63L503,122L386,60L515,4L632,63Z" style="fill:white;"/>
        <path id="Left" d="M366,771L495,865L493,1000L366,902L366,771ZM219,664L338,750L343,882L228,795L219,664ZM88,570L195,646L204,775L101,696L88,570ZM498,646L357,555L353,388L498,474L498,646ZM69,396L180,471L191,614L84,537L69,396ZM322,370L329,537L204,455L193,293L322,370ZM164,276L177,437L65,363L49,206L164,276Z" style="fill:rgb(8,51,154);"/>
    </g>
</svg>
