<svg xmlns="http://www.w3.org/2000/svg" xmlns:xlink="http://www.w3.org/1999/xlink" width="100%" height="100%" version="1.1" viewBox="0 0 93 93" xml:space="preserve" style="fill-rule:evenodd;clip-rule:evenodd;stroke-linejoin:round;stroke-miterlimit:1.41421"><path d="M46.244,79.495l0,12.538l11.08,-9.208l0.461,-11.949l-11.541,8.619Zm-11.542,-8.619l0.461,11.95l11.08,9.206l0,-12.537l-11.541,-8.619Zm35.457,-9.793l-0.738,12.145l-9.881,7.934l0.369,-12.146l10.25,-7.933Zm-37.212,20.078l-9.88,-7.933l-0.739,-12.145l10.25,7.933l0.369,12.145Zm48.785,-28.826l-1.171,11.753l-8.986,7.034l0.86,-11.671l9.297,-7.116Zm-60.818,18.786l-8.988,-7.034l-1.169,-11.754l9.295,7.117l0.862,11.671Zm12.956,-35.65l0.001,0l12.373,-7.286l12.372,7.286l0,15.132l-12.372,8.865l-0.001,-0.001l-12.373,-8.864l0,-15.132Zm49.677,0.93l-1.384,13.026l-9.327,6.955l0.925,-13.223l9.786,-6.758Zm-63.897,19.98l-9.325,-6.953l-1.386,-13.028l9.788,6.759l0.923,13.222Zm52.955,-29.481l-0.922,14.888l-10.758,7.506l0,-15.098l-12.369,-7.296l11.388,-6.356l2.709,1.359l9.952,4.997Zm-9.952,-8.08l9.952,-5.655l12.881,5.655l-1.569,14.496l-9.696,6.874l0.984,-15.02l-12.552,-6.35Zm-55.652,0l12.88,-5.655l2.701,1.533l7.251,4.122l-12.552,6.35l0,0.001l0.985,15.017l-9.696,-6.873l-1.57,-14.495l0,0l0,0l0,-0.001l0.001,0.001Zm36.93,8.08l-12.369,7.296l0,15.098l-10.758,-7.494l-0.923,-14.9l12.662,-6.356l11.388,6.356Zm-11.156,-9.27l-10.28,-5.682l11.375,-5.352l0.115,0.06l9.946,5.292l-11.156,5.682Zm25.054,-12.471l-9.972,-5.159l-11.45,5.159l0.001,0.001l9.835,5.744l11.586,-5.745Z" style="fill:#fff;fill-rule:nonzero"/></svg>