<?xml version="1.0" encoding="UTF-8" standalone="no"?>
<!DOCTYPE svg PUBLIC "-//W3C//DTD SVG 1.1//EN" "http://www.w3.org/Graphics/SVG/1.1/DTD/svg11.dtd">
<svg width="100%" height="100%" viewBox="0 0 320 32" version="1.1" xmlns="http://www.w3.org/2000/svg" xmlns:xlink="http://www.w3.org/1999/xlink" xml:space="preserve" xmlns:serif="http://www.serif.com/" style="fill-rule:evenodd;clip-rule:evenodd;stroke-linejoin:round;stroke-miterlimit:1.41421;">
    <path id="Facebook" d="M13.69,24.903L17.369,24.903L17.369,15.999L19.823,15.999L20.148,12.931L17.369,12.931L17.373,11.395C17.373,10.595 17.449,10.166 18.597,10.166L20.131,10.166L20.131,7.097L17.676,7.097C14.727,7.097 13.69,8.586 13.69,11.089L13.69,12.931L11.852,12.931L11.852,16L13.69,16L13.69,24.903Z" style="fill:rgb(10,14,26);fill-rule:nonzero;"/>
    <g transform="matrix(1,0,0,1,32.0002,0)">
        <path d="M18.226,8.886C16.636,9.465 15.631,10.957 15.745,12.59L15.783,13.22L15.147,13.143C12.832,12.847 10.809,11.844 9.091,10.159L8.251,9.323L8.036,9.94C7.578,11.316 7.871,12.77 8.825,13.748C9.334,14.288 9.219,14.365 8.342,14.044C8.037,13.941 7.769,13.864 7.744,13.903C7.655,13.993 7.96,15.163 8.202,15.627C8.533,16.271 9.207,16.9 9.945,17.274L10.569,17.57L9.83,17.581C9.118,17.581 9.092,17.594 9.169,17.865C9.423,18.701 10.428,19.589 11.548,19.975L12.337,20.245L11.65,20.657C10.632,21.25 9.436,21.584 8.24,21.608C7.667,21.621 7.196,21.672 7.196,21.711C7.196,21.839 8.749,22.559 9.651,22.843C12.361,23.679 15.58,23.318 17.997,21.891C19.715,20.875 21.432,18.855 22.234,16.899C22.667,15.858 23.099,13.954 23.099,13.041C23.099,12.449 23.137,12.372 23.849,11.665C24.269,11.253 24.663,10.803 24.74,10.675C24.868,10.43 24.854,10.43 24.206,10.649C23.125,11.035 22.972,10.984 23.507,10.405C23.901,9.993 24.372,9.247 24.372,9.029C24.372,8.991 24.181,9.055 23.965,9.17C23.736,9.299 23.227,9.492 22.845,9.607L22.158,9.826L21.535,9.4C21.191,9.169 20.709,8.911 20.454,8.834C19.804,8.654 18.812,8.68 18.226,8.886Z" style="fill:rgb(10,14,26);fill-rule:nonzero;"/>
    </g>
    <g transform="matrix(1,0,0,1,63.9861,0)">
        <path d="M25.254,23.555L6.774,23.555L6.774,11.904L16.014,17.73L25.254,11.904L25.254,23.555ZM25.254,11.122L16.014,16.693L6.774,11.122L6.774,8.473L25.254,8.473L25.254,11.122Z" style="fill:rgb(10,14,26);"/>
    </g>
    <g transform="matrix(1,0,0,1,94.4,0)">
        <path d="M12.409,22.548C13.452,22.548 14.295,21.709 14.295,20.67C14.295,19.636 13.452,18.788 12.409,18.788C11.369,18.788 10.524,19.636 10.524,20.67C10.524,21.709 11.369,22.548 12.409,22.548ZM17.143,22.544L19.868,22.544C19.868,17.39 15.675,13.197 10.524,13.197L10.524,15.911C12.291,15.911 13.953,16.602 15.203,17.854C16.453,19.102 17.143,20.771 17.143,22.544ZM21.954,22.543L24.676,22.543C24.676,14.739 18.327,8.386 10.524,8.386L10.524,11.1C16.825,11.1 21.954,16.234 21.954,22.543Z" style="fill:rgb(10,14,26);"/>
    </g>
    <g transform="matrix(1,0,0,1,127.986,0)">
        <path d="M9.693,6.733L9.693,8.533C9.693,9.019 10.087,9.413 10.573,9.413C11.059,9.413 11.453,9.019 11.453,8.533L11.453,6.733L20.495,6.733L20.495,8.533C20.495,9.019 20.889,9.413 21.375,9.413C21.861,9.413 22.255,9.019 22.255,8.533L22.255,6.733L23.375,6.733C24.435,6.733 25.295,7.593 25.295,8.653L25.295,23.375C25.295,24.435 24.435,25.295 23.375,25.295L8.653,25.295C7.592,25.295 6.733,24.435 6.733,23.375L6.733,8.653C6.733,7.593 7.592,6.733 8.653,6.733L9.693,6.733ZM11.75,23.204L11.75,20.188L8.696,20.188L8.696,23.204L11.75,23.204ZM15.597,23.204L15.597,20.188L12.544,20.188L12.544,23.204L15.597,23.204ZM19.444,23.204L19.444,20.188L16.391,20.188L16.391,23.204L19.444,23.204ZM23.332,19.321L23.332,16.305L20.278,16.305L20.278,19.321L23.332,19.321ZM11.75,19.321L11.75,16.305L8.696,16.305L8.696,19.321L11.75,19.321ZM19.444,19.321L19.444,16.305L16.391,16.305L16.391,19.321L19.444,19.321ZM15.597,19.321L15.597,16.305L12.544,16.305L12.544,19.321L15.597,19.321ZM11.75,15.265L11.75,12.248L8.696,12.248L8.696,15.265L11.75,15.265ZM19.444,15.265L19.444,12.248L16.391,12.248L16.391,15.265L19.444,15.265ZM23.331,15.265L23.331,12.248L20.278,12.248L20.278,15.265L23.331,15.265ZM15.597,15.265L15.597,12.248L12.544,12.248L12.544,15.265L15.597,15.265ZM20.815,6.227C20.815,5.918 21.065,5.667 21.375,5.667C21.684,5.667 21.935,5.918 21.935,6.227L21.935,8.518C21.935,8.828 21.684,9.078 21.375,9.078C21.065,9.078 20.815,8.828 20.815,8.518L20.815,6.227ZM10.013,6.227C10.013,5.918 10.264,5.667 10.573,5.667C10.883,5.667 11.133,5.918 11.133,6.227L11.133,8.518C11.133,8.828 10.883,9.078 10.573,9.078C10.264,9.078 10.013,8.828 10.013,8.518L10.013,6.227Z" style="fill:rgb(10,14,26);"/>
    </g>
    <g transform="matrix(0.100872,0,0,0.100872,163.643,4.36817)">
        <path d="M189.5,20C200.8,20 210,29.2 210,40.6L210,220L188.5,201L176.4,189.8L163.6,177.9L168.9,196.4L55.5,196.4C44.2,196.4 35,187.2 35,175.8L35,40.6C35,29.2 44.2,20 55.5,20L189.5,20ZM150.9,150.6C173,149.9 181.5,135.4 181.5,135.4C181.5,103.2 167.1,77.1 167.1,77.1C152.7,66.3 139,66.6 139,66.6L137.6,68.2C154.6,73.4 162.5,80.9 162.5,80.9C152.1,75.2 141.9,72.4 132.4,71.3C125.2,70.5 118.3,70.7 112.2,71.5C111.6,71.5 111.1,71.6 110.5,71.7C107,72 98.5,73.3 87.8,78C84.1,79.7 81.9,80.9 81.9,80.9C81.9,80.9 90.2,73 108.2,67.8L107.2,66.6C107.2,66.6 93.5,66.3 79.1,77.1C79.1,77.1 64.7,103.2 64.7,135.4C64.7,135.4 73.1,149.9 95.2,150.6C95.2,150.6 98.9,146.1 101.9,142.3C89.2,138.5 84.4,130.5 84.4,130.5C84.4,130.5 85.4,131.2 87.2,132.2C87.3,132.3 87.4,132.4 87.6,132.5C87.731,132.587 87.863,132.656 87.994,132.722L88.106,132.778C88.238,132.844 88.369,132.913 88.5,133C91,134.4 93.5,135.5 95.8,136.4C99.9,138 104.8,139.6 110.5,140.7C118,142.1 126.8,142.6 136.4,140.8C141.1,140 145.9,138.6 150.9,136.5C154.4,135.2 158.3,133.3 162.4,130.6C162.4,130.6 157.4,138.8 144.3,142.5C147.3,146.3 150.9,150.6 150.9,150.6ZM104.4,103.9C98.7,103.9 94.2,108.9 94.2,115C94.2,121.1 98.8,126.1 104.4,126.1C110.1,126.1 114.6,121.1 114.6,115C114.7,108.9 110.1,103.9 104.4,103.9ZM140.9,103.9C135.2,103.9 130.7,108.9 130.7,115C130.7,121.1 135.3,126.1 140.9,126.1C146.6,126.1 151.1,121.1 151.1,115C151.1,108.9 146.6,103.9 140.9,103.9Z" style="fill:rgb(10,14,26);fill-rule:nonzero;"/>
    </g>
    <g transform="matrix(0.355896,0,0,0.355896,186.983,-3.42158)">
        <path d="M88.989,55C88.989,51.352 86.039,48.455 82.444,48.455C80.674,48.455 79.064,49.152 77.884,50.279C73.378,47.06 67.208,44.968 60.341,44.7L63.345,30.644L73.109,32.736C73.217,35.204 75.255,37.189 77.777,37.189C80.352,37.189 82.444,35.097 82.444,32.521C82.444,29.946 80.352,27.854 77.777,27.854C75.953,27.854 74.343,28.927 73.592,30.483L62.702,28.176C62.38,28.122 62.058,28.176 61.843,28.337C61.575,28.498 61.414,28.766 61.361,29.088L58.034,44.753C51.06,44.968 44.783,47.06 40.223,50.333C39.043,49.206 37.433,48.509 35.663,48.509C32.015,48.509 29.118,51.459 29.118,55.054C29.118,57.736 30.727,59.989 32.981,61.009C32.873,61.652 32.82,62.296 32.82,62.994C32.82,73.079 44.569,81.288 59.054,81.288C73.539,81.288 85.288,73.133 85.288,62.994C85.288,62.35 85.234,61.652 85.127,61.009C87.38,59.989 88.989,57.682 88.989,55ZM44.032,59.667C44.032,57.092 46.124,55 48.7,55C51.275,55 53.367,57.092 53.367,59.667C53.367,62.242 51.275,64.335 48.7,64.335C46.124,64.388 44.032,62.242 44.032,59.667ZM70.159,72.06C66.94,75.279 60.824,75.494 59.054,75.494C57.23,75.494 51.114,75.225 47.948,72.06C47.466,71.577 47.466,70.826 47.948,70.343C48.431,69.861 49.182,69.861 49.665,70.343C51.704,72.382 55.996,73.079 59.054,73.079C62.112,73.079 66.457,72.382 68.442,70.343C68.925,69.861 69.676,69.861 70.159,70.343C70.588,70.826 70.588,71.577 70.159,72.06ZM69.3,64.388C66.725,64.388 64.633,62.296 64.633,59.721C64.633,57.146 66.725,55.054 69.3,55.054C71.876,55.054 73.968,57.146 73.968,59.721C73.968,62.242 71.876,64.388 69.3,64.388Z" style="fill:rgb(10,14,26);fill-rule:nonzero;"/>
    </g>
</svg>
