<svg xmlns="http://www.w3.org/2000/svg" viewBox="0 0 79 93">
    <path fill="#08339a" d="M27.702 70.876l.461 11.95 11.08 9.206V79.495l-11.541-8.619zm-1.755 10.285l-9.88-7.933-.739-12.145 10.25 7.933.369 12.145zm-12.033-10.04l-8.988-7.034-1.169-11.754 9.295 7.117.862 11.671zm-1.264-14.74l-9.325-6.953L1.939 36.4l9.788 6.759.923 13.222zm26.593-13.027v16.113L26.87 50.603V35.471l12.373 7.883zm-14.681-9.157v15.097l-10.758-7.507-.922-14.886 11.68 7.296zM1.57 33.315l9.696 6.873-.985-15.017L0 18.819l1.57 14.496z"/>
    <path fill="#498df8" d="M72.988 51.049l1.743 1.286-9.295 7.115-.862 11.671-1.95-1.221.534-8.816-10.249 7.933-.369 12.144-2.086-1.66.332-8.625-11.543 8.62-11.541-8.62.332 8.625-2.086 1.66-.371-12.144-10.249-7.933.536 8.816-1.951 1.221-.861-11.671-9.295-7.115L5.5 51.049l7.151 5.331-.924-13.222-9.787-6.757 2.203-1.261 7.122 5.049-.984-15.019 12.552-6.35-7.251-4.122-.087-2.749 10.28 5.68 11.155-5.68-9.945-5.292 2.423 1.286V5.159l9.835 5.745 11.585-5.745-.406 13.661-11.372 5.641-1.813-.89v1.79l-1.623.805-10.073-5.621-12.66 6.355.923 14.888 10.757 7.505V34.196L36.93 26.9v2.646L26.87 35.47v12.39l-4.525 2.939 2.263 1.763v2.792l1.984-1.568 10.342 7.298v3.182l2.309-1.519 2.309 1.519v-3.182l10.342-7.298 1.986 1.568v-2.792l2.261-1.763-4.526-2.939V35.47l-10.059-5.926V26.9l12.368 7.296v15.097l10.758-7.505.924-14.888-9.954-4.997V18.82l12.553 6.35-.984 15.019 7.126-5.049 2.201 1.261-9.789 6.757-.922 13.222 7.151-5.331z"/>
    <path fill="#fff" d="M39.244 79.495v12.538l11.08-9.208.461-11.949-11.541 8.619zm23.915-18.412l-.738 12.145-9.881 7.934.369-12.146 10.25-7.933zm11.573-8.748l-1.171 11.753-8.986 7.034.86-11.671 9.297-7.116zM51.616 35.471v15.132l-12.372 8.865V43.355l-12.373-7.884 12.373-7.286 12.372 7.286zm24.931.93l-1.384 13.026-9.327 6.955.925-13.223 9.786-6.758zM65.605 26.9l-.922 14.888-10.758 7.506V34.196L41.556 26.9l11.388-6.356 2.709 1.359 9.952 4.997zm-9.952-8.08l12.552 6.35-.984 15.02 9.696-6.874 1.569-14.496-12.881-5.655-9.952 5.655zM36.931 26.9l-12.369 7.296L12.881 26.9l12.662-6.356L36.931 26.9zM0 18.82l10.281 6.35 12.552-6.35-7.251-4.122-2.701-1.533L0 18.82zm25.775-1.19l11.156-5.682-9.946-5.292-.115-.06-11.375 5.352 10.28 5.682zM50.829 5.159L40.857 0l-11.45 5.159.001.001 9.835 5.744 11.586-5.745z"/>
</svg>
