<svg xmlns="http://www.w3.org/2000/svg" xmlns:xlink="http://www.w3.org/1999/xlink" width="100%" height="100%" version="1.1" viewBox="0 0 140 140" xml:space="preserve" style="fill-rule:evenodd;clip-rule:evenodd;stroke-linejoin:round;stroke-miterlimit:1.41421"><g><path d="M100,140L90,140L90,110L100,100L100,140ZM50,100L50,140L40,140L40,110L50,100ZM90,90L60,90L60,80L50,90L40,90L40,50L0,50L0,40L40,40L40,10L50,0L140,0L100,0L100,40L140,40L90,90ZM90,40L90,10L100,0L50,0L50,40L90,40ZM40,90L30,100L0,100L0,90L40,90Z" transform="matrix(6.12323e-17,-1,1,6.12323e-17,0,140)" style="fill:#498df8"/></g><g><path d="M140,100L140,140L100,140L100,100L140,100ZM40,100L40,140L0,140L0,100L40,100ZM90,100L90,140L50,140L50,100L90,100ZM40,50L40,90L0,90L0,50L40,50ZM40,0L40,40L0,40L0,0L40,0ZM90,0L90,40L50,40L50,0L90,0ZM140,0L140,40L100,40L100,0L140,0Z" transform="matrix(6.12323e-17,-1,1,6.12323e-17,0,140)" style="fill:#fff"/></g></svg>