<svg xmlns="http://www.w3.org/2000/svg" xmlns:xlink="http://www.w3.org/1999/xlink" width="100%" height="100%" version="1.1" viewBox="0 0 140 140" xml:space="preserve" style="fill-rule:evenodd;clip-rule:evenodd;stroke-linejoin:round;stroke-miterlimit:1.41421"><path d="M140,40L140,100L100,100L100,130L90,140L90,100L50,100L50,130L40,140L40,100L0,100L10,90L40,90L40,50L0,50L10,40L40,40L40,0L140,0L100,0L100,40L140,40ZM90,40L90,0L50,0L50,40L90,40Z" style="fill:#498df8"/><path d="M140,100L140,140L100,140L100,100L140,100ZM40,100L40,140L0,140L0,100L40,100ZM90,100L90,140L50,140L50,100L90,100ZM40,50L40,90L0,90L0,50L40,50ZM40,0L40,40L0,40L0,0L40,0ZM90,0L90,40L50,40L50,0L90,0ZM140,0L140,40L100,40L100,0L140,0Z" style="fill:#08339a"/></svg>